<?xml version="1.0" encoding="iso-8859-1"?>
<!-- Generator: Adobe Illustrator 18.0.0, SVG Export Plug-In . SVG Version: 6.00 Build 0)  -->
<!DOCTYPE svg PUBLIC "-//W3C//DTD SVG 1.1//EN" "http://www.w3.org/Graphics/SVG/1.1/DTD/svg11.dtd">
<svg version="1.1" id="Capa_1" xmlns="http://www.w3.org/2000/svg" xmlns:xlink="http://www.w3.org/1999/xlink" x="0px" y="0px"
	 viewBox="0 0 343.918 343.918" style="enable-background:new 0 0 343.918 343.918;" xml:space="preserve">
<path d="M342.015,1.905c-2.539-2.538-6.655-2.539-9.192-0.001l-0.062,0.062c-18.162,18.131-42.292,28.113-67.957,28.113
	c-34.447,0-67.251,16.526-87.751,44.209l-28.739,38.809c-3.021,4.079-6.238,7.993-9.601,11.772L64.154,50.31l18.145-3.07
	L22.841,18.188l29.051,59.458l3.072-18.142l74.736,74.736c-5.224,5.028-10.754,9.743-16.604,14.074l-38.809,28.739
	c-27.683,20.5-44.209,53.305-44.209,87.751c0,25.693-10.006,49.85-28.174,68.017c-2.539,2.539-2.539,6.654,0,9.192
	c1.27,1.27,2.933,1.904,4.596,1.904c1.663,0,3.327-0.635,4.596-1.903l163.189-163.188l63.4,63.4l15.187,31.872l36.307,36.307
	l-6.43-32.308l32.308,6.43l-36.307-36.307l-31.874-15.188l-63.398-63.398L342.014,11.097v-0.001
	C344.553,8.558,344.553,4.443,342.015,1.905z M38.519,296.207c3.004-10.058,4.559-20.611,4.559-31.403
	c0-30.345,14.559-59.243,38.946-77.303l38.809-28.739c6.366-4.714,12.382-9.849,18.059-15.329l26.201,26.201L38.519,296.207z
	 M174.285,160.44l-26.367-26.368c3.807-4.241,7.44-8.645,10.844-13.24L187.5,82.024c18.06-24.387,46.958-38.945,77.304-38.945
	c10.791,0,21.346-1.556,31.402-4.56L174.285,160.44z"/>
<g>
</g>
<g>
</g>
<g>
</g>
<g>
</g>
<g>
</g>
<g>
</g>
<g>
</g>
<g>
</g>
<g>
</g>
<g>
</g>
<g>
</g>
<g>
</g>
<g>
</g>
<g>
</g>
<g>
</g>
</svg>
