<?xml version="1.0" encoding="iso-8859-1"?>
<!-- Generator: Adobe Illustrator 18.0.0, SVG Export Plug-In . SVG Version: 6.00 Build 0)  -->
<!DOCTYPE svg PUBLIC "-//W3C//DTD SVG 1.1//EN" "http://www.w3.org/Graphics/SVG/1.1/DTD/svg11.dtd">
<svg version="1.1" id="Capa_1" xmlns="http://www.w3.org/2000/svg" xmlns:xlink="http://www.w3.org/1999/xlink" x="0px" y="0px"
	 viewBox="0 0 316.418 316.418" style="enable-background:new 0 0 316.418 316.418;" xml:space="preserve">
<path d="M295.339,58.732l-8.078-0.422c-12.972-15.468-30.946-28.427-52.194-37.576c-22.758-9.799-48.787-14.978-75.272-14.978
	c-44.73,0-86.487,14.504-115.095,39.871l-5.653-0.295c-10.333-0.528-19.482,6.657-21.479,16.716L0.452,148.305
	c-1.237,6.235,0.084,12.542,3.72,17.759c3.657,5.249,9.159,8.693,15.443,9.692l0.193,0.031
	c23.566,3.865,45.156,16.038,60.792,34.278c15.803,18.435,24.506,41.98,24.506,66.297c0,18.914,15.387,34.301,34.3,34.301h34.288
	c37.819,0,68.588-30.769,68.588-68.588v-60.481c0-6.5,5.288-11.788,11.788-11.788h40.106c12.264,0,22.241-9.977,22.241-22.241
	V80.943C316.418,69.106,307.159,59.35,295.339,58.732z M299.205,137.966c-6.007,0-10.894-4.887-10.894-10.894V101.31
	c0-6.007,4.887-10.894,10.894-10.894h4.213v47.55H299.205z M159.794,18.755c42.701,0,82.825,14.501,108.634,38.569L64.348,46.654
	C89.829,28.784,123.698,18.755,159.794,18.755z M129.335,154.952c3.099-9.062,8.038-13.874,11.925-13.874
	c3.888,0,8.827,4.812,11.926,13.874H129.335z M118.107,276.362c0-27.418-9.814-53.967-27.636-74.757
	c-17.626-20.562-41.975-34.287-68.622-38.656l-0.143-0.023c-2.811-0.447-5.25-1.972-6.869-4.294
	c-1.596-2.291-2.176-5.06-1.633-7.796l17.114-86.256c0.722-3.636,3.932-6.275,7.633-6.275c0.138,0,96.809,5.051,96.809,5.051v65.886
	c-9.691,3.534-17.295,14.952-20.167,31.073c-0.337,1.893,0.182,3.839,1.416,5.313c1.235,1.475,3.061,2.326,4.983,2.326h13.768V180.9
	h-13.408c-1.958,0-3.812,0.882-5.046,2.402c-1.233,1.52-1.718,3.515-1.316,5.431c3.132,14.951,10.565,25.586,19.771,29.006v79.398
	C125.245,295.009,118.107,286.51,118.107,276.362z M141.26,205.92c-3.617,0-8.129-4.101-11.245-12.021h22.491
	C149.389,201.819,144.877,205.92,141.26,205.92z M294.177,156.805H254.07c-13.668,0-24.788,11.12-24.788,24.788v60.481
	c0,30.651-24.937,55.588-55.588,55.588H147.76v-79.924c9.205-3.42,16.638-14.055,19.771-29.006c0.401-1.916-0.082-3.911-1.316-5.431
	c-1.234-1.52-3.088-2.402-5.046-2.402H147.76v-12.947h13.769c1.924,0,3.748-0.852,4.983-2.326c1.234-1.475,1.753-3.42,1.416-5.313
	c-2.872-16.122-10.477-27.539-20.168-31.073V64.033l146.899,7.681c3.665,0.192,6.736,2.5,8.059,5.702h-3.514
	c-13.175,0-23.894,10.719-23.894,23.894v25.762c0,13.175,10.719,23.894,23.894,23.894h3.556
	C301.403,154.381,298.071,156.805,294.177,156.805z"/>
<g>
</g>
<g>
</g>
<g>
</g>
<g>
</g>
<g>
</g>
<g>
</g>
<g>
</g>
<g>
</g>
<g>
</g>
<g>
</g>
<g>
</g>
<g>
</g>
<g>
</g>
<g>
</g>
<g>
</g>
</svg>
