<?xml version="1.0" encoding="iso-8859-1"?>
<!-- Generator: Adobe Illustrator 18.0.0, SVG Export Plug-In . SVG Version: 6.00 Build 0)  -->
<!DOCTYPE svg PUBLIC "-//W3C//DTD SVG 1.1//EN" "http://www.w3.org/Graphics/SVG/1.1/DTD/svg11.dtd">
<svg version="1.1" id="Capa_1" xmlns="http://www.w3.org/2000/svg" xmlns:xlink="http://www.w3.org/1999/xlink" x="0px" y="0px"
	 viewBox="0 0 383.56 383.56" style="enable-background:new 0 0 383.56 383.56;" xml:space="preserve">
<path d="M262.487,210.21l-5.355-5.355c-22.097-22.097-34.512-52.068-34.512-83.318v-15.72c0-3.487-2.827-6.314-6.314-6.314h-17.862
	v-7.25c12.824-2.958,22.417-14.462,22.417-28.171c0-13.71-9.592-25.223-22.417-28.18V13h9.417c3.59,0,6.5-2.91,6.5-6.5v0
	c0-3.59-2.91-6.5-6.5-6.5h-31.834c-3.59,0-6.5,2.91-6.5,6.5v0c0,3.59,2.91,6.5,6.5,6.5h9.417v29.087
	c0,3.356,2.721,6.077,6.077,6.077h0c8.161,0,15.321,5.969,16.236,14.079c0.815,7.229-3.252,13.627-9.313,16.352v-6.769
	c0-3.559-2.743-6.663-6.3-6.77c-3.681-0.11-6.7,2.841-6.7,6.497v7.042c-4.157-1.869-7.375-5.465-8.725-9.872
	c-0.833-2.719-3.245-4.643-6.089-4.643h-0.385c-4.18,0-7.248,4.001-6.087,8.017c2.894,10.008,11.063,17.796,21.286,20.155v7.25
	h-17.861c-3.487,0-6.314,2.827-6.314,6.314v15.72c0,31.25-12.414,61.221-34.512,83.318l-5.342,5.342
	c-19.238,19.238-30.523,45.24-30.495,72.446c0.029,28.628,11.887,55.43,33.259,74.824c17.242,15.646,39.532,24.866,62.788,25.974
	c28.896,1.377,56.288-9.271,76.552-29.613C302.988,314.209,302.029,249.752,262.487,210.21z M174.27,112.502h35.35v9.034
	c0,4.358,0.212,8.684,0.63,12.965H173.64c0.418-4.281,0.63-8.607,0.63-12.965V112.502z M206.199,194.657
	c2.962,12.202,5.648,22.117,8.454,31.205c11.218,36.33,10.052,88.413-2.711,121.151c-5.721,14.676-13.196,23.438-19.995,23.438
	c-6.8,0-14.275-8.762-19.996-23.438c-12.76-32.729-13.925-84.813-2.71-121.151c2.805-9.088,5.492-19.004,8.453-31.204l11.459-47.157
	h5.587L206.199,194.657z M103.922,282.536c0-23.512,9.156-45.616,25.781-62.242l6.248-6.248
	c18.473-18.473,30.739-41.498,35.755-66.545h4.067L165.06,191.59c-2.898,11.937-5.517,21.608-8.242,30.437
	c-11.977,38.809-10.679,94.571,3.02,129.708c1.751,4.491,4.322,10.134,7.773,15.413c-14.184-4.057-27.188-11.65-37.908-22.37
	C113.078,328.152,103.922,306.048,103.922,282.536z M254.187,344.778c-10.719,10.719-23.723,18.312-37.906,22.369
	c3.451-5.278,6.022-10.921,7.773-15.412c13.702-35.146,15-90.908,3.02-129.708c-2.725-8.827-5.344-18.499-8.242-30.438
	l-10.713-44.087h4.066c5.017,25.047,17.282,48.072,35.755,66.545l6.248,6.248c16.625,16.625,25.781,38.73,25.781,62.242
	S270.812,328.152,254.187,344.778z"/>
<g>
</g>
<g>
</g>
<g>
</g>
<g>
</g>
<g>
</g>
<g>
</g>
<g>
</g>
<g>
</g>
<g>
</g>
<g>
</g>
<g>
</g>
<g>
</g>
<g>
</g>
<g>
</g>
<g>
</g>
</svg>
