<?xml version="1.0" encoding="iso-8859-1"?>
<!-- Generator: Adobe Illustrator 18.0.0, SVG Export Plug-In . SVG Version: 6.00 Build 0)  -->
<!DOCTYPE svg PUBLIC "-//W3C//DTD SVG 1.1//EN" "http://www.w3.org/Graphics/SVG/1.1/DTD/svg11.dtd">
<svg version="1.1" id="Capa_1" xmlns="http://www.w3.org/2000/svg" xmlns:xlink="http://www.w3.org/1999/xlink" x="0px" y="0px"
	 viewBox="0 0 370.255 370.255" style="enable-background:new 0 0 370.255 370.255;" xml:space="preserve">
<g>
	<path d="M298.418,323.352c-5.309-22.988-11.7-45.924-18.996-68.172c-7.338-22.374-15.769-44.643-25.059-66.188l-13.811-32.034
		c-2.64-6.11-5.257-12.377-7.782-18.632c-9.476-23.409-18.05-47.45-25.487-71.457l-13.08-42.231
		c-4.545-14.641-19.804-23.413-34.729-19.967c-2.042,0.471-3.997,1.149-5.857,2.019C148.518,2.51,142.022,0,135.013,0
		c-15.329,0-28.223,11.975-29.354,27.263l-3.262,44.095c-2.354,31.818-6.449,63.867-12.173,95.255l-6.258,34.32
		c-8.451,46.34-12.736,93.72-12.736,140.824c0,12.964,10.547,23.511,23.512,23.511c8.663,0,17.291-2.141,24.949-6.192
		c4.702-2.488,10-3.803,15.321-3.803c5.32,0,10.618,1.315,15.321,3.803c7.657,4.051,16.285,6.192,24.949,6.192
		c2.167,0,4.264-0.301,6.258-0.853c4.246,3.713,9.746,5.84,15.473,5.84c1.796,0,3.584-0.206,5.294-0.607
		c4.219-0.975,8.315-2.466,12.161-4.423c3.848-1.946,7.467-4.377,10.734-7.204c0.332-0.284,1.217-0.995,1.316-1.081
		c5.736-4.468,12.878-6.925,20.145-6.925c2.292,0,4.56,0.236,6.748,0.702c0.139,0.039,1.264,0.292,1.668,0.398
		c8.385,2.234,17.263,2.38,25.701,0.434c10.741-2.47,18.242-11.889,18.242-22.904C299.024,326.851,298.819,325.063,298.418,323.352z
		 M219.895,141.134c-3.906,13.297-12.455,22.617-23.172,25.088c-5.598,1.294-11.527,0.671-17.304-1.781
		c-5.236-29.119-9.061-58.778-11.403-88.282c9.233-0.688,18.155-3.913,25.668-9.26l1.183,3.82
		C202.192,94.367,210.614,118.043,219.895,141.134z M115.657,68.331c6.177,2.562,12.763,3.852,19.352,3.852
		c6.592,0,13.18-1.291,19.359-3.854l0.295,3.988c1.83,24.743,4.708,49.623,8.563,74.237c-6.794,12.08-17.218,19.239-28.213,19.239
		c-10.995,0-21.42-7.159-28.216-19.237c3.856-24.613,6.734-49.494,8.564-74.24L115.657,68.331z M181.786,28.487l7.765,25.07
		c-6.191,5.627-14.187,9.034-22.526,9.644l-2.658-35.938c-0.256-3.465-1.122-6.757-2.479-9.781c0.171-0.045,0.335-0.104,0.508-0.144
		C170.733,15.418,179.249,20.314,181.786,28.487z M135.013,13c8.559,0,15.758,6.686,16.389,15.222l1.936,26.165
		c-11.335,6.38-25.312,6.382-36.649,0.004l1.936-26.169C119.255,19.686,126.454,13,135.013,13z M156.413,347.583
		c-6.569-3.475-13.97-5.312-21.4-5.312c-7.432,0-14.832,1.837-21.4,5.312c-5.792,3.064-12.317,4.684-18.87,4.684
		c-5.796,0-10.512-4.715-10.512-10.511c0-46.323,4.214-92.919,12.525-138.492l6.258-34.32c0.275-1.51,0.529-3.027,0.796-4.54
		c8.629,9.193,19.602,14.389,31.204,14.389s22.573-5.195,31.201-14.389c0.268,1.513,0.521,3.03,0.796,4.54l6.259,34.32
		c8.311,45.569,12.524,92.165,12.524,138.492c0,5.795-4.715,10.511-10.511,10.511C168.729,352.267,162.204,350.647,156.413,347.583z
		 M277.864,338.881c-6.387,1.474-13.082,1.365-19.448-0.33c-0.512-0.135-1.74-0.426-1.839-0.449
		c-3.219-0.721-6.554-1.087-9.912-1.087c-10.283,0-20.387,3.522-28.449,9.917c-0.071,0.056-1.061,0.866-1.494,1.237
		c-2.488,2.152-5.22,3.988-8.135,5.462c-2.919,1.486-6.017,2.613-9.227,3.355c-0.759,0.178-1.548,0.268-2.346,0.268
		c-1.219,0-2.414-0.221-3.538-0.626c3.321-4.055,5.317-9.234,5.317-14.873c0-47.107-4.285-94.487-12.735-140.824l-4.021-22.051
		c2.937,0.656,5.891,1.007,8.833,1.007c2.947,0,5.883-0.332,8.775-0.999c11.298-2.606,20.817-10.125,27.159-21.011
		c0.602,1.417,1.206,2.829,1.812,4.23l13.81,32.03c9.136,21.188,17.427,43.088,24.643,65.092
		c7.176,21.879,13.461,44.438,18.688,67.066c0.179,0.76,0.269,1.55,0.269,2.348C286.024,333.489,282.594,337.793,277.864,338.881z"
		/>
	<path d="M115.502,200.724c-3.588-0.267-6.7,2.413-6.971,5.992l-8,106c-0.271,3.58,2.412,6.701,5.992,6.971
		c0.167,0.013,0.332,0.019,0.496,0.019c3.368,0,6.217-2.598,6.475-6.011l8-106C121.765,204.115,119.082,200.994,115.502,200.724z"/>
	<path d="M161.494,206.716c-0.271-3.58-3.391-6.262-6.971-5.992c-3.58,0.27-6.263,3.391-5.992,6.971l8,106
		c0.258,3.413,3.106,6.011,6.475,6.011c0.164,0,0.33-0.006,0.496-0.019c3.58-0.27,6.263-3.391,5.992-6.971L161.494,206.716z"/>
	<path d="M221.35,201.953c-1.114-3.413-4.78-5.279-8.196-4.163c-3.412,1.113-5.276,4.783-4.163,8.195l32.976,101.058
		c0.896,2.743,3.441,4.486,6.179,4.486c0.668,0,1.348-0.104,2.018-0.323c3.412-1.113,5.276-4.783,4.163-8.195L221.35,201.953z"/>
</g>
<g>
</g>
<g>
</g>
<g>
</g>
<g>
</g>
<g>
</g>
<g>
</g>
<g>
</g>
<g>
</g>
<g>
</g>
<g>
</g>
<g>
</g>
<g>
</g>
<g>
</g>
<g>
</g>
<g>
</g>
</svg>
