<?xml version="1.0" encoding="iso-8859-1"?>
<!-- Generator: Adobe Illustrator 18.0.0, SVG Export Plug-In . SVG Version: 6.00 Build 0)  -->
<!DOCTYPE svg PUBLIC "-//W3C//DTD SVG 1.1//EN" "http://www.w3.org/Graphics/SVG/1.1/DTD/svg11.dtd">
<svg version="1.1" id="Capa_1" xmlns="http://www.w3.org/2000/svg" xmlns:xlink="http://www.w3.org/1999/xlink" x="0px" y="0px"
	 viewBox="0 0 387.496 387.496" style="enable-background:new 0 0 387.496 387.496;" xml:space="preserve">
<g>
	<path d="M295.64,231.597c7.455-8.663,11.896-19.335,12.924-30.489c7.567-2.603,13.027-9.775,13.027-18.213v-10.035
		c0-10.626-8.646-19.272-19.272-19.272h-0.455c-3.18-8.611-8.497-16.346-15.541-22.408c-9.869-8.494-22.475-13.171-35.496-13.171
		H93.805c-13.021,0-25.628,4.678-35.497,13.171c-7.044,6.062-12.361,13.797-15.541,22.408h-1.119
		c-10.627,0-19.272,8.646-19.272,19.272v10.035c0,8.694,5.789,16.055,13.713,18.447c1.069,11.069,5.5,21.653,12.902,30.255
		c10.349,12.024,25.382,18.921,41.246,18.921h42.911l22.774,22.774c4.379,4.379,10.201,6.791,16.395,6.791
		c6.192,0,12.015-2.412,16.395-6.791l22.774-22.774h42.91C270.258,250.518,285.292,243.621,295.64,231.597z M308.591,172.859v10.035
		c0,1.048-0.262,2.035-0.718,2.905l-2.797-18.565C307.154,168.256,308.591,170.39,308.591,172.859z M36.631,186.643
		c-0.784-1.047-1.255-2.342-1.255-3.749v-10.035c0-2.741,1.77-5.07,4.224-5.922L36.631,186.643z M179.518,264.1
		c-1.925,1.924-4.482,2.983-7.202,2.983c-2.721,0-5.278-1.06-7.202-2.983l-16.801-16.801c8.422-3.944,15.041-11.271,17.947-20.638
		l4.381-14.124c0.229-0.738,0.902-1.234,1.676-1.234s1.446,0.497,1.676,1.235l4.381,14.123c2.905,9.367,9.523,16.693,17.945,20.638
		L179.518,264.1z M210.75,237.518c-9.211,0-17.233-5.911-19.962-14.708l-4.381-14.124c-1.928-6.21-7.591-10.382-14.092-10.382
		c-6.503,0-12.166,4.173-14.092,10.383l-4.381,14.123c-2.729,8.798-10.752,14.708-19.963,14.708H90.237
		c-12.074,0-23.517-5.249-31.393-14.401c-7.876-9.151-11.361-21.248-9.562-33.187l3.567-23.676
		c3.077-20.423,20.301-35.246,40.955-35.246h157.021c20.653,0,37.877,14.823,40.954,35.246l3.567,23.677
		c1.8,11.939-1.686,24.035-9.562,33.187c-7.876,9.152-19.318,14.401-31.393,14.401H210.75z"/>
	<path d="M130.077,140.815H94.953c-18.995,0-34.449,15.454-34.449,34.449v25.079c0,15.594,12.686,28.28,28.279,28.28h32.148
		c12.476,0,23.637-8.362,27.141-20.335l9.146-31.249c2.525-8.629,0.882-17.705-4.51-24.9
		C147.318,144.942,139.068,140.815,130.077,140.815z M144.742,173.386l-9.146,31.249c-1.894,6.469-7.924,10.987-14.664,10.987
		H88.783c-8.425,0-15.279-6.854-15.279-15.28v-25.079c0-11.827,9.622-21.449,21.449-21.449h35.124c4.858,0,9.315,2.23,12.229,6.118
		C145.218,163.821,146.106,168.724,144.742,173.386z"/>
	<path d="M284.127,200.343v-25.079c0-18.995-15.454-34.449-34.449-34.449h-35.124c-8.991,0-17.24,4.127-22.632,11.322
		c-5.391,7.196-7.034,16.271-4.509,24.901l9.146,31.249c3.504,11.974,14.665,20.336,27.142,20.336h32.147
		C271.442,228.623,284.127,215.937,284.127,200.343z M209.036,204.635l-9.146-31.249c-1.364-4.663-0.477-9.566,2.437-13.455
		c2.913-3.888,7.369-6.117,12.228-6.117h35.124c11.827,0,21.449,9.622,21.449,21.449v25.079c0,8.425-6.854,15.28-15.279,15.28
		h-32.147C216.959,215.623,210.929,211.104,209.036,204.635z"/>
	<path d="M358.621,0h-18.246c-3.59,0-6.5,2.91-6.5,6.5v322.04c0,15.28-12.431,27.711-27.711,27.711s-27.711-12.431-27.711-27.711
		v-14.736c10.693-3.472,20.119-10.38,26.656-19.901c2.032-2.959,1.28-7.006-1.679-9.038c-2.962-2.032-7.007-1.282-9.038,1.679
		c-7.221,10.516-19.139,16.794-31.881,16.794s-24.661-6.278-31.882-16.794c-2.034-2.959-6.079-3.711-9.038-1.679
		c-2.959,2.032-3.711,6.079-1.679,9.038c6.668,9.71,16.337,16.71,27.295,20.111v14.526c0,32.509,26.447,58.957,58.956,58.957
		s58.957-26.448,58.957-58.957V6.5C365.121,2.91,362.21,0,358.621,0z M352.121,328.54c0,25.34-20.616,45.957-45.957,45.957
		c-25.34,0-45.956-20.616-45.956-45.957v-11.29h5.245v11.29c0,22.448,18.263,40.711,40.711,40.711s40.711-18.263,40.711-40.711V13
		h5.246V328.54z"/>
</g>
<g>
</g>
<g>
</g>
<g>
</g>
<g>
</g>
<g>
</g>
<g>
</g>
<g>
</g>
<g>
</g>
<g>
</g>
<g>
</g>
<g>
</g>
<g>
</g>
<g>
</g>
<g>
</g>
<g>
</g>
</svg>
