<?xml version="1.0" encoding="iso-8859-1"?>
<!-- Generator: Adobe Illustrator 18.0.0, SVG Export Plug-In . SVG Version: 6.00 Build 0)  -->
<!DOCTYPE svg PUBLIC "-//W3C//DTD SVG 1.1//EN" "http://www.w3.org/Graphics/SVG/1.1/DTD/svg11.dtd">
<svg version="1.1" id="Capa_1" xmlns="http://www.w3.org/2000/svg" xmlns:xlink="http://www.w3.org/1999/xlink" x="0px" y="0px"
	 viewBox="0 0 311.225 311.225" style="enable-background:new 0 0 311.225 311.225;" xml:space="preserve">
<path d="M303.475,129.962l-16.203-20.88c-5.589-7.203-14.027-11.334-23.152-11.334c-6.55,0-12.753,2.127-17.937,6.149
	l-121.524,94.296c-5.993,4.65-10.226,11.317-11.436,18.806c-1.312,8.113,0.759,16.204,5.768,22.659l4.12,5.31l-7.075,5.5
	l-54.478-54.637l5.486-7.386l5.383,4.006c5.092,3.789,11.131,5.792,17.464,5.792c9.223,0,18.013-4.413,23.513-11.804l92.191-123.892
	c4.877-6.555,6.784-14.682,5.311-22.766c-1.36-7.465-5.726-14.047-11.813-18.577L178.378,5.792C173.286,2.003,167.246,0,160.913,0
	c-9.223,0-18.012,4.412-23.513,11.803L45.209,135.696c-9.639,12.954-6.942,31.337,6.012,40.977l5.387,4.009L19.981,229.89
	c-0.211,0.283-7.894,10.595-8.124,10.864c-12.905,15.07-13.926,37.671-1.299,53.944c8.15,10.504,20.456,16.527,33.765,16.527
	c9.549,0,18.593-3.101,26.153-8.967c0.055-0.042,60.601-47.023,60.601-47.023l3.715,4.788c5.77,7.436,14.641,12.002,24.051,11.846
	c6.367-0.105,12.387-2.225,17.44-6.145l122.009-94.672C311.048,161.152,313.373,142.72,303.475,129.962z M160.913,13
	c3.516,0,6.871,1.113,9.704,3.222L191.821,32c3.49,2.597,5.76,6.396,6.391,10.7c0.618,4.21-0.415,8.402-2.888,11.85l-47.309-35.204
	C151.121,15.315,155.8,13,160.913,13z M55.639,143.457L140.24,29.766l47.333,35.222l-84.601,113.69
	c-3.104,4.173-7.873,6.565-13.083,6.565c-3.516,0-6.871-1.114-9.703-3.222l-21.203-15.778
	C51.779,160.883,50.279,150.66,55.639,143.457z M105.693,258.508l-18.966,14.744c1.243-11.108-1.826-22.063-8.692-30.912
	c-8.15-10.504-20.457-16.527-33.765-16.527c-1.758,0-3.498,0.107-5.215,0.314l14.664-19.744L105.693,258.508z M62.507,291.986
	c-5.26,4.081-11.548,6.238-18.185,6.238c-9.262,0-17.824-4.19-23.493-11.496c-10.041-12.94-7.683-31.637,5.257-41.678
	c5.26-4.081,11.548-6.238,18.185-6.238c9.262,0,17.824,4.19,23.493,11.496C77.805,263.249,75.447,281.945,62.507,291.986z
	 M168.314,255.452c-2.884,2.238-6.331,3.421-9.969,3.421c-5.078,0-9.773-2.297-12.881-6.303l-16.203-20.882
	c-2.666-3.437-3.835-7.705-3.291-12.021c0.545-4.316,2.737-8.162,6.174-10.828l111.962-86.877l36.169,46.613L168.314,255.452z
	 M290.538,160.596l-36.153-46.593c2.836-2.125,6.193-3.255,9.735-3.255c5.078,0,9.773,2.297,12.882,6.304l16.202,20.88
	C298.649,144.95,297.433,155.05,290.538,160.596z"/>
<g>
</g>
<g>
</g>
<g>
</g>
<g>
</g>
<g>
</g>
<g>
</g>
<g>
</g>
<g>
</g>
<g>
</g>
<g>
</g>
<g>
</g>
<g>
</g>
<g>
</g>
<g>
</g>
<g>
</g>
</svg>
