<?xml version="1.0" encoding="iso-8859-1"?>
<!-- Generator: Adobe Illustrator 18.0.0, SVG Export Plug-In . SVG Version: 6.00 Build 0)  -->
<!DOCTYPE svg PUBLIC "-//W3C//DTD SVG 1.1//EN" "http://www.w3.org/Graphics/SVG/1.1/DTD/svg11.dtd">
<svg version="1.1" id="Capa_1" xmlns="http://www.w3.org/2000/svg" xmlns:xlink="http://www.w3.org/1999/xlink" x="0px" y="0px"
	 viewBox="0 0 370.251 370.251" style="enable-background:new 0 0 370.251 370.251;" xml:space="preserve">
<g>
	<path d="M306.75,39.904C288.809,14.172,264.723,0,238.929,0c-8.657,0-17.226,1.623-25.468,4.823
		c-0.245,0.095-11.404,0.334-11.404,0.334c-46.808,0-85.286,36.344-88.702,82.293L36.884,286.438
		c-1.008,2.622-0.217,5.596,1.96,7.37c1.189,0.97,2.646,1.462,4.108,1.462c1.214,0,2.433-0.34,3.506-1.027
		c26.191-16.781,48.928-38.724,66.703-64.19c1.591,62.668,41.769,118.539,100.998,139.815c0.714,0.257,1.457,0.383,2.196,0.383
		c1.321,0,2.631-0.403,3.74-1.184c1.73-1.217,2.761-3.2,2.761-5.316v-99.169c5.292,1.26,10.669,1.904,16.072,1.904
		c25.794,0,49.88-14.172,67.821-39.904c17.443-25.019,27.05-58.167,27.05-93.339S324.194,64.923,306.75,39.904z M320.8,133.243
		c0,3.003-0.078,5.98-0.226,8.929h-12.97v-16.89h13.012C320.734,127.915,320.8,130.567,320.8,133.243z M263.782,247.816
		c-6.158,2.888-12.631,4.73-19.321,5.39v-12.375h19.321V247.816z M263.782,26.623h-19.321V13.28
		c6.69,0.659,13.163,2.502,19.321,5.39V26.623z M313.732,84.393h-6.128V67.855C309.927,73.102,311.98,78.627,313.732,84.393z
		 M295.604,84.393h-19.821v-16.88h19.821V84.393z M244.461,96.393h19.321v16.89h-19.321V96.393z M244.461,125.282h19.321v16.89
		h-19.321V125.282z M244.461,154.172h19.321v16.89h-19.321V154.172z M275.782,154.172h19.821v16.89h-19.821V154.172z
		 M275.782,142.172v-16.89h19.821v16.89H275.782z M275.782,113.282v-16.89h19.821v16.89H275.782z M263.782,84.393h-19.321v-16.88
		h19.321V84.393z M244.461,55.513v-16.89h19.321v16.89H244.461z M244.461,228.831v-16.89h19.321v16.89H244.461z M244.461,199.941
		v-16.88h19.321v16.88H244.461z M275.782,183.062h19.821v16.88h-19.821V183.062z M307.604,183.062h5.832
		c-1.686,5.417-3.639,10.618-5.832,15.569V183.062z M307.604,171.062v-16.89h11.952c-0.694,5.782-1.672,11.422-2.908,16.89H307.604z
		 M307.604,113.282v-16.89h9.258c1.202,5.471,2.143,11.11,2.804,16.89H307.604z M295.604,46.552v8.961h-19.821v-16.89h13.612
		C291.555,41.113,293.626,43.762,295.604,46.552z M222.031,15.592c3.105-0.967,6.255-1.655,9.43-2.082v239.465
		c-3.098-0.417-6.177-1.084-9.216-2.017C219.533,232.781,212.578,167.37,222.031,15.592z M157.071,148.447h17.159v66.739
		c0,35.536,13.912,66.609,35.626,80.044v20.717c-32.355-16.243-52.785-48.008-52.785-83.308V148.447z M187.231,215.187v-66.739
		h16.978c-0.231,40.646,1.071,80.72,5.648,107.376v23.035C196.037,265.748,187.231,241.675,187.231,215.187z M202.057,18.157h6.794
		c-1.51,24.985-3.901,70.592-4.518,117.29h-78.227v-41.34C126.106,52.229,160.177,18.157,202.057,18.157z M56.738,271.017
		l56.369-146.679v81.543C98.723,230.978,79.481,253.183,56.738,271.017z M126.106,226.191v-77.744h17.965v84.192
		c0,42.384,25.673,80.256,65.785,97.665v23.87C159.4,332.112,126.106,281.81,126.106,226.191z M288.536,228.831h-12.753v-16.89
		h19.821v7.993C293.366,223.091,291.005,226.061,288.536,228.831z"/>
	<circle cx="184.913" cy="117.599" r="7.256"/>
	<circle cx="151.05" cy="117.599" r="7.256"/>
</g>
<g>
</g>
<g>
</g>
<g>
</g>
<g>
</g>
<g>
</g>
<g>
</g>
<g>
</g>
<g>
</g>
<g>
</g>
<g>
</g>
<g>
</g>
<g>
</g>
<g>
</g>
<g>
</g>
<g>
</g>
</svg>
