<?xml version="1.0" encoding="iso-8859-1"?>
<!-- Generator: Adobe Illustrator 18.0.0, SVG Export Plug-In . SVG Version: 6.00 Build 0)  -->
<!DOCTYPE svg PUBLIC "-//W3C//DTD SVG 1.1//EN" "http://www.w3.org/Graphics/SVG/1.1/DTD/svg11.dtd">
<svg version="1.1" id="Capa_1" xmlns="http://www.w3.org/2000/svg" xmlns:xlink="http://www.w3.org/1999/xlink" x="0px" y="0px"
	 viewBox="0 0 442.802 442.802" style="enable-background:new 0 0 442.802 442.802;" xml:space="preserve">
<path d="M441.913,255.741c-54.086-92.487-124.069-147.486-127.021-149.782l-0.01,0.013c-0.384-0.299-0.794-0.569-1.247-0.779l-41-19
	c-0.856-0.397-1.789-0.603-2.733-0.603h-97c-0.944,0-1.876,0.206-2.733,0.603l-41,19c-0.453,0.21-0.864,0.48-1.247,0.779
	l-0.01-0.013c-2.953,2.296-72.936,57.295-127.022,149.782c-1.534,2.624-1.046,5.959,1.176,8.033
	c11.901,11.108,33.606,33.602,33.824,33.828c1.226,1.271,2.915,1.988,4.679,1.988c0.015,0,0.031,0,0.046,0
	c1.781-0.013,3.479-0.756,4.697-2.055l80.09-85.465v118.688c0,2.521,1.457,4.813,3.739,5.884
	c28.678,13.458,60.582,20.572,92.261,20.572s63.583-7.114,92.262-20.572c2.282-1.071,3.739-3.364,3.739-5.884V212.069l80.09,85.465
	c1.218,1.299,2.916,2.042,4.697,2.055c0.016,0,0.031,0,0.046,0c1.764,0,3.454-0.717,4.679-1.988
	c0.218-0.226,21.919-22.717,33.824-33.828C442.959,261.7,443.447,258.364,441.913,255.741z M340.271,217.462l-7.006-7.477
	l34.635-34.116c2.281,2.595,4.589,5.264,6.919,8.011L340.271,217.462z M359.204,166.188l-13.741,13.535
	c-11.562-12.263-20.985-21.408-28.062-27.23v-27.428C326.849,133.362,341.884,147.323,359.204,166.188z M249.068,199.923
	c0-10.017,8.149-18.167,18.167-18.167s18.167,8.149,18.167,18.167s-8.15,18.167-18.167,18.167S249.068,209.94,249.068,199.923z
	 M249.387,149.554l-17.647-17.419c10.344-6.655,19.445-15.385,26.476-25.456l5.648-8.089h3.36L249.387,149.554z M247.557,99.237
	c-6.739,9.653-15.678,17.887-25.849,23.812l-0.528,0.307c-10.265-5.909-19.288-14.155-26.094-23.849l-0.644-0.917h53.567
	L247.557,99.237z M184.446,106.977c6.993,9.96,16.006,18.597,26.25,25.202l-17.305,17.305L175.579,98.59h2.978L184.446,106.977z
	 M184.321,162.925v177.86c-5.919-1.096-11.787-2.465-17.587-4.073V112.673L184.321,162.925z M197.321,163.938l17.58-17.28v197.437
	c-5.87-0.191-11.737-0.644-17.58-1.345V163.938z M227.901,146.612l17.583,17.356v13.662c-5.804,5.664-9.417,13.562-9.417,22.292
	s3.613,16.629,9.417,22.292V342.75c-5.844,0.7-11.712,1.154-17.583,1.345V146.612z M258.484,229.831
	c2.778,0.814,5.712,1.259,8.75,1.259c3.07,0,6.035-0.454,8.84-1.285V336.71c-5.801,1.609-11.67,2.979-17.59,4.075V229.831z
	 M267.234,168.757c-3.038,0-5.972,0.445-8.75,1.259v-7.1l17.59-50.26v57.386C273.27,169.21,270.305,168.757,267.234,168.757z
	 M125.401,125.064v27.37c-7.078,5.814-16.514,14.967-28.098,27.252l-13.705-13.499C100.918,147.323,115.954,133.362,125.401,125.064
	z M67.983,183.88c2.33-2.747,4.638-5.416,6.919-8.011l34.635,34.116l-7.006,7.477L67.983,183.88z M14.733,257.873
	c14.373-24.011,29.917-45.455,44.925-63.955l12.379,12.032C50.682,230.155,30.242,254.912,22,264.982
	C19.495,262.499,17.026,260.078,14.733,257.873z M40.487,283.67c-2.471-2.538-5.715-5.853-9.258-9.438
	c7.506-9.186,28.309-34.445,50.14-59.21l12.271,11.928L40.487,283.67z M118.43,200.496l-11.863-11.685
	c7.185-7.628,13.481-13.982,18.835-19.011v23.257L118.43,200.496z M138.401,115.242l15.333-7.105v224.514
	c-5.195-1.819-10.314-3.84-15.333-6.071V115.242z M304.401,326.58c-5.017,2.23-10.134,4.25-15.327,6.068V222.13
	c5.752-5.657,9.327-13.521,9.327-22.207s-3.575-16.55-9.327-22.207v-69.577l15.327,7.103L304.401,326.58z M317.401,169.866
	c5.347,5.027,11.63,11.371,18.798,18.981l-11.826,11.648l-6.971-7.439V169.866z M402.316,283.67l-53.154-56.721l12.271-11.927
	c21.827,24.761,42.634,50.024,50.141,59.21C408.03,277.818,404.787,281.133,402.316,283.67z M420.802,264.982
	c-8.242-10.07-28.682-34.827-50.037-59.031l12.379-12.032c15.008,18.5,30.552,39.944,44.925,63.955
	C425.777,260.078,423.307,262.499,420.802,264.982z"/>
<g>
</g>
<g>
</g>
<g>
</g>
<g>
</g>
<g>
</g>
<g>
</g>
<g>
</g>
<g>
</g>
<g>
</g>
<g>
</g>
<g>
</g>
<g>
</g>
<g>
</g>
<g>
</g>
<g>
</g>
</svg>
