<?xml version="1.0" encoding="iso-8859-1"?>
<!-- Generator: Adobe Illustrator 18.0.0, SVG Export Plug-In . SVG Version: 6.00 Build 0)  -->
<!DOCTYPE svg PUBLIC "-//W3C//DTD SVG 1.1//EN" "http://www.w3.org/Graphics/SVG/1.1/DTD/svg11.dtd">
<svg version="1.1" id="Capa_1" xmlns="http://www.w3.org/2000/svg" xmlns:xlink="http://www.w3.org/1999/xlink" x="0px" y="0px"
	 viewBox="0 0 255.365 255.365" style="enable-background:new 0 0 255.365 255.365;" xml:space="preserve">
<path d="M255.218,200.11l-0.032,0.001c-0.976-49.326-41.4-89.153-90.956-89.153c-2.06,0-5.417-0.053-8.153-0.103l-19.736-55.57
	c-0.921-2.592-3.374-4.324-6.125-4.324H86.069c-15.143,0-28.17-10.288-31.681-25.018C51.718,14.738,41.807,6.912,30.288,6.912H6.5
	c-3.59,0-6.5,2.91-6.5,6.5v188.525c0,0.033,0.005,0.064,0.005,0.096v28.401c0,9.936,8.079,18.02,18.01,18.02h219.18
	c9.932,0,18.011-8.084,18.011-18.02c0-1.285,0.024-3.313,0.055-5.774C255.343,217.769,255.468,207.358,255.218,200.11z
	 M242.209,201.937c0,2.766-2.25,5.016-5.017,5.016h-50.703v-79.741C218.673,136.817,242.209,166.673,242.209,201.937z
	 M173.489,124.526v82.426h-16v-83.07c2.398,0.04,4.982,0.075,6.74,0.075C167.364,123.958,170.45,124.165,173.489,124.526z
	 M13,201.934v-85.1h14.489v4.5c0,3.59,2.91,6.5,6.5,6.5h46c3.59,0,6.5-2.91,6.5-6.5v-4.5h57.916l0.084,0.238v89.88H18.016
	c-2.749,0-4.984-2.225-5.011-4.967v-0.051H13z M27.489,103.835H13v-11h14.489V103.835z M40.489,114.835v-34h33v34H40.489z
	 M86.489,92.835h49.392l3.907,11H86.489V92.835z M30.288,19.912c5.475,0,10.185,3.72,11.454,9.045
	c4.912,20.609,23.14,35.004,44.327,35.004h39.557l5.638,15.874H86.489v-5.5c0-3.59-2.91-6.5-6.5-6.5h-46c-3.59,0-6.5,2.91-6.5,6.5
	v5.5H13V19.912H30.288z M242.205,230.434c0,2.768-2.248,5.02-5.011,5.02H18.015c-2.763,0-5.01-2.252-5.01-5.02v-11.205
	c1.593,0.462,3.271,0.724,5.011,0.724h219.177c1.782,0,3.501-0.27,5.128-0.753c-0.019,1.9-0.04,3.701-0.059,5.303
	C242.229,227.032,242.205,229.114,242.205,230.434z"/>
<g>
</g>
<g>
</g>
<g>
</g>
<g>
</g>
<g>
</g>
<g>
</g>
<g>
</g>
<g>
</g>
<g>
</g>
<g>
</g>
<g>
</g>
<g>
</g>
<g>
</g>
<g>
</g>
<g>
</g>
</svg>
