<?xml version="1.0" encoding="iso-8859-1"?>
<!-- Generator: Adobe Illustrator 18.0.0, SVG Export Plug-In . SVG Version: 6.00 Build 0)  -->
<!DOCTYPE svg PUBLIC "-//W3C//DTD SVG 1.1//EN" "http://www.w3.org/Graphics/SVG/1.1/DTD/svg11.dtd">
<svg version="1.1" id="Capa_1" xmlns="http://www.w3.org/2000/svg" xmlns:xlink="http://www.w3.org/1999/xlink" x="0px" y="0px"
	 viewBox="0 0 364.475 364.475" style="enable-background:new 0 0 364.475 364.475;" xml:space="preserve">
<path d="M357.975,48.008H6.5c-3.59,0-6.5,2.91-6.5,6.5v255.459c0,3.59,2.91,6.5,6.5,6.5h351.475c3.59,0,6.5-2.91,6.5-6.5V54.508
	C364.475,50.918,361.564,48.008,357.975,48.008z M351.475,75.798c-6.883-2.196-12.246-7.786-14.157-14.79h14.157V75.798z
	 M336.443,137.678c-3.59,0-6.5,2.91-6.5,6.5v76.119c0,3.59,2.91,6.5,6.5,6.5h15.031v10.623h-41.7V127.055h41.7v10.623H336.443z
	 M351.475,150.678v63.119h-8.531v-63.119H351.475z M303.274,114.055c-3.59,0-6.5,2.91-6.5,6.5v14.918
	c-22.945,3.208-40.675,22.962-40.675,46.761c0,23.803,17.73,43.56,40.675,46.769v14.918c0,3.59,2.91,6.5,6.5,6.5h48.2v24.869
	c-14.07,2.7-25.119,13.987-27.464,28.178H188.737v-74.454c22.979-3.178,40.733-22.937,40.733-46.776s-17.755-43.598-40.733-46.776
	V61.008H324.01c2.344,14.193,13.393,25.481,27.464,28.181v24.866H303.274z M296.774,215.83
	c-15.746-3.074-27.675-16.975-27.675-33.597c0-16.618,11.929-30.516,27.675-33.589V215.83z M13,275.289V250.42h48.2
	c3.59,0,6.5-2.91,6.5-6.5v-14.917c22.947-3.208,40.678-22.965,40.678-46.77c0-23.8-17.731-43.554-40.678-46.761v-14.917
	c0-3.59-2.91-6.5-6.5-6.5H13V89.189c14.071-2.7,25.12-13.988,27.464-28.181h135.273v74.454
	c-22.979,3.178-40.733,22.937-40.733,46.776s17.755,43.598,40.733,46.776v74.454H40.464C38.119,289.275,27.07,277.989,13,275.289z
	 M28.031,226.797c3.59,0,6.5-2.91,6.5-6.5v-76.119c0-3.59-2.91-6.5-6.5-6.5H13v-10.623h41.7V237.42H13v-10.623H28.031z M13,213.797
	v-63.119h8.531v63.119H13z M67.7,148.644c15.747,3.072,27.678,16.97,27.678,33.589c0,16.624-11.93,30.526-27.678,33.598V148.644z
	 M175.737,215.844c-15.777-3.046-27.733-16.953-27.733-33.607s11.956-30.561,27.733-33.607V215.844z M188.737,148.63
	c15.777,3.046,27.733,16.953,27.733,33.607s-11.956,30.561-27.733,33.607V148.63z M27.157,61.008
	C25.246,68.012,19.883,73.602,13,75.798v-14.79H27.157z M13,288.679c6.882,2.196,12.244,7.785,14.156,14.787H13V288.679z
	 M337.318,303.467c1.912-7.003,7.274-12.591,14.156-14.787v14.787H337.318z"/>
<g>
</g>
<g>
</g>
<g>
</g>
<g>
</g>
<g>
</g>
<g>
</g>
<g>
</g>
<g>
</g>
<g>
</g>
<g>
</g>
<g>
</g>
<g>
</g>
<g>
</g>
<g>
</g>
<g>
</g>
</svg>
