<?xml version="1.0" encoding="iso-8859-1"?>
<!-- Generator: Adobe Illustrator 18.0.0, SVG Export Plug-In . SVG Version: 6.00 Build 0)  -->
<!DOCTYPE svg PUBLIC "-//W3C//DTD SVG 1.1//EN" "http://www.w3.org/Graphics/SVG/1.1/DTD/svg11.dtd">
<svg version="1.1" id="Capa_1" xmlns="http://www.w3.org/2000/svg" xmlns:xlink="http://www.w3.org/1999/xlink" x="0px" y="0px"
	 viewBox="0 0 255.222 255.222" style="enable-background:new 0 0 255.222 255.222;" xml:space="preserve">
<g>
	<path d="M232.61,55.106C208.783,20.6,169.49,0,127.503,0c-25.94,0-50.975,7.819-72.397,22.612
		C-2.791,62.591-17.368,142.219,22.612,200.116c23.826,34.504,63.118,55.104,105.106,55.106c0.003,0,0.002,0,0.005,0
		c25.936,0,50.972-7.82,72.393-22.612C258.012,192.631,272.589,113.003,232.61,55.106z M192.729,221.913
		c-19.241,13.287-41.72,20.309-65.006,20.309c-0.001,0-0.003,0-0.004,0c-37.718-0.001-73.011-18.503-94.41-49.493
		C-2.597,140.731,10.495,69.215,62.493,33.309C81.734,20.022,104.214,13,127.503,13c37.716,0,73.009,18.502,94.41,49.493
		C257.819,114.491,244.727,186.006,192.729,221.913z"/>
	<circle cx="65.608" cy="69.547" r="13.93"/>
	<circle cx="65.608" cy="116.04" r="13.93"/>
	<circle cx="109.737" cy="71.911" r="13.93"/>
</g>
<g>
</g>
<g>
</g>
<g>
</g>
<g>
</g>
<g>
</g>
<g>
</g>
<g>
</g>
<g>
</g>
<g>
</g>
<g>
</g>
<g>
</g>
<g>
</g>
<g>
</g>
<g>
</g>
<g>
</g>
</svg>
