<?xml version="1.0" encoding="iso-8859-1"?>
<!-- Generator: Adobe Illustrator 18.0.0, SVG Export Plug-In . SVG Version: 6.00 Build 0)  -->
<!DOCTYPE svg PUBLIC "-//W3C//DTD SVG 1.1//EN" "http://www.w3.org/Graphics/SVG/1.1/DTD/svg11.dtd">
<svg version="1.1" id="Capa_1" xmlns="http://www.w3.org/2000/svg" xmlns:xlink="http://www.w3.org/1999/xlink" x="0px" y="0px"
	 viewBox="0 0 338.814 338.814" style="enable-background:new 0 0 338.814 338.814;" xml:space="preserve">
<path d="M332.342,303.989l-145.46-133.717L334.151,10.061c2.192-2.385,2.096-6.078-0.217-8.345c-2.313-2.267-6.009-2.29-8.348-0.051
	L167.729,152.67L10.062,7.739C7.677,5.547,3.983,5.643,1.717,7.956c-2.267,2.313-2.29,6.007-0.051,8.348l147.466,154.157
	L9.25,304.271c-3.922,3.765-6.113,8.833-6.168,14.27c-0.056,5.437,2.031,10.549,5.876,14.395c3.791,3.79,8.829,5.877,14.188,5.877
	c5.587,0,10.963-2.354,14.758-6.467l130.391-141.851l135.978,142.147c3.766,3.924,8.834,6.117,14.27,6.173
	c0.071,0,0.143,0.001,0.214,0.001c5.356,0,10.384-2.082,14.179-5.876c3.9-3.901,5.986-9.086,5.874-14.602
	C338.697,312.825,336.402,307.731,332.342,303.989z M304.792,315.824l-8.297-8.673l10.324-10.324l8.842,8.128L304.792,315.824z
	 M174.017,166.536c-0.01,0.011-0.022,0.018-0.032,0.029s-0.016,0.024-0.026,0.035L53.196,297.976l-9.782-9.781l155.549-148.797
	L174.017,166.536z M36.94,315.661l-10.872-10.872l8.673-8.297l10.327,10.327L36.94,315.661z M139.41,142.939l19.629,18.044
	l-1.237,1.183L139.41,142.939z M17.444,324.45c-1.545-1.545-2.384-3.601-2.362-5.787c0.022-2.111,0.85-4.079,2.321-5.569
	l11.395,11.395c-1.516,1.495-3.504,2.323-5.652,2.323C20.992,326.812,18.967,325.973,17.444,324.45z M178.762,179.107
	l119.215,109.591l-9.779,9.779L176.432,181.641L178.762,179.107z M324.449,324.454c-1.525,1.524-3.545,2.361-5.697,2.361
	c-0.028,0-0.057,0-0.086,0c-2.111-0.022-4.078-0.852-5.569-2.324l11.392-11.392c1.453,1.472,2.279,3.401,2.321,5.484
	C326.857,320.799,326.018,322.885,324.449,324.454z"/>
<g>
</g>
<g>
</g>
<g>
</g>
<g>
</g>
<g>
</g>
<g>
</g>
<g>
</g>
<g>
</g>
<g>
</g>
<g>
</g>
<g>
</g>
<g>
</g>
<g>
</g>
<g>
</g>
<g>
</g>
</svg>
