<?xml version="1.0" encoding="iso-8859-1"?>
<!-- Generator: Adobe Illustrator 18.0.0, SVG Export Plug-In . SVG Version: 6.00 Build 0)  -->
<!DOCTYPE svg PUBLIC "-//W3C//DTD SVG 1.1//EN" "http://www.w3.org/Graphics/SVG/1.1/DTD/svg11.dtd">
<svg version="1.1" id="Capa_1" xmlns="http://www.w3.org/2000/svg" xmlns:xlink="http://www.w3.org/1999/xlink" x="0px" y="0px"
	 viewBox="0 0 305.823 305.823" style="enable-background:new 0 0 305.823 305.823;" xml:space="preserve">
<g>
	<path d="M290.34,77.487C264.357,29.691,214.455,0,160.109,0c-1.147,0-2.288,0.013-3.441,0.039
		c-80.6,1.83-145.513,68.955-144.701,149.632c0.423,42.072,18.834,82.132,50.513,109.908c5.686,4.985,12.954,7.73,20.466,7.73
		c0,0,0,0,0,0c3.532,0,7.011-0.604,10.337-1.796c11.948-4.279,21.778-12.824,27.679-24.061c0.211-0.401,0.403-0.809,0.602-1.214
		l82.113,34.675l22.777,28.47c1.283,1.604,3.173,2.439,5.079,2.439c1.425,0,2.858-0.466,4.057-1.425
		c2.803-2.242,3.258-6.333,1.015-9.136l-22.187-27.734l6.442-76.451c0.272-0.07,0.545-0.132,0.815-0.213
		c9.071-2.721,15.165-10.911,15.165-20.381v-20.048c0-10.742,6.787-20.413,16.889-24.064l20.807-7.52
		c8.038-2.906,14.391-9.157,17.427-17.151C294.978,93.757,294.387,84.932,290.34,77.487z M125.061,205.007l-2.761-10.395
		c-3-11.292,3.724-23.003,14.989-26.104l35.527-9.783c1.401-0.386,2.841-0.581,4.279-0.581c6.688,0,12.748,4.217,15.079,10.493
		l3.438,9.256c2.15,5.789,6.705,10.245,12.264,12.416l-5.879,69.784l-76.228-32.189C127.281,220.385,127.07,212.568,125.061,205.007
		z M279.808,97.086c-1.689,4.447-5.222,7.925-9.692,9.54l-20.807,7.52c-15.234,5.507-25.47,20.092-25.47,36.291v20.048
		c0,3.685-2.371,6.871-5.899,7.93c-0.779,0.233-1.581,0.352-2.383,0.352c-3.44,0-6.558-2.17-7.757-5.398l-3.438-9.257
		c-4.214-11.345-15.171-18.967-27.266-18.967c-2.604,0-5.205,0.353-7.73,1.048l-35.527,9.783
		c-18.113,4.987-28.926,23.817-24.103,41.976l2.761,10.395c4.961,18.678-5.404,38.414-23.597,44.931
		c-1.917,0.687-3.919,1.034-5.954,1.034c0,0,0,0,0,0c-4.357,0-8.582-1.6-11.896-4.506c-28.901-25.34-45.698-61.885-46.084-100.264
		C24.225,75.941,83.439,14.705,156.962,13.035c1.055-0.023,2.098-0.035,3.146-0.035c49.579,0,95.104,27.089,118.81,70.696
		C281.154,87.808,281.478,92.688,279.808,97.086z"/>
	<path d="M113.901,117.726c-1.174-3.394-4.877-5.19-8.268-4.018c-3.393,1.174-5.191,4.875-4.017,8.268l7.395,21.373
		c0.93,2.689,3.448,4.377,6.142,4.377c0.705,0,1.422-0.116,2.126-0.359c3.393-1.174,5.191-4.875,4.017-8.268L113.901,117.726z"/>
	<path d="M136.962,109.746c-1.174-3.394-4.878-5.19-8.268-4.018c-3.392,1.174-5.191,4.875-4.017,8.268l7.395,21.374
		c0.93,2.689,3.448,4.377,6.142,4.377c0.705,0,1.422-0.116,2.126-0.359c3.392-1.174,5.191-4.875,4.017-8.268L136.962,109.746z"/>
	<path d="M160.022,101.768c-1.174-3.393-4.872-5.192-8.268-4.018c-3.393,1.174-5.191,4.876-4.017,8.268l7.396,21.373
		c0.931,2.689,3.448,4.377,6.143,4.377c0.704,0,1.422-0.116,2.125-0.359c3.393-1.174,5.191-4.876,4.018-8.268L160.022,101.768z"/>
</g>
<g>
</g>
<g>
</g>
<g>
</g>
<g>
</g>
<g>
</g>
<g>
</g>
<g>
</g>
<g>
</g>
<g>
</g>
<g>
</g>
<g>
</g>
<g>
</g>
<g>
</g>
<g>
</g>
<g>
</g>
</svg>
