<?xml version="1.0" encoding="iso-8859-1"?>
<!-- Generator: Adobe Illustrator 18.0.0, SVG Export Plug-In . SVG Version: 6.00 Build 0)  -->
<!DOCTYPE svg PUBLIC "-//W3C//DTD SVG 1.1//EN" "http://www.w3.org/Graphics/SVG/1.1/DTD/svg11.dtd">
<svg version="1.1" id="Capa_1" xmlns="http://www.w3.org/2000/svg" xmlns:xlink="http://www.w3.org/1999/xlink" x="0px" y="0px"
	 viewBox="0 0 344.565 344.565" style="enable-background:new 0 0 344.565 344.565;" xml:space="preserve">
<path d="M341.764,131.743c-1.829-1.266-3.788-2.613-5.862-4.04c-16.789-11.546-39.781-27.358-63.396-47.572
	c-8.144-6.97-15.514-14.308-21.904-21.811c-19.022-22.333-43.371-36.89-72.368-43.265c-28.732-6.313-60.387-1.262-94.091,15.018
	C56.766,43.297,33.897,61.129,19.534,73.761c-9.99,8.785-16.06,21.44-16.649,34.72l-2.878,64.755
	c-0.118,2.642,1.376,5.09,3.777,6.194c122.343,56.26,223.17,150.018,224.175,150.958c1.214,1.138,2.807,1.756,4.443,1.756
	c0.376,0,16.145-2.748,16.145-2.748c21.329-3.765,36.811-22.217,36.811-43.876v-32.748c0-2.499-1.433-4.776-3.685-5.858
	c-2.252-1.084-4.926-0.778-6.876,0.783l-28.121,22.497l-69.938-47.893c-3.891-2.664-5.852-7.382-4.996-12.02l3.649-19.765
	l88.381-9.62c3.299-0.359,5.797-3.145,5.797-6.462V156.3l7.362-0.92c3.252-0.407,5.693-3.172,5.693-6.45v-14.006
	c23.693,7.952,42.668,10.834,56.488,8.579c2.616-0.428,4.71-2.4,5.293-4.985C344.989,135.931,343.944,133.252,341.764,131.743z
	 M256.569,168.603l-78.714,8.568l0.191-1.034c0.949-5.142,5.072-9.031,10.261-9.68l68.263-8.533V168.603z M278.516,119.692
	c-0.094-0.037-0.188-0.072-0.283-0.104c-4.935-1.822-10.133-3.881-15.454-6.12c-0.067-0.028-0.134-0.055-0.201-0.081
	c-0.562-0.214-13.912-5.282-28.986-8.122c-22.315-4.205-36.918-1.277-43.404,8.702c-1.956,3.01-1.103,7.035,1.908,8.992
	c3.008,1.955,7.034,1.102,8.992-1.907c6.1-9.388,37.432-2.906,56.752,4.441c4.012,1.688,7.959,3.276,11.785,4.744v12.954
	l-82.932,10.366c-10.836,1.355-19.449,9.481-21.431,20.221l-6.304,34.144c-1.788,9.686,2.308,19.54,10.434,25.105l73.911,50.613
	c2.361,1.616,5.501,1.5,7.733-0.288l21.32-17.057v19.224c0,15.34-10.964,28.408-26.07,31.073l-11.858,2.093
	c-16.005-14.51-109.281-96.82-221.242-149.225l2.685-60.402c0.141-3.157,0.708-6.264,1.652-9.244l106.439,57.268
	c0.98,0.527,2.034,0.777,3.074,0.777c2.315,0,4.557-1.239,5.729-3.421c1.701-3.162,0.518-7.104-2.644-8.804L23.598,88.321
	c1.353-1.725,2.859-3.338,4.52-4.799c3.704-3.258,7.36-6.33,10.97-9.245l76.527,38.556c0.938,0.473,1.937,0.696,2.92,0.696
	c2.377,0,4.667-1.309,5.81-3.576c1.615-3.206,0.326-7.114-2.88-8.729L50.512,65.476c61.204-44.857,106.887-41.69,124.93-37.724
	c26.163,5.752,48.121,18.872,65.263,38.997c6.832,8.021,14.688,15.846,23.348,23.258c18.758,16.056,37.604,29.72,52.612,40.198
	C305.884,128.576,293.029,125.045,278.516,119.692z"/>
<g>
</g>
<g>
</g>
<g>
</g>
<g>
</g>
<g>
</g>
<g>
</g>
<g>
</g>
<g>
</g>
<g>
</g>
<g>
</g>
<g>
</g>
<g>
</g>
<g>
</g>
<g>
</g>
<g>
</g>
</svg>
