<?xml version="1.0" encoding="iso-8859-1"?>
<!-- Generator: Adobe Illustrator 18.0.0, SVG Export Plug-In . SVG Version: 6.00 Build 0)  -->
<!DOCTYPE svg PUBLIC "-//W3C//DTD SVG 1.1//EN" "http://www.w3.org/Graphics/SVG/1.1/DTD/svg11.dtd">
<svg version="1.1" id="Capa_1" xmlns="http://www.w3.org/2000/svg" xmlns:xlink="http://www.w3.org/1999/xlink" x="0px" y="0px"
	 viewBox="0 0 331.792 331.792" style="enable-background:new 0 0 331.792 331.792;" xml:space="preserve">
<path d="M220.396,103.084V88.25c0-15.24-9.68-28.261-23.215-33.24V43.604c0-8.477-6.896-15.372-15.373-15.372V7.593
	c0-4.194-3.4-7.593-7.593-7.593h-16.636c-4.194,0-7.593,3.4-7.593,7.593v20.639c-8.477,0-15.372,6.896-15.372,15.372V55.01
	c-13.535,4.979-23.216,18-23.216,33.24v14.834c0,11.925,5.933,22.484,14.997,28.902c-9.063,6.418-14.997,16.978-14.997,28.902
	V296.39c0,19.552,15.85,35.402,35.402,35.402h38.194c19.552,0,35.402-15.85,35.402-35.402V160.889
	c0-11.925-5.933-22.484-14.997-28.902C214.462,125.568,220.396,115.009,220.396,103.084z M162.984,13h5.823v15.232h-5.823V13z
	 M149.984,41.232h6.442c0.02,0,0.039,0.003,0.058,0.003s0.039-0.003,0.058-0.003h18.707c0.02,0,0.039,0.003,0.058,0.003
	s0.039-0.003,0.058-0.003h6.442c1.309,0,2.373,1.064,2.373,2.372v9.243h-36.568v-9.243
	C147.612,42.297,148.677,41.232,149.984,41.232z M207.396,160.889V296.39c0,12.353-10.05,22.402-22.402,22.402h-38.194
	c-12.353,0-22.402-10.05-22.402-22.402V160.889c0-12.353,10.05-22.402,22.402-22.402h38.194
	C197.346,138.486,207.396,148.536,207.396,160.889z M207.396,103.084c0,12.353-10.05,22.402-22.402,22.402h-38.194
	c-12.353,0-22.402-10.05-22.402-22.402V88.25c0-12.353,10.05-22.402,22.402-22.402h38.194c12.353,0,22.402,10.05,22.402,22.402
	V103.084z"/>
<g>
</g>
<g>
</g>
<g>
</g>
<g>
</g>
<g>
</g>
<g>
</g>
<g>
</g>
<g>
</g>
<g>
</g>
<g>
</g>
<g>
</g>
<g>
</g>
<g>
</g>
<g>
</g>
<g>
</g>
</svg>
