<?xml version="1.0" encoding="iso-8859-1"?>
<!-- Generator: Adobe Illustrator 18.0.0, SVG Export Plug-In . SVG Version: 6.00 Build 0)  -->
<!DOCTYPE svg PUBLIC "-//W3C//DTD SVG 1.1//EN" "http://www.w3.org/Graphics/SVG/1.1/DTD/svg11.dtd">
<svg version="1.1" id="Capa_1" xmlns="http://www.w3.org/2000/svg" xmlns:xlink="http://www.w3.org/1999/xlink" x="0px" y="0px"
	 viewBox="0 0 355.797 355.797" style="enable-background:new 0 0 355.797 355.797;" xml:space="preserve">
<g>
	<path d="M354.35,173.81l-4.088-5.053c-42.294-52.278-105.119-82.261-172.363-82.261c-67.245,0-130.069,29.983-172.363,82.261
		l-4.088,5.053c-1.929,2.384-1.929,5.792,0,8.177l4.088,5.053c42.294,52.278,105.119,82.261,172.363,82.261
		c67.244,0,130.068-29.983,172.363-82.261l4.088-5.053C356.279,179.602,356.279,176.194,354.35,173.81z M15.642,178.863
		l-0.781-0.965l0.781-0.965c8.799-10.876,18.546-20.724,29.07-29.472v60.873C34.188,199.587,24.441,189.74,15.642,178.863z
		 M57.712,218.301v-80.806c34.75-24.535,76.475-38,120.187-38c43.711,0,85.433,13.464,120.183,37.998v80.811
		c-34.75,24.534-76.472,37.998-120.183,37.998C134.186,256.301,92.462,242.836,57.712,218.301z M340.155,178.863
		c-8.8,10.878-18.548,20.726-29.073,29.475v-60.879c10.525,8.749,20.273,18.597,29.073,29.475l0.781,0.965L340.155,178.863z"/>
	<path d="M262.463,171.398h-23.22v-13.189c0-3.59-2.91-6.5-6.5-6.5s-6.5,2.91-6.5,6.5v13.189H202.34v-13.189
		c0-3.59-2.91-6.5-6.5-6.5s-6.5,2.91-6.5,6.5v13.189h-23.903v-13.189c0-3.59-2.91-6.5-6.5-6.5s-6.5,2.91-6.5,6.5v13.189h-23.902
		v-13.189c0-3.59-2.91-6.5-6.5-6.5s-6.5,2.91-6.5,6.5v13.189H90.828c-3.59,0-6.5,2.91-6.5,6.5s2.91,6.5,6.5,6.5h24.707v13.189
		c0,3.59,2.91,6.5,6.5,6.5s6.5-2.91,6.5-6.5v-13.189h23.902v13.189c0,3.59,2.91,6.5,6.5,6.5s6.5-2.91,6.5-6.5v-13.189h23.903v13.189
		c0,3.59,2.91,6.5,6.5,6.5s6.5-2.91,6.5-6.5v-13.189h23.902v13.189c0,3.59,2.91,6.5,6.5,6.5s6.5-2.91,6.5-6.5v-13.189h23.22
		c3.59,0,6.5-2.91,6.5-6.5S266.052,171.398,262.463,171.398z"/>
</g>
<g>
</g>
<g>
</g>
<g>
</g>
<g>
</g>
<g>
</g>
<g>
</g>
<g>
</g>
<g>
</g>
<g>
</g>
<g>
</g>
<g>
</g>
<g>
</g>
<g>
</g>
<g>
</g>
<g>
</g>
</svg>
