<?xml version="1.0" encoding="iso-8859-1"?>
<!-- Generator: Adobe Illustrator 18.0.0, SVG Export Plug-In . SVG Version: 6.00 Build 0)  -->
<!DOCTYPE svg PUBLIC "-//W3C//DTD SVG 1.1//EN" "http://www.w3.org/Graphics/SVG/1.1/DTD/svg11.dtd">
<svg version="1.1" id="Capa_1" xmlns="http://www.w3.org/2000/svg" xmlns:xlink="http://www.w3.org/1999/xlink" x="0px" y="0px"
	 viewBox="0 0 340.001 340.001" style="enable-background:new 0 0 340.001 340.001;" xml:space="preserve">
<g>
	<path d="M339.432,146.03c-19.483-43.463-50.553-71.951-66.422-84.496c-5.454-4.311-11.39-7.954-17.694-10.887
		c-12.09-5.625-34.082-15.856-34.082-15.856c-0.856-0.397-1.789-0.603-2.733-0.603h-97c-0.944,0-1.877,0.206-2.733,0.603
		c0,0-21.992,10.231-34.082,15.856c-6.304,2.933-12.239,6.576-17.694,10.887c-15.87,12.544-46.939,41.033-66.422,84.496
		c-1.137,2.536-0.535,5.514,1.496,7.411c14.702,13.722,41.487,41.481,41.757,41.76c1.271,1.318,2.972,1.988,4.681,1.988
		c1.476,0,2.957-0.5,4.17-1.515L74,177.825v101.531c0,2.53,1.474,4.822,3.765,5.897c28.672,13.45,60.565,20.559,92.235,20.559
		s63.563-7.109,92.235-20.559c2.291-1.075,3.765-3.366,3.765-5.897V177.825l21.328,17.849c1.213,1.015,2.694,1.515,4.17,1.515
		c1.709,0,3.41-0.67,4.681-1.988c0.27-0.279,27.055-28.038,41.757-41.76C339.967,151.544,340.569,148.566,339.432,146.03z
		 M210.865,47.189l-6.209,8.895c-8.645,12.381-20.111,22.944-33.159,30.545l-1.518,0.884l-0.8-0.46
		c-13.191-7.583-24.785-18.172-33.528-30.624l-6.487-9.24H210.865z M48.963,181.826c-7.441-7.656-23.124-23.683-34.6-34.648
		C32.213,109.842,59.431,84.437,74,72.655v88.217L48.963,181.826z M253,275.179c-25.982,11.547-54.586,17.633-83,17.633
		s-57.018-6.086-83-17.633V63.841l28.649-13.277l9.362,13.335c9.827,13.997,22.86,25.901,37.688,34.425l4.062,2.334
		c1.003,0.576,2.121,0.865,3.239,0.865c1.131,0,2.261-0.295,3.271-0.884l4.767-2.777c14.668-8.545,27.558-20.418,37.275-34.336
		l9.046-12.957L253,63.841V275.179z M291.038,181.826L266,160.873V72.635c14.556,11.748,41.747,37.104,59.638,74.542
		C314.162,158.143,298.479,174.169,291.038,181.826z"/>
	<path d="M191.167,138.933c-14.395,0-25.249,17.948-25.249,41.748s10.854,41.748,25.249,41.748s25.25-17.948,25.25-41.748
		S205.562,138.933,191.167,138.933z M191.167,209.43c-4.994,0-12.249-11.199-12.249-28.748s7.255-28.748,12.249-28.748
		c4.995,0,12.25,11.199,12.25,28.748S196.163,209.43,191.167,209.43z"/>
	<polygon points="121.918,163.144 131.804,171.586 141.082,160.721 141.082,222.43 154.082,222.43 154.082,143.1 142.639,138.879 	
		"/>
</g>
<g>
</g>
<g>
</g>
<g>
</g>
<g>
</g>
<g>
</g>
<g>
</g>
<g>
</g>
<g>
</g>
<g>
</g>
<g>
</g>
<g>
</g>
<g>
</g>
<g>
</g>
<g>
</g>
<g>
</g>
</svg>
