<?xml version="1.0" encoding="iso-8859-1"?>
<!-- Generator: Adobe Illustrator 18.0.0, SVG Export Plug-In . SVG Version: 6.00 Build 0)  -->
<!DOCTYPE svg PUBLIC "-//W3C//DTD SVG 1.1//EN" "http://www.w3.org/Graphics/SVG/1.1/DTD/svg11.dtd">
<svg version="1.1" id="Capa_1" xmlns="http://www.w3.org/2000/svg" xmlns:xlink="http://www.w3.org/1999/xlink" x="0px" y="0px"
	 viewBox="0 0 432.558 432.558" style="enable-background:new 0 0 432.558 432.558;" xml:space="preserve">
<path d="M276.633,62.975c0.211-1.849,0.282-3.715,0.184-5.573C275.137,25.466,248.626,0,216.278,0
	c-32.323,0-58.82,25.427-60.537,57.329c-0.103,1.915-0.024,3.837,0.203,5.742l4.067,29.095
	c11.422,81.456,11.521,164.072,0.294,245.555l-3.52,25.887c-3.192,23.476,7.21,47.012,27.251,59.647
	c9.345,5.891,20.402,9.303,32.242,9.303c11.839,0,22.897-3.411,32.241-9.303c20.041-12.635,30.443-36.171,27.251-59.647
	l-3.52-25.887c-11.226-81.486-11.127-164.103,0.294-245.555L276.633,62.975z M263.9,60.185l-4.231,30.177
	c-1.072,7.643-2.044,15.296-2.919,22.957c-4.302-10.191-14.383-17.15-25.762-17.15c-1.846,0-3.705,0.186-5.526,0.551l-32.356,6.485
	c-6.986,1.399-13.05,5.316-17.193,11.066c-0.903-7.979-1.91-15.95-3.026-23.909l-1.637-11.674l91.969-26.082
	C263.639,55.074,263.877,57.604,263.9,60.185z M263.041,366.128l-90.085,25.547c-1.39-3.038-2.477-6.241-3.205-9.579l91.9-26.062
	L263.041,366.128z M169.152,368.755l4.032-29.261c0.909-6.597,1.736-13.201,2.499-19.811c5.12,7.298,13.574,11.978,22.903,11.978
	c1.845,0,3.703-0.185,5.524-0.55l32.356-6.485c7.333-1.469,13.655-5.707,17.802-11.932c0.567-0.851,1.079-1.727,1.545-2.621
	c1.027,9.82,2.209,19.629,3.558,29.421l0.487,3.537L169.152,368.755z M215.112,142.648l-5.173-29.56l18.077-3.623
	c0.982-0.196,1.982-0.297,2.972-0.297c7.108,0,13.284,5.071,14.685,12.057c0.787,3.929-0.003,7.929-2.224,11.263
	c-2.222,3.335-5.608,5.605-9.537,6.393L215.112,142.648z M197.19,115.644l5.173,29.56l-0.808,0.162
	c-0.981,0.196-1.981,0.296-2.97,0.296c-7.109,0-13.285-5.07-14.686-12.056c-0.787-3.929,0.003-7.929,2.224-11.264
	c2.221-3.334,5.607-5.604,9.536-6.392L197.19,115.644z M198.586,158.661c1.845,0,3.703-0.185,5.524-0.55l32.356-6.485
	c7.246-1.451,13.501-5.611,17.65-11.715c-3.939,46.673-4.247,93.572-0.924,140.285c-5.172-6.75-13.288-11.028-22.204-11.028
	c-1.846,0-3.705,0.186-5.526,0.551l-32.356,6.485c-5.352,1.072-10.162,3.625-13.984,7.344c3.306-44.155,3.366-88.488,0.18-132.647
	C184.372,155.733,191.206,158.661,198.586,158.661z M193.925,289.417l7.081,29.03c-0.804,0.131-1.615,0.214-2.42,0.214
	c-7.109,0-13.285-5.07-14.686-12.056c-0.787-3.929,0.003-7.929,2.224-11.264C188.009,292.511,190.741,290.458,193.925,289.417z
	 M213.769,315.917l-7.115-29.17l21.362-4.282c0.982-0.196,1.982-0.297,2.972-0.297c7.108,0,13.284,5.071,14.685,12.057
	c0.787,3.929-0.003,7.929-2.224,11.263c-2.222,3.335-5.608,5.605-9.537,6.393L213.769,315.917z M216.278,13
	c18.957,0,35.354,11.137,43.013,27.208l-89.863,25.484l-0.772-5.508C168.89,34.125,190.164,13,216.278,13z M216.278,419.558
	c-14.349,0-27.226-6.387-35.964-16.458l82.976-23.531C259.625,402.212,239.939,419.558,216.278,419.558z"/>
<g>
</g>
<g>
</g>
<g>
</g>
<g>
</g>
<g>
</g>
<g>
</g>
<g>
</g>
<g>
</g>
<g>
</g>
<g>
</g>
<g>
</g>
<g>
</g>
<g>
</g>
<g>
</g>
<g>
</g>
</svg>
