<?xml version="1.0" encoding="iso-8859-1"?>
<!-- Generator: Adobe Illustrator 18.0.0, SVG Export Plug-In . SVG Version: 6.00 Build 0)  -->
<!DOCTYPE svg PUBLIC "-//W3C//DTD SVG 1.1//EN" "http://www.w3.org/Graphics/SVG/1.1/DTD/svg11.dtd">
<svg version="1.1" id="Capa_1" xmlns="http://www.w3.org/2000/svg" xmlns:xlink="http://www.w3.org/1999/xlink" x="0px" y="0px"
	 viewBox="0 0 317.509 317.509" style="enable-background:new 0 0 317.509 317.509;" xml:space="preserve">
<path d="M311.103,37.438c8.535-8.553,8.534-22.468-0.014-31.032C306.942,2.275,301.434,0,295.58,0
	c-5.848,0-11.352,2.275-15.509,6.416l-67.997,68.009c-4.875,4.875-12.803,4.875-17.678,0l-0.458-0.458
	c-2.285-2.285-5.991-2.285-8.276,0L78.798,180.831c-7.299-5.958-16.811-9.304-27.097-8.584c-19.004,1.33-34.38,16.709-35.705,35.714
	c-0.717,10.283,2.629,19.791,8.585,27.088L1.72,257.91c-2.285,2.285-2.285,5.991,0,8.276l49.608,49.608
	c2.285,2.285,5.991,2.285,8.276,0l183.942-183.942c2.286-2.286,2.285-5.991,0-8.277l-0.215-0.215
	c-2.096-2.096-3.532-4.813-3.838-7.761c-0.395-3.809,0.923-7.479,3.595-10.159L311.103,37.438z M166.293,111.721l39.5,39.5
	l-5.92,5.92l-39.5-39.5L166.293,111.721z M54.458,185.15c14.093,0,25.558,11.465,25.558,25.558s-11.465,25.558-25.558,25.558
	S28.9,224.801,28.9,210.708S40.365,185.15,54.458,185.15z M15.967,262.048l18.427-18.427c5.849,3.579,12.719,5.645,20.064,5.645
	c21.261,0,38.558-17.297,38.558-38.558c0-7.345-2.066-14.215-5.645-20.063l63.81-63.811l39.5,39.5L55.467,301.548L15.967,262.048z
	 M233.889,96.256c-4.813,4.829-7.465,11.228-7.465,18.018c0,4.589,1.204,8.994,3.463,12.854l-14.903,14.903l-39.5-39.5l14.91-14.91
	c9.759,5.687,22.517,4.354,30.872-4.003l67.988-68c1.694-1.688,3.94-2.617,6.325-2.617c2.392,0,4.642,0.93,6.322,2.604
	c3.48,3.487,3.48,9.163,0.005,12.646L233.889,96.256z"/>
<g>
</g>
<g>
</g>
<g>
</g>
<g>
</g>
<g>
</g>
<g>
</g>
<g>
</g>
<g>
</g>
<g>
</g>
<g>
</g>
<g>
</g>
<g>
</g>
<g>
</g>
<g>
</g>
<g>
</g>
</svg>
