<?xml version="1.0" encoding="iso-8859-1"?>
<!-- Generator: Adobe Illustrator 18.0.0, SVG Export Plug-In . SVG Version: 6.00 Build 0)  -->
<!DOCTYPE svg PUBLIC "-//W3C//DTD SVG 1.1//EN" "http://www.w3.org/Graphics/SVG/1.1/DTD/svg11.dtd">
<svg version="1.1" id="Capa_1" xmlns="http://www.w3.org/2000/svg" xmlns:xlink="http://www.w3.org/1999/xlink" x="0px" y="0px"
	 viewBox="0 0 361.667 361.667" style="enable-background:new 0 0 361.667 361.667;" xml:space="preserve">
<g>
	<path d="M252.736,119.922c18.837,0,34.162-15.325,34.162-34.162s-15.325-34.162-34.162-34.162s-34.162,15.325-34.162,34.162
		S233.899,119.922,252.736,119.922z M252.736,64.598c11.669,0,21.162,9.493,21.162,21.162c0,11.668-9.493,21.162-21.162,21.162
		c-11.668,0-21.162-9.493-21.162-21.162C231.574,74.091,241.067,64.598,252.736,64.598z"/>
	<path d="M355.167,133.769H6.5c-3.59,0-6.5,2.91-6.5,6.5v163.3c0,3.59,2.91,6.5,6.5,6.5s6.5-2.91,6.5-6.5v-40.294
		c12.084,4.531,25.686,3.533,37.083-3.042c13.493,7.785,30.09,7.786,43.583,0c13.493,7.785,30.089,7.786,43.583,0
		c13.493,7.785,30.089,7.785,43.583,0c13.493,7.785,30.09,7.786,43.583,0c6.747,3.893,14.27,5.839,21.792,5.839
		c7.522,0,15.044-1.946,21.792-5.839c13.493,7.785,30.089,7.785,43.583,0c11.396,6.575,24.999,7.573,37.083,3.042v40.294
		c0,3.59,2.91,6.5,6.5,6.5s6.5-2.91,6.5-6.5v-163.3C361.667,136.679,358.756,133.769,355.167,133.769z M348.667,210.264
		c-9.474,5.463-21.109,5.462-30.583,0v-24.359c9.86,3.697,20.723,3.695,30.583-0.002V210.264z M13,185.901
		c9.86,3.697,20.723,3.7,30.583,0.003v24.359c-9.474,5.463-21.109,5.463-30.583,0V185.901z M305.083,171.577
		c-9.474,5.463-21.109,5.463-30.583,0v-24.808h30.583V171.577z M261.5,171.577c-9.475,5.463-21.109,5.462-30.583,0v-24.808H261.5
		V171.577z M217.917,171.577c-9.474,5.463-21.109,5.462-30.583,0v-24.808h30.583V171.577z M174.333,171.577
		c-9.474,5.463-21.109,5.463-30.583,0v-24.808h30.583V171.577z M130.75,171.577c-9.475,5.463-21.109,5.462-30.583,0v-24.808h30.583
		V171.577z M87.167,171.577c-9.474,5.462-21.109,5.462-30.583,0v-24.809h30.583V171.577z M56.583,185.903
		c9.86,3.697,20.723,3.698,30.583,0v24.36c-9.474,5.462-21.109,5.462-30.583,0V185.903z M100.167,185.903
		c9.86,3.697,20.723,3.697,30.583,0v24.36c-9.475,5.463-21.109,5.462-30.583,0V185.903z M143.75,185.903
		c9.86,3.697,20.722,3.697,30.583-0.001v24.361c-9.474,5.463-21.109,5.463-30.583,0V185.903z M187.333,185.903
		c9.86,3.697,20.723,3.698,30.583,0.001v24.36c-9.474,5.463-21.109,5.462-30.583,0V185.903z M230.917,185.903
		c4.93,1.849,10.108,2.796,15.292,2.796c5.184,0,10.361-0.947,15.292-2.796v24.36c-9.475,5.463-21.109,5.462-30.583,0V185.903z
		 M274.5,185.903c9.86,3.697,20.722,3.697,30.583-0.001v24.361c-9.474,5.463-21.109,5.463-30.583,0V185.903z M348.667,171.577
		c-9.474,5.463-21.109,5.462-30.583,0v-24.808h30.583V171.577z M43.583,146.769v24.808c-9.474,5.463-21.109,5.463-30.583,0v-24.808
		H43.583z M13,248.95v-24.362c9.86,3.697,20.723,3.7,30.583,0.003v24.359C34.109,254.413,22.474,254.413,13,248.95z M56.583,248.95
		v-24.361c9.86,3.697,20.723,3.698,30.583,0v24.36C77.693,254.413,66.058,254.413,56.583,248.95z M100.167,248.95v-24.36
		c9.86,3.697,20.723,3.697,30.583,0v24.361C121.275,254.413,109.641,254.412,100.167,248.95z M143.75,248.95v-24.36
		c9.86,3.697,20.722,3.697,30.583-0.001v24.361C164.859,254.413,153.224,254.413,143.75,248.95z M187.333,248.95v-24.361
		c9.86,3.697,20.723,3.698,30.583,0.001v24.36C208.443,254.413,196.807,254.413,187.333,248.95z M230.917,248.95v-24.36
		c4.93,1.849,10.108,2.796,15.292,2.796c5.184,0,10.361-0.947,15.292-2.796v24.36C252.025,254.413,240.391,254.412,230.917,248.95z
		 M274.5,248.95v-24.36c9.86,3.697,20.722,3.697,30.583-0.001v24.361C295.609,254.413,283.974,254.413,274.5,248.95z
		 M318.083,248.95v-24.359c9.86,3.697,20.723,3.695,30.583-0.002v24.362C339.193,254.413,327.557,254.413,318.083,248.95z"/>
</g>
<g>
</g>
<g>
</g>
<g>
</g>
<g>
</g>
<g>
</g>
<g>
</g>
<g>
</g>
<g>
</g>
<g>
</g>
<g>
</g>
<g>
</g>
<g>
</g>
<g>
</g>
<g>
</g>
<g>
</g>
</svg>
