<?xml version="1.0" encoding="iso-8859-1"?>
<!-- Generator: Adobe Illustrator 18.0.0, SVG Export Plug-In . SVG Version: 6.00 Build 0)  -->
<!DOCTYPE svg PUBLIC "-//W3C//DTD SVG 1.1//EN" "http://www.w3.org/Graphics/SVG/1.1/DTD/svg11.dtd">
<svg version="1.1" id="Capa_1" xmlns="http://www.w3.org/2000/svg" xmlns:xlink="http://www.w3.org/1999/xlink" x="0px" y="0px"
	 viewBox="0 0 415.667 415.667" style="enable-background:new 0 0 415.667 415.667;" xml:space="preserve">
<path d="M409.167,102.958H6.5c-3.59,0-6.5,2.91-6.5,6.5v196.75c0,3.59,2.91,6.5,6.5,6.5h402.667c3.59,0,6.5-2.91,6.5-6.5v-196.75
	C415.667,105.868,412.756,102.958,409.167,102.958z M322.534,254.333h-17.301v-93h17.301V254.333z M335.534,161.333h17.3v93h-17.3
	V161.333z M93.133,161.333h17.3v93h-17.3V161.333z M80.133,254.333h-17.3v-93h17.3V254.333z M123.433,161.333h17.3v93h-17.3V161.333
	z M153.733,161.333h17.3v93h-17.3V161.333z M184.033,161.333h17.3v93h-17.3V161.333z M214.333,161.333h17.3v93h-17.3V161.333z
	 M244.633,161.333h17.3v93h-17.3V161.333z M274.933,161.333h17.3v93h-17.3V161.333z M305.233,148.333v-32.375h17.301v32.375H305.233
	z M292.233,148.333h-17.3v-32.375h17.3V148.333z M261.933,148.333h-17.3v-32.375h17.3V148.333z M231.633,148.333h-17.3v-32.375h17.3
	V148.333z M201.333,148.333h-17.3v-32.375h17.3V148.333z M171.033,148.333h-17.3v-32.375h17.3V148.333z M140.733,148.333h-17.3
	v-32.375h17.3V148.333z M110.433,148.333h-17.3v-32.375h17.3V148.333z M80.133,148.333h-17.3v-32.375h17.3V148.333z M62.833,267.333
	h17.3v32.375h-17.3V267.333z M93.133,267.333h17.3v32.375h-17.3V267.333z M123.433,267.333h17.3v32.375h-17.3V267.333z
	 M153.733,267.333h17.3v32.375h-17.3V267.333z M184.033,267.333h17.3v32.375h-17.3V267.333z M214.333,267.333h17.3v32.375h-17.3
	V267.333z M244.633,267.333h17.3v32.375h-17.3V267.333z M274.933,267.333h17.3v32.375h-17.3V267.333z M305.233,267.333h17.301
	v32.375h-17.301V267.333z M335.534,267.333h17.3v32.375h-17.3V267.333z M352.833,148.333h-17.3v-32.375h17.3V148.333z M13,115.958
	h36.833v85.375h-7.25v-7.344c0-3.59-2.91-6.5-6.5-6.5h-9.25c-3.59,0-6.5,2.91-6.5,6.5l0,0c0,3.59,2.91,6.5,6.5,6.5h2.75v14.688
	h-2.75c-3.59,0-6.5,2.91-6.5,6.5l0,0c0,3.59,2.91,6.5,6.5,6.5h9.25c3.59,0,6.5-2.91,6.5-6.5v-7.344h7.25v85.375H13V115.958z
	 M402.667,299.708h-36.833v-85.375h7.25v7.344c0,3.59,2.91,6.5,6.5,6.5h9.25c3.59,0,6.5-2.91,6.5-6.5l0,0c0-3.59-2.91-6.5-6.5-6.5
	h-2.75V200.49h2.75c3.59,0,6.5-2.91,6.5-6.5l0,0c0-3.59-2.91-6.5-6.5-6.5h-9.25c-3.59,0-6.5,2.91-6.5,6.5v7.344h-7.25v-85.375
	h36.833V299.708z"/>
<g>
</g>
<g>
</g>
<g>
</g>
<g>
</g>
<g>
</g>
<g>
</g>
<g>
</g>
<g>
</g>
<g>
</g>
<g>
</g>
<g>
</g>
<g>
</g>
<g>
</g>
<g>
</g>
<g>
</g>
</svg>
