<?xml version="1.0" encoding="iso-8859-1"?>
<!-- Generator: Adobe Illustrator 18.0.0, SVG Export Plug-In . SVG Version: 6.00 Build 0)  -->
<!DOCTYPE svg PUBLIC "-//W3C//DTD SVG 1.1//EN" "http://www.w3.org/Graphics/SVG/1.1/DTD/svg11.dtd">
<svg version="1.1" id="Capa_1" xmlns="http://www.w3.org/2000/svg" xmlns:xlink="http://www.w3.org/1999/xlink" x="0px" y="0px"
	 viewBox="0 0 369.006 369.006" style="enable-background:new 0 0 369.006 369.006;" xml:space="preserve">
<g>
	<path d="M31.279,289.134h306.447c3.59,0,6.5-2.91,6.5-6.5V86.372c0-3.59-2.91-6.5-6.5-6.5H31.279c-3.59,0-6.5,2.91-6.5,6.5v196.263
		C24.779,286.224,27.689,289.134,31.279,289.134z M37.779,263.683h140.224v12.452H37.779V263.683z M114.392,191.003h63.611v59.68
		h-63.611V191.003z M191.003,191.003h63.61v59.68h-63.61V191.003z M267.613,118.323h63.613v132.359h-63.613V118.323z
		 M254.613,178.003h-63.61v-59.68h63.61V178.003z M178.003,178.003h-63.611v-59.68h63.611V178.003z M101.392,250.683H37.779V118.323
		h63.612V250.683z M191.003,276.134v-12.452h140.224v12.452H191.003z M331.227,105.323H191.003V92.872h140.224V105.323z
		 M178.003,92.872v12.452H37.779V92.872H178.003z"/>
	<path d="M362.506,48.491H6.5c-3.59,0-6.5,2.91-6.5,6.5v259.024c0,3.59,2.91,6.5,6.5,6.5h356.006c3.59,0,6.5-2.91,6.5-6.5V54.991
		C369.006,51.401,366.096,48.491,362.506,48.491z M356.006,307.515H13V61.491h343.006V307.515z"/>
</g>
<g>
</g>
<g>
</g>
<g>
</g>
<g>
</g>
<g>
</g>
<g>
</g>
<g>
</g>
<g>
</g>
<g>
</g>
<g>
</g>
<g>
</g>
<g>
</g>
<g>
</g>
<g>
</g>
<g>
</g>
</svg>
