<?xml version="1.0" encoding="iso-8859-1"?>
<!-- Generator: Adobe Illustrator 18.0.0, SVG Export Plug-In . SVG Version: 6.00 Build 0)  -->
<!DOCTYPE svg PUBLIC "-//W3C//DTD SVG 1.1//EN" "http://www.w3.org/Graphics/SVG/1.1/DTD/svg11.dtd">
<svg version="1.1" id="Capa_1" xmlns="http://www.w3.org/2000/svg" xmlns:xlink="http://www.w3.org/1999/xlink" x="0px" y="0px"
	 viewBox="0 0 443 443" style="enable-background:new 0 0 443 443;" xml:space="preserve">
<g>
	<path d="M264.961,3.747C263.892,1.461,261.596,0,259.073,0s-4.819,1.461-5.889,3.747c-0.456,0.976-45.611,98.941-45.611,217.753
		s45.155,216.777,45.611,217.753c1.069,2.286,3.365,3.747,5.889,3.747s4.819-1.461,5.889-3.747
		c0.456-0.976,45.611-98.941,45.611-217.753S265.417,4.723,264.961,3.747z M239.573,233.166c0-11.877,1.9-39.5,19.5-39.5
		s19.5,27.623,19.5,39.5c0,3.655-0.152,7.153-0.42,10.5H239.99C239.717,240.243,239.573,236.734,239.573,233.166z M275.958,258.666
		c-3.87,17.601-11.271,28-16.885,28c-4.011,0-8.77-5.233-12.421-13.658c-1.841-4.247-3.341-9.09-4.485-14.342H275.958z
		 M265.575,298.486c16.931-6.234,25.997-36.571,25.997-65.32c0-38.648-15.12-49.176-25.997-51.744V40.883
		c13.134,37.525,31.997,104.646,31.997,180.617c0,75.878-18.863,143.028-31.997,180.585V298.486z M252.575,40.898V181.42
		c-10.878,2.566-26.003,13.09-26.003,51.746c0,28.752,9.068,59.092,26.003,65.322v103.645
		c-13.135-37.522-32.003-104.651-32.003-180.633C220.573,145.61,239.441,78.452,252.575,40.898z"/>
	<path d="M198.097,53.406c0.496-15.715-2.176-26.36-8.169-32.546c-3.737-3.857-8.769-5.896-14.549-5.896
		c-3.743,0-7.778,0.806-12.333,2.463c-19.802,7.199-30.959,20.292-30.61,35.919c0.289,13.069,9.028,52.963,26.378,61.19v213.942
		c-17.24,8.213-25.902,47.62-26.328,61.114c-0.496,15.715,2.176,26.36,8.17,32.546c3.737,3.857,8.768,5.896,14.548,5.896
		c3.744,0,7.778-0.806,12.333-2.463c19.801-7.199,30.959-20.291,30.611-35.919c-0.29-13.058-9.015-52.895-26.334-61.169V114.5
		C189.024,106.241,197.671,66.889,198.097,53.406z M145.432,53.057c-0.307-13.781,15.322-20.964,22.057-23.413
		c3.064-1.114,5.719-1.68,7.891-1.68c2.952,0,4.336,1.038,5.212,1.942c1.896,1.956,5.003,7.558,4.512,23.09
		c-0.222,7.048-2.857,20.354-7.464,32.148c-5.127,13.126-10.208,17.891-12.372,17.891c-2.177,0-7.283-4.767-12.433-17.897
		C148.179,73.267,145.586,60.013,145.432,53.057z M185.152,389.942c0.306,13.781-15.323,20.964-22.058,23.413
		c-3.064,1.114-5.719,1.68-7.891,1.68c-2.951,0-4.336-1.038-5.212-1.942c-1.896-1.956-5.003-7.558-4.512-23.09
		c0.222-7.048,2.857-20.354,7.464-32.148c5.127-13.126,10.208-17.891,12.372-17.891c2.177,0,7.283,4.767,12.433,17.897
		C182.405,369.732,184.996,382.986,185.152,389.942z"/>
</g>
<g>
</g>
<g>
</g>
<g>
</g>
<g>
</g>
<g>
</g>
<g>
</g>
<g>
</g>
<g>
</g>
<g>
</g>
<g>
</g>
<g>
</g>
<g>
</g>
<g>
</g>
<g>
</g>
<g>
</g>
</svg>
