<?xml version="1.0" encoding="iso-8859-1"?>
<!-- Generator: Adobe Illustrator 18.0.0, SVG Export Plug-In . SVG Version: 6.00 Build 0)  -->
<!DOCTYPE svg PUBLIC "-//W3C//DTD SVG 1.1//EN" "http://www.w3.org/Graphics/SVG/1.1/DTD/svg11.dtd">
<svg version="1.1" id="Capa_1" xmlns="http://www.w3.org/2000/svg" xmlns:xlink="http://www.w3.org/1999/xlink" x="0px" y="0px"
	 viewBox="0 0 323.268 323.268" style="enable-background:new 0 0 323.268 323.268;" xml:space="preserve">
<g>
	<path d="M323.268,266.883c0-19.923-13.094-36.84-31.126-42.612c3.813-4.838,6.096-10.934,6.096-17.557
		c0-16.434-6.403-31.894-18.036-43.539c-11.639-11.628-27.1-18.031-43.533-18.031h-14.471c-10.172,0-20.022-2.41-28.897-7.007
		l0.279-0.279c2.538-2.539,2.538-6.654,0-9.193l-22.156-22.156c-1.22-1.219-2.873-1.903-4.597-1.903
		c-1.134,0-2.235,0.302-3.205,0.852c-1.003-2.508-1.832-5.075-2.5-7.691h2.174c3.59,0,6.5-2.91,6.5-6.5V60.321
		c0-3.59-2.91-6.5-6.5-6.5h-4.595c-1.591-11.331-7.522-21.513-16.843-28.554c-10.987-8.299-24.884-10.901-38.126-7.136
		L42.667,35.475c-2.621,0.744-4.429,3.138-4.429,5.862v84.004l-7.359,76.038c-0.742,7.676,1.448,15.348,6.042,21.466
		C15.968,226.554,0,244.883,0,266.883v0.406c0,3.366,2.728,6.094,6.094,6.094H19.6c0.032,18.444,15.046,33.441,33.499,33.441
		s33.467-14.997,33.499-33.441h5.673c0.032,18.444,15.046,33.441,33.499,33.441s33.467-14.997,33.499-33.441h5.673
		c0.032,18.444,15.047,33.441,33.499,33.441s33.467-14.997,33.499-33.441h5.663c0.032,18.444,15.047,33.441,33.499,33.441
		s33.467-14.997,33.499-33.441h12.577c3.366,0,6.094-2.728,6.094-6.094V266.883z M43.818,202.63l4.234-43.742h10.856
		c28.845,0,54.105,19.348,61.619,47.197l0.08,0.297c0.717,2.659,3.129,4.507,5.884,4.507h158.158
		c-1.828,6.483-7.785,11.256-14.85,11.256H62.011c-5.261,0-10.382-2.107-13.855-6.058C44.878,212.356,43.339,207.59,43.818,202.63z
		 M271.009,172.368c7.057,7.064,11.663,15.914,13.42,25.521l-92.702-0.001l39.744-39.743h5.197
		C249.632,158.144,261.83,163.197,271.009,172.368z M213.569,157.661l-40.227,40.227h-41.733
		c-10.536-30.855-39.743-51.999-72.702-51.999H49.31l1.928-19.92v-9.813h7.821c2.917,11.759,13.561,20.5,26.209,20.5
		s23.292-8.741,26.209-20.5h41.109l-19.843,19.844c-2.539,2.538-2.539,6.653,0,9.191l22.156,22.156
		c1.219,1.22,2.872,1.904,4.596,1.904s3.377-0.685,4.597-1.903l19.643-19.644C192.885,153.093,203.009,156.471,213.569,157.661z
		 M179.792,133.261l-20.297,20.297l-12.963-12.964l20.296-20.297L179.792,133.261z M149.105,103.155h-43.743
		c-3.366,0-6.094,2.728-6.094,6.094v0c0,7.192-5.254,13.52-12.401,14.317c-8.432,0.939-15.599-5.664-15.599-13.911v-0.406
		c0-3.366-2.728-6.094-6.094-6.094H51.238V82.82h64.277v8.446c0,3.59,2.91,6.5,6.5,6.5h25.769
		C148.163,99.58,148.595,101.379,149.105,103.155z M156.796,66.821v17.945h-28.282V66.821H156.796z M107.285,30.636
		c9.286-2.639,19.033-0.816,26.737,5.004c6.027,4.553,10.032,10.978,11.496,18.181h-23.503c-3.59,0-6.5,2.91-6.5,6.5v9.499H51.238
		V46.555L107.285,30.636z M53.098,293.825c-11.284,0-20.465-9.165-20.497-20.441h40.994
		C73.563,284.66,64.382,293.825,53.098,293.825z M125.768,293.825c-11.284,0-20.465-9.165-20.497-20.441h40.994
		C146.233,284.66,137.052,293.825,125.768,293.825z M198.438,293.825c-11.284,0-20.465-9.165-20.497-20.441h40.994
		C218.903,284.66,209.722,293.825,198.438,293.825z M271.098,293.825c-11.284,0-20.465-9.165-20.497-20.441h40.994
		C291.563,284.66,282.382,293.825,271.098,293.825z M13.669,260.383c3.007-14.393,15.794-25.235,31.066-25.235h233.799
		c15.271,0,28.059,10.843,31.065,25.235H13.669z"/>
	<path d="M75.768,213.155c10.201,0,18.5-8.299,18.5-18.5s-8.299-18.5-18.5-18.5s-18.5,8.299-18.5,18.5
		S65.567,213.155,75.768,213.155z M75.768,189.155c3.033,0,5.5,2.467,5.5,5.5s-2.467,5.5-5.5,5.5s-5.5-2.467-5.5-5.5
		S72.735,189.155,75.768,189.155z"/>
</g>
<g>
</g>
<g>
</g>
<g>
</g>
<g>
</g>
<g>
</g>
<g>
</g>
<g>
</g>
<g>
</g>
<g>
</g>
<g>
</g>
<g>
</g>
<g>
</g>
<g>
</g>
<g>
</g>
<g>
</g>
</svg>
