<?xml version="1.0" encoding="iso-8859-1"?>
<!-- Generator: Adobe Illustrator 18.0.0, SVG Export Plug-In . SVG Version: 6.00 Build 0)  -->
<!DOCTYPE svg PUBLIC "-//W3C//DTD SVG 1.1//EN" "http://www.w3.org/Graphics/SVG/1.1/DTD/svg11.dtd">
<svg version="1.1" id="Capa_1" xmlns="http://www.w3.org/2000/svg" xmlns:xlink="http://www.w3.org/1999/xlink" x="0px" y="0px"
	 viewBox="0 0 315 315" style="enable-background:new 0 0 315 315;" xml:space="preserve">
<g>
	<g>
		<g>
			<path d="M232.5,315c-10.041,0-19.033-4.578-25-11.755c-5.966,7.177-14.959,11.755-25,11.755s-19.033-4.578-25-11.755
				c-5.966,7.177-14.959,11.755-25,11.755s-19.033-4.578-25-11.755C101.534,310.422,92.541,315,82.5,315
				C64.58,315,50,300.421,50,282.5c0-10.041,4.578-19.034,11.756-25C54.578,251.534,50,242.541,50,232.5s4.578-19.034,11.756-25
				C54.578,201.534,50,192.541,50,182.5s4.578-19.034,11.756-25C54.578,151.534,50,142.541,50,132.5s4.578-19.034,11.756-25
				C54.578,101.534,50,92.541,50,82.5s4.578-19.034,11.756-25C54.578,51.534,50,42.541,50,32.5C50,14.579,64.58,0,82.5,0
				c10.041,0,19.034,4.578,25,11.755C113.467,4.578,122.459,0,132.5,0s19.034,4.578,25,11.755C163.467,4.578,172.459,0,182.5,0
				s19.034,4.578,25,11.755C213.467,4.578,222.459,0,232.5,0C250.421,0,265,14.579,265,32.5c0,10.041-4.578,19.034-11.755,25
				C260.422,63.466,265,72.459,265,82.5s-4.578,19.034-11.755,25c7.177,5.966,11.755,14.959,11.755,25s-4.578,19.034-11.755,25
				c7.177,5.966,11.755,14.959,11.755,25s-4.578,19.034-11.755,25c7.177,5.966,11.755,14.959,11.755,25s-4.578,19.034-11.755,25
				c7.177,5.966,11.755,14.959,11.755,25C265,300.421,250.421,315,232.5,315z M207.473,273.938c2.044,0,4.025,0.834,5.439,2.309
				c1.414,1.474,2.193,3.462,2.108,5.503c-0.011,0.249-0.02,0.499-0.02,0.751c0,9.649,7.852,17.5,17.5,17.5
				c9.65,0,17.5-7.851,17.5-17.5s-7.85-17.5-17.5-17.5c-0.742,0-1.525,0.054-2.324,0.159c-2.138,0.288-4.302-0.368-5.928-1.794
				c-1.625-1.424-2.557-3.479-2.557-5.641v-0.449c0-2.161,0.932-4.217,2.557-5.641c1.625-1.425,3.791-2.077,5.928-1.794
				c0.799,0.105,1.582,0.159,2.324,0.159c9.65,0,17.5-7.851,17.5-17.5s-7.85-17.5-17.5-17.5c-0.742,0-1.525,0.054-2.324,0.159
				c-2.138,0.288-4.302-0.368-5.928-1.794c-1.625-1.424-2.557-3.48-2.557-5.641v-0.449c0-2.161,0.932-4.217,2.557-5.641
				c1.625-1.425,3.791-2.079,5.928-1.794c0.799,0.105,1.582,0.159,2.324,0.159c9.65,0,17.5-7.851,17.5-17.5s-7.85-17.5-17.5-17.5
				c-0.742,0-1.525,0.054-2.324,0.159c-2.138,0.287-4.302-0.368-5.928-1.794c-1.625-1.424-2.557-3.48-2.557-5.641v-0.449
				c0-2.161,0.932-4.217,2.557-5.641c1.625-1.426,3.791-2.08,5.928-1.794c0.799,0.105,1.582,0.159,2.324,0.159
				c9.65,0,17.5-7.851,17.5-17.5s-7.85-17.5-17.5-17.5c-0.742,0-1.525,0.054-2.324,0.159c-2.138,0.287-4.302-0.368-5.928-1.794
				c-1.625-1.424-2.557-3.479-2.557-5.641v-0.449c0-2.161,0.932-4.217,2.557-5.641c1.625-1.425,3.791-2.076,5.928-1.794
				c0.799,0.105,1.582,0.159,2.324,0.159c9.65,0,17.5-7.851,17.5-17.5S242.15,65,232.5,65c-0.742,0-1.525,0.054-2.324,0.159
				c-2.138,0.286-4.302-0.369-5.928-1.794c-1.625-1.424-2.557-3.479-2.557-5.641v-0.449c0-2.161,0.932-4.217,2.557-5.641
				c1.625-1.425,3.791-2.078,5.928-1.794C230.975,49.946,231.758,50,232.5,50c9.65,0,17.5-7.851,17.5-17.5S242.15,15,232.5,15
				c-9.648,0-17.5,7.851-17.5,17.5c0,4.143-3.357,7.5-7.5,7.5c-4.142,0-7.5-3.357-7.5-7.5c0-9.649-7.85-17.5-17.5-17.5
				c-9.648,0-17.5,7.851-17.5,17.5c0,4.143-3.357,7.5-7.5,7.5c-4.142,0-7.5-3.357-7.5-7.5c0-9.649-7.85-17.5-17.5-17.5
				c-9.648,0-17.5,7.851-17.5,17.5c0,4.143-3.357,7.5-7.5,7.5c-4.142,0-7.5-3.357-7.5-7.5c0-9.649-7.85-17.5-17.5-17.5
				C72.852,15,65,22.851,65,32.5S72.852,50,82.5,50c4.143,0,7.5,3.357,7.5,7.5S86.643,65,82.5,65C72.852,65,65,72.851,65,82.5
				S72.852,100,82.5,100c4.143,0,7.5,3.357,7.5,7.5s-3.357,7.5-7.5,7.5c-9.648,0-17.5,7.851-17.5,17.5S72.852,150,82.5,150
				c4.143,0,7.5,3.357,7.5,7.5s-3.357,7.5-7.5,7.5c-9.648,0-17.5,7.851-17.5,17.5S72.852,200,82.5,200c4.143,0,7.5,3.357,7.5,7.5
				s-3.357,7.5-7.5,7.5c-9.648,0-17.5,7.851-17.5,17.5S72.852,250,82.5,250c4.143,0,7.5,3.357,7.5,7.5c0,4.143-3.357,7.5-7.5,7.5
				c-9.648,0-17.5,7.851-17.5,17.5S72.852,300,82.5,300c9.65,0,17.5-7.851,17.5-17.5c0-0.252-0.01-0.503-0.021-0.752
				c-0.085-2.041,0.667-4.028,2.081-5.503c1.415-1.475,3.369-2.308,5.412-2.308c2.044,0,4.025,0.834,5.439,2.309
				c1.414,1.474,2.193,3.462,2.108,5.503c-0.011,0.249-0.021,0.499-0.021,0.751c0,9.649,7.852,17.5,17.5,17.5
				c9.65,0,17.5-7.851,17.5-17.5c0-0.252-0.01-0.503-0.02-0.752c-0.085-2.041,0.667-4.028,2.081-5.503
				c1.415-1.475,3.369-2.308,5.412-2.308c2.044,0,4.025,0.834,5.439,2.309c1.414,1.474,2.193,3.462,2.108,5.503
				c-0.011,0.249-0.02,0.499-0.02,0.751c0,9.649,7.852,17.5,17.5,17.5c9.65,0,17.5-7.851,17.5-17.5c0-0.252-0.01-0.503-0.02-0.752
				c-0.085-2.041,0.667-4.028,2.081-5.503C203.476,274.771,205.43,273.938,207.473,273.938z"/>
		</g>
		<g>
			<g>
				<g>
					<path d="M118.494,93.913c-1.97,0-3.91-0.8-5.3-2.199c-1.399-1.391-2.2-3.33-2.2-5.301c0-1.979,0.801-3.909,2.2-5.3
						c1.39-1.399,3.33-2.2,5.3-2.2c1.971,0,3.91,0.801,5.311,2.2c1.39,1.391,2.189,3.32,2.189,5.3c0,1.971-0.8,3.91-2.189,5.301
						C122.404,93.113,120.465,93.913,118.494,93.913z"/>
				</g>
				<g>
					<path d="M118.494,165.004c-1.97,0-3.91-0.801-5.3-2.2c-1.399-1.4-2.2-3.33-2.2-5.3c0-1.98,0.801-3.91,2.2-5.311
						c1.39-1.39,3.33-2.189,5.3-2.189c1.98,0,3.91,0.8,5.301,2.189c1.399,1.4,2.199,3.33,2.199,5.311c0,1.97-0.8,3.899-2.199,5.3
						C122.404,164.203,120.475,165.004,118.494,165.004z"/>
				</g>
				<g>
					<path d="M118.494,236.083c-1.97,0-3.899-0.8-5.3-2.189c-1.399-1.4-2.2-3.34-2.2-5.311c0-1.97,0.801-3.899,2.2-5.3
						c1.39-1.399,3.33-2.189,5.3-2.189c1.98,0,3.91,0.79,5.301,2.189c1.399,1.391,2.199,3.33,2.199,5.3
						c0,1.981-0.8,3.91-2.199,5.311C122.404,235.283,120.475,236.083,118.494,236.083z"/>
				</g>
			</g>
			<g>
				<g>
					<path d="M196.504,93.913c-1.98,0-3.909-0.8-5.299-2.199c-1.4-1.391-2.201-3.33-2.201-5.301c0-1.979,0.801-3.909,2.201-5.3
						c1.39-1.399,3.319-2.2,5.299-2.2c1.971,0,3.91,0.801,5.301,2.2c1.4,1.391,2.199,3.32,2.199,5.3c0,1.971-0.799,3.91-2.199,5.301
						C200.414,93.113,198.475,93.913,196.504,93.913z"/>
				</g>
				<g>
					<path d="M196.504,165.004c-1.969,0-3.909-0.801-5.299-2.2c-1.4-1.4-2.201-3.33-2.201-5.3c0-1.98,0.801-3.91,2.201-5.311
						c1.39-1.39,3.33-2.189,5.299-2.189c1.971,0,3.91,0.8,5.301,2.189c1.4,1.39,2.199,3.33,2.199,5.311
						c0,1.979-0.799,3.909-2.199,5.3C200.414,164.203,198.475,165.004,196.504,165.004z"/>
				</g>
				<g>
					<path d="M196.504,236.083c-1.98,0-3.909-0.8-5.299-2.189c-1.4-1.4-2.201-3.33-2.201-5.311c0-1.97,0.801-3.909,2.201-5.3
						c1.39-1.399,3.319-2.189,5.299-2.189c1.98,0,3.91,0.79,5.301,2.189c1.4,1.4,2.199,3.33,2.199,5.3
						c0,1.971-0.799,3.91-2.199,5.311C200.404,235.283,198.475,236.083,196.504,236.083z"/>
				</g>
			</g>
			<g>
				<g>
					<path d="M157.494,93.913c-1.97,0-3.899-0.8-5.3-2.199c-1.39-1.391-2.19-3.33-2.19-5.301c0-1.979,0.801-3.909,2.19-5.3
						c1.4-1.399,3.33-2.2,5.3-2.2c1.98,0,3.91,0.801,5.311,2.2c1.4,1.391,2.199,3.32,2.199,5.3c0,1.971-0.799,3.91-2.199,5.301
						C161.404,93.113,159.475,93.913,157.494,93.913z"/>
				</g>
				<g>
					<path d="M157.504,165.004c-1.98,0-3.909-0.801-5.31-2.2c-1.39-1.4-2.19-3.33-2.19-5.3c0-1.98,0.801-3.91,2.19-5.311
						c1.4-1.39,3.33-2.189,5.31-2.189c1.971,0,3.9,0.8,5.301,2.189c1.39,1.4,2.189,3.33,2.189,5.311c0,1.97-0.8,3.899-2.189,5.3
						C161.404,164.203,159.475,165.004,157.504,165.004z"/>
				</g>
				<g>
					<path d="M157.504,236.083c-1.969,0-3.909-0.8-5.31-2.189c-1.39-1.4-2.19-3.33-2.19-5.311c0-1.979,0.801-3.909,2.19-5.3
						c1.4-1.399,3.33-2.189,5.31-2.189c1.971,0,3.9,0.79,5.301,2.189c1.39,1.391,2.189,3.32,2.189,5.3c0,1.981-0.8,3.91-2.189,5.311
						C161.404,235.283,159.475,236.083,157.504,236.083z"/>
				</g>
			</g>
		</g>
	</g>
</g>
<g>
</g>
<g>
</g>
<g>
</g>
<g>
</g>
<g>
</g>
<g>
</g>
<g>
</g>
<g>
</g>
<g>
</g>
<g>
</g>
<g>
</g>
<g>
</g>
<g>
</g>
<g>
</g>
<g>
</g>
</svg>
