<?xml version="1.0" encoding="iso-8859-1"?>
<!-- Generator: Adobe Illustrator 18.0.0, SVG Export Plug-In . SVG Version: 6.00 Build 0)  -->
<!DOCTYPE svg PUBLIC "-//W3C//DTD SVG 1.1//EN" "http://www.w3.org/Graphics/SVG/1.1/DTD/svg11.dtd">
<svg version="1.1" id="Capa_1" xmlns="http://www.w3.org/2000/svg" xmlns:xlink="http://www.w3.org/1999/xlink" x="0px" y="0px"
	 viewBox="0 0 402.871 402.871" style="enable-background:new 0 0 402.871 402.871;" xml:space="preserve">
<g>
	<path d="M341.131,157.621c-37.432-13.604-87.043-21.095-139.697-21.095c-52.652,0-102.264,7.491-139.693,21.095
		C21.927,172.09,0,192.293,0,214.508c0,21.694,10.499,33.462,36.237,40.618c27.905,7.759,78.854,11.219,165.196,11.219
		c172.322,0,201.438-12.943,201.438-51.837C402.871,192.293,380.943,172.09,341.131,157.621z M307.869,180.77
		c2.943,5.05,1.229,11.554-3.822,14.496c-2.447,1.426-5.301,1.813-8.041,1.092c-2.738-0.723-5.031-2.468-6.461-4.92l-20.723-35.492
		c9.453,1.291,18.604,2.858,27.377,4.689L307.869,180.77z M201.434,151.526c0.262,0,0.521,0.003,0.781,0.004l17.037,29.24
		c1.426,2.446,1.813,5.302,1.092,8.039c-0.723,2.738-2.467,5.031-4.914,6.457c-5.051,2.942-11.555,1.227-14.498-3.822
		l-22.958-39.404C185.696,151.7,193.528,151.526,201.434,151.526z M117.662,158.515l12.975,22.255
		c1.425,2.446,1.813,5.302,1.091,8.039c-0.723,2.738-2.468,5.031-4.914,6.457c-2.446,1.426-5.301,1.813-8.04,1.092
		c-2.738-0.723-5.031-2.468-6.445-4.895l-16.436-28.406C102.882,161.363,110.156,159.849,117.662,158.515z M362.615,240.674
		c-26.543,7.38-76.252,10.671-161.182,10.671c-84.927,0-134.637-3.291-161.179-10.671C16.812,234.157,15,225.718,15,214.508
		c0-15.215,18.904-30.811,51.864-42.79c4.496-1.634,9.181-3.176,14.035-4.622l18.457,31.899c3.442,5.908,8.979,10.122,15.592,11.866
		c2.175,0.573,4.38,0.856,6.571,0.856c4.47,0,8.881-1.181,12.846-3.491c5.908-3.443,10.122-8.98,11.866-15.593
		c1.744-6.612,0.809-13.508-2.635-19.418l-10.033-17.206c8.962-1.234,18.199-2.221,27.644-2.951l26.766,45.937
		c3.441,5.908,8.979,10.122,15.591,11.866c2.174,0.573,4.379,0.857,6.57,0.856c4.471,0,8.881-1.181,12.846-3.491
		c5.908-3.443,10.123-8.98,11.867-15.593c1.744-6.612,0.807-13.508-2.635-19.416l-12.457-21.378
		c10.355,0.354,20.525,1.012,30.441,1.955l26.393,45.2c3.441,5.908,8.979,10.122,15.592,11.866c2.174,0.573,4.379,0.857,6.57,0.856
		c4.471,0,8.881-1.181,12.846-3.491c5.908-3.443,10.123-8.98,11.867-15.593c1.744-6.612,0.807-13.508-2.627-19.401l-4.488-7.743
		c6.879,1.898,13.451,3.974,19.656,6.229c32.961,11.979,51.865,27.575,51.865,42.79
		C387.871,225.718,386.059,234.156,362.615,240.674z"/>
</g>
<g>
</g>
<g>
</g>
<g>
</g>
<g>
</g>
<g>
</g>
<g>
</g>
<g>
</g>
<g>
</g>
<g>
</g>
<g>
</g>
<g>
</g>
<g>
</g>
<g>
</g>
<g>
</g>
<g>
</g>
</svg>
