<?xml version="1.0" encoding="iso-8859-1"?>
<!-- Generator: Adobe Illustrator 18.0.0, SVG Export Plug-In . SVG Version: 6.00 Build 0)  -->
<!DOCTYPE svg PUBLIC "-//W3C//DTD SVG 1.1//EN" "http://www.w3.org/Graphics/SVG/1.1/DTD/svg11.dtd">
<svg version="1.1" id="Capa_1" xmlns="http://www.w3.org/2000/svg" xmlns:xlink="http://www.w3.org/1999/xlink" x="0px" y="0px"
	 viewBox="0 0 352.43 352.43" style="enable-background:new 0 0 352.43 352.43;" xml:space="preserve">
<g>
	<g>
		<path d="M294.441,163.781h-28.547c-4.143,0-7.5,3.357-7.5,7.5v84.791c0,4.143,3.357,7.5,7.5,7.5h28.547c4.143,0,7.5-3.357,7.5-7.5
			v-84.791C301.941,167.139,298.583,163.781,294.441,163.781z M286.941,178.781v10.012h-13.547v-10.012H286.941z M286.941,211.902
			h-13.547v-8.109h13.547V211.902z M273.394,248.572v-21.67h13.547v21.67H273.394z"/>
		<g>
			<path d="M277.401,148.356H75.028c-4.142,0-7.5-3.357-7.5-7.5c0-4.143,3.358-7.5,7.5-7.5h202.373c4.143,0,7.5,3.357,7.5,7.5
				C284.901,144.998,281.544,148.356,277.401,148.356z"/>
		</g>
		<path d="M352.386,285.68l-13.957-128.623c-1.6-13.178-6.465-53.275-49.01-53.275h-17.705v-7.988
			c12.492-3.578,21.727-15.867,21.727-30.441c0-17.369-13.111-31.5-29.227-31.5h-163.92c-16.117,0-29.229,14.131-29.229,31.5
			c0,14.58,9.242,26.873,21.742,30.445v7.984H63.013c-42.547,0-47.411,40.098-49.02,53.369L0.044,285.68
			c-0.231,2.117,0.451,4.232,1.873,5.818c1.423,1.586,3.453,2.49,5.582,2.49H27.54v17.09c0,4.143,3.357,7.5,7.5,7.5h53.842
			c4.142,0,7.5-3.357,7.5-7.5v-17.09h159.666v17.09c0,4.143,3.358,7.5,7.5,7.5h53.844c4.142,0,7.5-3.357,7.5-7.5v-17.09h20.039
			c2.129,0,4.159-0.904,5.582-2.49C351.935,289.912,352.616,287.797,352.386,285.68z M239.913,48.852h24.301
			c7.845,0,14.227,7.402,14.227,16.5c0,9.096-6.382,16.498-14.227,16.498c-4.143,0-7.5,3.358-7.5,7.5v14.432h-34.185v-7.988
			c12.494-3.578,21.729-15.867,21.729-30.441C244.257,59.305,242.665,53.654,239.913,48.852z M86.066,65.352
			c0-9.098,6.383-16.5,14.229-16.5h114.734c7.846,0,14.229,7.402,14.229,16.5c0,9.096-6.383,16.498-14.229,16.498
			c-4.142,0-7.5,3.358-7.5,7.5v14.432h-99.721V89.35c0-4.142-3.357-7.5-7.5-7.5h-0.014C92.448,81.85,86.066,74.447,86.066,65.352z
			 M81.382,303.578H42.54v-9.59h38.842V303.578z M309.892,303.578h-38.844v-9.59h38.844V303.578z M15.858,278.988l13.036-120.125
			c3.454-28.469,13.338-40.082,34.119-40.082h226.406c20.779,0,30.664,11.613,34.107,39.988l13.046,120.219H15.858z"/>
	</g>
</g>
<g>
</g>
<g>
</g>
<g>
</g>
<g>
</g>
<g>
</g>
<g>
</g>
<g>
</g>
<g>
</g>
<g>
</g>
<g>
</g>
<g>
</g>
<g>
</g>
<g>
</g>
<g>
</g>
<g>
</g>
</svg>
