<?xml version="1.0" encoding="iso-8859-1"?>
<!-- Generator: Adobe Illustrator 18.0.0, SVG Export Plug-In . SVG Version: 6.00 Build 0)  -->
<!DOCTYPE svg PUBLIC "-//W3C//DTD SVG 1.1//EN" "http://www.w3.org/Graphics/SVG/1.1/DTD/svg11.dtd">
<svg version="1.1" id="Capa_1" xmlns="http://www.w3.org/2000/svg" xmlns:xlink="http://www.w3.org/1999/xlink" x="0px" y="0px"
	 viewBox="0 0 360.419 360.419" style="enable-background:new 0 0 360.419 360.419;" xml:space="preserve">
<g>
	<g>
		<g>
			<g>
				<g>
					<path d="M133.091,223.434c-1.97,0-3.909-0.8-5.3-2.2c-1.399-1.39-2.2-3.33-2.2-5.3c0-1.979,0.801-3.91,2.2-5.309
						c1.391-1.391,3.33-2.191,5.3-2.191c1.971,0,3.91,0.8,5.301,2.191c1.399,1.399,2.199,3.33,2.199,5.309
						c0,1.97-0.8,3.91-2.199,5.3C137.002,222.634,135.072,223.434,133.091,223.434z"/>
				</g>
				<g>
					<path d="M133.091,262.244c-1.97,0-3.909-0.8-5.3-2.199c-1.399-1.391-2.2-3.33-2.2-5.301c0-1.979,0.801-3.909,2.2-5.31
						c1.391-1.39,3.33-2.19,5.3-2.19c1.971,0,3.91,0.801,5.301,2.19c1.399,1.4,2.199,3.33,2.199,5.31c0,1.971-0.8,3.9-2.199,5.301
						C137.002,261.444,135.072,262.244,133.091,262.244z"/>
				</g>
			</g>
			<g>
				<g>
					<path d="M126.482,305.074c-1.971,0-3.9-0.8-5.3-2.189c-1.4-1.4-2.2-3.34-2.2-5.311c0-1.97,0.8-3.909,2.2-5.3
						c1.399-1.399,3.329-2.2,5.3-2.2c1.979,0,3.91,0.801,5.31,2.2c1.391,1.391,2.19,3.33,2.19,5.3c0,1.971-0.8,3.91-2.19,5.311
						C130.392,304.274,128.462,305.074,126.482,305.074z"/>
				</g>
				<g>
					<path d="M126.482,180.594c-1.971,0-3.9-0.8-5.3-2.19c-1.4-1.399-2.2-3.33-2.2-5.31c0-1.97,0.8-3.9,2.2-5.3
						c1.399-1.391,3.329-2.19,5.3-2.19c1.979,0,3.91,0.8,5.31,2.19c1.391,1.399,2.2,3.33,2.2,5.3c0,1.979-0.809,3.91-2.2,5.31
						C130.392,179.795,128.462,180.594,126.482,180.594z"/>
				</g>
				<g>
					<path d="M106.011,206.744c-1.979,0-3.909-0.8-5.3-2.189c-1.4-1.4-2.2-3.33-2.2-5.311c0-1.97,0.801-3.899,2.2-5.3
						c1.391-1.399,3.33-2.2,5.3-2.2c1.971,0,3.9,0.801,5.301,2.2c1.4,1.4,2.199,3.33,2.199,5.3c0,1.98-0.8,3.91-2.199,5.311
						C109.921,205.944,107.992,206.744,106.011,206.744z"/>
				</g>
				<g>
					<path d="M97.421,243.494c-1.97,0-3.899-0.81-5.3-2.199c-1.39-1.4-2.189-3.33-2.189-5.301c0-1.979,0.8-3.909,2.189-5.31
						c1.4-1.39,3.33-2.2,5.3-2.2c1.98,0,3.91,0.811,5.311,2.2c1.399,1.4,2.2,3.33,2.2,5.31c0,1.971-0.801,3.9-2.2,5.301
						C101.332,242.684,99.402,243.494,97.421,243.494z"/>
				</g>
				<g>
					<path d="M106.011,280.064c-1.97,0-3.909-0.8-5.3-2.2c-1.4-1.39-2.2-3.33-2.2-5.3c0-1.979,0.801-3.91,2.2-5.3
						c1.391-1.4,3.33-2.2,5.3-2.2c1.971,0,3.91,0.8,5.301,2.2c1.4,1.39,2.199,3.32,2.199,5.3c0,1.97-0.8,3.91-2.199,5.3
						C109.921,279.264,107.982,280.064,106.011,280.064z"/>
				</g>
			</g>
		</g>
		<path d="M227.998,119.754c10.293-13.603,33.867-41.94,59.17-53.303c3.777-1.696,6.105-5.498,4.834-9.44
			c-1.271-3.943-5.5-6.107-9.439-4.835c-9.549,3.08-18.666,8.496-27.025,14.96c-2.918-11.643-9.186-28.547-22.424-41.786
			C221.186,13.421,207.498,7.06,198.115,3.823c-13.541-4.671-22.383-5.063-26.285-1.167c0,0-0.988,0.848-1.672,2.549
			c-1.879,4.676-1.014,12.597,2.828,23.734c3.236,9.383,9.598,23.072,21.525,34.999c12.824,12.824,29.09,19.106,40.678,22.141
			c-10.379,11.3-18.217,22.355-22.316,28.515c-10.416-2.821-21.365-4.336-32.664-4.336c-68.969,0-125.08,56.11-125.08,125.08
			c0,68.97,56.11,125.081,125.08,125.081c68.971,0,125.08-56.111,125.08-125.081C305.289,183.285,273.326,138.564,227.998,119.754z
			 M205.119,53.331c-12.914-12.913-18.502-29.061-20.289-37.666c8.602,1.785,24.758,7.372,37.676,20.291
			c11.279,11.279,16.471,26.394,18.781,36.157C231.518,69.804,216.4,64.613,205.119,53.331z M180.209,345.419
			c-60.698,0-110.08-49.382-110.08-110.081c0-60.698,49.382-110.08,110.08-110.08c3.613,0,7.186,0.181,10.713,0.522
			c-4.131,3.487-6.266,6.619-6.455,6.903c-2.295,3.448-1.381,8.133,2.066,10.429c1.287,0.855,2.736,1.267,4.17,1.267
			c2.41,0,4.771-1.162,6.211-3.325c0.242-0.349,5.578-7.819,16.227-9.749c6.605,8.466,5.648,17.519,5.586,18.052
			c-0.545,4.078,2.303,7.84,6.383,8.417c0.357,0.051,0.711,0.075,1.061,0.075c3.676,0,6.887-2.705,7.416-6.45
			c0.059-0.404,0.746-5.703-0.836-12.771c34.25,18.682,57.539,55.027,57.539,96.711
			C290.289,296.037,240.908,345.419,180.209,345.419z"/>
	</g>
</g>
<g>
</g>
<g>
</g>
<g>
</g>
<g>
</g>
<g>
</g>
<g>
</g>
<g>
</g>
<g>
</g>
<g>
</g>
<g>
</g>
<g>
</g>
<g>
</g>
<g>
</g>
<g>
</g>
<g>
</g>
</svg>
