<?xml version="1.0" encoding="iso-8859-1"?>
<!-- Generator: Adobe Illustrator 18.0.0, SVG Export Plug-In . SVG Version: 6.00 Build 0)  -->
<!DOCTYPE svg PUBLIC "-//W3C//DTD SVG 1.1//EN" "http://www.w3.org/Graphics/SVG/1.1/DTD/svg11.dtd">
<svg version="1.1" id="Capa_1" xmlns="http://www.w3.org/2000/svg" xmlns:xlink="http://www.w3.org/1999/xlink" x="0px" y="0px"
	 viewBox="0 0 362.507 362.507" style="enable-background:new 0 0 362.507 362.507;" xml:space="preserve">
<g>
	<g>
		<g>
			<g>
				<g>
					<path d="M149.498,96.401c-1.98,0-3.91-0.8-5.3-2.2c-1.4-1.39-2.2-3.319-2.2-5.3c0-1.979,0.8-3.91,2.2-5.3
						c1.39-1.4,3.32-2.2,5.3-2.2c1.98,0,3.91,0.8,5.3,2.2c1.4,1.39,2.2,3.33,2.2,5.3c0,1.97-0.8,3.91-2.2,5.3
						C153.408,95.601,151.468,96.401,149.498,96.401z"/>
				</g>
				<g>
					<g>
						<path d="M78.468,121.781c-1.979,0-3.91-0.8-5.31-2.2c-1.39-1.399-2.19-3.33-2.19-5.3c0-1.979,0.801-3.91,2.19-5.31
							c1.39-1.391,3.33-2.19,5.31-2.19c1.971,0,3.9,0.8,5.301,2.19c1.39,1.399,2.189,3.33,2.189,5.31c0,1.97-0.8,3.9-2.189,5.3
							C82.368,120.981,80.438,121.781,78.468,121.781z"/>
					</g>
					<g>
						<path d="M220.528,121.781c-1.971,0-3.9-0.8-5.3-2.2c-1.391-1.399-2.2-3.33-2.2-5.3c0-1.979,0.81-3.91,2.2-5.31
							c1.399-1.391,3.329-2.19,5.3-2.19c1.98,0,3.91,0.8,5.31,2.19c1.391,1.399,2.2,3.33,2.2,5.31c0,1.97-0.81,3.9-2.2,5.3
							C224.439,120.981,222.508,121.781,220.528,121.781z"/>
					</g>
				</g>
				<g>
					<g>
						<path d="M187.108,104.001c-1.98,0-3.91-0.8-5.311-2.199c-1.39-1.4-2.189-3.33-2.189-5.301c0-1.979,0.8-3.909,2.189-5.31
							c1.4-1.39,3.33-2.19,5.311-2.19c1.97,0,3.91,0.801,5.3,2.19c1.399,1.4,2.2,3.33,2.2,5.31c0,1.971-0.801,3.91-2.2,5.301
							C191.018,103.201,189.078,104.001,187.108,104.001z"/>
					</g>
					<g>
						<path d="M111.888,104.001c-1.97,0-3.899-0.8-5.3-2.199c-1.399-1.4-2.2-3.33-2.2-5.301c0-1.979,0.801-3.909,2.2-5.31
							c1.4-1.39,3.33-2.19,5.3-2.19c1.98,0,3.91,0.801,5.311,2.19c1.39,1.4,2.189,3.33,2.189,5.31c0,1.971-0.8,3.9-2.189,5.301
							C115.798,103.201,113.868,104.001,111.888,104.001z"/>
					</g>
				</g>
			</g>
			<path d="M355.007,183.035h-82.185c0.529-1.342,1.033-2.688,1.487-4.046c14.121-2.279,24.853-13.086,24.853-26.042
				c0-12.952-10.723-23.756-24.836-26.041c-5.811-17.502-17.491-33.492-34.279-46.503c-24.268-18.808-56.424-29.165-90.548-29.165
				c-34.124,0-66.28,10.357-90.548,29.165c-16.797,13.017-28.48,29.018-34.289,46.53C10.634,129.279,0,140.047,0,152.947
				c0,12.912,10.659,23.691,24.711,26.02c12.211,36.522,49.573,65.458,97.983,73.482c22.573,35.205,63.77,58.82,110.756,58.82
				c71.162,0,129.057-54.161,129.057-120.734C362.507,186.392,359.149,183.035,355.007,183.035z M278.044,143.865
				c3.686,2.122,6.117,5.432,6.117,9.082c0,3.65-2.432,6.953-6.117,9.072c0.334-3.001,0.511-6.026,0.511-9.074
				C278.555,149.894,278.377,146.866,278.044,143.865z M20.939,161.915c-3.585-2.121-5.939-5.377-5.939-8.968
				c0-3.594,2.354-6.857,5.94-8.984c-0.325,2.97-0.499,5.965-0.499,8.982C20.441,155.964,20.611,158.956,20.939,161.915z
				 M35.441,152.945c0-47.81,51.166-86.707,114.057-86.707c62.891,0,114.057,38.897,114.057,86.707
				c0,10.375-2.386,20.478-7.093,30.09h-144.57c-4.143,0-7.5,3.357-7.5,7.5c0,15.783,3.259,30.866,9.173,44.698
				C67.518,223.634,35.441,190.684,35.441,152.945z M300.214,247.271c-17.001,11.426-37.418,18.531-59.264,19.89v-60.296
				L300.214,247.271z M225.95,206.865v60.316c-21.901-1.301-42.382-8.375-59.439-19.791L225.95,206.865z M154.048,237.736
				c-12.205-10.915-21.837-24.4-27.865-39.701h86.092L154.048,237.736z M233.45,296.269c-46.823,0-87.143-26.296-104.691-63.791
				c23.746,30.645,62.228,49.941,104.521,49.941c42.762,0,81.643-19.721,105.327-50.955
				C321.314,269.498,280.693,296.269,233.45,296.269z M312.659,237.603l-58.033-39.568h85.744
				C334.366,213.273,324.79,226.712,312.659,237.603z"/>
		</g>
	</g>
</g>
<g>
</g>
<g>
</g>
<g>
</g>
<g>
</g>
<g>
</g>
<g>
</g>
<g>
</g>
<g>
</g>
<g>
</g>
<g>
</g>
<g>
</g>
<g>
</g>
<g>
</g>
<g>
</g>
<g>
</g>
</svg>
