<?xml version="1.0" encoding="iso-8859-1"?>
<!-- Generator: Adobe Illustrator 18.0.0, SVG Export Plug-In . SVG Version: 6.00 Build 0)  -->
<!DOCTYPE svg PUBLIC "-//W3C//DTD SVG 1.1//EN" "http://www.w3.org/Graphics/SVG/1.1/DTD/svg11.dtd">
<svg version="1.1" id="Capa_1" xmlns="http://www.w3.org/2000/svg" xmlns:xlink="http://www.w3.org/1999/xlink" x="0px" y="0px"
	 viewBox="0 0 405.218 405.218" style="enable-background:new 0 0 405.218 405.218;" xml:space="preserve">
<g>
	<path d="M405.218,206.702c0-14.401-11.716-26.117-26.117-26.117c-7.971,0-15.115,3.594-19.909,9.24
		c-7.363-0.676-27.517-4.201-46.252-22.086c-24.665-23.548-68.105-38.764-110.665-38.764c-42.561,0-86,15.216-110.665,38.764
		c-18.915,18.057-38.349,21.459-45.576,22.096c-4.794-5.652-11.941-9.25-19.917-9.25C11.716,180.585,0,192.301,0,206.702
		c0,13.199,9.845,24.136,22.574,25.871l14.081,38.731c1.078,2.964,3.895,4.938,7.049,4.938h317.809c3.154,0,5.971-1.974,7.049-4.938
		l14.082-38.731C395.374,230.838,405.218,219.901,405.218,206.702z M262.951,168.801c0.097,0.432-0.425,1.258-1.482,1.584
		c-1.081,0.332-1.996-0.081-2.146-0.568l-5.735-17.949c1.389,0.431,2.768,0.876,4.135,1.338L262.951,168.801z M200.726,143.993
		c0.516-0.005,1.033-0.018,1.549-0.018c0.738,0,1.478,0.015,2.217,0.025V169.4c0,0.44-0.751,1.106-1.883,1.106
		s-1.883-0.666-1.883-1.106V143.993z M147.58,152.954c1.363-0.455,2.737-0.895,4.123-1.318l-5.83,18.248
		c-0.065,0.211-0.732,0.879-2.126,0.501c-1.375-0.373-1.548-1.007-1.48-1.582L147.58,152.954z M101.967,178.589
		c7.271-6.94,16.64-13.112,27.319-18.258l-1.287,3.839c-0.019,0.056-0.036,0.111-0.054,0.167c-1.289,4.167-0.737,8.769,1.515,12.626
		c2.162,3.702,5.662,6.455,9.854,7.752c1.719,0.531,3.479,0.796,5.225,0.796c2.514,0,4.998-0.548,7.284-1.63
		c4.037-1.912,7.091-5.398,8.358-9.498l8.64-27.04c5.57-1.105,11.226-1.953,16.903-2.521V169.4c0,8.881,7.573,16.106,16.883,16.106
		s16.883-7.226,16.883-16.106v-24.513c5.697,0.592,11.368,1.468,16.95,2.601l8.573,26.828c2.114,6.833,8.603,11.188,15.694,11.188
		c1.713,0,3.463-0.255,5.193-0.79c8.894-2.75,13.995-11.892,11.371-20.377c-0.018-0.056-0.035-0.112-0.054-0.168l-1.156-3.447
		c10.346,5.066,19.432,11.1,26.518,17.866c8.573,8.186,17.376,13.824,25.506,17.723c-5.138,1.645-10.606,2.891-20.231,2.891
		c-11.904,0-17.453-1.906-23.878-4.113c-6.722-2.31-14.341-4.928-28.751-4.928c-14.409,0-22.027,2.618-28.75,4.928
		c-6.424,2.207-11.972,4.113-23.875,4.113c-11.903,0-17.45-1.906-23.874-4.113c-6.723-2.31-14.341-4.928-28.75-4.928
		c-14.408,0-22.026,2.618-28.748,4.928c-6.423,2.207-11.971,4.113-23.873,4.113c-9.819,0-15.312-1.299-20.541-2.991
		C84.804,192.316,93.469,186.702,101.967,178.589z M356.259,261.242H48.958l-10.333-28.423h327.968L356.259,261.242z
		 M379.101,217.819H26.116c-6.13,0-11.116-4.987-11.116-11.117c0-6.13,4.986-11.117,11.116-11.117s11.117,4.987,11.117,11.117
		c0,4.143,3.357,7.5,7.5,7.5s7.5-3.357,7.5-7.5c0-0.416-0.012-0.828-0.031-1.239c7.1,0.62,11.502,2.127,16.406,3.811
		c6.723,2.31,14.341,4.928,28.749,4.928s22.026-2.618,28.748-4.928c6.423-2.207,11.971-4.113,23.873-4.113
		c11.903,0,17.451,1.906,23.875,4.113c6.723,2.31,14.341,4.928,28.749,4.928c14.409,0,22.027-2.618,28.75-4.928
		c6.424-2.207,11.972-4.113,23.875-4.113c11.904,0,17.453,1.906,23.878,4.113c6.722,2.31,14.341,4.928,28.751,4.928
		c14.409,0,22.028-2.618,28.751-4.928c4.904-1.686,9.307-3.191,16.407-3.811c-0.02,0.411-0.031,0.823-0.031,1.239
		c0,4.143,3.357,7.5,7.5,7.5s7.5-3.357,7.5-7.5c0-6.13,4.987-11.117,11.117-11.117c6.13,0,11.117,4.987,11.117,11.117
		C390.218,212.832,385.23,217.819,379.101,217.819z"/>
</g>
<g>
</g>
<g>
</g>
<g>
</g>
<g>
</g>
<g>
</g>
<g>
</g>
<g>
</g>
<g>
</g>
<g>
</g>
<g>
</g>
<g>
</g>
<g>
</g>
<g>
</g>
<g>
</g>
<g>
</g>
</svg>
