<?xml version="1.0" encoding="iso-8859-1"?>
<!-- Generator: Adobe Illustrator 18.0.0, SVG Export Plug-In . SVG Version: 6.00 Build 0)  -->
<!DOCTYPE svg PUBLIC "-//W3C//DTD SVG 1.1//EN" "http://www.w3.org/Graphics/SVG/1.1/DTD/svg11.dtd">
<svg version="1.1" id="Capa_1" xmlns="http://www.w3.org/2000/svg" xmlns:xlink="http://www.w3.org/1999/xlink" x="0px" y="0px"
	 viewBox="0 0 311.66 311.66" style="enable-background:new 0 0 311.66 311.66;" xml:space="preserve">
<g>
	<path d="M197.752,253.948c35.684-20.701,59.463-66.725,59.463-118.186c0-4.143-3.359-7.5-7.5-7.5h-5.732
		c-1.146-32.851-9.799-63.576-24.676-87.193C202.623,14.586,180.08,0,155.83,0s-46.793,14.586-63.477,41.069
		c-14.876,23.617-23.53,54.343-24.676,87.193h-5.732c-4.143,0-7.5,3.357-7.5,7.5c0,51.461,23.779,97.485,59.462,118.186
		c-18.68,11.379-30.082,29.85-30.082,50.212c0,4.143,3.357,7.5,7.5,7.5h129.012c4.141,0,7.5-3.357,7.5-7.5
		C227.836,283.798,216.434,265.327,197.752,253.948z M69.629,143.263h172.403c-0.338,6.881-1.152,13.614-2.377,20.154H72.004
		C70.78,156.877,69.966,150.144,69.629,143.263z M105.045,49.064C118.883,27.098,136.918,15,155.83,15s36.947,12.098,50.783,34.064
		c13.406,21.28,21.232,49.173,22.355,79.198H82.694C83.814,98.237,91.641,70.345,105.045,49.064z M99.559,296.66
		c3.119-15.815,15.992-29.358,34.549-35.654c3.037-1.03,5.082-3.876,5.092-7.082c0.008-3.206-2.023-6.064-5.053-7.11
		c-27.186-9.385-48.519-35.326-58.509-68.396h160.384c-9.99,33.07-31.324,59.012-58.508,68.398
		c-3.031,1.046-5.061,3.903-5.053,7.109c0.01,3.206,2.055,6.052,5.09,7.082c18.559,6.296,31.43,19.839,34.551,35.654H99.559z"/>
</g>
<g>
</g>
<g>
</g>
<g>
</g>
<g>
</g>
<g>
</g>
<g>
</g>
<g>
</g>
<g>
</g>
<g>
</g>
<g>
</g>
<g>
</g>
<g>
</g>
<g>
</g>
<g>
</g>
<g>
</g>
</svg>
