<?xml version="1.0" encoding="iso-8859-1"?>
<!-- Generator: Adobe Illustrator 18.0.0, SVG Export Plug-In . SVG Version: 6.00 Build 0)  -->
<!DOCTYPE svg PUBLIC "-//W3C//DTD SVG 1.1//EN" "http://www.w3.org/Graphics/SVG/1.1/DTD/svg11.dtd">
<svg version="1.1" id="Capa_1" xmlns="http://www.w3.org/2000/svg" xmlns:xlink="http://www.w3.org/1999/xlink" x="0px" y="0px"
	 viewBox="0 0 383.26 383.26" style="enable-background:new 0 0 383.26 383.26;" xml:space="preserve">
<g>
	<g>
		<path d="M375.76,92.065H265.734c-4.143,0-7.5,3.357-7.5,7.5c0,7.46-9.662,13.763-21.028,13.763
			c-0.049-0.001-0.173-0.002-0.222-0.002c-3.747,0-6.92,2.766-7.43,6.479c-0.956,6.945-10.385,12.596-21.02,12.596
			c-10.635,0-20.066-5.651-21.021-12.597c-0.511-3.712-3.683-6.478-7.43-6.478l-0.15,0.002c-11.438,0-21.101-6.303-21.101-13.763
			c0-4.143-3.357-7.5-7.5-7.5H7.5c-4.143,0-7.5,3.357-7.5,7.5c0,105.665,85.965,191.63,191.63,191.63
			c105.665,0,191.63-85.965,191.63-191.63C383.26,95.422,379.902,92.065,375.76,92.065z M145.077,107.065
			c3.679,10.844,15.134,19.167,29.284,20.921c4.873,11.406,18.42,19.414,34.173,19.414c15.753,0,29.301-8.007,34.173-19.414
			c14.149-1.754,25.604-10.077,29.283-20.921h69.375c-3.918,79.198-69.582,142.419-149.735,142.419
			c-80.152,0-145.816-63.221-149.732-142.419H145.077z M191.63,276.195c-94.88,0-172.526-75.203-176.473-169.13H26.89
			c3.936,87.469,76.318,157.419,164.74,157.419c88.423,0,160.808-69.95,164.743-157.419h11.729
			C364.156,200.992,286.51,276.195,191.63,276.195z"/>
		<g>
			<path d="M191.63,224.966c-4.143,0-7.5-3.357-7.5-7.5v-26.42c0-4.143,3.357-7.5,7.5-7.5c4.143,0,7.5,3.357,7.5,7.5v26.42
				C199.13,221.609,195.772,224.966,191.63,224.966z"/>
		</g>
		<g>
			<g>
				<path d="M109.663,147.655H83.241c-4.143,0-7.5-3.357-7.5-7.5c0-4.143,3.357-7.5,7.5-7.5h26.422c4.143,0,7.5,3.357,7.5,7.5
					C117.163,144.297,113.806,147.655,109.663,147.655z"/>
			</g>
			<g>
				<path d="M300.018,147.655h-26.42c-4.143,0-7.5-3.357-7.5-7.5c0-4.143,3.357-7.5,7.5-7.5h26.42c4.143,0,7.5,3.357,7.5,7.5
					C307.518,144.297,304.16,147.655,300.018,147.655z"/>
			</g>
		</g>
		<g>
			<g>
				<path d="M121.688,201.63c-1.92,0-3.839-0.732-5.304-2.197c-2.929-2.929-2.929-7.678,0.001-10.607l18.683-18.682
					c2.929-2.929,7.678-2.928,10.606,0.001s2.929,7.678-0.001,10.606l-18.683,18.682C125.526,200.898,123.606,201.63,121.688,201.63
					z"/>
			</g>
			<g>
				<path d="M261.572,201.668c-1.92,0-3.84-0.732-5.304-2.196l-18.681-18.681c-2.929-2.93-2.929-7.678,0-10.607
					c2.93-2.928,7.678-2.928,10.607,0l18.68,18.681c2.93,2.93,2.93,7.678,0,10.607C265.41,200.936,263.49,201.668,261.572,201.668z"
					/>
			</g>
		</g>
	</g>
</g>
<g>
</g>
<g>
</g>
<g>
</g>
<g>
</g>
<g>
</g>
<g>
</g>
<g>
</g>
<g>
</g>
<g>
</g>
<g>
</g>
<g>
</g>
<g>
</g>
<g>
</g>
<g>
</g>
<g>
</g>
</svg>
