<?xml version="1.0" encoding="iso-8859-1"?>
<!-- Generator: Adobe Illustrator 18.0.0, SVG Export Plug-In . SVG Version: 6.00 Build 0)  -->
<!DOCTYPE svg PUBLIC "-//W3C//DTD SVG 1.1//EN" "http://www.w3.org/Graphics/SVG/1.1/DTD/svg11.dtd">
<svg version="1.1" id="Capa_1" xmlns="http://www.w3.org/2000/svg" xmlns:xlink="http://www.w3.org/1999/xlink" x="0px" y="0px"
	 viewBox="0 0 326.581 326.581" style="enable-background:new 0 0 326.581 326.581;" xml:space="preserve">
<g>
	<g>
		<path d="M271.89,67.003c-25.603-15.427-60.453-24.637-93.224-24.637h-57.74C54.247,42.367,0,96.613,0,163.29
			c0,66.677,54.246,120.922,120.924,120.924l0,0h57.742c32.77,0,67.62-9.21,93.224-24.637
			c35.779-21.558,54.691-54.853,54.691-96.287S307.669,88.561,271.89,67.003z M15,163.29c0-58.406,47.519-105.924,105.926-105.924
			c58.406,0,105.923,47.518,105.923,105.924c0,58.406-47.517,105.924-105.923,105.924C62.519,269.214,15,221.697,15,163.29z
			 M179.21,269.21c37.311-20.613,62.639-60.361,62.639-105.92S216.52,77.984,179.21,57.371
			c46.109,0.172,132.371,22.461,132.371,105.92S225.319,269.039,179.21,269.21z"/>
		<g>
			<path d="M120.926,206.074c-23.591,0-42.783-19.192-42.783-42.783s19.192-42.783,42.783-42.783
				c23.59,0,42.782,19.192,42.782,42.783S144.516,206.074,120.926,206.074z M120.926,135.507c-15.319,0-27.783,12.464-27.783,27.783
				s12.464,27.783,27.783,27.783c15.319,0,27.782-12.464,27.782-27.783S136.245,135.507,120.926,135.507z"/>
		</g>
		<g>
			<g>
				<path d="M120.926,112.687c-4.142,0-7.5-3.357-7.5-7.5V92.554c0-4.143,3.358-7.5,7.5-7.5c4.143,0,7.5,3.357,7.5,7.5v12.633
					C128.426,109.33,125.068,112.687,120.926,112.687z"/>
			</g>
			<g>
				<path d="M120.926,241.528c-4.142,0-7.5-3.357-7.5-7.5v-12.633c0-4.143,3.358-7.5,7.5-7.5c4.143,0,7.5,3.357,7.5,7.5v12.633
					C128.426,238.17,125.068,241.528,120.926,241.528z"/>
			</g>
		</g>
		<g>
			<g>
				<path d="M62.82,170.79H50.188c-4.143,0-7.5-3.357-7.5-7.5c0-4.143,3.357-7.5,7.5-7.5H62.82c4.143,0,7.5,3.357,7.5,7.5
					C70.32,167.433,66.963,170.79,62.82,170.79z"/>
			</g>
			<g>
				<path d="M191.661,170.79h-12.633c-4.143,0-7.5-3.357-7.5-7.5c0-4.143,3.357-7.5,7.5-7.5h12.633c4.143,0,7.5,3.357,7.5,7.5
					C199.161,167.433,195.804,170.79,191.661,170.79z"/>
			</g>
		</g>
		<g>
			<g>
				<path d="M70.906,220.809c-1.919,0-3.839-0.732-5.303-2.196c-2.93-2.929-2.93-7.678-0.001-10.606l8.932-8.933
					c2.93-2.93,7.679-2.929,10.606-0.001c2.93,2.929,2.93,7.678,0.001,10.607l-8.932,8.933
					C74.745,220.077,72.825,220.809,70.906,220.809z"/>
			</g>
			<g>
				<path d="M162.011,129.706c-1.919,0-3.839-0.732-5.303-2.196c-2.93-2.929-2.93-7.678-0.001-10.606l8.933-8.934
					c2.93-2.93,7.679-2.929,10.606-0.001c2.93,2.929,2.93,7.678,0.001,10.606l-8.933,8.934
					C165.85,128.974,163.93,129.706,162.011,129.706z"/>
			</g>
		</g>
		<g>
			<g>
				<path d="M79.838,129.705c-1.919,0-3.839-0.732-5.304-2.196l-8.932-8.932c-2.929-2.93-2.929-7.678,0-10.607
					c2.93-2.928,7.678-2.928,10.607,0l8.932,8.932c2.929,2.93,2.929,7.678,0,10.607C83.677,128.972,81.757,129.705,79.838,129.705z"
					/>
			</g>
			<g>
				<path d="M170.943,220.809c-1.92,0-3.839-0.732-5.304-2.197l-8.933-8.934c-2.929-2.929-2.929-7.678,0.001-10.607
					c2.929-2.929,7.678-2.928,10.606,0.001l8.933,8.934c2.929,2.929,2.929,7.678-0.001,10.606
					C174.782,220.077,172.862,220.809,170.943,220.809z"/>
			</g>
		</g>
	</g>
</g>
<g>
</g>
<g>
</g>
<g>
</g>
<g>
</g>
<g>
</g>
<g>
</g>
<g>
</g>
<g>
</g>
<g>
</g>
<g>
</g>
<g>
</g>
<g>
</g>
<g>
</g>
<g>
</g>
<g>
</g>
</svg>
