<?xml version="1.0" encoding="iso-8859-1"?>
<!-- Generator: Adobe Illustrator 18.0.0, SVG Export Plug-In . SVG Version: 6.00 Build 0)  -->
<!DOCTYPE svg PUBLIC "-//W3C//DTD SVG 1.1//EN" "http://www.w3.org/Graphics/SVG/1.1/DTD/svg11.dtd">
<svg version="1.1" id="Capa_1" xmlns="http://www.w3.org/2000/svg" xmlns:xlink="http://www.w3.org/1999/xlink" x="0px" y="0px"
	 viewBox="0 0 398.823 398.823" style="enable-background:new 0 0 398.823 398.823;" xml:space="preserve">
<g>
	<path d="M273.851,183.659c-8.08-11.054-17.145-20.119-26.881-27.033c3.125-3.74,5.387-8.351,7.09-12.391
		c4.066-9.651,20.695-60.37,1.539-68.445c-2.385-1.006-4.854-1.141-7.35-0.602c0.248-5.257,0.205-10.517-0.166-15.241
		c-0.426-5.409-1.719-21.87-12.549-24.167c-6.068-1.286-11.51,2.722-16.092,8.703c-0.512-7.589-1.852-16.03-3.75-23.281
		C213.31,12.101,209.027,0,199.414,0c-9.613,0-13.896,12.101-16.281,21.202c-1.9,7.251-3.24,15.69-3.752,23.277
		c-4.58-5.978-10.021-9.981-16.092-8.699c-10.83,2.297-12.121,18.761-12.547,24.17c-0.371,4.724-0.414,9.983-0.166,15.239
		c-2.498-0.54-4.965-0.405-7.35,0.601c-19.156,8.073-2.527,58.794,1.541,68.445c1.695,4.026,3.953,8.646,7.084,12.393
		c-9.736,6.914-18.799,15.979-26.879,27.031c-18.92,25.88-29.771,59.475-29.771,92.171c0,36.466,7.535,65.417,22.395,86.049
		c17.656,24.515,45.184,36.944,81.816,36.944s64.16-12.43,81.816-36.944c14.859-20.633,22.395-49.584,22.395-86.049
		C303.623,243.135,292.771,209.539,273.851,183.659z M285.959,248.513l-33.963,19.601l-37.58-21.689l37.309-21.532l33.314,19.226
		C285.369,245.574,285.671,247.04,285.959,248.513z M162.029,276.659l37.383-21.575l37.58,21.689l-37.383,21.574L162.029,276.659z
		 M236.919,337.2l-37.309,21.532L162.3,337.2l37.309-21.532L236.919,337.2z M226.472,162.076l-26.791,15.462l-27.031-15.601
		c8.566-4.035,17.582-6.258,26.762-6.258C208.699,155.68,217.818,157.952,226.472,162.076z M199.683,194.857l37.309,21.532
		l-37.309,21.532l-37.311-21.532L199.683,194.857z M273.722,212.196c1.736,3.511,3.344,7.132,4.809,10.848l-11.803-6.812
		L273.722,212.196z M266.48,199.37l-14.484,8.359l-37.309-21.531l26.289-15.173C250.572,178.378,259.244,188.061,266.48,199.37z
		 M231.939,52.784c1.635,6.5,2.238,20.339,0.193,33.482c-3.25,3.509-6.328,7.488-9.09,11.437
		c-0.789-6.861-1.854-13.761-3.125-20.112C223.71,66.203,228.589,57.065,231.939,52.784z M199.414,19.183
		c2.055,5.69,4.166,15.122,4.945,24.525c-1.549-0.778-3.193-1.165-4.947-1.165c-1.754,0-3.398,0.387-4.945,1.164
		C195.246,34.305,197.357,24.873,199.414,19.183z M166.884,52.784c3.35,4.28,8.23,13.416,12.023,24.804
		c-1.271,6.352-2.338,13.252-3.125,20.114c-2.764-3.946-5.842-7.925-9.09-11.434C164.646,73.123,165.25,59.284,166.884,52.784z
		 M158.589,138.409c-7.32-17.369-10.488-39.826-9.045-47.592c1.254,0.852,2.803,2.218,4.545,4.006
		c0.129,0.144,0.262,0.285,0.402,0.419c6.061,6.345,14.281,17.595,20.533,30.29c1.541,3.128,5.035,4.779,8.43,3.991
		c3.396-0.791,5.799-3.818,5.799-7.305l-0.002-0.322c-0.486-24.719,8.676-58.147,10.16-61.403
		c1.486,3.259,11.951,38.267,10.16,61.403v0.325c0,3.487,2.402,6.514,5.799,7.305c3.393,0.786,6.889-0.863,8.43-3.992
		c6.254-12.706,14.482-23.963,20.545-30.306c0.117-0.113,0.229-0.232,0.34-0.354c1.762-1.814,3.33-3.199,4.596-4.059
		c1.445,7.767-1.723,30.225-9.043,47.594c-1.213,2.877-4.104,9.123-6.709,10.253c-10.895-5.245-22.389-7.983-34.117-7.983
		c-11.738,0-23.24,2.743-34.143,7.995C163.439,147.838,161.011,144.156,158.589,138.409z M158.078,170.847l26.6,15.351
		l-37.309,21.532l-14.881-8.588C139.755,187.839,148.457,178.172,158.078,170.847z M125.101,212.198l7.262,4.19l-12.225,7.057
		C121.644,219.59,123.302,215.834,125.101,212.198z M113.709,244.476l33.66-19.427l37.311,21.533l-37.383,21.574l-34.391-19.848
		C113.158,247.025,113.421,245.746,113.709,244.476z M110.201,275.83c0-3.855,0.162-7.689,0.473-11.49l21.619,12.477l-21.705,12.527
		C110.334,284.986,110.201,280.486,110.201,275.83z M112.699,308.572c-0.174-1.042-0.34-2.092-0.496-3.156l34.822-20.097
		l37.58,21.689l-37.311,21.532L112.699,308.572z M123.296,342.391c-2.168-4.235-4.068-8.791-5.699-13.671l14.693,8.48
		L123.296,342.391z M165.017,378.697c-13.84-4.679-25.061-12.578-33.676-23.63l15.953-9.208l37.311,21.533L165.017,378.697z
		 M199.412,383.823c-4.242,0-8.316-0.208-12.258-0.581l12.457-7.189l12.396,7.154C207.96,383.602,203.775,383.823,199.412,383.823z
		 M234.064,378.617l-19.447-11.225l37.309-21.532l15.68,9.049C259.027,365.977,247.853,373.905,234.064,378.617z M275.621,342.215
		l-8.689-5.015l14.195-8.192C279.541,333.71,277.707,338.115,275.621,342.215z M286.082,308.828l-34.156,19.713l-37.311-21.533
		l37.383-21.575l34.623,19.982C286.453,306.567,286.271,307.701,286.082,308.828z M267.001,276.773l21.164-12.215
		c0.299,3.729,0.457,7.49,0.457,11.272c0,4.547-0.123,8.949-0.365,13.211L267.001,276.773z"/>
</g>
<g>
</g>
<g>
</g>
<g>
</g>
<g>
</g>
<g>
</g>
<g>
</g>
<g>
</g>
<g>
</g>
<g>
</g>
<g>
</g>
<g>
</g>
<g>
</g>
<g>
</g>
<g>
</g>
<g>
</g>
</svg>
