<?xml version="1.0" encoding="iso-8859-1"?>
<!-- Generator: Adobe Illustrator 18.0.0, SVG Export Plug-In . SVG Version: 6.00 Build 0)  -->
<!DOCTYPE svg PUBLIC "-//W3C//DTD SVG 1.1//EN" "http://www.w3.org/Graphics/SVG/1.1/DTD/svg11.dtd">
<svg version="1.1" id="Capa_1" xmlns="http://www.w3.org/2000/svg" xmlns:xlink="http://www.w3.org/1999/xlink" x="0px" y="0px"
	 viewBox="0 0 335.345 335.345" style="enable-background:new 0 0 335.345 335.345;" xml:space="preserve">
<g>
	<g>
		<path d="M332.284,206.681c-8.082-15.755-25.158-16.579-33.189-14.793C142.89,223.059,86.604,127.828,68.368,78.936
			c7.487-3.586,14.646-10.907,17.669-24.608c0.021-0.101,0.042-0.2,0.06-0.302l5.423-30.456c0.349-1.958-0.095-3.975-1.233-5.607
			c-1.138-1.631-2.878-2.743-4.836-3.092L20.503,3.309c-4.069-0.725-7.973,1.991-8.698,6.069L6.382,39.833
			c-0.017,0.101-0.034,0.202-0.048,0.304c-2.559,18.811,6.005,29.289,14.621,34.279C4.593,107.928-2.695,147.094,0.898,183.19
			c4.66,46.827,26.827,85.792,64.104,112.681c33.375,24.075,74.707,36.282,122.848,36.282c26.749,0,54.786-3.85,81.079-11.134
			c23.815-6.597,24.995-25.628,23.295-33.495c-0.824-11.013-8.914-17.32-17.149-20.551c13.527-5.158,27.833-12.174,42.275-20.81
			c0.477-0.285,0.831-0.498,1.054-0.626C340.456,232.842,335.977,213.368,332.284,206.681z M116.391,172.083
			c47.32,38.062,109.813,49.668,185.732,34.496c0.065-0.013,0.073-0.015,0.139-0.029c0.852-0.178,6.408-1.198,11.276,1.401
			c-12.533,5.798-38.248,15.782-70.551,17.973c-61.141,4.146-115.183-20.502-160.656-73.235
			c-4.496-10.925-7.659-21.551-9.873-31.243C82.775,138.387,97.012,156.496,116.391,172.083z M68.947,159.592
			c0.013,0.029,0.024,0.058,0.037,0.086c1.807,4.29,3.796,8.624,6.012,12.978c14.663,28.811,35.697,52.286,62.521,69.771
			c26.843,17.497,59.512,28.935,97.375,34.14c0.099,0.02,0.199,0.03,0.299,0.045c0.114,0.016,0.226,0.033,0.341,0.049
			c0.032,0.004,0.063,0.009,0.096,0.012c8.732,1.18,17.738,2.031,27.014,2.548c0.818,0.11,5.675,0.843,9.575,2.988
			c-12.524,0.803-34.042,1.38-58.781-1.392c-35.504-3.978-85.152-15.873-120.053-49.952C58.504,196.809,44.054,146.554,50.379,81.48
			l1.953,0.348C52.547,94.993,54.748,125.834,68.947,159.592z M21.178,42.305l4.08-22.914l50.179,8.934l-4.08,22.914
			c-3.76,16.732-15.603,15.889-18.058,15.525l-20.571-3.662c-0.001,0-0.002-0.001-0.002-0.001c-0.034-0.006-3.471-0.749-6.573-3.397
			C21.815,55.999,20.141,50.146,21.178,42.305z M277.294,296.905c-1.129,3.502-4.316,7.428-12.368,9.659
			c-25.009,6.928-51.66,10.589-77.075,10.589c-44.925,0-83.305-11.253-114.072-33.448C-2.839,228.44,8.386,132.927,35.51,78.832
			l0.056,0.01c-7.089,70.426,8.839,125.2,47.388,162.805c30.112,29.377,74.794,48.092,129.214,54.122
			c14.481,1.605,27.798,2.128,39.007,2.128C262.237,297.897,271.24,297.387,277.294,296.905z M309.652,233.289
			c-26.853,16.056-52.822,26.093-73.27,28.352c-53.463-7.361-94.897-27.48-123.808-60.074
			c15.139,11.247,31.059,20.166,47.654,26.665c22.286,8.729,45.774,13.127,70.002,13.127c4.563,0,9.157-0.156,13.771-0.469
			c35.144-2.383,62.78-13.186,76.337-19.532C318.705,228.672,310.225,232.947,309.652,233.289z"/>
	</g>
</g>
<g>
</g>
<g>
</g>
<g>
</g>
<g>
</g>
<g>
</g>
<g>
</g>
<g>
</g>
<g>
</g>
<g>
</g>
<g>
</g>
<g>
</g>
<g>
</g>
<g>
</g>
<g>
</g>
<g>
</g>
</svg>
