<?xml version="1.0" encoding="iso-8859-1"?>
<!-- Generator: Adobe Illustrator 18.0.0, SVG Export Plug-In . SVG Version: 6.00 Build 0)  -->
<!DOCTYPE svg PUBLIC "-//W3C//DTD SVG 1.1//EN" "http://www.w3.org/Graphics/SVG/1.1/DTD/svg11.dtd">
<svg version="1.1" id="Capa_1" xmlns="http://www.w3.org/2000/svg" xmlns:xlink="http://www.w3.org/1999/xlink" x="0px" y="0px"
	 viewBox="0 0 341.94 341.94" style="enable-background:new 0 0 341.94 341.94;" xml:space="preserve">
<g>
	<path d="M337.717,137.841V93.059c0-12.652-10.293-22.945-22.945-22.945c-12.651,0-22.943,10.293-22.943,22.945
		c0,4.143,3.357,7.5,7.5,7.5s7.5-3.357,7.5-7.5c0-4.381,3.564-7.945,7.943-7.945c4.381,0,7.945,3.564,7.945,7.945v43.614
		c-33.285,45.71-150.1,46.955-152.055,46.969c-0.89-0.006-123.909-3.247-153.298-48.747c-1.54-2.385-4.349-3.637-7.159-3.297
		c-2.817,0.344-5.199,2.25-6.153,4.924c-0.642,1.798-13.863,43.412,11.215,81.89c36.652,56.235,155.399,53.392,159.672,53.392
		c75.666,0,126.506-18.783,151.127-53.392C350.43,184.163,340.133,145.532,337.717,137.841z M326.092,155.35
		c0.921,7.181,1.264,16.557-0.617,26.632c-3.638-6.438-9.539-11.43-16.619-13.893C315.211,164.324,321.035,160.1,326.092,155.35z
		 M298.842,181.397c8.587,0,15.572,6.984,15.572,15.569c0,8.586-6.985,15.571-15.572,15.571c-8.584,0-15.568-6.985-15.568-15.571
		C283.273,188.381,290.258,181.397,298.842,181.397z M236.178,235.608c-8.584,0-15.568-6.985-15.568-15.571
		c0-8.586,6.984-15.57,15.568-15.57c8.587,0,15.572,6.984,15.572,15.57C251.75,228.623,244.765,235.608,236.178,235.608z
		 M236.076,250.607c-15.756,2.888-33.455,4.514-52.965,4.865c10.67-4.775,18.127-15.485,18.127-27.911
		c0-13.656-9.002-25.248-21.383-29.159c8.627-0.351,22.534-1.215,38.732-3.343c-7.843,5.54-12.979,14.668-12.979,24.979
		C205.609,236.861,219.268,250.55,236.076,250.607z M120.723,220.037c0,8.586-6.984,15.571-15.57,15.571
		c-8.586,0-15.57-6.985-15.57-15.571c0-8.586,6.984-15.57,15.57-15.57C113.738,204.467,120.723,211.451,120.723,220.037z
		 M135.723,220.037c0-10.312-5.137-19.439-12.98-24.979c16.199,2.129,30.107,2.993,38.734,3.344
		c-12.38,3.911-21.381,15.503-21.381,29.159c0,12.424,7.453,23.132,18.12,27.909c-19.501-0.355-37.193-1.98-52.944-4.864
		C122.073,250.54,135.723,236.855,135.723,220.037z M170.666,243.13c-8.586,0-15.57-6.984-15.57-15.569
		c0-8.587,6.984-15.572,15.57-15.572c8.587,0,15.572,6.985,15.572,15.572C186.238,236.146,179.253,243.13,170.666,243.13z
		 M26.918,196.966c0-8.585,6.984-15.569,15.57-15.569c8.587,0,15.572,6.984,15.572,15.569c0,8.586-6.985,15.571-15.572,15.571
		C33.902,212.537,26.918,205.552,26.918,196.966z M15.24,155.349c5.057,4.75,10.881,8.975,17.236,12.74
		c-7.08,2.461-12.982,7.455-16.619,13.894C13.976,171.904,14.318,162.529,15.24,155.349z M45.269,227.405
		c15.559-1.41,27.792-14.52,27.792-30.439c0-4.59-1.023-8.942-2.844-12.854c8.724,2.656,17.617,4.822,26.33,6.596
		c-12.679,3.727-21.965,15.461-21.965,29.329c0,12.421,7.45,23.128,18.112,27.907c-7.154-1.743-13.844-3.781-20.047-6.118
		C62.139,237.867,53.001,233.041,45.269,227.405z M248.627,247.948c10.668-4.777,18.123-15.486,18.123-27.911
		c0-13.868-9.286-25.601-21.965-29.328c8.714-1.773,17.608-3.94,26.331-6.596c-1.819,3.91-2.843,8.263-2.843,12.853
		c0,15.92,12.232,29.03,27.79,30.439c-7.733,5.636-16.87,10.463-27.379,14.421C262.479,244.164,255.785,246.204,248.627,247.948z"/>
</g>
<g>
</g>
<g>
</g>
<g>
</g>
<g>
</g>
<g>
</g>
<g>
</g>
<g>
</g>
<g>
</g>
<g>
</g>
<g>
</g>
<g>
</g>
<g>
</g>
<g>
</g>
<g>
</g>
<g>
</g>
</svg>
