<?xml version="1.0" encoding="iso-8859-1"?>
<!-- Generator: Adobe Illustrator 18.0.0, SVG Export Plug-In . SVG Version: 6.00 Build 0)  -->
<!DOCTYPE svg PUBLIC "-//W3C//DTD SVG 1.1//EN" "http://www.w3.org/Graphics/SVG/1.1/DTD/svg11.dtd">
<svg version="1.1" id="Capa_1" xmlns="http://www.w3.org/2000/svg" xmlns:xlink="http://www.w3.org/1999/xlink" x="0px" y="0px"
	 viewBox="0 0 385.33 385.33" style="enable-background:new 0 0 385.33 385.33;" xml:space="preserve">
<g>
	<g>
		<path d="M198.38,176.529v-9.385c9.068-3.317,15.559-12.032,15.559-22.235c0-13.05-10.617-23.667-23.666-23.667H74.902
			c-13.049,0-23.665,10.617-23.665,23.667c0,10.203,6.49,18.919,15.559,22.235v9.385c-9.976,8.143-25.343,29.313-25.749,53.658
			c-0.013,0.172-0.019,0.346-0.019,0.52v125.947c0,15.811,12.863,28.675,28.675,28.675h125.771
			c15.811,0,28.673-12.863,28.673-28.675V230.708c0-0.158-0.004-0.315-0.014-0.472C223.743,205.871,208.363,184.678,198.38,176.529z
			 M81.795,168.575H183.38v4.72H81.795V168.575z M76.096,188.295h112.981c1.99,1.659,4.893,4.661,7.879,8.707H68.218
			C71.203,192.956,74.107,189.954,76.096,188.295z M74.902,136.242h115.371c4.777,0,8.666,3.888,8.666,8.667
			c0,4.778-3.889,8.666-8.666,8.666H74.902c-4.777,0-8.665-3.888-8.665-8.666C66.237,140.13,70.124,136.242,74.902,136.242z
			 M209.146,356.655c0,7.54-6.133,13.675-13.673,13.675H69.702c-7.541,0-13.675-6.135-13.675-13.675V231.143
			c0.007-0.118,0.011-0.236,0.011-0.355c0.061-6.788,1.589-13.136,3.819-18.786h145.46c2.23,5.651,3.76,11.998,3.82,18.787
			c0,0.103,0.004,0.205,0.008,0.308V356.655z"/>
		<path d="M190.248,244.651H74.927c-4.143,0-7.5,3.357-7.5,7.5v62.771c0,4.142,3.357,7.5,7.5,7.5h115.321c4.142,0,7.5-3.358,7.5-7.5
			v-62.771C197.748,248.009,194.39,244.651,190.248,244.651z M182.748,307.422H82.427v-47.771h100.321V307.422z"/>
		<path d="M333.895,137.039L166.86,50.729c-1.11-10.224-7.153-19.727-16.954-24.791L106.935,3.734
			c-0.004-0.002-0.008-0.004-0.011-0.006c-0.003-0.002-0.007-0.003-0.011-0.005l-0.352-0.182C102.077,1.225,97.052,0,92.029,0
			C80.113,0,69.314,6.572,63.846,17.153l-1.638,3.17C54.185,35.854,60.29,55.016,75.82,63.04l43.342,22.396
			c4.486,2.317,9.512,3.543,14.533,3.543c5.561,0,10.869-1.447,15.514-4.048l167.018,86.301c2.772,1.433,5.781,2.158,8.814,2.157
			c1.964,0,3.939-0.304,5.863-0.917c4.896-1.561,8.895-4.935,11.254-9.502C347.029,153.543,343.321,141.91,333.895,137.039z
			 M119.025,68.48l-7.984-4.125l16.971-32.847l7.984,4.126L119.025,68.48z M89.73,53.344L106.7,20.498l7.985,4.125L97.714,57.469
			L89.73,53.344z M75.534,27.208l1.638-3.169c6.114-9.913,15.271-9.028,15.476-9.021L77.14,45.033
			C73.332,40.057,72.472,33.135,75.534,27.208z M133.077,73.961l15.509-30.016c3.808,4.977,4.668,11.896,1.607,17.821l-1.642,3.172
			C145.671,70.515,138.218,75.766,133.077,73.961z M328.831,156.084c-0.52,1.007-1.401,1.751-2.481,2.096
			c-1.08,0.342-2.229,0.246-3.237-0.274L160.659,73.963c0.428-0.693,3.577-6.79,3.895-7.541l162.455,83.943
			C329.088,151.439,329.905,154.005,328.831,156.084z"/>
	</g>
</g>
<g>
</g>
<g>
</g>
<g>
</g>
<g>
</g>
<g>
</g>
<g>
</g>
<g>
</g>
<g>
</g>
<g>
</g>
<g>
</g>
<g>
</g>
<g>
</g>
<g>
</g>
<g>
</g>
<g>
</g>
</svg>
