<?xml version="1.0" encoding="iso-8859-1"?>
<!-- Generator: Adobe Illustrator 18.0.0, SVG Export Plug-In . SVG Version: 6.00 Build 0)  -->
<!DOCTYPE svg PUBLIC "-//W3C//DTD SVG 1.1//EN" "http://www.w3.org/Graphics/SVG/1.1/DTD/svg11.dtd">
<svg version="1.1" id="Capa_1" xmlns="http://www.w3.org/2000/svg" xmlns:xlink="http://www.w3.org/1999/xlink" x="0px" y="0px"
	 viewBox="0 0 331.896 331.896" style="enable-background:new 0 0 331.896 331.896;" xml:space="preserve">
<g>
	<g>
		<g>
			<path d="M275.784,100.22c-39.84-51.063-86.305-85.37-115.623-85.37c-7.082,0-13.13,1.917-17.977,5.698
				c-0.893,0.696-1.615,1.586-2.115,2.601L0.771,306.234c-1.27,2.58-0.953,5.658,0.816,7.925c1.438,1.844,3.631,2.887,5.912,2.887
				c0.523,0,1.052-0.055,1.576-0.167l308.461-66.274c1.106-0.238,2.146-0.724,3.038-1.42
				C349.416,226.681,319.024,155.639,275.784,100.22z M137.606,62.129c28.545,6.9,64.754,34.452,93.967,71.892
				c29.65,38.003,47.568,80.229,46.867,109.642L21.068,298.96L137.606,62.129z M312.456,236.353l-19.036,4.09
				c-0.571-32.793-19.05-75.955-50.021-115.649c-30.566-39.174-67.588-67.51-99.047-76.375l8.303-16.872
				c1.992-1.127,4.51-1.696,7.506-1.696c20.719,0,63.025,27.341,103.797,79.597c22.08,28.3,38.889,57.85,47.332,83.206
				C318.303,213.717,318.693,229.822,312.456,236.353z"/>
			<g>
				<path d="M88.45,274.139c-9.022,0-17.375-4.075-22.919-11.182c-9.854-12.629-7.597-30.921,5.032-40.775
					c5.157-4.023,11.332-6.148,17.86-6.148c9.021,0,17.375,4.076,22.918,11.182c4.773,6.118,6.879,13.73,5.928,21.431
					c-0.951,7.702-4.844,14.572-10.963,19.346C101.151,272.013,94.977,274.139,88.45,274.139z M88.423,231.034
					c-3.153,0-6.138,1.029-8.633,2.976c-6.107,4.766-7.199,13.612-2.433,19.722c2.682,3.436,6.725,5.408,11.093,5.408
					c3.15,0,6.135-1.028,8.629-2.975c2.96-2.309,4.844-5.632,5.303-9.356c0.461-3.725-0.559-7.406-2.867-10.366
					C96.833,233.006,92.79,231.034,88.423,231.034z"/>
			</g>
			<path d="M203.055,126.658c-9.316-9.344-22.376-15.468-36.771-17.245c-14.396-1.776-28.553,0.986-39.863,7.785
				c-11.898,7.152-19.289,17.871-20.809,30.182c-0.854,6.922,0.493,12.54,4.007,16.698c6.133,7.26,16.879,8.072,29.408,8.653
				c-0.787,3.331-2.738,8.006-7.188,14.196c-2.779,3.026-15.355,17.767-10.377,31.665c3.308,9.233,13.047,14.932,28.928,16.956
				c0.047,0.007,5.971,0.786,9.057,0.621c11.342-0.606,19.332-3.334,23.762-9.955c8.209-12.271-0.404-29.627-2.365-33.238
				c-2.811-7.087-3.566-12.095-3.519-15.519c6.364,1.287,12.286,2.398,17.581,2.398c4.932-0.001,9.328-0.963,13.049-3.64
				c4.418-3.179,7.092-8.301,7.945-15.223C217.42,148.684,212.858,136.49,203.055,126.658z M201.012,159.156
				c-0.181,1.466-0.657,4.049-1.82,4.885c-2.773,1.994-12.303,0.059-20.711-1.652c-1.748-0.354-5.449-1.088-5.48-1.093
				c-3.224-0.59-6.573,0.993-8.083,4.081c-4.137,8.467-3.404,19.78,2.178,33.624c0.12,0.296,0.268,0.603,0.424,0.881
				c2.811,5.011,5.773,14.196,3.215,18.002c-1.973,2.931-8.762,3.983-18.177,2.825c-9.429-1.165-15.771-3.839-16.972-7.164
				c-1.557-4.313,3.551-12.503,7.481-16.665c0.229-0.241,0.442-0.497,0.639-0.766c8.782-12.072,12.244-22.867,10.29-32.087
				c-0.717-3.378-3.604-5.731-6.893-5.926c-0.015-0.001-3.753-0.189-5.533-0.27c-8.572-0.386-18.289-0.823-20.496-3.435
				c-0.924-1.094-0.758-3.715-0.576-5.18c0.941-7.633,5.789-14.439,13.65-19.164c8.451-5.079,19.209-7.121,30.297-5.754
				c11.086,1.369,21.025,5.968,27.986,12.949C198.909,143.743,201.956,151.523,201.012,159.156z"/>
			<g>
				<path d="M218.536,251.956c-2.002,0-3.981-0.799-5.44-2.334l-18.136-19.086c-1.549-1.63-2.284-3.867-2.005-6.098
					c0.279-2.23,1.544-4.218,3.446-5.415c12.133-7.638,18.146-20.186,16.498-34.43c-0.259-2.233,0.498-4.464,2.061-6.079
					c1.564-1.615,3.764-2.436,6.009-2.258l26.239,2.179c3.561,0.297,6.418,3.063,6.829,6.612c3.1,26.8-8.68,51.381-31.51,65.755
					C221.297,251.578,219.911,251.956,218.536,251.956z M211.612,226.285l7.908,8.323c13.158-10.295,20.23-25.053,20.011-41.759
					l-11.442-0.95C227.381,205.25,221.573,217.37,211.612,226.285z"/>
			</g>
		</g>
	</g>
</g>
<g>
</g>
<g>
</g>
<g>
</g>
<g>
</g>
<g>
</g>
<g>
</g>
<g>
</g>
<g>
</g>
<g>
</g>
<g>
</g>
<g>
</g>
<g>
</g>
<g>
</g>
<g>
</g>
<g>
</g>
</svg>
