<?xml version="1.0" encoding="iso-8859-1"?>
<!-- Generator: Adobe Illustrator 18.0.0, SVG Export Plug-In . SVG Version: 6.00 Build 0)  -->
<!DOCTYPE svg PUBLIC "-//W3C//DTD SVG 1.1//EN" "http://www.w3.org/Graphics/SVG/1.1/DTD/svg11.dtd">
<svg version="1.1" id="Capa_1" xmlns="http://www.w3.org/2000/svg" xmlns:xlink="http://www.w3.org/1999/xlink" x="0px" y="0px"
	 viewBox="0 0 343.362 343.362" style="enable-background:new 0 0 343.362 343.362;" xml:space="preserve">
<g>
	<g>
		<path d="M127.792,75.173c13.137,0,23.428-7.955,23.428-18.11c0-10.154-10.291-18.109-23.428-18.109s-23.426,7.955-23.426,18.109
			C104.366,67.218,114.655,75.173,127.792,75.173z M127.792,53.953c5.092,0,8.043,2.192,8.412,3.109
			c-0.369,0.918-3.32,3.11-8.412,3.11c-5.09,0-8.042-2.192-8.411-3.11C119.751,56.145,122.702,53.953,127.792,53.953z"/>
		<path d="M215.569,75.173c13.137,0,23.426-7.955,23.426-18.11c0-10.154-10.289-18.109-23.426-18.109
			c-13.137,0-23.428,7.955-23.428,18.109C192.142,67.218,202.433,75.173,215.569,75.173z M215.569,53.953
			c5.09,0,8.041,2.191,8.411,3.109c-0.369,0.918-3.321,3.11-8.411,3.11c-5.091,0-8.043-2.192-8.412-3.11
			C207.526,56.145,210.479,53.953,215.569,53.953z"/>
		<path d="M92.372,216.811c9.557,6.893,22.135,10.688,35.42,10.688c13.285,0,25.865-3.796,35.422-10.688
			c3.316-2.393,6.145-5.066,8.467-7.953c2.322,2.887,5.15,5.561,8.468,7.953c9.556,6.893,22.136,10.688,35.421,10.688
			c13.285,0,25.863-3.796,35.42-10.688c10.297-7.427,15.967-17.537,15.967-28.467v-46.831c0-6.729-2.156-13.144-6.211-18.815
			c4.082-5.705,6.211-12.101,6.211-18.804V57.063c0-10.93-5.67-21.039-15.967-28.466c-9.557-6.893-22.135-10.688-35.42-10.688
			c-13.285,0-25.865,3.796-35.421,10.688c-3.316,2.392-6.145,5.065-8.468,7.952c-2.321-2.887-5.15-5.56-8.467-7.952
			c-9.557-6.893-22.137-10.688-35.422-10.688c-13.285,0-25.863,3.796-35.42,10.688c-10.297,7.427-15.967,17.536-15.967,28.466
			v46.831c0,6.702,2.129,13.099,6.211,18.804c-4.055,5.672-6.211,12.087-6.211,18.815v46.831
			C76.405,199.274,82.075,209.384,92.372,216.811z M127.792,212.499c-19.724,0-36.387-11.061-36.387-24.155v-19.098
			c0.322,0.244,0.635,0.494,0.967,0.733c9.557,6.893,22.135,10.689,35.42,10.689c13.285,0,25.865-3.796,35.422-10.689
			c0.332-0.239,0.645-0.489,0.967-0.734v19.099C164.181,201.438,147.517,212.499,127.792,212.499z M91.405,84.796
			c0.322,0.245,0.635,0.494,0.967,0.733c9.557,6.894,22.135,10.689,35.42,10.689c13.285,0,25.865-3.796,35.422-10.689
			c0.332-0.239,0.645-0.489,0.967-0.734v19.099c0,3.156-0.949,5.923-2.266,8.249c-9.297-6.278-21.314-9.785-34.123-9.785
			c-12.692,0-24.734,3.473-34.117,9.793c-1.318-2.328-2.27-5.097-2.27-8.257V84.796z M127.792,117.358
			c11.941,0,23.18,4.004,30.063,10.712c2.886,2.811,6.325,7.426,6.325,13.443c0,13.094-16.664,24.155-36.389,24.155
			c-19.724,0-36.387-11.062-36.387-24.155C91.405,128.419,108.068,117.358,127.792,117.358z M215.569,117.358
			c19.724,0,36.387,11.062,36.387,24.155c0,13.094-16.663,24.155-36.387,24.155c-19.725,0-36.389-11.062-36.389-24.155
			C179.181,128.419,195.845,117.358,215.569,117.358z M249.687,112.151c-9.383-6.32-21.425-9.793-34.117-9.793
			c-12.693,0-24.733,3.473-34.117,9.791c-1.318-2.328-2.271-5.097-2.271-8.255V84.796c0.322,0.245,0.636,0.494,0.967,0.733
			c9.557,6.894,22.137,10.689,35.422,10.689c13.285,0,25.863-3.796,35.42-10.689c0.332-0.239,0.645-0.488,0.967-0.733v19.098
			C251.956,107.054,251.005,109.822,249.687,112.151z M215.569,212.499c-19.725,0-36.389-11.061-36.389-24.155v-19.098
			c0.322,0.244,0.637,0.494,0.968,0.733c9.556,6.893,22.136,10.689,35.421,10.689c13.285,0,25.863-3.796,35.42-10.689
			c0.332-0.239,0.645-0.489,0.967-0.733v19.098C251.956,201.438,235.293,212.499,215.569,212.499z M215.569,32.908
			c19.724,0,36.387,11.062,36.387,24.154c0,13.094-16.663,24.156-36.387,24.156c-19.725,0-36.389-11.063-36.389-24.156
			C179.181,43.97,195.845,32.908,215.569,32.908z M127.792,32.908c19.725,0,36.389,11.062,36.389,24.154
			c0,13.094-16.664,24.156-36.389,24.156c-19.724,0-36.387-11.063-36.387-24.156C91.405,43.97,108.068,32.908,127.792,32.908z"/>
		<path d="M127.792,159.623c13.137,0,23.428-7.955,23.428-18.11c0-10.155-10.291-18.11-23.428-18.11s-23.426,7.955-23.426,18.11
			C104.366,151.668,114.655,159.623,127.792,159.623z M127.792,138.403c5.092,0,8.043,2.192,8.412,3.11
			c-0.369,0.918-3.32,3.11-8.412,3.11c-5.09,0-8.042-2.192-8.411-3.11C119.75,140.595,122.702,138.403,127.792,138.403z"/>
		<path d="M215.569,159.623c13.137,0,23.426-7.955,23.426-18.11c0-10.155-10.289-18.11-23.426-18.11
			c-13.137,0-23.428,7.955-23.428,18.11C192.142,151.668,202.433,159.623,215.569,159.623z M215.569,138.403
			c5.09,0,8.042,2.192,8.411,3.11c-0.369,0.918-3.321,3.11-8.411,3.11c-5.091,0-8.043-2.192-8.412-3.11
			C207.526,140.595,210.479,138.403,215.569,138.403z"/>
		<path d="M335.795,286.204l-94.483-3.045l94.791-3.052c2.008-0.064,3.906-0.932,5.268-2.407c1.362-1.475,2.077-3.436,1.983-5.441
			l-1.142-24.253c-0.094-1.994-0.979-3.868-2.459-5.208c-1.479-1.339-3.43-2.021-5.426-1.929L7.417,258.015
			c-4.073,0.213-7.228,3.642-7.104,7.718l0.529,17.361l-0.833,17.355c-0.197,4.124,2.976,7.633,7.1,7.849l326.91,17.146
			c0.131,0.007,0.263,0.011,0.394,0.011c1.854,0,3.65-0.689,5.032-1.939c1.48-1.34,2.365-3.214,2.459-5.208l1.142-24.253
			c0.095-2.006-0.62-3.966-1.983-5.441C339.7,287.136,337.802,286.269,335.795,286.204z M327.583,256.243l0.43,9.117L15.614,275.418
			l-0.085-2.809L327.583,256.243z M327.274,310.069L15.35,293.709l0.136-2.818l312.219,10.061L327.274,310.069z"/>
	</g>
</g>
<g>
</g>
<g>
</g>
<g>
</g>
<g>
</g>
<g>
</g>
<g>
</g>
<g>
</g>
<g>
</g>
<g>
</g>
<g>
</g>
<g>
</g>
<g>
</g>
<g>
</g>
<g>
</g>
<g>
</g>
</svg>
