<?xml version="1.0" encoding="iso-8859-1"?>
<!-- Generator: Adobe Illustrator 18.0.0, SVG Export Plug-In . SVG Version: 6.00 Build 0)  -->
<!DOCTYPE svg PUBLIC "-//W3C//DTD SVG 1.1//EN" "http://www.w3.org/Graphics/SVG/1.1/DTD/svg11.dtd">
<svg version="1.1" id="Capa_1" xmlns="http://www.w3.org/2000/svg" xmlns:xlink="http://www.w3.org/1999/xlink" x="0px" y="0px"
	 viewBox="0 0 399.623 399.623" style="enable-background:new 0 0 399.623 399.623;" xml:space="preserve">
<g>
	<path d="M370.79,170.979h-1.375c-4.641-20.922-28.344-36.898-56.817-36.898H87.025c-28.474,0-52.177,15.977-56.817,36.898h-1.375
		C12.934,170.979,0,183.913,0,199.811s12.934,28.833,28.833,28.833h1.374c4.644,20.921,28.346,36.898,56.818,36.898h225.572
		c28.474,0,52.177-15.979,56.819-36.898h1.217c0.052,0,0.105,0,0.156,0c15.898,0,28.833-12.935,28.833-28.833
		S386.689,170.979,370.79,170.979z M370.331,185.979c-5.633,2.126-10.065,4.888-14.205,7.471
		c-7.617,4.756-14.195,8.862-28.066,8.862c-13.869,0-20.448-4.106-28.065-8.862c-4.146-2.588-8.57-5.346-14.189-7.471H370.331z
		 M163.903,206.174c4.146,2.588,8.57,5.346,14.188,7.471h-84.5c5.617-2.125,10.041-4.883,14.188-7.471
		c7.615-4.756,14.193-8.862,28.062-8.862C149.708,197.311,156.286,201.418,163.903,206.174z M157.66,185.979h84.503
		c-5.617,2.125-10.041,4.883-14.188,7.471c-7.617,4.756-14.195,8.862-28.064,8.862c-13.869,0-20.447-4.106-28.064-8.862
		C167.7,190.861,163.277,188.104,157.66,185.979z M235.919,206.174c7.617-4.756,14.195-8.862,28.066-8.862
		c13.87,0,20.449,4.106,28.066,8.862c4.145,2.588,8.569,5.346,14.188,7.471h-84.507C227.349,211.52,231.772,208.762,235.919,206.174
		z M87.025,149.08h225.572c19.38,0,36.238,9.456,41.19,21.898H45.835C50.787,158.536,67.646,149.08,87.025,149.08z M114.021,185.979
		c-5.617,2.125-10.041,4.883-14.187,7.471c-7.616,4.756-14.194,8.862-28.063,8.862c-13.869,0-20.447-4.106-28.064-8.861
		c-4.141-2.585-8.579-5.345-14.216-7.472H114.021z M28.833,213.645c-7.627,0-13.833-6.205-13.833-13.833
		c0-0.691,0.067-1.365,0.166-2.029c9.045,1.197,14.475,4.569,20.598,8.392c4.146,2.588,8.569,5.346,14.188,7.471H28.833z
		 M312.598,250.543H87.025c-19.38,0-36.238-9.456-41.19-21.898l307.953,0.001C348.836,241.088,331.978,250.543,312.598,250.543z
		 M370.79,213.645c-0.052,0-0.105,0-0.156,0h-20.752c5.617-2.125,10.041-4.883,14.188-7.471c6.076-3.793,11.471-7.143,20.393-8.363
		c0.096,0.655,0.161,1.319,0.161,2.001C384.623,207.439,378.417,213.645,370.79,213.645z"/>
</g>
<g>
</g>
<g>
</g>
<g>
</g>
<g>
</g>
<g>
</g>
<g>
</g>
<g>
</g>
<g>
</g>
<g>
</g>
<g>
</g>
<g>
</g>
<g>
</g>
<g>
</g>
<g>
</g>
<g>
</g>
</svg>
