<?xml version="1.0" encoding="iso-8859-1"?>
<!-- Generator: Adobe Illustrator 18.0.0, SVG Export Plug-In . SVG Version: 6.00 Build 0)  -->
<!DOCTYPE svg PUBLIC "-//W3C//DTD SVG 1.1//EN" "http://www.w3.org/Graphics/SVG/1.1/DTD/svg11.dtd">
<svg version="1.1" id="Capa_1" xmlns="http://www.w3.org/2000/svg" xmlns:xlink="http://www.w3.org/1999/xlink" x="0px" y="0px"
	 viewBox="0 0 378.292 378.292" style="enable-background:new 0 0 378.292 378.292;" xml:space="preserve">
<g>
	<g>
		<path d="M208.908,250.613c0.143,0.654,3.627,16.15,14.598,26.833c1.458,1.42,3.346,2.127,5.231,2.127
			c1.953,0,3.904-0.758,5.374-2.268c2.89-2.968,2.827-7.716-0.141-10.605c-7.631-7.432-10.351-19.036-10.412-19.307
			c-0.893-4.035-4.883-6.597-8.924-5.708C210.587,242.569,208.024,246.566,208.908,250.613z"/>
		<path d="M137.078,300.777c-0.156,0.651-3.741,16.124,1.508,30.51c0.697,1.911,2.091,3.367,3.79,4.186
			c1.76,0.847,3.846,1.011,5.825,0.289c3.892-1.421,5.895-5.725,4.475-9.617c-3.649-10.007-1.064-21.642-1.003-21.911
			c0.947-4.023-1.536-8.063-5.563-9.016C142.082,294.259,138.037,296.748,137.078,300.777z"/>
		<path d="M340.347,55.876c-2.091-5.228-8.252-7.359-21.265-7.359c-13.474,0-34.636,2.707-53.622,10.305
			c-12.759,5.105-26.508,13.448-37.721,22.89c-4.828,4.065-8.857,8.062-11.65,11.557c-1.23,1.538-3.857,5.601-3.857,5.601
			c6.096-10.72,12.97-21.592,20.728-32.496c2.401-3.375,1.611-8.058-1.764-10.459c-3.377-2.402-8.058-1.612-10.459,1.764
			c-15.338,21.561-27.29,42.957-36.621,63.141l-7.481-7.987c0.288-4.78-1.023-12.506-6.304-25.309
			c-6.353-15.404-15.835-31.028-26.017-42.866C122.4,19.176,88.869,0,77.819,0c-3.185,0-5.259,1.208-6.435,2.221
			c-2.328,2.003-7.173,6.17,3.999,33.364c4.011,9.76,12.857,28.599,27.045,45.096c20.757,24.133,51.134,39.483,62.546,41.643
			l12.598,13.448c-2.102,5.089-4.04,10.078-5.822,14.946c-0.236,0.482-0.419,0.992-0.548,1.521
			c-3.194,8.841-5.883,17.274-8.144,25.188l-5.988-5.055c-0.272-4.781-2.477-12.3-9.217-24.397
			c-8.108-14.558-19.352-28.967-30.846-39.534C93.025,86.392,59.283,71.763,47.488,71.763c-3.358,0-6.007,1.028-7.87,3.055
			c-2.078,2.261-6.402,6.964,7.871,32.667c5.123,9.227,16.109,26.901,32.127,41.628c23.433,21.543,55.788,33.527,67.04,34.1
			l12.189,10.288c-0.635,2.67-1.225,5.265-1.76,7.759c-5.684,26.479-6.999,46.747-7.252,57.161
			c-12.7,2.798-24.356,10.541-30.954,23.76c-6.183,12.386-8.222,27.735-5.741,43.219c4.828,30.154,25.819,52.892,48.825,52.892
			c1.854,0,3.724-0.148,5.556-0.442c12.449-1.993,22.94-10.372,29.539-23.591c6.183-12.386,8.224-27.735,5.744-43.22
			c-4.057-25.317-19.508-45.401-37.977-51.194c0.251-11.875,2.087-41.396,13.045-79.482c6.093,18.358,12.833,30.355,17.087,36.825
			c-6.319,7.293-9.615,17.218-9.379,28.679c0.277,13.468,5.463,27.61,14.601,39.821c12.734,17.017,31.371,27.589,48.638,27.589
			c8.249,0,15.861-2.434,22.013-7.038c9.848-7.369,15.108-19.355,14.811-33.753c-0.276-13.469-5.462-27.611-14.601-39.821
			c-12.733-17.018-31.371-27.589-48.64-27.589c-5.482,0-10.68,1.081-15.357,3.153c-5.014-7.828-14.306-25.128-20.736-53.597
			c4.282-11.619,9.412-23.757,15.559-36.217l16.531-5.814c3.392,1.053,8.641,1.721,16.957,1.722c0.001,0,0.001,0,0.001,0
			c7.958,0,28.63-0.869,48.745-8.919c17.779-7.114,32.327-18.219,39.418-24.204c4.772-4.028,9.048-8.167,12.043-11.652
			C339.196,65.316,342.29,60.732,340.347,55.876z M113.8,70.899C98.323,52.904,88.384,29.757,84.787,17.47
			c11.232,5.215,32.181,18.394,48.153,36.967c15.486,18.005,24.641,39.622,27.66,50.755C149.597,100.385,129,88.573,113.8,70.899z
			 M89.768,138.069c-17.467-16.058-30.039-37.877-35.051-49.663c11.804,3.84,33.956,14.361,52.137,31.077
			c17.468,16.058,29.08,36.437,33.389,47.149C128.715,163.108,106.821,153.747,89.768,138.069z M259.031,241.651
			c7.276,9.722,11.4,20.781,11.614,31.143c0.193,9.43-2.933,17.042-8.803,21.435c-3.588,2.686-7.971,4.048-13.025,4.048
			c-12.634,0-26.669-8.268-36.628-21.575c-7.275-9.724-11.4-20.783-11.613-31.144c-0.194-9.431,2.932-17.043,8.804-21.437
			c3.587-2.685,7.968-4.046,13.021-4.046C235.036,220.075,249.073,228.343,259.031,241.651z M187.992,313.411
			c3.889,24.295-6.573,47.021-22.846,49.628c-1.049,0.168-2.12,0.253-3.183,0.253c-15.458,0-30.398-17.685-34.015-40.264
			c-3.891-24.295,6.569-47.021,22.841-49.628c1.05-0.168,2.121-0.253,3.183-0.253C169.431,273.147,184.373,290.834,187.992,313.411z
			 M278.529,91.478c-17.695,7.08-36.085,7.845-43.172,7.845h-0.002c-1.664,0-3.177-0.039-4.531-0.102
			c7.29-7.442,22.163-19.251,40.209-26.473c17.009-6.806,35.974-9.23,48.05-9.23c0.559,0,1.091,0.005,1.598,0.015
			C312.406,71.658,296.285,84.371,278.529,91.478z"/>
	</g>
</g>
<g>
</g>
<g>
</g>
<g>
</g>
<g>
</g>
<g>
</g>
<g>
</g>
<g>
</g>
<g>
</g>
<g>
</g>
<g>
</g>
<g>
</g>
<g>
</g>
<g>
</g>
<g>
</g>
<g>
</g>
</svg>
