<?xml version="1.0" encoding="iso-8859-1"?>
<!-- Generator: Adobe Illustrator 18.0.0, SVG Export Plug-In . SVG Version: 6.00 Build 0)  -->
<!DOCTYPE svg PUBLIC "-//W3C//DTD SVG 1.1//EN" "http://www.w3.org/Graphics/SVG/1.1/DTD/svg11.dtd">
<svg version="1.1" id="Capa_1" xmlns="http://www.w3.org/2000/svg" xmlns:xlink="http://www.w3.org/1999/xlink" x="0px" y="0px"
	 viewBox="0 0 319.469 319.469" style="enable-background:new 0 0 319.469 319.469;" xml:space="preserve">
<g>
	<path d="M298.408,113.949c-13.822-21.561-32.447-33.609-52.554-34.053c-6.285-12.563-24.377-20.969-45.285-20.969
		c-6.845,0-13.541,0.922-19.649,2.652V50.252c0-0.193-0.011-0.426-0.025-0.617c-0.263-3.396,0.626-7.6,1.76-8.33
		c0.492-0.32,3.201-0.508,8.971,2.676c2.323,1.281,5.15,1.242,7.436-0.109c2.285-1.348,3.688-3.805,3.688-6.457V11.391
		c0-2.76-1.516-5.295-3.945-6.604C192.983,1.654,186.398,0,179.758,0c-22.192,0-40.248,18.055-40.248,40.246V61.49
		c-6.015-1.666-12.584-2.563-19.287-2.563c-20.962,0-38.993,8.484-45.277,20.951c-0.06,0-0.118-0.004-0.177-0.004
		c-20.548,0-39.621,12.102-53.707,34.074C7.637,134.889,0.244,162.582,0.244,191.928c0,29.344,7.393,57.037,20.817,77.977
		c14.086,21.975,33.16,34.076,53.707,34.076c1.271,0,2.552-0.053,3.83-0.148c9.654,6.961,20.289,10.627,31.36,10.627
		c7.563,0,14.962-1.723,22.063-5.125c8.434,6.525,17.817,10.135,27.766,10.135c9.933,0,19.301-3.598,27.725-10.104
		c7.082,3.383,14.459,5.094,21.997,5.094c11.071,0,21.706-3.666,31.36-10.627c1.28,0.096,2.561,0.148,3.832,0.148
		c20.547,0,39.62-12.102,53.706-34.076c13.424-20.939,20.816-48.633,20.816-77.977C319.225,162.582,311.832,134.889,298.408,113.949
		z M200.569,73.928c18.006,0.4,27.042,8.861,26.395,9.096c-5.635-2.076-11.481-3.148-17.455-3.148
		c-9.03,0-17.771,2.438-26.055,7.238c-0.845-0.539-1.699-1.047-2.56-1.529c0.01-0.166,0.024-0.328,0.024-0.496v-7.697
		C186.628,75.154,193.435,73.768,200.569,73.928z M179.758,15c2.722,0,5.427,0.441,7.99,1.295v10.258
		c-5.089-0.98-9.533-0.256-13.278,2.182c-9.095,5.918-8.735,19.022-8.55,21.797v29.807c-2.018-0.307-4.063-0.463-6.132-0.463
		c-1.779,0-3.538,0.121-5.278,0.35V40.246C154.51,26.326,165.836,15,179.758,15z M120.223,73.928c6.975,0,13.651,1.176,19.287,3.324
		v7.836c0,0.016,0.002,0.029,0.002,0.045c-1.16,0.621-2.309,1.289-3.44,2.014c-8.301-4.822-17.063-7.271-26.112-7.271
		c-5.974,0-11.819,1.072-17.454,3.148C92.163,82.9,102.071,73.928,120.223,73.928z M33.69,261.809
		c-11.895-18.555-18.445-43.371-18.445-69.881c0-26.512,6.551-51.328,18.445-69.883c10.815-16.871,24.746-26.418,39.389-27.104
		c-6.176,5.494-11.869,12.418-16.914,20.682c-13.367,21.898-20.729,50.857-20.729,81.543c0,30.686,7.362,59.645,20.729,81.543
		c1.657,2.715,3.388,5.281,5.179,7.705C51.093,282.486,41.565,274.094,33.69,261.809z M109.959,299.459
		c-15.188,0-29.747-10.145-40.992-28.566c-11.95-19.576-18.532-45.76-18.532-73.727s6.582-54.15,18.532-73.727
		c11.245-18.42,25.804-28.564,40.992-28.564c4.659,0,9.257,0.959,13.747,2.842c-19.182,20.936-31.715,58.379-31.715,101.955
		c0,41.035,11.114,76.639,28.43,98.133C116.977,298.895,113.481,299.459,109.959,299.459z M159.788,304.469
		c-28.619,0-52.797-47.992-52.797-104.797c0-56.807,24.178-104.797,52.797-104.797c28.619,0,52.797,47.99,52.797,104.797
		C212.585,256.477,188.407,304.469,159.788,304.469z M209.51,299.459c-3.491,0-6.957-0.561-10.373-1.631
		c17.325-21.492,28.448-57.105,28.448-98.156c0-43.604-12.55-81.066-31.751-101.994c4.467-1.861,9.041-2.803,13.676-2.803
		c15.189,0,29.748,10.145,40.993,28.564c11.95,19.576,18.532,45.76,18.532,73.727s-6.582,54.15-18.532,73.727
		C239.257,289.315,224.699,299.459,209.51,299.459z M285.78,261.809c-7.878,12.291-17.41,20.688-27.663,24.619
		c1.795-2.428,3.528-4.998,5.189-7.719c13.367-21.898,20.729-50.857,20.729-81.543c0-30.686-7.362-59.645-20.729-81.543
		c-5.045-8.264-10.738-15.188-16.914-20.682c14.642,0.686,28.572,10.23,39.389,27.104c11.893,18.553,18.444,43.371,18.444,69.883
		C304.225,218.438,297.674,243.256,285.78,261.809z"/>
</g>
<g>
</g>
<g>
</g>
<g>
</g>
<g>
</g>
<g>
</g>
<g>
</g>
<g>
</g>
<g>
</g>
<g>
</g>
<g>
</g>
<g>
</g>
<g>
</g>
<g>
</g>
<g>
</g>
<g>
</g>
</svg>
