<?xml version="1.0" encoding="iso-8859-1"?>
<!-- Generator: Adobe Illustrator 18.0.0, SVG Export Plug-In . SVG Version: 6.00 Build 0)  -->
<!DOCTYPE svg PUBLIC "-//W3C//DTD SVG 1.1//EN" "http://www.w3.org/Graphics/SVG/1.1/DTD/svg11.dtd">
<svg version="1.1" id="Capa_1" xmlns="http://www.w3.org/2000/svg" xmlns:xlink="http://www.w3.org/1999/xlink" x="0px" y="0px"
	 viewBox="0 0 361.179 361.179" style="enable-background:new 0 0 361.179 361.179;" xml:space="preserve">
<g>
	<g>
		<g>
			<path d="M342.027,270.905h-35.285c16.77-14.334,31.033-36.984,38.514-59.175c11.441-33.94,0.971-67.643-26.678-85.859
				c-14.244-9.384-40.389-19.411-71.053-19.411c-30.6,0-52.101,7.716-89.342,24.062c-8.084-2.905-16.473-4.916-24.641-5.838
				l-28.23-27.87c7.176-10.233,9.885-24.177-2.148-36.508c-5.225-5.354-12.26-8.315-19.813-8.338h-0.082
				c-5.527,0-10.955,1.65-15.559,4.634c-4.438-2.961-9.66-4.582-15.168-4.633c-0.088-0.001-0.174-0.001-0.26-0.001
				c-7.521,0-14.869,3.04-20.193,8.364c-4.275,4.277-7.029,9.813-7.955,15.69c-5.877,0.926-11.414,3.68-15.691,7.957
				c-5.539,5.538-8.611,13.197-8.435,21.014c0.17,7.509,3.254,14.374,8.68,19.331c10.117,9.241,22.101,9.837,35.664,1.789
				l33.916,33.8c-0.379,7.172,0.908,15.081,3.877,23.461c-4.879,5.774-9.156,11.789-12.725,17.936
				c-14.297,24.624-18.16,45.272-11.48,61.372c1.297,3.126,2.908,5.849,4.684,8.224H29.177c-10.561,0-19.152,8.592-19.152,19.153
				c0,10.561,8.592,19.152,19.152,19.152h312.85c10.561,0,19.152-8.592,19.152-19.152
				C361.179,279.497,352.587,270.905,342.027,270.905z M175.447,156.163c26.711,19.163,19.635,40.867,8.994,55.7
				c-6.166,8.595-16.461,18.839-30.488,18.839c-7.896,0-16.361-3.199-25.158-9.51c-12.693-9.105-24.086-23.201-30.475-37.707
				c-6.291-14.279-6.785-26.809-1.357-34.375c4.637-6.463,14.092-10.023,26.625-10.023
				C140.63,139.087,160.986,145.79,175.447,156.163z M77.824,68.114c1.693-0.746,3.535-1.146,5.443-1.146h0.041
				c3.492,0.011,6.73,1.364,9.119,3.813c7.65,7.839,2.82,15.842-2.578,21.174c-1.426,1.409-2.229,3.332-2.229,5.337
				c0,2.006,0.803,3.928,2.23,5.336l22.615,22.327c-2.602,0.418-5.09,0.984-7.445,1.701L74.279,96.865
				C80.013,88.753,82.913,78.292,77.824,68.114z M50.777,111.338c-0.205-0.203-0.42-0.395-0.646-0.573
				c-4.498-3.552-8.986-0.482-10.902,0.829c-7.631,5.221-14.023,7.499-20.424,1.653c-2.375-2.168-3.725-5.221-3.801-8.595
				c-0.084-3.742,1.391-7.412,4.045-10.067c3.01-3.01,7.16-4.383,11.377-3.775c2.34,0.34,4.703-0.446,6.375-2.119
				c1.674-1.672,2.459-4.035,2.121-6.376c-0.609-4.22,0.768-8.367,3.775-11.376c2.594-2.596,6.057-3.965,9.705-3.971
				c3.492,0.033,6.721,1.407,9.094,3.87c3.891,4.039,4.848,7.929,3.102,12.614c-1.522,4.079-4.572,7.333-5.813,8.542
				c-1.451,1.414-2.269,3.355-2.266,5.382c0.002,2.026,0.826,3.965,2.279,5.375l32.143,31.149c-2.359,1.901-4.436,4.053-6.166,6.465
				c-0.687,0.957-1.301,1.959-1.881,2.98L50.777,111.338z M71.722,256.761c-4.615-11.378-0.928-27.949,10.668-47.92
				c2.008-3.458,4.283-6.876,6.789-10.231c7.693,13.522,18.77,26.089,30.871,34.77c11.399,8.177,22.805,12.322,33.902,12.322
				c16.141,0,30.896-8.678,42.676-25.095c9.197-12.82,13.416-26.195,12.203-38.678c-1.408-14.465-9.699-27.234-24.643-37.954
				c-2.467-1.77-5.068-3.434-7.764-5c28.566-12.109,46.498-17.516,71.1-17.516c27.377,0,50.942,9.124,62.801,16.937
				c26.438,17.42,28.035,46.829,20.717,68.543c-11.689,34.673-38.535,63.966-58.623,63.966H86.872
				C84.175,269.948,75.566,266.235,71.722,256.761z M342.027,294.211H29.177c-2.289,0-4.152-1.862-4.152-4.152
				c0-2.29,1.863-4.153,4.152-4.153h312.85c2.289,0,4.152,1.863,4.152,4.153C346.179,292.348,344.316,294.211,342.027,294.211z"/>
		</g>
		<g>
			<path d="M266.345,233.729c-1.979,0-3.91-0.8-5.299-2.19c-1.4-1.399-2.201-3.33-2.201-5.31c0-1.97,0.801-3.9,2.201-5.3
				c1.389-1.391,3.32-2.19,5.299-2.19c1.971,0,3.91,0.8,5.301,2.19c1.4,1.399,2.199,3.33,2.199,5.3c0,1.98-0.799,3.91-2.199,5.31
				C270.255,232.929,268.316,233.729,266.345,233.729z"/>
		</g>
		<g>
			<path d="M296.636,228.349c-1.971,0-3.9-0.8-5.301-2.2c-1.4-1.39-2.199-3.33-2.199-5.3c0-1.971,0.799-3.91,2.199-5.3
				c1.391-1.4,3.33-2.2,5.301-2.2c1.98,0,3.91,0.8,5.299,2.2c1.4,1.39,2.201,3.329,2.201,5.3c0,1.97-0.801,3.91-2.201,5.3
				C300.546,227.549,298.605,228.349,296.636,228.349z"/>
		</g>
		<g>
			<path d="M277.986,211.519c-1.971,0-3.91-0.8-5.301-2.2c-1.398-1.39-2.199-3.32-2.199-5.3c0-1.98,0.801-3.91,2.199-5.3
				c1.391-1.4,3.33-2.2,5.301-2.2c1.971,0,3.91,0.8,5.301,2.2c1.398,1.39,2.199,3.319,2.199,5.3c0,1.98-0.801,3.91-2.199,5.3
				C281.896,210.719,279.956,211.519,277.986,211.519z"/>
		</g>
	</g>
</g>
<g>
</g>
<g>
</g>
<g>
</g>
<g>
</g>
<g>
</g>
<g>
</g>
<g>
</g>
<g>
</g>
<g>
</g>
<g>
</g>
<g>
</g>
<g>
</g>
<g>
</g>
<g>
</g>
<g>
</g>
</svg>
