<?xml version="1.0" encoding="iso-8859-1"?>
<!-- Generator: Adobe Illustrator 18.0.0, SVG Export Plug-In . SVG Version: 6.00 Build 0)  -->
<!DOCTYPE svg PUBLIC "-//W3C//DTD SVG 1.1//EN" "http://www.w3.org/Graphics/SVG/1.1/DTD/svg11.dtd">
<svg version="1.1" id="Capa_1" xmlns="http://www.w3.org/2000/svg" xmlns:xlink="http://www.w3.org/1999/xlink" x="0px" y="0px"
	 viewBox="0 0 346.079 346.079" style="enable-background:new 0 0 346.079 346.079;" xml:space="preserve">
<g>
	<g>
		<path d="M149.437,95.36V75.159c0-4.143-3.358-7.5-7.5-7.5h-7.269l-8.563-61.198C125.586,2.756,122.418,0,118.677,0h-16.648
			c-3.741,0-6.909,2.756-7.428,6.461l-8.563,61.198h-7.269c-4.142,0-7.5,3.357-7.5,7.5V95.36
			c-9.374,4.272-15.91,13.725-15.91,24.681v198.924c0,14.951,12.163,27.114,27.113,27.114h55.762
			c14.95,0,27.113-12.163,27.113-27.114V120.041C165.347,109.085,158.811,99.633,149.437,95.36z M86.269,82.659h5.885v10.268h-5.885
			V82.659z M107.153,82.659h6.397v10.268h-6.397V82.659z M128.551,82.659h5.886v10.268h-5.886V82.659z M108.552,15h3.602
			l7.368,52.659h-18.338L108.552,15z M138.233,331.079H82.472c-6.679,0-12.113-5.435-12.113-12.114V120.041
			c0-6.68,5.435-12.113,12.113-12.113h55.762c6.679,0,12.113,5.434,12.113,12.113v57.67H95.033c-4.142,0-7.5,3.357-7.5,7.5v68.584
			c0,4.143,3.358,7.5,7.5,7.5h55.313v57.67C150.347,325.645,144.912,331.079,138.233,331.079z M150.347,246.295h-47.813v-53.584
			h47.813V246.295z"/>
		<path d="M274.81,95.36V75.159c0-4.143-3.358-7.5-7.5-7.5h-7.268l-8.564-61.198C250.959,2.756,247.791,0,244.05,0h-16.648
			c-3.741,0-6.909,2.756-7.428,6.461l-8.563,61.198h-7.269c-4.142,0-7.5,3.357-7.5,7.5V95.36
			c-9.374,4.272-15.91,13.725-15.91,24.681v198.924c0,14.951,12.163,27.114,27.113,27.114h55.762
			c14.95,0,27.114-12.163,27.114-27.114V120.041C290.721,109.085,284.184,99.633,274.81,95.36z M211.642,82.659h5.885v10.268h-5.885
			V82.659z M232.526,82.659h6.398v10.268h-6.398V82.659z M253.924,82.659h5.886v10.268h-5.886V82.659z M233.925,15h3.602
			l7.369,52.659h-18.339L233.925,15z M263.607,331.079h-55.762c-6.679,0-12.113-5.435-12.113-12.114V120.041
			c0-6.68,5.435-12.113,12.113-12.113h55.762c6.68,0,12.114,5.434,12.114,12.113v57.67h-55.313c-4.142,0-7.5,3.357-7.5,7.5v68.584
			c0,4.143,3.358,7.5,7.5,7.5h55.313v57.67C275.721,325.645,270.286,331.079,263.607,331.079z M275.721,246.295h-47.813v-53.584
			h47.813V246.295z"/>
	</g>
</g>
<g>
</g>
<g>
</g>
<g>
</g>
<g>
</g>
<g>
</g>
<g>
</g>
<g>
</g>
<g>
</g>
<g>
</g>
<g>
</g>
<g>
</g>
<g>
</g>
<g>
</g>
<g>
</g>
<g>
</g>
</svg>
