<?xml version="1.0" encoding="iso-8859-1"?>
<!-- Generator: Adobe Illustrator 18.0.0, SVG Export Plug-In . SVG Version: 6.00 Build 0)  -->
<!DOCTYPE svg PUBLIC "-//W3C//DTD SVG 1.1//EN" "http://www.w3.org/Graphics/SVG/1.1/DTD/svg11.dtd">
<svg version="1.1" id="Capa_1" xmlns="http://www.w3.org/2000/svg" xmlns:xlink="http://www.w3.org/1999/xlink" x="0px" y="0px"
	 viewBox="0 0 308.797 308.797" style="enable-background:new 0 0 308.797 308.797;" xml:space="preserve">
<g>
	<path d="M308.783,201.54c-0.605-9.925-10.607-17.276-33.378-23.077c-12.176-3.102-27.373-5.662-44.759-7.574
		c28.943-7.743,50.515-20.15,63.288-36.61c10.576-13.627,14.959-29.908,12.678-47.081c-3.932-29.608-20.297-44.461-33.332-51.708
		c-21.656-12.038-50.148-12.199-76.221-0.432c-8.199,3.702-20.039,10.046-33.746,17.392C134.149,68.077,94.208,89.48,71.177,94.375
		c-34.113,7.248-65.184,15.771-70.6,40.138c-1.496,6.729-0.069,13.191,4.126,18.688c9.823,12.874,34.177,18.438,50.944,20.796
		c-11.254,1.854-21.043,4.022-28.953,6.438C15.407,183.883,0.399,189.82,0.4,201.54c0,2.723,0.78,5.245,2.367,7.595
		c3.138,5.594,12.741,20.838,31.579,36.016c21.121,17.018,58.5,37.302,116.635,37.302c84.961,0,116.414-32.596,149.713-67.105
		C300.694,215.346,309.18,208.046,308.783,201.54z M251.803,214.17c-26.614,4.439-61.138,6.885-97.21,6.885
		c-25.498,0-50.207-1.226-71.91-3.512c-2.832-2.066-7.641-6.484-8.77-11.648c-0.719-3.29,0.121-6.655,2.566-10.29
		c4.895-7.274,32.01-23.327,64.253-26.798c18.339-1.977,44.451-0.25,64.71,19.165c4.621,4.431,13.116,6.898,22.953,9.756
		c7.135,2.073,14.512,4.216,19.814,6.965c4.666,2.419,7.197,6.837,7.449,8.796c-0.07,0.019-0.154,0.037-0.244,0.057
		C254.243,213.754,253.048,213.963,251.803,214.17z M63.718,159.867c-5.557-1.033-9.175-3.139-9.678-5.633
		c-0.522-2.593,1.672-7.074,6.248-10.083c6.801-4.471,19.928-8.011,32.623-11.435c10.541-2.843,20.498-5.527,27.877-8.95
		c11.301-5.244,25.271-12.655,40.063-20.502c26.539-14.08,56.621-30.038,68.909-31.745c10.437-1.445,22.39,4.096,27.794,12.9
		c5.961,9.712,4.071,22.095-5.467,35.809c-0.111,0.16-0.231,0.351-0.33,0.519c-0.117,0.2-12.01,20.069-44.313,39.88
		c-4.049,0.702-8.229,1.325-12.532,1.871c-16.025-7.889-34.912-10.852-55.783-8.604c-13.726,1.477-27.365,5.186-39.282,9.936
		c-0.812-0.397-32.601-3.548-35.88-3.904C63.882,159.908,63.802,159.883,63.718,159.867z M293.192,201.489
		c-1.768,1.55-7.266,5.124-22.883,8.952c-1.435-7.389-7.232-14.938-15.195-19.065c-2.174-1.127-4.52-2.13-6.952-3.06
		C275.907,192.659,289.612,198.17,293.192,201.489z M16.626,144.099c-1.527-2.003-1.948-3.898-1.406-6.332
		c3.141-14.132,24.933-21.467,59.074-28.721c25.119-5.337,64.478-26.429,96.104-43.376c13.467-7.217,25.097-13.449,32.833-16.941
		c21.443-9.68,45.492-9.728,62.76-0.13c14.384,7.996,23.289,22.025,25.752,40.572c1.766,13.294-1.483,25.376-9.658,35.91
		c-7.848,10.112-19.957,18.482-35.844,24.923c11.776-11.101,17.227-19.632,18.315-21.436c17.367-25.132,11.085-43.355,5.78-51.996
		c-8.604-14.016-26.133-22.198-42.641-19.911c-14.914,2.071-43.554,17.266-73.875,33.352c-14.609,7.75-28.408,15.071-39.347,20.146
		c-6.212,2.882-15.566,5.404-25.47,8.075c-13.838,3.731-28.146,7.59-36.958,13.384c-8.819,5.8-13.855,15.159-12.978,23.785
		C29.046,152.707,20.337,148.967,16.626,144.099z M63.583,187.933c-4.391,6.855-5.882,14.198-4.295,21.29
		c0.441,1.974,1.094,3.823,1.884,5.55c-1.274-0.198-2.55-0.396-3.791-0.604c-30.09-5.019-38.985-10.589-41.364-12.658
		C19.327,198.619,32.13,192.617,63.583,187.933z M150.981,267.452c-42.82,0-78.684-11.264-106.595-33.477
		c-3.932-3.129-7.418-6.268-10.491-9.303c4.683,1.176,9.872,2.289,15.611,3.347c28.141,5.182,65.462,7.752,105.086,8.036
		c64.213,0.46,111.092-9.188,113.869-9.789C242.675,249.883,212.18,267.452,150.981,267.452z"/>
</g>
<g>
</g>
<g>
</g>
<g>
</g>
<g>
</g>
<g>
</g>
<g>
</g>
<g>
</g>
<g>
</g>
<g>
</g>
<g>
</g>
<g>
</g>
<g>
</g>
<g>
</g>
<g>
</g>
<g>
</g>
</svg>
