<?xml version="1.0" encoding="iso-8859-1"?>
<!-- Generator: Adobe Illustrator 18.0.0, SVG Export Plug-In . SVG Version: 6.00 Build 0)  -->
<!DOCTYPE svg PUBLIC "-//W3C//DTD SVG 1.1//EN" "http://www.w3.org/Graphics/SVG/1.1/DTD/svg11.dtd">
<svg version="1.1" id="Capa_1" xmlns="http://www.w3.org/2000/svg" xmlns:xlink="http://www.w3.org/1999/xlink" x="0px" y="0px"
	 viewBox="0 0 366.541 366.541" style="enable-background:new 0 0 366.541 366.541;" xml:space="preserve">
<g>
	<path d="M365.241,208.324l-19.639-28.854c-0.929-1.365-2.282-2.386-3.851-2.903l-46.55-15.354c-2.346-0.771-4.92-0.343-6.887,1.15
		l-21.688,16.475c16.52-16.454,37.189-43.844,39.985-79.736c3.038-38.995-25.189-68.878-68.642-72.669
		c-2.827-0.237-5.55,1.123-7.037,3.538c-1.488,2.415-1.486,5.463,0.004,7.876c6.32,10.227,14.444,23.958,20.189,34.498
		c-6.643-2.16-13.807-4.312-18.6-5.244c-2.061-0.398-4.195,0.08-5.885,1.326c-1.688,1.246-2.779,3.143-3.004,5.229
		c-0.139,1.273-2.855,29.818,25.766,49.063c-3.518,9.634-9.427,19.429-15.179,27.856c-1.013-10.526-9.901-18.786-20.689-18.786
		c-11.465,0-20.791,9.326-20.791,20.789v11.714c-3.094-0.219-6.248-0.343-9.477-0.343c-3.227,0-6.382,0.124-9.477,0.343V152.58
		c0-11.463-9.326-20.789-20.789-20.789c-10.788,0-19.678,8.26-20.689,18.786c-5.752-8.428-11.662-18.223-15.178-27.856
		c28.62-19.245,25.902-47.79,25.766-49.063c-0.227-2.087-1.316-3.983-3.006-5.229c-1.689-1.245-3.82-1.723-5.884-1.326
		c-4.794,0.933-11.958,3.084-18.6,5.244c5.745-10.54,13.87-24.271,20.188-34.498c1.491-2.413,1.494-5.461,0.006-7.876
		c-1.488-2.415-4.212-3.78-7.037-3.538c-43.453,3.791-71.68,33.674-68.643,72.669c2.795,35.891,23.461,63.277,39.979,79.731
		l-21.682-16.47c-1.965-1.493-4.541-1.924-6.885-1.15L24.79,176.567c-1.568,0.518-2.922,1.538-3.851,2.903L1.3,208.324
		c-1,1.469-1.445,3.246-1.258,5.013l2.672,25.113c0.41,3.85,3.662,6.708,7.449,6.708c0.265,0,0.533-0.015,0.803-0.043
		c4.118-0.439,7.102-4.133,6.664-8.251l-2.381-22.376l16.658-24.473l40.387-13.32l33.205,25.225c-1.051,1.774-2.018,3.6-2.914,5.458
		L77.3,189.133c-2.148-1.551-4.954-1.853-7.383-0.795l-31.213,13.589c-1.797,0.782-3.217,2.236-3.954,4.052l-14.559,35.8
		c-0.701,1.725-0.735,3.649-0.097,5.398l7.611,20.84c1.111,3.042,3.984,4.929,7.045,4.929c0.855,0,1.725-0.147,2.573-0.457
		c3.891-1.421,5.893-5.728,4.472-9.618l-6.619-18.122l12.316-30.288l24.494-10.663l25.371,18.308
		c-0.521,2.205-0.943,4.436-1.254,6.686l-9.832-6.238c-1.898-1.203-4.237-1.494-6.373-0.787l-28.81,9.531
		c-2.941,0.973-4.98,3.652-5.136,6.745l-1.558,31.147c-0.072,1.452,0.278,2.893,1.01,4.149l13.149,22.581
		c1.393,2.393,3.905,3.727,6.487,3.727c1.281,0,2.581-0.328,3.768-1.02c3.58-2.085,4.791-6.676,2.707-10.256l-12.028-20.656
		l1.189-23.79l20.559-6.802l16.923,10.739c2.563,4.816,7.529,11.633,17.193,21.126c2.033,1.999,4.538,4.348,7.195,6.718
		l-22.538,9.532c-3.697,1.563-5.508,5.761-4.108,9.523l11.302,30.368c0.7,1.883,2.127,3.406,3.961,4.227l22.586,10.122
		c0.997,0.447,2.038,0.658,3.063,0.658c2.865,0,5.601-1.651,6.849-4.435c1.693-3.78,0.003-8.218-3.777-9.911l-19.72-8.838
		l-7.702-20.697l23.436-9.912c1.63,1.065,3.087,1.879,4.24,2.295c11.658,4.202,26.17,6.333,43.131,6.333
		c16.963,0,31.475-2.131,43.131-6.333c1.154-0.416,2.611-1.23,4.241-2.295l23.435,9.912l-7.702,20.697l-19.721,8.838
		c-3.779,1.693-5.471,6.131-3.776,9.911c1.247,2.784,3.983,4.435,6.849,4.435c1.025,0,2.066-0.212,3.063-0.658l22.587-10.122
		c1.833-0.821,3.261-2.345,3.962-4.227l11.301-30.368c1.4-3.763-0.41-7.96-4.107-9.523l-22.537-9.532
		c2.656-2.37,5.16-4.719,7.195-6.718c9.662-9.493,14.631-16.31,17.193-21.126l16.922-10.739l20.559,6.802l1.189,23.79
		l-12.028,20.656c-2.085,3.58-0.872,8.171,2.707,10.256c1.186,0.691,2.485,1.02,3.767,1.02c2.582,0,5.096-1.335,6.488-3.727
		l13.15-22.581c0.73-1.256,1.082-2.697,1.009-4.149l-1.558-31.147c-0.154-3.093-2.195-5.772-5.135-6.745l-28.811-9.531
		c-2.137-0.709-4.475-0.417-6.375,0.787l-9.843,6.246c-0.311-2.25-0.732-4.48-1.254-6.686l25.384-18.316l24.492,10.663
		l12.317,30.288l-6.619,18.122c-1.421,3.891,0.581,8.197,4.472,9.618c0.85,0.31,1.719,0.457,2.572,0.457
		c3.061,0,5.936-1.888,7.046-4.929l7.612-20.84c0.639-1.749,0.604-3.674-0.098-5.398l-14.559-35.8
		c-0.738-1.815-2.156-3.27-3.953-4.052l-31.214-13.589c-2.429-1.057-5.234-0.755-7.382,0.795l-25.291,18.248
		c-0.896-1.858-1.857-3.686-2.91-5.461l33.207-25.225l40.387,13.32l16.656,24.473l-2.38,22.376
		c-0.439,4.118,2.546,7.813,6.665,8.251c0.27,0.028,0.537,0.043,0.803,0.043c3.785-0.001,7.039-2.858,7.448-6.708l2.671-25.113
		C366.687,211.57,366.241,209.793,365.241,208.324z M207.747,152.58c0-3.192,2.598-5.789,5.791-5.789c3.192,0,5.79,2.597,5.79,5.789
		v16.821c-3.708-1.234-7.563-2.279-11.581-3.096V152.58z M147.214,152.58c0-3.192,2.598-5.789,5.791-5.789
		c3.192,0,5.789,2.597,5.789,5.789v13.726c-4.016,0.816-7.871,1.861-11.58,3.096V152.58z M74.884,97.938
		c-2.018-25.896,13.333-46.103,39.305-53.679C106.122,57.846,95.54,76.466,93.819,83.4c-0.669,2.692,0.203,5.532,2.266,7.387
		c2.063,1.854,4.98,2.419,7.586,1.466c0.172-0.063,12.896-4.699,23.488-7.879c-1.805,8.062-7.151,19.854-22.596,28.475
		c-3,1.675-4.479,5.174-3.59,8.492c5.334,19.884,20.234,39.873,29.137,51.816c0.695,0.932,1.413,1.895,2.104,2.83v0.018
		c-2.573,1.454-5.033,3.038-7.379,4.747C112.608,171.274,78.237,140.992,74.884,97.938z M240.784,258.181
		c-9.085,8.941-17.507,15.361-19.6,16.392c-10.002,3.582-22.757,5.398-37.914,5.398c-15.156,0-27.911-1.816-37.912-5.398
		c-2.094-1.03-10.516-7.45-19.602-16.392c-12.14-11.948-15.182-18.317-15.326-19.685c0-29.639,22.523-59.545,72.84-59.545
		c50.318,0,72.84,29.906,72.844,59.467C255.966,239.864,252.925,246.233,240.784,258.181z M241.708,180.753
		c-2.347-1.708-4.807-3.293-7.38-4.747v-0.018c0.69-0.935,1.409-1.898,2.103-2.83c8.903-11.943,23.804-31.933,29.137-51.816
		c0.891-3.318-0.588-6.817-3.588-8.492c-15.461-8.63-20.805-20.413-22.604-28.477c10.592,3.18,23.324,7.818,23.496,7.881
		c2.603,0.949,5.521,0.388,7.585-1.467c2.063-1.854,2.935-4.693,2.267-7.386c-1.723-6.935-12.304-25.554-20.369-39.141
		c25.971,7.575,41.321,27.782,39.304,53.679C288.304,140.997,253.927,171.28,241.708,180.753z"/>
</g>
<g>
</g>
<g>
</g>
<g>
</g>
<g>
</g>
<g>
</g>
<g>
</g>
<g>
</g>
<g>
</g>
<g>
</g>
<g>
</g>
<g>
</g>
<g>
</g>
<g>
</g>
<g>
</g>
<g>
</g>
</svg>
