<?xml version="1.0" encoding="iso-8859-1"?>
<!-- Generator: Adobe Illustrator 18.0.0, SVG Export Plug-In . SVG Version: 6.00 Build 0)  -->
<!DOCTYPE svg PUBLIC "-//W3C//DTD SVG 1.1//EN" "http://www.w3.org/Graphics/SVG/1.1/DTD/svg11.dtd">
<svg version="1.1" id="Capa_1" xmlns="http://www.w3.org/2000/svg" xmlns:xlink="http://www.w3.org/1999/xlink" x="0px" y="0px"
	 viewBox="0 0 386.581 386.581" style="enable-background:new 0 0 386.581 386.581;" xml:space="preserve">
<g>
	<path d="M247.349,303.974c1.16-2.561,1.822-5.393,1.822-8.383c0-5.85-2.488-11.117-6.448-14.836
		c2.03-3.17,3.224-6.926,3.224-10.963c0-7.736-4.328-14.478-10.69-17.935c7.052-7.904,11.087-17.714,11.087-27.985
		c0-11.188-4.701-21.948-13.236-30.304c-5.322-5.85-7.694-12.227-7.035-18.989c0.853-8.746,6.586-15.949,9.533-17.941
		c6.166-3.514,10.342-10.137,10.342-17.727c0-7.207-3.766-13.537-9.424-17.167c7.705-8.013,12.133-18.08,12.133-28.618
		c0-20.234-15.916-37.439-37.922-43.506l-1.193-14.643c4.764-3.541,7.871-9.192,7.871-15.57C217.411,8.706,208.704,0,198.003,0
		h-9.426c-10.701,0-19.408,8.706-19.408,19.407c0,6.379,3.107,12.03,7.871,15.57l-1.193,14.642
		c-22.005,6.067-37.922,23.271-37.922,43.507c0,10.537,4.422,20.609,12.125,28.623c-5.652,3.631-9.416,9.959-9.416,17.162
		c0,7.59,4.176,14.213,10.343,17.727c2.946,1.991,8.681,9.194,9.532,17.941c0.66,6.763-1.713,13.142-7.038,18.992
		c-8.532,8.355-13.232,19.114-13.232,30.301c0,10.271,4.025,20.087,11.075,27.991c-6.355,3.459-10.68,10.198-10.68,17.93
		c0,4.029,1.189,7.779,3.214,10.947c-3.96,3.721-6.439,9.001-6.439,14.852c0,2.99,0.663,5.824,1.824,8.386
		c-5.885,3.578-9.832,10.034-9.832,17.413v57.691c0,4.143,3.357,7.5,7.5,7.5H249.68c4.142,0,7.5-3.357,7.5-7.5V321.39
		C257.18,314.013,253.23,307.557,247.349,303.974z M188.577,15h9.426c2.431,0,4.408,1.978,4.408,4.407
		c0,2.43-1.977,4.407-4.408,4.407h-9.426c-2.431,0-4.408-1.978-4.408-4.407C184.169,16.978,186.146,15,188.577,15z M195.497,47.321
		c-0.733-0.024-1.467-0.047-2.207-0.047s-1.474,0.023-2.207,0.047l0.694-8.507h3.026L195.497,47.321z M193.29,62.274
		c22.258,0,40.365,13.84,40.365,30.852c0,10.186-6.516,19.578-17.52,25.387h-45.691c-11.004-5.809-17.52-15.201-17.52-25.387
		C152.925,76.114,171.032,62.274,193.29,62.274z M155.634,138.911c0-2.977,2.422-5.398,5.4-5.398h64.513
		c2.978,0,5.399,2.422,5.399,5.398c0,2.978-2.422,5.399-5.399,5.399h-64.513C158.056,144.311,155.634,141.889,155.634,138.911z
		 M162.581,205.738c12.086-11.932,13.666-24.316,12.857-32.615c-0.479-4.909-1.928-9.608-3.928-13.813h43.561
		c-2,4.204-3.45,8.903-3.93,13.813c-0.809,8.302,0.773,20.692,12.869,32.628c4.738,5.254,7.332,11.615,7.332,18.12
		c0,10.314-6.249,19.751-16.805,25.523h-42.496c-10.555-5.771-16.804-15.209-16.804-25.523
		C155.238,217.361,157.836,210.994,162.581,205.738z M230.946,269.792c0,2.978-2.422,5.4-5.399,5.4h-64.513
		c-2.979,0-5.4-2.423-5.4-5.4c0-2.977,2.422-5.398,5.4-5.398h64.513C228.525,264.394,230.946,266.815,230.946,269.792z
		 M157.809,290.192h70.964c2.977,0,5.398,2.422,5.398,5.398c0,2.977-2.422,5.398-5.398,5.398h-70.964c-2.978,0-5.4-2.422-5.4-5.398
		C152.409,292.614,154.831,290.192,157.809,290.192z M242.18,371.581h-97.778V321.39c0-2.978,2.422-5.4,5.398-5.4h86.98
		c2.977,0,5.399,2.423,5.399,5.4V371.581z"/>
</g>
<g>
</g>
<g>
</g>
<g>
</g>
<g>
</g>
<g>
</g>
<g>
</g>
<g>
</g>
<g>
</g>
<g>
</g>
<g>
</g>
<g>
</g>
<g>
</g>
<g>
</g>
<g>
</g>
<g>
</g>
</svg>
