<?xml version="1.0" encoding="iso-8859-1"?>
<!-- Generator: Adobe Illustrator 18.0.0, SVG Export Plug-In . SVG Version: 6.00 Build 0)  -->
<!DOCTYPE svg PUBLIC "-//W3C//DTD SVG 1.1//EN" "http://www.w3.org/Graphics/SVG/1.1/DTD/svg11.dtd">
<svg version="1.1" id="Capa_1" xmlns="http://www.w3.org/2000/svg" xmlns:xlink="http://www.w3.org/1999/xlink" x="0px" y="0px"
	 viewBox="0 0 311.77 311.77" style="enable-background:new 0 0 311.77 311.77;" xml:space="preserve">
<g>
	<g>
		<path d="M152.108,110.737c-36.535,0-66.258,20.254-66.258,45.148c0,4.143,3.357,7.5,7.5,7.5s7.5-3.357,7.5-7.5
			c0-16.061,23.952-30.148,51.258-30.148c4.143,0,7.5-3.357,7.5-7.5C159.608,114.094,156.251,110.737,152.108,110.737z"/>
		<path d="M301.505,189.277c-3.781-3.228-5.003-4.508-5.003-7.33c0-2.817,1.222-4.098,5.002-7.323
			c4.087-3.489,10.265-8.762,10.265-18.736c0-9.975-6.177-15.247-10.264-18.735c-3.781-3.228-5.004-4.508-5.004-7.328
			c0-2.82,1.223-4.101,5.003-7.328c4.088-3.488,10.265-8.762,10.266-18.736c0-4.143-3.357-7.501-7.499-7.501h-0.001
			c-0.109,0-0.216,0.012-0.324,0.017c-26.808,0.099-43.862,12.429-53.457,22.782c-2.608,2.814-4.816,5.637-6.663,8.291
			c-4.901-8.193-11.951-15.684-20.953-22.099c-17.949-12.792-41.686-19.837-66.835-19.836c-25.15,0-48.887,7.045-66.837,19.836
			c-9.088,6.478-16.188,14.05-21.094,22.337c-1.88-2.725-4.139-5.629-6.825-8.528c-9.595-10.354-26.649-22.684-53.457-22.783
			C7.716,96.27,7.609,96.258,7.5,96.258c-4.142,0-7.5,3.357-7.5,7.5c0,9.976,6.178,15.249,10.265,18.737
			c3.781,3.228,5.003,4.508,5.003,7.327c0,2.821-1.223,4.102-5.003,7.329C6.178,140.641,0.001,145.914,0,155.89
			c0.001,9.973,6.178,15.244,10.265,18.732c3.78,3.227,5.003,4.508,5.003,7.327c0,2.819-1.222,4.1-5.002,7.325
			C6.178,192.763,0.001,198.036,0,208.009v0.001l0,0c0,2.986,1.75,5.559,4.276,6.765c0.759,0.362,1.584,0.608,2.457,0.696
			c0.074,0.008,0.152,0.006,0.229,0.012c0.178,0.013,0.355,0.027,0.537,0.027c0.001,0,0.001,0,0.001,0
			c26.996,0,44.147-12.392,53.782-22.786c2.688-2.901,4.947-5.808,6.828-8.533c4.906,8.283,12.005,15.854,21.091,22.329
			c17.949,12.791,41.686,19.836,66.835,19.836c25.15,0,48.887-7.045,66.836-19.836c9-6.413,16.049-13.902,20.949-22.093
			c1.848,2.656,4.057,5.479,6.667,8.296c9.634,10.395,26.785,22.787,53.781,22.787h0.001l0,0c0.182,0,0.359-0.015,0.537-0.027
			c0.076-0.006,0.154-0.004,0.228-0.012c0.848-0.086,1.648-0.319,2.389-0.664c2.564-1.191,4.345-3.783,4.345-6.797l0,0v-0.001
			C311.769,198.037,305.593,192.765,301.505,189.277z M22.058,198.887c3.826-3.473,8.21-8.533,8.21-16.938
			c0-9.975-6.178-15.247-10.265-18.736c-3.78-3.227-5.003-4.506-5.003-7.323c0-2.821,1.223-4.103,5.004-7.33
			c4.087-3.489,10.264-8.762,10.264-18.737c0-8.417-4.396-13.479-8.226-16.953c26.027,5.979,36.674,27.049,39.12,32.771
			c-0.653,3.359-0.99,6.779-0.99,10.244c0,3.463,0.337,6.883,0.989,10.24C58.747,171.69,47.988,192.85,22.058,198.887z
			 M156.036,211.356c-44.589,0-80.864-24.884-80.864-55.471s36.276-55.472,80.865-55.472c22.056,0,42.7,6.055,58.13,17.052
			c14.66,10.447,22.733,24.092,22.733,38.42C236.9,186.472,200.625,211.356,156.036,211.356z M250.817,166.624
			c0.718-3.518,1.083-7.104,1.083-10.738c0-3.632-0.365-7.217-1.081-10.732c2.813-6.349,13.578-26.465,38.908-32.283
			c-3.829,3.473-8.226,8.535-8.227,16.953c0,9.976,6.178,15.249,10.265,18.737c3.781,3.227,5.003,4.508,5.003,7.327
			c0,2.819-1.222,4.1-5.003,7.326c-4.087,3.489-10.265,8.761-10.264,18.733c-0.001,8.428,4.404,13.492,8.238,16.967
			C264.393,193.096,253.627,172.967,250.817,166.624z"/>
	</g>
</g>
<g>
</g>
<g>
</g>
<g>
</g>
<g>
</g>
<g>
</g>
<g>
</g>
<g>
</g>
<g>
</g>
<g>
</g>
<g>
</g>
<g>
</g>
<g>
</g>
<g>
</g>
<g>
</g>
<g>
</g>
</svg>
