<?xml version="1.0" encoding="iso-8859-1"?>
<!-- Generator: Adobe Illustrator 18.0.0, SVG Export Plug-In . SVG Version: 6.00 Build 0)  -->
<!DOCTYPE svg PUBLIC "-//W3C//DTD SVG 1.1//EN" "http://www.w3.org/Graphics/SVG/1.1/DTD/svg11.dtd">
<svg version="1.1" id="Capa_1" xmlns="http://www.w3.org/2000/svg" xmlns:xlink="http://www.w3.org/1999/xlink" x="0px" y="0px"
	 viewBox="0 0 336.682 336.682" style="enable-background:new 0 0 336.682 336.682;" xml:space="preserve">
<g>
	<g>
		<path d="M107.713,20.209H92.066c-4.143,0-7.5,3.357-7.5,7.5v15.648c0,4.143,3.357,7.5,7.5,7.5s7.5-3.357,7.5-7.5v-8.148h8.147
			c4.143,0,7.5-3.358,7.5-7.5C115.213,23.566,111.856,20.209,107.713,20.209z"/>
		<path d="M156.4,50.857c4.143,0,7.5-3.357,7.5-7.5v-8.148h8.148c4.143,0,7.5-3.358,7.5-7.5c0-4.143-3.357-7.5-7.5-7.5H156.4
			c-4.143,0-7.5,3.357-7.5,7.5v15.648C148.9,47.5,152.257,50.857,156.4,50.857z"/>
		<path d="M220.739,50.857c4.143,0,7.5-3.357,7.5-7.5v-8.148h8.146c4.143,0,7.5-3.358,7.5-7.5c0-4.143-3.357-7.5-7.5-7.5h-15.646
			c-4.143,0-7.5,3.357-7.5,7.5v15.648C213.239,47.5,216.596,50.857,220.739,50.857z"/>
		<path d="M236.385,84.545h-15.646c-4.143,0-7.5,3.357-7.5,7.5v15.648c0,4.143,3.357,7.5,7.5,7.5c4.143,0,7.5-3.357,7.5-7.5v-8.148
			h8.146c4.143,0,7.5-3.357,7.5-7.5S240.528,84.545,236.385,84.545z"/>
		<path d="M272.327,7.5c0-4.143-3.319-7.5-7.462-7.5H71.855c-4.143,0-7.5,3.357-7.5,7.5v321.682c0,4.143,3.322,7.5,7.465,7.5
			h193.007c4.143,0,7.5-3.357,7.5-7.5V7.5z M163.9,107.693v-8.148h8.148c4.143,0,7.5-3.357,7.5-7.5s-3.357-7.5-7.5-7.5H156.4
			c-4.143,0-7.5,3.357-7.5,7.5v15.648c0,0.223,0.014,0.441,0.033,0.658l-5.241-0.966v-28.05h49.336v37.145l-29.89-5.51
			C163.622,109.979,163.9,108.87,163.9,107.693z M107.713,84.545H92.066c-4.143,0-7.5,3.357-7.5,7.5v4.441l-5.211-0.96v-16.19
			h49.337v25.285l-27.535-5.076h6.557c4.143,0,7.5-3.357,7.5-7.5S111.856,84.545,107.713,84.545z M208.028,79.336h49.337v49.004
			l-49.337-9.095V79.336z M257.365,64.336h-49.337V15h49.337V64.336z M193.028,64.336h-49.336V15h49.336V64.336z M79.355,15h49.337
			v49.336H79.355V15z M257.327,321.682H79.32V110.772l178.007,32.814V321.682z"/>
		<path d="M106.054,279.797h124.611c4.143,0,7.5-3.357,7.5-7.5v-64.992c0-4.143-3.357-7.5-7.5-7.5H106.054
			c-4.143,0-7.5,3.357-7.5,7.5v64.992C98.554,276.439,101.912,279.797,106.054,279.797z M113.554,214.805h109.611v49.992H113.554
			V214.805z"/>
	</g>
</g>
<g>
</g>
<g>
</g>
<g>
</g>
<g>
</g>
<g>
</g>
<g>
</g>
<g>
</g>
<g>
</g>
<g>
</g>
<g>
</g>
<g>
</g>
<g>
</g>
<g>
</g>
<g>
</g>
<g>
</g>
</svg>
