<?xml version="1.0" encoding="iso-8859-1"?>
<!-- Generator: Adobe Illustrator 18.0.0, SVG Export Plug-In . SVG Version: 6.00 Build 0)  -->
<!DOCTYPE svg PUBLIC "-//W3C//DTD SVG 1.1//EN" "http://www.w3.org/Graphics/SVG/1.1/DTD/svg11.dtd">
<svg version="1.1" id="Capa_1" xmlns="http://www.w3.org/2000/svg" xmlns:xlink="http://www.w3.org/1999/xlink" x="0px" y="0px"
	 viewBox="0 0 366.501 366.501" style="enable-background:new 0 0 366.501 366.501;" xml:space="preserve">
<g>
	<path d="M275.396,58.914c-0.136-0.388-20.834-40.85-60.939-53.881c-0.297-0.117-52.461-19.969-98.981,19.991
		C94.966,42.642,82.884,69.396,82.623,98.44c-0.002,0.078-0.012,0.153-0.012,0.231v240.086c0,15.298,12.446,27.744,27.744,27.744
		c15.297,0,27.742-12.446,27.742-27.744V99.358c0-24.898,20.255-45.154,45.152-45.154c24.898,0,45.154,20.256,45.154,45.154
		c0,15.298,12.445,27.743,27.743,27.743c15.298,0,27.743-12.445,27.743-27.743C283.89,84.979,281.972,73.569,275.396,58.914z
		 M200.074,15.387l-15.063,23.861c-0.587-0.018-17.761-0.03-29.517,6.768l-22.08-16.238c14.051-10.092,31.254-16.06,49.835-16.06
		C189.007,13.718,194.631,14.298,200.074,15.387z M123.097,223.787L97.611,234.66v-54.693l25.486-10.874V223.787z M97.611,250.969
		l25.486-10.873v54.693l-25.486,10.874V250.969z M123.097,98.671v54.113l-25.486,10.874v-54.691l25.516-10.868
		C123.112,98.288,123.097,98.478,123.097,98.671z M110.355,351.501c-7.027,0-12.744-5.717-12.744-12.744v-16.785l25.486-10.874
		v27.659C123.097,345.784,117.381,351.501,110.355,351.501z M126.137,80.512L97.908,92.536
		c1.617-20.407,10.408-38.816,23.859-52.705l20.781,15.282C135.097,61.973,129.388,70.687,126.137,80.512z M201.076,41.901
		l13.923-22.057c18.54,7.431,33.906,21.144,43.419,38.517L236.23,70.897C228.819,57.156,216.222,46.61,201.076,41.901z
		 M256.147,112.101c-7.026,0-12.743-5.717-12.743-12.743c0-4.93-0.609-9.717-1.732-14.306l22.773-12.868
		c2.868,8.545,4.445,17.676,4.445,27.174C268.89,106.384,263.173,112.101,256.147,112.101z"/>
</g>
<g>
</g>
<g>
</g>
<g>
</g>
<g>
</g>
<g>
</g>
<g>
</g>
<g>
</g>
<g>
</g>
<g>
</g>
<g>
</g>
<g>
</g>
<g>
</g>
<g>
</g>
<g>
</g>
<g>
</g>
</svg>
