<?xml version="1.0" encoding="iso-8859-1"?>
<!-- Generator: Adobe Illustrator 18.0.0, SVG Export Plug-In . SVG Version: 6.00 Build 0)  -->
<!DOCTYPE svg PUBLIC "-//W3C//DTD SVG 1.1//EN" "http://www.w3.org/Graphics/SVG/1.1/DTD/svg11.dtd">
<svg version="1.1" id="Capa_1" xmlns="http://www.w3.org/2000/svg" xmlns:xlink="http://www.w3.org/1999/xlink" x="0px" y="0px"
	 viewBox="0 0 367.278 367.278" style="enable-background:new 0 0 367.278 367.278;" xml:space="preserve">
<g>
	<path d="M286.525,13.993c-4.622-7.138-11.747-12.048-20.062-13.827C265.972,0.061,264.869,0,264.869,0
		C262.504,0,211,0.964,183.632,76.977C156.261,0.976,104.767,0,102.402,0c0,0-1.104,0.061-1.595,0.166
		C83.643,3.838,72.667,20.791,76.339,37.958C78.59,48.474,86.017,56.911,95.572,60.8c-2.486,5.898-3.153,12.492-1.761,19
		c3.123,14.59,16.205,25.178,31.105,25.177c0.803,0,1.606-0.031,2.409-0.092c-0.056,2.46,0.175,4.935,0.697,7.377
		c3.123,14.59,16.205,25.179,31.107,25.178c2.235,0,4.485-0.239,6.686-0.71c3.682-0.788,7.166-2.238,10.319-4.211v32.168
		c-40.277,3.203-71.903,31.906-71.903,66.74c0,11.917,3.738,23.617,10.811,33.835c0.044,0.063,0.096,0.117,0.141,0.179
		c0.047,0.07,0.087,0.143,0.137,0.212l60.815,84.739v9.387c0,4.143,3.357,7.5,7.5,7.5c4.143,0,7.5-3.357,7.5-7.5v-9.386
		l60.816-84.74c0.047-0.065,0.085-0.135,0.13-0.201c0.054-0.072,0.112-0.14,0.164-0.214c7.062-10.213,10.794-21.904,10.794-33.811
		c0-34.834-31.627-63.537-71.904-66.74v-32.168c3.153,1.972,6.639,3.423,10.321,4.211c2.201,0.471,4.45,0.71,6.686,0.71
		c14.901,0,27.983-10.589,31.105-25.177c0.522-2.442,0.753-4.918,0.697-7.378c0.804,0.06,1.607,0.092,2.41,0.092
		c14.901,0,27.982-10.588,31.106-25.178c1.392-6.508,0.725-13.101-1.762-18.998c9.555-3.889,16.982-12.326,19.233-22.843
		C292.712,29.643,291.146,21.132,286.525,13.993z M173.71,114.318c-2.456,3.946-6.477,6.769-11.032,7.743
		c-1.171,0.251-2.365,0.378-3.548,0.378c-7.874,0-14.787-5.6-16.438-13.317c-0.855-3.994-0.228-8.16,1.77-11.73
		c1.673-2.993,1.103-6.74-1.385-9.101c-1.433-1.359-3.291-2.06-5.164-2.06c-1.379,0-2.767,0.38-3.996,1.154
		c-1.67,1.053-3.503,1.797-5.452,2.213c-1.171,0.251-2.364,0.378-3.547,0.378c-7.873,0-14.786-5.6-16.438-13.315
		c-1.224-5.721,0.563-11.57,4.782-15.646c2.223-2.148,2.9-5.44,1.706-8.291c-1.195-2.852-3.99-4.655-7.106-4.601
		c-8.013,0.214-15.175-5.455-16.854-13.304c-1.882-8.796,3.509-17.486,12.103-19.784c2.899,0.204,14.257,1.575,27.42,10.701
		c20.497,14.211,36.109,40.699,45.148,76.6C176.696,106.388,175.998,110.643,173.71,114.318z M248.04,231.427
		c0,8.844-2.811,17.586-8.132,25.279c-0.023,0.033-0.04,0.068-0.063,0.102c-0.025,0.033-0.054,0.064-0.079,0.099l-56.131,78.211
		l-23.298-32.463h13.033c4.143,0,7.5-3.357,7.5-7.5s-3.357-7.5-7.5-7.5h-23.798l-16.574-23.094h26.956c4.143,0,7.5-3.357,7.5-7.5
		c0-4.143-3.357-7.5-7.5-7.5h-36.671c-2.663-5.776-4.052-11.929-4.052-18.134c0-1.674,0.107-3.328,0.3-4.963h32.991
		c4.143,0,7.5-3.357,7.5-7.5c0-4.143-3.357-7.5-7.5-7.5h-28.357c9.709-18.82,32.706-32.085,59.47-32.085
		C219.148,179.379,248.04,202.728,248.04,231.427z M276.264,34.819c-1.68,7.849-8.798,13.532-16.854,13.304
		c-3.106-0.047-5.912,1.749-7.106,4.601c-1.194,2.851-0.517,6.143,1.706,8.291c4.219,4.076,6.007,9.926,4.783,15.646
		c-1.651,7.715-8.564,13.315-16.438,13.315c-1.183,0-2.376-0.127-3.55-0.379c-1.946-0.415-3.78-1.159-5.451-2.212
		c-2.903-1.829-6.674-1.456-9.16,0.906c-2.487,2.36-3.057,6.107-1.383,9.101c1.996,3.568,2.624,7.734,1.769,11.73
		c-1.651,7.716-8.564,13.317-16.438,13.317c-1.183,0-2.376-0.127-3.547-0.378c-4.557-0.976-8.578-3.798-11.034-7.744
		c-2.287-3.675-2.985-7.93-1.966-11.979c9.038-35.902,24.65-62.391,45.146-76.602c13.208-9.157,24.6-10.506,27.412-10.702
		c4.041,1.076,7.49,3.578,9.779,7.113C276.378,25.921,277.206,30.422,276.264,34.819z"/>
</g>
<g>
</g>
<g>
</g>
<g>
</g>
<g>
</g>
<g>
</g>
<g>
</g>
<g>
</g>
<g>
</g>
<g>
</g>
<g>
</g>
<g>
</g>
<g>
</g>
<g>
</g>
<g>
</g>
<g>
</g>
</svg>
