<?xml version="1.0" encoding="iso-8859-1"?>
<!-- Generator: Adobe Illustrator 18.0.0, SVG Export Plug-In . SVG Version: 6.00 Build 0)  -->
<!DOCTYPE svg PUBLIC "-//W3C//DTD SVG 1.1//EN" "http://www.w3.org/Graphics/SVG/1.1/DTD/svg11.dtd">
<svg version="1.1" id="Capa_1" xmlns="http://www.w3.org/2000/svg" xmlns:xlink="http://www.w3.org/1999/xlink" x="0px" y="0px"
	 viewBox="0 0 345.943 345.943" style="enable-background:new 0 0 345.943 345.943;" xml:space="preserve">
<g>
	<path d="M299.612,116.119c-12.893-21.756-37.463-27.413-57.428-29.911c-9.442-1.181-16.21-1.529-25.162-0.11
		c-6.759-3.198-14.409-5.512-22.96-6.903V40.246C194.062,18.055,176.007,0,153.814,0c-6.642,0-13.227,1.655-19.045,4.786
		c-2.43,1.309-3.945,3.845-3.945,6.604v26.021c0,2.653,1.402,5.109,3.687,6.458c2.287,1.351,5.113,1.389,7.436,0.109
		c5.769-3.183,8.477-2.991,8.971-2.677c1.134,0.731,2.022,4.934,1.763,8.293c-0.019,0.218-0.028,0.436-0.028,0.654v28.832
		c-8.856,1.377-16.764,3.727-23.723,7.018c-8.955-1.422-15.723-1.072-25.169,0.108c-19.965,2.498-44.535,8.155-57.43,29.911
		c-13.979,23.587-10.765,60.38,9.823,112.48c5.215,13.196,9.601,25.792,13.842,37.973c7.961,22.865,14.837,42.611,24.02,56.607
		c9.73,14.83,21.614,22.104,36.195,22.104c1.923,0,3.895-0.127,5.912-0.379c0.002,0,0.004-0.001,0.006-0.001
		c5.615-0.702,10.991-2.354,16.027-4.899c5.639,3.739,12.453,5.939,20.816,5.939c7.899,0,14.802-1.971,20.799-5.947
		c5.039,2.55,10.42,4.204,16.043,4.908c0.002,0,0.004,0.001,0.006,0.001c2.019,0.252,3.988,0.379,5.912,0.379
		c14.581,0,26.466-7.275,36.195-22.103c9.184-13.996,16.059-33.742,24.019-56.605c4.242-12.182,8.628-24.778,13.843-37.975
		C310.378,176.498,313.591,139.705,299.612,116.119z M145.824,26.552V16.294c2.563-0.852,5.268-1.294,7.99-1.294
		c13.922,0,25.248,11.325,25.248,25.246v37.465c-1.993-0.08-4.02-0.125-6.09-0.125c-1.805,0-3.573,0.039-5.32,0.1V50.53
		c0.186-2.775,0.545-15.878-8.55-21.797C155.356,26.295,150.915,25.569,145.824,26.552z M84.162,261.641
		c-4.291-12.325-8.729-25.069-14.057-38.554c-18.511-46.841-22.168-80.257-10.87-99.319c9.517-16.058,28.789-20.474,46.387-22.675
		c1.279-0.16,2.481-0.3,3.636-0.423c-1.267,1.434-2.475,2.922-3.603,4.488c-16.664,23.146-16.772,59.813-0.322,108.986
		c6.233,18.636,10.648,37.146,14.543,53.478c1.989,8.344,3.869,16.225,5.85,23.589c3.566,13.254,7.882,26.951,15.066,37.329
		c-2.114,0.703-4.294,1.201-6.528,1.48c-0.001,0-0.001,0-0.002,0C110.18,333.046,100.528,308.644,84.162,261.641z M140.21,287.314
		c-1.924-7.155-3.779-14.935-5.743-23.171c-3.967-16.635-8.464-35.489-14.909-54.756c-14.832-44.338-15.414-76.457-1.73-95.465
		c10.192-14.157,28.746-21.336,55.145-21.336c26.397,0,44.951,7.179,55.144,21.337c13.685,19.008,13.104,51.126-1.729,95.464
		c-6.443,19.261-10.939,38.109-14.905,54.738c-10.473,43.907-16.941,66.818-38.51,66.818
		C157.451,330.943,148.878,319.526,140.21,287.314z M275.838,223.088c-5.328,13.484-9.766,26.23-14.057,38.555
		c-16.366,47.003-26.027,71.403-50.1,68.378c-0.001,0-0.001,0-0.002,0c-2.242-0.28-4.43-0.78-6.55-1.487
		c1.539-2.219,3-4.629,4.363-7.281c7.059-13.728,11.471-32.227,16.58-53.646c3.894-16.326,8.307-34.831,14.539-53.461
		c16.449-49.172,16.341-85.841-0.322-108.986c-1.126-1.565-2.332-3.053-3.597-4.484c1.156,0.122,2.349,0.258,3.63,0.419
		c17.597,2.201,36.869,6.616,46.385,22.674C298.006,142.829,294.349,176.246,275.838,223.088z"/>
</g>
<g>
</g>
<g>
</g>
<g>
</g>
<g>
</g>
<g>
</g>
<g>
</g>
<g>
</g>
<g>
</g>
<g>
</g>
<g>
</g>
<g>
</g>
<g>
</g>
<g>
</g>
<g>
</g>
<g>
</g>
</svg>
