<?xml version="1.0" encoding="iso-8859-1"?>
<!-- Generator: Adobe Illustrator 18.0.0, SVG Export Plug-In . SVG Version: 6.00 Build 0)  -->
<!DOCTYPE svg PUBLIC "-//W3C//DTD SVG 1.1//EN" "http://www.w3.org/Graphics/SVG/1.1/DTD/svg11.dtd">
<svg version="1.1" id="Capa_1" xmlns="http://www.w3.org/2000/svg" xmlns:xlink="http://www.w3.org/1999/xlink" x="0px" y="0px"
	 viewBox="0 0 466.5 466.5" style="enable-background:new 0 0 466.5 466.5;" xml:space="preserve">
<g>
	<path d="M342.25,0h-218C100.953,0,82,18.953,82,42.25v382c0,23.297,18.953,42.25,42.25,42.25h218
		c23.297,0,42.25-18.953,42.25-42.25v-382C384.5,18.953,365.547,0,342.25,0z M342.25,458h-218c-18.61,0-33.75-15.14-33.75-33.75
		v-56.572h74.908c2.347,0,4.25-1.903,4.25-4.25c0-2.347-1.903-4.25-4.25-4.25H90.5V42.25c0-18.61,15.14-33.75,33.75-33.75h218
		C360.859,8.5,376,23.64,376,42.25v213.433h-83.099c-2.348,0-4.25,1.903-4.25,4.25s1.902,4.25,4.25,4.25H376v36.498H205.906
		c-2.347,0-4.25,1.903-4.25,4.25c0,2.347,1.903,4.25,4.25,4.25H376V424.25C376,442.86,360.859,458,342.25,458z"/>
	<path d="M233.25,114c2.348,0,4.25-1.903,4.25-4.25v-40.5c0-2.347-1.902-4.25-4.25-4.25c-2.347,0-4.25,1.903-4.25,4.25v40.5
		C229,112.097,230.903,114,233.25,114z"/>
	<path d="M283.366,128.606c0-17.619-8.999-33.621-24.073-42.806c-2.006-1.221-4.62-0.587-5.841,1.418
		c-1.222,2.004-0.587,4.619,1.417,5.841c12.521,7.63,19.997,20.918,19.997,35.547c0,22.947-18.669,41.616-41.616,41.616
		c-22.947,0-41.616-18.669-41.616-41.616c0-14.629,7.476-27.917,19.997-35.547c2.004-1.222,2.639-3.836,1.418-5.841
		c-1.221-2.005-3.836-2.639-5.841-1.418c-15.074,9.186-24.074,25.188-24.074,42.806c0,27.634,22.482,50.116,50.116,50.116
		C260.884,178.723,283.366,156.241,283.366,128.606z"/>
	<path d="M325,131.951c0-50.591-41.159-91.75-91.75-91.75c-50.591,0-91.75,41.159-91.75,91.75s41.159,91.75,91.75,91.75
		C283.841,223.701,325,182.542,325,131.951z M150,131.951c0-45.904,37.346-83.25,83.25-83.25s83.25,37.346,83.25,83.25
		s-37.346,83.25-83.25,83.25S150,177.855,150,131.951z"/>
	<path d="M159.967,401.968c-9.198,0-16.682,7.483-16.682,16.681c0,9.199,7.484,16.683,16.683,16.683
		c9.198,0,16.682-7.484,16.682-16.683C176.65,409.451,169.166,401.968,159.967,401.968z M159.968,426.832
		c-4.512,0-8.183-3.671-8.183-8.183c0-4.511,3.671-8.181,8.182-8.181c4.512,0,8.183,3.67,8.183,8.181
		C168.15,423.161,164.479,426.832,159.968,426.832z"/>
	<path d="M208.822,401.968c-9.198,0-16.682,7.483-16.682,16.681c0,9.199,7.484,16.683,16.683,16.683
		c9.198,0,16.682-7.484,16.682-16.683C225.504,409.451,218.02,401.968,208.822,401.968z M208.823,426.832
		c-4.512,0-8.183-3.671-8.183-8.183c0-4.511,3.67-8.181,8.182-8.181c4.512,0,8.183,3.67,8.183,8.181
		C217.004,423.161,213.334,426.832,208.823,426.832z"/>
	<path d="M257.677,401.968c-9.198,0-16.682,7.483-16.682,16.681c0,9.199,7.483,16.683,16.683,16.683
		c9.198,0,16.682-7.484,16.682-16.683C274.359,409.451,266.876,401.968,257.677,401.968z M257.678,426.832
		c-4.512,0-8.183-3.671-8.183-8.183c0-4.511,3.67-8.181,8.182-8.181c4.512,0,8.183,3.67,8.183,8.181
		C265.859,423.161,262.189,426.832,257.678,426.832z"/>
	<path d="M306.531,401.968c-9.198,0-16.682,7.483-16.682,16.681c0,9.199,7.483,16.683,16.683,16.683
		c9.198,0,16.682-7.484,16.682-16.683C323.214,409.451,315.73,401.968,306.531,401.968z M306.532,426.832
		c-4.512,0-8.183-3.671-8.183-8.183c0-4.511,3.67-8.181,8.182-8.181c4.512,0,8.183,3.67,8.183,8.181
		C314.714,423.161,311.044,426.832,306.532,426.832z"/>
	<path d="M194.156,363.428c0,2.347,1.903,4.25,4.25,4.25h61.497c2.348,0,4.25-1.903,4.25-4.25c0-2.347-1.902-4.25-4.25-4.25h-61.497
		C196.059,359.178,194.156,361.081,194.156,363.428z"/>
</g>
<g>
</g>
<g>
</g>
<g>
</g>
<g>
</g>
<g>
</g>
<g>
</g>
<g>
</g>
<g>
</g>
<g>
</g>
<g>
</g>
<g>
</g>
<g>
</g>
<g>
</g>
<g>
</g>
<g>
</g>
</svg>
