<?xml version="1.0" encoding="iso-8859-1"?>
<!-- Generator: Adobe Illustrator 18.0.0, SVG Export Plug-In . SVG Version: 6.00 Build 0)  -->
<!DOCTYPE svg PUBLIC "-//W3C//DTD SVG 1.1//EN" "http://www.w3.org/Graphics/SVG/1.1/DTD/svg11.dtd">
<svg version="1.1" id="Capa_1" xmlns="http://www.w3.org/2000/svg" xmlns:xlink="http://www.w3.org/1999/xlink" x="0px" y="0px"
	 viewBox="0 0 490.738 490.738" style="enable-background:new 0 0 490.738 490.738;" xml:space="preserve">
<g>
	<g>
		<path d="M314.98,44.965h-7.062V4.25c0-2.348-1.903-4.25-4.25-4.25H187.07c-2.347,0-4.25,1.902-4.25,4.25v40.715h-7.062
			c-28.732,0-52.107,23.375-52.107,52.107v341.559c0,28.732,23.376,52.107,52.107,52.107H314.98
			c28.732,0,52.108-23.375,52.108-52.107V97.072C367.087,68.34,343.712,44.965,314.98,44.965z M191.32,27.738h59.693
			c2.347,0,4.25-1.902,4.25-4.25c0-2.348-1.903-4.25-4.25-4.25H191.32V8.5h108.098v36.465H191.32V27.738z M358.587,129.238h-81.575
			c-2.347,0-4.25,1.902-4.25,4.25c0,2.348,1.903,4.25,4.25,4.25h81.575v300.893c0,24.045-19.562,43.607-43.608,43.607H175.758
			c-24.045,0-43.607-19.563-43.607-43.607V97.072c0-24.045,19.562-43.607,43.607-43.607H314.98
			c23.092,0,42.039,18.046,43.505,40.773H232.013c-2.347,0-4.25,1.902-4.25,4.25c0,2.348,1.903,4.25,4.25,4.25h126.575V129.238z"/>
		<path d="M147.476,374.488v69c0,2.348,1.903,4.25,4.25,4.25h187.287c2.347,0,4.25-1.902,4.25-4.25v-69
			c0-2.348-1.903-4.25-4.25-4.25H151.726C149.378,370.238,147.476,372.141,147.476,374.488z M334.763,378.738v60.5H155.976v-16.5
			h119.037c2.347,0,4.25-1.902,4.25-4.25c0-2.348-1.903-4.25-4.25-4.25H155.976v-35.5H334.763z"/>
	</g>
	<path d="M339.013,278.49H151.726c-2.347,0-4.25,1.902-4.25,4.25v69c0,2.348,1.903,4.25,4.25,4.25h187.287
		c2.347,0,4.25-1.902,4.25-4.25v-69C343.263,280.392,341.36,278.49,339.013,278.49z M334.763,347.49H155.976v-60.5h178.787V347.49z"
		/>
	<path d="M339.013,186.743H151.726c-2.347,0-4.25,1.902-4.25,4.25v69c0,2.348,1.903,4.25,4.25,4.25h187.287
		c2.347,0,4.25-1.902,4.25-4.25v-69C343.263,188.645,341.36,186.743,339.013,186.743z M155.976,255.743v-60.5h178.787v22.547
		h-65.634c-2.347,0-4.25,1.902-4.25,4.25c0,2.348,1.903,4.25,4.25,4.25h65.634v29.453H155.976z"/>
</g>
<g>
</g>
<g>
</g>
<g>
</g>
<g>
</g>
<g>
</g>
<g>
</g>
<g>
</g>
<g>
</g>
<g>
</g>
<g>
</g>
<g>
</g>
<g>
</g>
<g>
</g>
<g>
</g>
<g>
</g>
</svg>
