<?xml version="1.0" encoding="iso-8859-1"?>
<!-- Generator: Adobe Illustrator 18.0.0, SVG Export Plug-In . SVG Version: 6.00 Build 0)  -->
<!DOCTYPE svg PUBLIC "-//W3C//DTD SVG 1.1//EN" "http://www.w3.org/Graphics/SVG/1.1/DTD/svg11.dtd">
<svg version="1.1" id="Capa_1" xmlns="http://www.w3.org/2000/svg" xmlns:xlink="http://www.w3.org/1999/xlink" x="0px" y="0px"
	 viewBox="0 0 490.371 490.371" style="enable-background:new 0 0 490.371 490.371;" xml:space="preserve">
<g>
	<path d="M28.751,363.61h190.288c2.347,0,4.25-1.902,4.25-4.25v-94.418c0-2.348-1.903-4.25-4.25-4.25H28.751
		c-2.347,0-4.25,1.902-4.25,4.25v94.418C24.501,361.708,26.404,363.61,28.751,363.61z M33.001,269.192h181.788v65.273h-83.217
		c-2.347,0-4.25,1.902-4.25,4.25c0,2.348,1.903,4.25,4.25,4.25h83.217v12.145H33.001V269.192z"/>
	<path d="M271.332,363.61H461.62c2.348,0,4.25-1.902,4.25-4.25v-94.418c0-2.348-1.902-4.25-4.25-4.25H271.332
		c-2.348,0-4.25,1.902-4.25,4.25v94.418C267.082,361.708,268.984,363.61,271.332,363.61z M275.582,269.192H457.37v65.305
		c-0.105-0.008-0.207-0.031-0.315-0.031h-86.995c-2.348,0-4.25,1.902-4.25,4.25c0,2.348,1.902,4.25,4.25,4.25h86.995
		c0.107,0,0.209-0.023,0.315-0.031v12.176H275.582V269.192z"/>
	<path d="M488.572,226.739c0.046,0.031,0.09,0.056,0.137,0.092L319.435,96.906c-4.151-3.229-9.311-5.008-14.53-5.008
		c-13.004,0-23.584,10.58-23.584,23.584s10.58,23.584,23.584,23.584c5.09,0,9.947-1.625,13.948-4.577l51.207,91.463H120.312
		l51.206-91.463c4.002,2.952,8.859,4.577,13.949,4.577c13.004,0,23.584-10.58,23.584-23.584s-10.58-23.584-23.584-23.584
		c-5.219,0-10.379,1.778-14.509,4.991L1.662,226.831c0.021-0.016,0.041-0.021,0.06-0.028C0.683,227.577,0,228.805,0,230.202v164.02
		c0,2.348,1.903,4.25,4.25,4.25h212.936c2.347,0,4.25-1.902,4.25-4.25v-8.662c0-3.171,2.58-5.75,5.75-5.75h36
		c3.171,0,5.75,2.579,5.75,5.75v8.662c0,2.348,1.902,4.25,4.25,4.25l212.936,0.002c1.127,0,2.208-0.448,3.005-1.245
		c0.797-0.797,1.245-1.878,1.245-3.005V230.202C490.371,228.769,489.658,227.509,488.572,226.739z M323.606,125.581
		c-0.688-1.229-1.94-2.038-3.345-2.158c-1.409-0.129-2.776,0.463-3.663,1.557c-2.882,3.551-7.145,5.587-11.694,5.587
		c-8.317,0-15.084-6.767-15.084-15.084s6.767-15.084,15.084-15.084c3.338,0,6.645,1.143,9.333,3.233l159.366,122.32h-93.803
		L323.606,125.581z M176.155,103.615c2.667-2.074,5.974-3.217,9.312-3.217c8.317,0,15.084,6.767,15.084,15.084
		s-6.767,15.084-15.084,15.084c-4.55,0-8.813-2.036-11.694-5.587c-0.888-1.096-2.267-1.687-3.664-1.557
		c-1.404,0.12-2.656,0.929-3.345,2.158L110.57,225.952H16.767L176.155,103.615z M481.871,389.973l-204.436-0.002v-4.412
		c0-7.857-6.393-14.25-14.25-14.25h-36c-7.857,0-14.25,6.393-14.25,14.25v4.412H8.5v-155.52h473.371V389.973z"/>
	<path d="M44.093,299.499c1.087,0,2.175-0.415,3.005-1.244l17.643-17.641c1.66-1.66,1.66-4.351,0.001-6.011
		c-1.66-1.66-4.351-1.66-6.01-0.001l-17.643,17.641c-1.66,1.66-1.66,4.351,0,6.011C41.917,299.083,43.005,299.499,44.093,299.499z"
		/>
	<path d="M44.093,322.887c1.087,0,2.175-0.415,3.005-1.245l41.031-41.029c1.66-1.659,1.66-4.351,0-6.01
		c-1.661-1.66-4.351-1.661-6.011,0l-41.031,41.029c-1.66,1.659-1.66,4.351,0,6.01C41.917,322.472,43.005,322.887,44.093,322.887z"/>
	<path d="M105.504,274.603l-64.417,64.416c-1.66,1.659-1.66,4.351,0,6.01c0.83,0.83,1.917,1.245,3.005,1.245
		c1.087,0,2.175-0.415,3.005-1.245l64.417-64.416c1.66-1.659,1.66-4.351,0-6.01C109.855,272.943,107.165,272.942,105.504,274.603z"
		/>
	<path d="M285.594,299.499c1.088,0,2.176-0.415,3.005-1.245l17.642-17.641c1.66-1.659,1.66-4.351,0-6.01
		c-1.658-1.66-4.352-1.66-6.01,0l-17.642,17.641c-1.66,1.659-1.66,4.351,0,6.01C283.418,299.083,284.506,299.499,285.594,299.499z"
		/>
	<path d="M285.594,322.887c1.088,0,2.176-0.415,3.005-1.245l41.03-41.029c1.66-1.659,1.66-4.351,0-6.01
		c-1.66-1.66-4.352-1.66-6.01,0l-41.03,41.029c-1.66,1.659-1.66,4.351,0,6.01C283.419,322.472,284.506,322.887,285.594,322.887z"/>
	<path d="M347.005,274.603l-64.416,64.416c-1.66,1.659-1.66,4.351,0,6.01c0.829,0.83,1.917,1.245,3.005,1.245
		c1.088,0,2.176-0.415,3.005-1.245l64.416-64.416c1.66-1.659,1.66-4.351,0-6.01C351.356,272.943,348.663,272.943,347.005,274.603z"
		/>
</g>
<g>
</g>
<g>
</g>
<g>
</g>
<g>
</g>
<g>
</g>
<g>
</g>
<g>
</g>
<g>
</g>
<g>
</g>
<g>
</g>
<g>
</g>
<g>
</g>
<g>
</g>
<g>
</g>
<g>
</g>
</svg>
