<?xml version="1.0" encoding="iso-8859-1"?>
<!-- Generator: Adobe Illustrator 18.0.0, SVG Export Plug-In . SVG Version: 6.00 Build 0)  -->
<!DOCTYPE svg PUBLIC "-//W3C//DTD SVG 1.1//EN" "http://www.w3.org/Graphics/SVG/1.1/DTD/svg11.dtd">
<svg version="1.1" id="Capa_1" xmlns="http://www.w3.org/2000/svg" xmlns:xlink="http://www.w3.org/1999/xlink" x="0px" y="0px"
	 viewBox="0 0 490.085 490.085" style="enable-background:new 0 0 490.085 490.085;" xml:space="preserve">
<g>
	<path d="M94.257,171.648c22.391,0,40.607-18.217,40.607-40.607c0-22.391-18.216-40.607-40.607-40.607
		c-22.391,0-40.607,18.217-40.607,40.607C53.65,153.431,71.866,171.648,94.257,171.648z M94.257,98.933
		c17.704,0,32.107,14.404,32.107,32.107c0,17.705-14.403,32.107-32.107,32.107c-17.704,0-32.107-14.402-32.107-32.107
		C62.15,113.337,76.553,98.933,94.257,98.933z"/>
	<path d="M289.756,171.648c22.391,0,40.607-18.217,40.607-40.607c0-22.391-18.216-40.607-40.607-40.607
		c-22.391,0-40.607,18.217-40.607,40.607C249.149,153.431,267.366,171.648,289.756,171.648z M289.756,98.933
		c17.704,0,32.107,14.404,32.107,32.107c0,17.705-14.403,32.107-32.107,32.107c-17.704,0-32.107-14.402-32.107-32.107
		C257.649,113.337,272.053,98.933,289.756,98.933z"/>
	<path d="M487.931,207.693c-1.332-0.754-2.965-0.736-4.278,0.051l-99.639,59.617v-44.459c0-11.592-9.431-21.024-21.024-21.024h-12.6
		c19.976-17.123,32.656-42.525,32.656-70.838c0-51.439-41.85-93.289-93.29-93.289c-51.44,0-93.289,41.85-93.289,93.289
		c0,28.313,12.68,53.715,32.655,70.838h-74.232c19.976-17.123,32.656-42.525,32.656-70.838c0-51.439-41.85-93.289-93.29-93.289
		c-51.44,0-93.289,41.85-93.289,93.289c0,28.313,12.68,53.715,32.655,70.838H21.024C9.432,201.878,0,211.31,0,222.902v208.406
		c0,11.594,9.432,21.025,21.024,21.025H362.99c11.593,0,21.024-9.432,21.024-21.025v-44.459l99.639,59.617
		c0.671,0.402,1.426,0.603,2.182,0.603c0.723,0,1.446-0.184,2.096-0.553c1.331-0.756,2.154-2.168,2.154-3.697V211.39
		C490.085,209.861,489.262,208.449,487.931,207.693z M204.967,131.04c0-46.752,38.036-84.789,84.789-84.789
		c46.753,0,84.79,38.037,84.79,84.789c0,46.754-38.037,84.789-84.79,84.789C243.003,215.83,204.967,177.794,204.967,131.04z
		 M9.468,131.04c0-46.752,38.036-84.789,84.789-84.789c46.753,0,84.79,38.037,84.79,84.789c0,46.754-38.037,84.789-84.79,84.789
		C47.504,215.83,9.468,177.794,9.468,131.04z M362.99,443.833H21.024c-6.906,0-12.524-5.619-12.524-12.525v-59.897h278.923
		c2.347,0,4.25-1.902,4.25-4.25c0-2.348-1.903-4.25-4.25-4.25H8.5v-55.5h262.923c2.347,0,4.25-1.902,4.25-4.25
		c0-2.348-1.903-4.25-4.25-4.25H8.5v-76.01c0-6.906,5.619-12.524,12.524-12.524h24.211c14.254,8.84,31.051,13.951,49.021,13.951
		c17.97,0,34.767-5.111,49.021-13.951h97.458c14.254,8.84,31.051,13.951,49.021,13.951c17.97,0,34.767-5.111,49.021-13.951h24.213
		c6.906,0,12.524,5.617,12.524,12.524v20.01h-41.091c-2.347,0-4.25,1.902-4.25,4.25c0,2.348,1.903,4.25,4.25,4.25h41.091v165.162
		H141.423c-2.347,0-4.25,1.902-4.25,4.25c0,2.348,1.903,4.25,4.25,4.25h234.091v6.234
		C375.514,438.214,369.896,443.833,362.99,443.833z M384.014,277.267l21.159-12.66v124.996l-21.159-12.66V277.267z M481.585,435.324
		l-67.912-40.635V259.521l12.107-7.244v68.459c0,2.348,1.903,4.25,4.25,4.25c2.347,0,4.25-1.902,4.25-4.25v-73.545l47.305-28.305
		V435.324z"/>
	<path d="M307.423,371.412h30c2.347,0,4.25-1.902,4.25-4.25c0-2.348-1.903-4.25-4.25-4.25h-30c-2.347,0-4.25,1.902-4.25,4.25
		C303.173,369.509,305.076,371.412,307.423,371.412z"/>
</g>
<g>
</g>
<g>
</g>
<g>
</g>
<g>
</g>
<g>
</g>
<g>
</g>
<g>
</g>
<g>
</g>
<g>
</g>
<g>
</g>
<g>
</g>
<g>
</g>
<g>
</g>
<g>
</g>
<g>
</g>
</svg>
