<?xml version="1.0" encoding="iso-8859-1"?>
<!-- Generator: Adobe Illustrator 18.0.0, SVG Export Plug-In . SVG Version: 6.00 Build 0)  -->
<!DOCTYPE svg PUBLIC "-//W3C//DTD SVG 1.1//EN" "http://www.w3.org/Graphics/SVG/1.1/DTD/svg11.dtd">
<svg version="1.1" id="Capa_1" xmlns="http://www.w3.org/2000/svg" xmlns:xlink="http://www.w3.org/1999/xlink" x="0px" y="0px"
	 viewBox="0 0 485.961 485.961" style="enable-background:new 0 0 485.961 485.961;" xml:space="preserve">
<g>
	<path d="M245.84,330.542c-30.234,0-54.831,24.597-54.831,54.831s24.597,54.832,54.831,54.832s54.831-24.598,54.831-54.832
		C300.671,355.14,276.074,330.542,245.84,330.542z M245.84,431.705c-25.547,0-46.331-20.785-46.331-46.332
		s20.784-46.331,46.331-46.331s46.331,20.784,46.331,46.331C292.171,410.921,271.387,431.705,245.84,431.705z"/>
	<path d="M322.899,158.122H163.062c-7.857,0-14.25,6.393-14.25,14.25v11.498c0,7.857,6.393,14.25,14.25,14.25h159.838
		c7.857,0,14.25-6.393,14.25-14.25v-11.498C337.149,164.515,330.757,158.122,322.899,158.122z M328.649,183.87
		c0,3.171-2.579,5.75-5.75,5.75H163.062c-3.171,0-5.75-2.579-5.75-5.75v-11.498c0-3.17,2.579-5.75,5.75-5.75h159.838
		c3.171,0,5.75,2.58,5.75,5.75V183.87z"/>
	<path d="M322.899,212.119H163.062c-7.857,0-14.25,6.393-14.25,14.25v11.498c0,7.857,6.393,14.25,14.25,14.25h159.838
		c7.857,0,14.25-6.393,14.25-14.25v-11.498C337.149,218.512,330.757,212.119,322.899,212.119z M328.649,237.867
		c0,3.171-2.579,5.75-5.75,5.75H163.062c-3.171,0-5.75-2.579-5.75-5.75v-11.498c0-3.17,2.579-5.75,5.75-5.75h159.838
		c3.171,0,5.75,2.58,5.75,5.75V237.867z"/>
	<path d="M322.899,266.117H163.062c-7.857,0-14.25,6.393-14.25,14.25v11.498c0,7.857,6.393,14.25,14.25,14.25h159.838
		c7.857,0,14.25-6.393,14.25-14.25v-11.498C337.149,272.51,330.757,266.117,322.899,266.117z M328.649,291.865
		c0,3.17-2.579,5.75-5.75,5.75H163.062c-3.171,0-5.75-2.58-5.75-5.75v-11.498c0-3.171,2.579-5.75,5.75-5.75h159.838
		c3.171,0,5.75,2.579,5.75,5.75V291.865z"/>
	<path d="M344.907,99.11h-8.166V78.376c0-8.952-7.283-16.235-16.236-16.235h-26.143c-8.953,0-16.236,7.283-16.236,16.235V99.11
		h-90.331V15.171C187.795,6.806,180.989,0,172.624,0h-19.237c-8.365,0-15.171,6.806-15.171,15.171V99.26
		c-13.554,1.423-24.153,12.917-24.153,26.841V357.54c0,0.198,0.014,0.392,0.04,0.583c0.15,34.188,13.546,66.245,37.761,90.331
		c24.314,24.187,56.682,37.507,91.137,37.507c34.455,0,66.822-13.32,91.137-37.507c24.352-24.222,37.762-56.509,37.762-90.914V126.1
		C371.898,111.218,359.79,99.11,344.907,99.11z M286.626,78.376c0-4.266,3.471-7.735,7.736-7.735h26.143
		c4.266,0,7.736,3.47,7.736,7.735V99.11h-41.615V78.376z M153.387,8.5h19.237c3.679,0,6.671,2.992,6.671,6.671V99.11h-32.579V15.171
		C146.716,11.492,149.708,8.5,153.387,8.5z M243,477.461c-66.388,0-120.398-53.796-120.398-119.921c0-0.194-0.014-0.386-0.039-0.573
		v-16.353H148c2.348,0,4.25-1.903,4.25-4.25c0-2.348-1.902-4.25-4.25-4.25h-25.438V126.101c0-10.195,8.295-18.49,18.491-18.49
		h203.854c10.196,0,18.491,8.294,18.491,18.489v6.524H249.995c-2.348,0-4.25,1.902-4.25,4.25c0,2.347,1.902,4.25,4.25,4.25h113.403
		V357.54C363.398,423.665,309.388,477.461,243,477.461z"/>
</g>
<g>
</g>
<g>
</g>
<g>
</g>
<g>
</g>
<g>
</g>
<g>
</g>
<g>
</g>
<g>
</g>
<g>
</g>
<g>
</g>
<g>
</g>
<g>
</g>
<g>
</g>
<g>
</g>
<g>
</g>
</svg>
