<?xml version="1.0" encoding="iso-8859-1"?>
<!-- Generator: Adobe Illustrator 18.0.0, SVG Export Plug-In . SVG Version: 6.00 Build 0)  -->
<!DOCTYPE svg PUBLIC "-//W3C//DTD SVG 1.1//EN" "http://www.w3.org/Graphics/SVG/1.1/DTD/svg11.dtd">
<svg version="1.1" id="Capa_1" xmlns="http://www.w3.org/2000/svg" xmlns:xlink="http://www.w3.org/1999/xlink" x="0px" y="0px"
	 viewBox="0 0 477.508 477.508" style="enable-background:new 0 0 477.508 477.508;" xml:space="preserve">
<g>
	<path d="M238.754,0C153.7,0,84.504,69.196,84.504,154.25v169.008c0,85.054,69.196,154.25,154.25,154.25
		s154.25-69.196,154.25-154.25V154.25C393.004,69.196,323.808,0,238.754,0z M243.754,64.5c3.171,0,5.75,2.579,5.75,5.75v100
		c0,3.17-2.579,5.75-5.75,5.75h-10c-3.171,0-5.75-2.58-5.75-5.75v-100c0-3.171,2.579-5.75,5.75-5.75H243.754z M234.504,8.566V56
		h-0.75c-7.857,0-14.25,6.393-14.25,14.25v100c0,7.857,6.393,14.25,14.25,14.25h10c7.857,0,14.25-6.393,14.25-14.25v-100
		c0-7.857-6.393-14.25-14.25-14.25h-0.75V8.566c78.409,2.257,141.5,66.738,141.5,145.684V202h-291.5v-47.75
		C93.004,75.305,156.095,10.823,234.504,8.566z M351.108,416h-88.854c-2.348,0-4.25,1.902-4.25,4.25c0,2.347,1.902,4.25,4.25,4.25
		h81.242c-26.519,27.426-63.67,44.508-104.742,44.508c-80.367,0-145.75-65.383-145.75-145.75V251.5h113.25
		c2.348,0,4.25-1.903,4.25-4.25c0-2.348-1.902-4.25-4.25-4.25H93.004v-32.5h291.5v112.758
		C384.504,358.458,371.96,390.783,351.108,416z"/>
	<path d="M292.523,243h-66c-2.348,0-4.25,1.902-4.25,4.25c0,2.347,1.902,4.25,4.25,4.25h66c2.348,0,4.25-1.903,4.25-4.25
		C296.773,244.902,294.871,243,292.523,243z"/>
</g>
<g>
</g>
<g>
</g>
<g>
</g>
<g>
</g>
<g>
</g>
<g>
</g>
<g>
</g>
<g>
</g>
<g>
</g>
<g>
</g>
<g>
</g>
<g>
</g>
<g>
</g>
<g>
</g>
<g>
</g>
</svg>
