<?xml version="1.0" encoding="iso-8859-1"?>
<!-- Generator: Adobe Illustrator 18.0.0, SVG Export Plug-In . SVG Version: 6.00 Build 0)  -->
<!DOCTYPE svg PUBLIC "-//W3C//DTD SVG 1.1//EN" "http://www.w3.org/Graphics/SVG/1.1/DTD/svg11.dtd">
<svg version="1.1" id="Capa_1" xmlns="http://www.w3.org/2000/svg" xmlns:xlink="http://www.w3.org/1999/xlink" x="0px" y="0px"
	 viewBox="0 0 488.591 488.591" style="enable-background:new 0 0 488.591 488.591;" xml:space="preserve">
<g>
	<path d="M53.848,87.937c1.088,0,2.176-0.415,3.004-1.245l33.941-33.941c1.66-1.66,1.66-4.351,0-6.011
		c-1.66-1.659-4.351-1.659-6.01,0L50.842,80.681c-1.66,1.66-1.66,4.351,0,6.011C51.672,87.522,52.76,87.937,53.848,87.937z"/>
	<path d="M53.848,132.931c1.088,0,2.176-0.415,3.004-1.245l78.934-78.935c1.66-1.66,1.66-4.351,0-6.011
		c-1.658-1.659-4.352-1.659-6.01,0l-78.934,78.936c-1.66,1.66-1.66,4.351,0,6.011C51.672,132.516,52.76,132.931,53.848,132.931z"/>
	<path d="M174.768,46.74L50.842,170.668c-1.66,1.66-1.66,4.351,0,6.011c0.83,0.83,1.918,1.245,3.006,1.245
		c1.088,0,2.176-0.415,3.004-1.245L180.778,52.751c1.66-1.66,1.66-4.351,0-6.011C179.12,45.081,176.426,45.081,174.768,46.74z"/>
	<path d="M326.151,241.618h-50.928c-2.348,0-4.25,1.903-4.25,4.25c0,2.347,1.902,4.25,4.25,4.25h50.928
		c2.348,0,4.25-1.903,4.25-4.25C330.401,243.521,328.499,241.618,326.151,241.618z"/>
	<path d="M244.293,286.961c-13.145,0-23.838,10.693-23.838,23.837c0,13.144,10.693,23.838,23.838,23.838
		c13.145,0,23.838-10.694,23.838-23.838C268.131,297.654,257.438,286.961,244.293,286.961z M244.293,326.136
		c-8.457,0-15.338-6.88-15.338-15.338c0-8.457,6.881-15.337,15.338-15.337c8.457,0,15.338,6.88,15.338,15.337
		C259.631,319.256,252.751,326.136,244.293,326.136z"/>
	<path d="M454.864,0H33.727C15.182,0,0.096,15.087,0.096,33.632V336.14c0,18.545,15.086,33.632,33.631,33.632h148.109
		l-17.881,68.972h-1.842c-14.285,0-25.908,11.624-25.908,25.911v19.686c0,2.347,1.902,4.25,4.25,4.25h207.68
		c2.348,0,4.25-1.903,4.25-4.25v-19.686c0-14.288-11.625-25.911-25.912-25.911h-1.84l-17.881-68.972h148.111
		c18.545,0,33.631-15.087,33.631-33.632V33.632C488.495,15.087,473.409,0,454.864,0z M8.596,36.558h471.398v205.061H344.432
		c-2.348,0-4.25,1.903-4.25,4.25c0,2.347,1.902,4.25,4.25,4.25h135.563v15.836H8.596V36.558z M33.727,8.5h421.137
		c11.941,0,21.957,8.375,24.5,19.558H9.227C11.77,16.875,21.786,8.5,33.727,8.5z M343.885,464.655v15.436h-199.18v-15.436
		c0-9.601,7.811-17.411,17.408-17.411h164.359C336.075,447.244,343.885,455.054,343.885,464.655z M315.85,438.744H172.737
		l17.881-68.972h107.354L315.85,438.744z M454.864,361.272H33.727c-13.857,0-25.131-11.274-25.131-25.132v-30.518h75.242
		c2.348,0,4.25-1.903,4.25-4.25c0-2.347-1.902-4.25-4.25-4.25H8.596v-22.668h471.398v61.685
		C479.995,349.998,468.721,361.272,454.864,361.272z"/>
</g>
<g>
</g>
<g>
</g>
<g>
</g>
<g>
</g>
<g>
</g>
<g>
</g>
<g>
</g>
<g>
</g>
<g>
</g>
<g>
</g>
<g>
</g>
<g>
</g>
<g>
</g>
<g>
</g>
<g>
</g>
</svg>
