<?xml version="1.0" encoding="iso-8859-1"?>
<!-- Generator: Adobe Illustrator 18.0.0, SVG Export Plug-In . SVG Version: 6.00 Build 0)  -->
<!DOCTYPE svg PUBLIC "-//W3C//DTD SVG 1.1//EN" "http://www.w3.org/Graphics/SVG/1.1/DTD/svg11.dtd">
<svg version="1.1" id="Capa_1" xmlns="http://www.w3.org/2000/svg" xmlns:xlink="http://www.w3.org/1999/xlink" x="0px" y="0px"
	 viewBox="0 0 489.801 489.801" style="enable-background:new 0 0 489.801 489.801;" xml:space="preserve">
<g>
	<path d="M320.629,0H169.172c-24.363,0-44.184,19.82-44.184,44.184v401.434c0,24.363,19.82,44.184,44.184,44.184h151.457
		c24.363,0,44.184-19.82,44.184-44.184V44.184C364.813,19.82,344.992,0,320.629,0z M320.629,481.301H169.172
		c-19.676,0-35.684-16.008-35.684-35.684v-124.76h53.648c2.348,0,4.25-1.902,4.25-4.25c0-2.348-1.902-4.25-4.25-4.25h-53.648V44.184
		c0-1.289,0.072-2.561,0.207-3.813h161.436c2.348,0,4.25-1.902,4.25-4.25c0-2.348-1.902-4.25-4.25-4.25H135.68
		C140.705,18.244,153.822,8.5,169.172,8.5h151.457c19.676,0,35.684,16.008,35.684,35.684v397.184h-67.182
		c-2.348,0-4.25,1.902-4.25,4.25c0,2.348,1.902,4.25,4.25,4.25h66.92C353.941,467.547,338.865,481.301,320.629,481.301z"/>
	<path d="M275.191,403.184h16.131c12.285,0,22.277-9.994,22.277-22.277V376.4c0-12.285-9.992-22.279-22.277-22.279h-16.127
		c-1.717-2.115-3.648-4.047-5.764-5.764V332.23c0-12.285-9.992-22.279-22.277-22.279h-4.508c-12.283,0-22.277,9.994-22.277,22.279
		v16.129c-2.115,1.717-4.045,3.648-5.762,5.762h-16.129c-12.283,0-22.277,9.994-22.277,22.279v4.506
		c0,12.283,9.994,22.277,22.277,22.277h16.131c1.715,2.113,3.646,4.045,5.76,5.762v16.129c0,12.285,9.994,22.277,22.277,22.277
		h4.508c12.285,0,22.277-9.992,22.277-22.277v-16.131C271.545,407.228,273.477,405.297,275.191,403.184z M214.398,378.65
		c0-16.818,13.684-30.5,30.502-30.502c16.818,0,30.502,13.684,30.502,30.502c0,16.818-13.684,30.504-30.502,30.506
		C228.082,409.156,214.398,395.471,214.398,378.65z M291.322,362.621c7.598,0,13.777,6.182,13.777,13.779v4.506
		c0,7.598-6.18,13.777-13.777,13.777H280.44c2.219-4.895,3.463-10.32,3.463-16.033c0-5.713-1.244-11.135-3.459-16.029H291.322z
		 M228.869,332.23c0-7.598,6.182-13.779,13.777-13.779h4.508c7.598,0,13.777,6.182,13.777,13.779v10.879
		c-4.895-2.217-10.318-3.461-16.031-3.461c-5.713,0-11.137,1.246-16.031,3.461V332.23z M198.479,394.684
		c-7.596,0-13.777-6.182-13.777-13.777V376.4c0-7.598,6.182-13.779,13.777-13.779h10.881c-2.217,4.895-3.461,10.316-3.461,16.029
		c0,5.713,1.246,11.139,3.461,16.033H198.479z M260.932,425.074c0,7.598-6.18,13.777-13.777,13.777h-4.508
		c-7.596,0-13.777-6.18-13.777-13.777v-10.881c4.895,2.217,10.318,3.463,16.031,3.463c5.713-0.002,11.137-1.246,16.031-3.463
		V425.074z"/>
	<path d="M180.168,91.344c11.426,0,20.723-9.297,20.723-20.723S191.594,49.9,180.168,49.9s-20.721,9.295-20.721,20.721
		S168.742,91.344,180.168,91.344z M180.168,58.4c6.74,0,12.223,5.482,12.223,12.221s-5.482,12.223-12.223,12.223
		c-6.738,0-12.221-5.484-12.221-12.223S173.43,58.4,180.168,58.4z"/>
	<path d="M244.9,91.344c11.426,0,20.723-9.297,20.723-20.725c0-11.426-9.297-20.721-20.723-20.721
		c-11.426,0-20.723,9.295-20.723,20.721C224.178,82.047,233.475,91.344,244.9,91.344z M244.9,58.398
		c6.738,0,12.223,5.483,12.223,12.221c0,6.74-5.483,12.225-12.223,12.225c-6.738,0-12.223-5.484-12.223-12.225
		C232.678,63.881,238.16,58.398,244.9,58.398z"/>
	<path d="M309.633,91.342c11.426,0,20.723-9.297,20.723-20.723c0-11.426-9.297-20.721-20.725-20.721
		c-11.426,0-20.721,9.297-20.721,20.721C288.91,82.047,298.205,91.342,309.633,91.342z M309.631,58.398
		c6.74,0,12.225,5.483,12.225,12.221c0,6.74-5.484,12.223-12.223,12.223c-6.74,0-12.223-5.482-12.223-12.223
		C297.41,63.881,302.893,58.398,309.631,58.398z"/>
	<path d="M180.168,153.85c11.426,0,20.723-9.297,20.723-20.723c0-11.426-9.297-20.721-20.723-20.721s-20.721,9.295-20.721,20.721
		C159.447,144.553,168.742,153.85,180.168,153.85z M180.168,120.906c6.74,0,12.223,5.482,12.223,12.221
		c0,6.738-5.482,12.223-12.223,12.223c-6.738,0-12.221-5.484-12.221-12.223C167.947,126.389,173.43,120.906,180.168,120.906z"/>
	<path d="M244.9,153.85c11.426,0,20.723-9.297,20.723-20.725c0-11.426-9.297-20.721-20.723-20.721
		c-11.426,0-20.723,9.295-20.723,20.721C224.178,144.553,233.475,153.85,244.9,153.85z M244.9,120.904
		c6.738,0,12.223,5.482,12.223,12.221c0,6.74-5.483,12.225-12.223,12.225c-6.738,0-12.223-5.484-12.223-12.225
		C232.678,126.387,238.16,120.904,244.9,120.904z"/>
	<path d="M309.633,153.848c11.426,0,20.723-9.297,20.723-20.723s-9.297-20.721-20.725-20.721c-11.426,0-20.721,9.297-20.721,20.721
		C288.91,144.553,298.205,153.848,309.633,153.848z M309.631,120.904c6.74,0,12.225,5.482,12.225,12.221
		c0,6.74-5.484,12.223-12.223,12.223c-6.74,0-12.223-5.482-12.223-12.223C297.41,126.387,302.893,120.904,309.631,120.904z"/>
	<path d="M180.168,216.354c11.426,0,20.723-9.295,20.723-20.723c0-11.426-9.297-20.721-20.723-20.721s-20.721,9.295-20.721,20.721
		C159.447,207.059,168.742,216.354,180.168,216.354z M180.168,183.41c6.74,0,12.223,5.482,12.223,12.221
		c0,6.74-5.482,12.223-12.223,12.223c-6.738,0-12.221-5.482-12.221-12.223C167.947,188.893,173.43,183.41,180.168,183.41z"/>
	<path d="M244.9,216.354c11.426,0,20.723-9.297,20.723-20.723c0-11.426-9.297-20.721-20.723-20.721
		c-11.426,0-20.723,9.295-20.723,20.721C224.178,207.057,233.475,216.354,244.9,216.354z M244.9,183.41
		c6.738,0,12.223,5.482,12.223,12.221c0,6.74-5.483,12.223-12.223,12.223c-6.738,0-12.223-5.482-12.223-12.223
		C232.678,188.893,238.16,183.41,244.9,183.41z"/>
	<path d="M309.633,216.354c11.426,0,20.723-9.297,20.723-20.725c0-11.426-9.297-20.721-20.725-20.721
		c-11.426,0.002-20.721,9.297-20.721,20.723C288.91,207.057,298.205,216.354,309.633,216.354z M309.631,183.408
		c6.74,0,12.225,5.482,12.225,12.221c0,6.74-5.484,12.225-12.223,12.225c-6.74,0-12.223-5.484-12.223-12.223
		C297.41,188.893,302.893,183.41,309.631,183.408z"/>
	<path d="M200.891,258.137c0-11.426-9.297-20.721-20.723-20.721s-20.721,9.295-20.721,20.721c0,11.428,9.295,20.723,20.721,20.723
		S200.891,269.565,200.891,258.137z M180.168,270.359c-6.738,0-12.221-5.482-12.221-12.223c0-6.738,5.482-12.221,12.221-12.221
		c6.74,0,12.223,5.482,12.223,12.221C192.391,264.877,186.908,270.359,180.168,270.359z"/>
	<path d="M244.9,278.859c11.426,0,20.723-9.297,20.723-20.723c0-11.426-9.297-20.721-20.723-20.721
		c-11.426,0-20.723,9.295-20.723,20.721C224.178,269.563,233.475,278.859,244.9,278.859z M244.9,245.916
		c6.738,0,12.223,5.482,12.223,12.221c0,6.74-5.483,12.223-12.223,12.223c-6.738,0-12.223-5.482-12.223-12.223
		C232.678,251.398,238.16,245.916,244.9,245.916z"/>
	<path d="M309.633,278.859c11.426,0,20.723-9.297,20.723-20.725c0-11.426-9.297-20.721-20.725-20.721
		c-11.426,0.002-20.721,9.297-20.721,20.723C288.91,269.563,298.205,278.859,309.633,278.859z M309.631,245.914
		c6.74,0,12.225,5.482,12.225,12.221c0,6.74-5.484,12.225-12.223,12.225c-6.74,0-12.223-5.484-12.223-12.223
		C297.41,251.398,302.893,245.916,309.631,245.914z"/>
</g>
<g>
</g>
<g>
</g>
<g>
</g>
<g>
</g>
<g>
</g>
<g>
</g>
<g>
</g>
<g>
</g>
<g>
</g>
<g>
</g>
<g>
</g>
<g>
</g>
<g>
</g>
<g>
</g>
<g>
</g>
</svg>
