<?xml version="1.0" encoding="iso-8859-1"?>
<!-- Generator: Adobe Illustrator 18.0.0, SVG Export Plug-In . SVG Version: 6.00 Build 0)  -->
<!DOCTYPE svg PUBLIC "-//W3C//DTD SVG 1.1//EN" "http://www.w3.org/Graphics/SVG/1.1/DTD/svg11.dtd">
<svg version="1.1" id="Capa_1" xmlns="http://www.w3.org/2000/svg" xmlns:xlink="http://www.w3.org/1999/xlink" x="0px" y="0px"
	 viewBox="0 0 490.004 490.004" style="enable-background:new 0 0 490.004 490.004;" xml:space="preserve">
<g>
	<path d="M245.003,93.583c-15.582,0-31.026,2.09-45.903,6.211c-2.262,0.627-3.587,2.969-2.961,5.23
		c0.521,1.883,2.23,3.116,4.093,3.116c0.375,0,0.757-0.05,1.137-0.155c14.138-3.916,28.818-5.902,43.634-5.902
		c2.347,0,4.25-1.902,4.25-4.25C249.253,95.485,247.35,93.583,245.003,93.583z"/>
	<path d="M490.004,328.147c0-32.227-14.419-52.15-38.811-54.195v-22.422c0-7.559-6.15-13.709-13.709-13.709h-1
		c-7.028-44.527-29.516-85.353-63.607-115.298c-35.354-31.054-80.767-48.155-127.875-48.155c-47.109,0-92.523,17.102-127.877,48.155
		C83.035,152.467,60.547,193.293,53.52,237.82h-1c-7.559,0-13.709,6.149-13.709,13.709v22.422C14.419,275.996,0,295.92,0,328.147
		c0,32.227,14.419,52.15,38.811,54.195v19.585c0,7.56,6.15,13.709,13.709,13.709h60.538c7.559,0,13.709-6.149,13.709-13.709V251.529
		c0-7.169-5.533-13.059-12.552-13.65c15.337-58.841,69.509-101.02,130.788-101.02c61.278,0,115.449,42.179,130.787,101.02
		c-7.018,0.591-12.551,6.481-12.551,13.65v150.398c0,7.56,6.15,13.709,13.709,13.709h60.538c7.559,0,13.709-6.149,13.709-13.709
		v-19.585C475.585,380.298,490.004,360.374,490.004,328.147z M8.5,328.147c0-16.293,4.075-43.064,30.311-45.66v91.319
		C12.575,371.211,8.5,344.44,8.5,328.147z M118.266,251.529v150.398c0,2.872-2.337,5.209-5.209,5.209h-8.568v-99.234
		c0-2.348-1.903-4.25-4.25-4.25s-4.25,1.902-4.25,4.25v99.234H52.52c-2.872,0-5.209-2.337-5.209-5.209V272.152h40.928
		c2.347,0,4.25-1.902,4.25-4.25c0-2.348-1.903-4.25-4.25-4.25H47.311v-12.123c0-2.872,2.337-5.209,5.209-5.209h26.733
		c0.005,0,0.01,0.001,0.014,0.001c0.004,0,0.007-0.001,0.011-0.001h29.493c0.009,0,0.017,0,0.026,0h4.261
		C115.929,246.32,118.266,248.657,118.266,251.529z M335.647,160.57c-25.501-20.771-57.693-32.211-90.645-32.211
		c-32.953,0-65.145,11.439-90.646,32.21c-24.246,19.749-41.514,47.077-48.896,77.251H84.214
		c8.516-50.387,40.453-94.144,86.198-117.718c2.086-1.075,2.906-3.639,1.831-5.726c-1.076-2.085-3.639-2.905-5.725-1.831
		c-48.552,25.021-82.305,71.662-90.903,125.275H62.129c14.655-88.678,92.412-154.953,182.873-154.953
		c90.46,0,168.217,66.275,182.872,154.953h-43.332C377.162,207.646,359.894,180.319,335.647,160.57z M437.484,407.137h-45.996
		v-99.234c0-2.348-1.903-4.25-4.25-4.25s-4.25,1.902-4.25,4.25v99.234h-6.042c-2.872,0-5.209-2.337-5.209-5.209V251.529
		c0-2.872,2.337-5.209,5.209-5.209h4.207c0.004,0,0.007,0.001,0.011,0.001c0.003,0,0.006-0.001,0.009-0.001h51.633
		c0.004,0,0.007,0.001,0.011,0.001c0.004,0,0.009-0.001,0.014-0.001h4.652c2.872,0,5.209,2.337,5.209,5.209v12.123h-39.155
		c-2.347,0-4.25,1.902-4.25,4.25c0,2.348,1.903,4.25,4.25,4.25h39.155v129.775C442.693,404.8,440.357,407.137,437.484,407.137z
		 M451.193,373.807v-91.319c26.236,2.596,30.311,29.366,30.311,45.659C481.504,344.44,477.429,371.211,451.193,373.807z"/>
</g>
<g>
</g>
<g>
</g>
<g>
</g>
<g>
</g>
<g>
</g>
<g>
</g>
<g>
</g>
<g>
</g>
<g>
</g>
<g>
</g>
<g>
</g>
<g>
</g>
<g>
</g>
<g>
</g>
<g>
</g>
</svg>
