<?xml version="1.0" encoding="iso-8859-1"?>
<!-- Generator: Adobe Illustrator 18.0.0, SVG Export Plug-In . SVG Version: 6.00 Build 0)  -->
<!DOCTYPE svg PUBLIC "-//W3C//DTD SVG 1.1//EN" "http://www.w3.org/Graphics/SVG/1.1/DTD/svg11.dtd">
<svg version="1.1" id="Capa_1" xmlns="http://www.w3.org/2000/svg" xmlns:xlink="http://www.w3.org/1999/xlink" x="0px" y="0px"
	 viewBox="0 0 495.746 495.746" style="enable-background:new 0 0 495.746 495.746;" xml:space="preserve">
<g>
	<path d="M490.081,244.879c-1.238-1.294-2.63-2.38-4.119-3.29c-0.045-0.034-0.08-0.076-0.127-0.109l-154.05-107.284
		c-8.436-5.875-23.098-10.478-33.379-10.478h-18.661c-2.347,0-4.25,1.902-4.25,4.25c0,2.347,1.903,4.25,4.25,4.25h18.661
		c8.492,0,21.553,4.1,28.522,8.953l139.868,97.408H46.282l139.868-97.408c6.969-4.854,20.03-8.953,28.521-8.953h18.661
		c2.347,0,4.25-1.903,4.25-4.25c0-2.348-1.903-4.25-4.25-4.25h-18.661c-10.281,0-24.942,4.603-33.379,10.478L27.243,241.479
		c-0.075,0.053-0.132,0.118-0.203,0.174c-1.449,0.898-2.805,1.962-4.014,3.226c-3.469,3.624-5.426,8.29-5.634,13.291H4.25
		c-2.347,0-4.25,1.903-4.25,4.25v36.802c0,2.348,1.903,4.25,4.25,4.25h15.038l2.082,47.509c0.509,11.607,10.374,21.048,21.99,21.048
		h155.25c11.299,0,22.276-9.018,24.469-20.102l9.828-49.66c1.421-7.183,8.809-13.251,16.131-13.251h15.032
		c7.323,0,14.71,6.068,16.131,13.252l9.828,49.659c2.193,11.084,13.17,20.102,24.469,20.102h155.249
		c11.617,0,21.481-9.441,21.99-21.048l3.988-90.981C495.974,254.311,493.97,248.941,490.081,244.879z M8.5,266.67h13.243h49.59
		v28.302H23.356H8.5V266.67z M138.678,266.67v28.302H79.833V266.67H138.678z M483.245,350.608
		c-0.312,7.124-6.367,12.92-13.498,12.92H314.498c-7.323,0-14.71-6.068-16.131-13.252l-9.828-49.659
		c-2.193-11.084-13.17-20.102-24.469-20.102h-15.032c-11.299,0-22.276,9.018-24.469,20.102l-9.828,49.66
		c-1.421,7.183-8.809,13.251-16.131,13.251H43.36c-5.569,0-10.468-3.542-12.502-8.483h61.542c2.347,0,4.25-1.903,4.25-4.25
		c0-2.348-1.903-4.25-4.25-4.25H29.684l-1.888-43.073h115.131c2.347,0,4.25-1.902,4.25-4.25V262.42c0-2.347-1.903-4.25-4.25-4.25
		H25.894c0.2-2.798,1.335-5.39,3.273-7.413c2.27-2.372,5.366-3.678,8.717-3.678h437.339c3.352,0,6.447,1.306,8.717,3.678
		c2.27,2.371,3.439,5.521,3.293,8.87l-0.24,5.465h-43.61c-2.347,0-4.25,1.903-4.25,4.25c0,2.348,1.903,4.25,4.25,4.25h43.237
		l-0.613,13.999h-18.625c-2.347,0-4.25,1.902-4.25,4.25c0,2.347,1.903,4.25,4.25,4.25h18.253L483.245,350.608z"/>
	<path d="M324.846,302.195c1.088,0,2.175-0.415,3.005-1.245l27.917-27.917c1.66-1.659,1.66-4.351,0-6.011
		c-1.66-1.659-4.351-1.659-6.011,0l-27.917,27.917c-1.66,1.66-1.66,4.352,0,6.011C322.67,301.78,323.758,302.195,324.846,302.195z"
		/>
	<path d="M386.766,267.022l-64.925,64.926c-1.66,1.659-1.66,4.351,0,6.011c0.83,0.829,1.918,1.244,3.005,1.244
		c1.088,0,2.175-0.415,3.005-1.244l64.925-64.926c1.66-1.659,1.66-4.351,0-6.011C391.116,265.363,388.426,265.363,386.766,267.022z"
		/>
</g>
<g>
</g>
<g>
</g>
<g>
</g>
<g>
</g>
<g>
</g>
<g>
</g>
<g>
</g>
<g>
</g>
<g>
</g>
<g>
</g>
<g>
</g>
<g>
</g>
<g>
</g>
<g>
</g>
<g>
</g>
</svg>
