<?xml version="1.0" encoding="iso-8859-1"?>
<!-- Generator: Adobe Illustrator 18.0.0, SVG Export Plug-In . SVG Version: 6.00 Build 0)  -->
<!DOCTYPE svg PUBLIC "-//W3C//DTD SVG 1.1//EN" "http://www.w3.org/Graphics/SVG/1.1/DTD/svg11.dtd">
<svg version="1.1" id="Capa_1" xmlns="http://www.w3.org/2000/svg" xmlns:xlink="http://www.w3.org/1999/xlink" x="0px" y="0px"
	 viewBox="0 0 486.502 486.502" style="enable-background:new 0 0 486.502 486.502;" xml:space="preserve">
<g>
	<path d="M344.228,386.539c-18.886,0-34.25,15.364-34.25,34.25c0,18.886,15.364,34.25,34.25,34.25
		c18.886,0,34.25-15.364,34.25-34.25C378.478,401.903,363.114,386.539,344.228,386.539z M344.228,446.539
		c-14.198,0-25.75-11.552-25.75-25.75c0-14.198,11.552-25.75,25.75-25.75c14.198,0,25.75,11.552,25.75,25.75
		C369.978,434.987,358.427,446.539,344.228,446.539z"/>
	<path d="M385.251,348.002h-95.75V184.911c30.919-16.568,52-49.197,52-86.661c0-54.175-44.075-98.25-98.25-98.25
		s-98.25,44.075-98.25,98.25c0,37.464,21.081,70.093,52,86.661v163.091h-95.75c-16.68,0-30.25,13.57-30.25,30.25v78
		c0,16.68,13.57,30.25,30.25,30.25h284c16.68,0,30.25-13.57,30.25-30.25v-78C415.501,361.572,401.931,348.002,385.251,348.002z
		 M155.805,118.501H266.98c2.348,0,4.25-1.902,4.25-4.25s-1.902-4.25-4.25-4.25H154.27c-0.505-3.847-0.769-7.769-0.769-11.751
		c0-6.96,0.796-13.738,2.303-20.247h40.596c2.348,0,4.25-1.902,4.25-4.25c0-2.348-1.902-4.25-4.25-4.25h-38.178
		C170.233,34.07,203.813,8.5,243.251,8.5c49.488,0,89.75,40.262,89.75,89.75S292.739,188,243.251,188
		C200.725,188,165.012,158.27,155.805,118.501z M205.501,188.953c4.891,2.044,9.98,3.703,15.231,4.939v93.881
		c0,2.348,1.902,4.25,4.25,4.25c2.348,0,4.25-1.902,4.25-4.25v-92.278c4.58,0.657,9.26,1.005,14.019,1.005
		c13.369,0,26.121-2.689,37.75-7.547v159.049h-75.5V188.953z M407.001,456.252c0,11.993-9.757,21.75-21.75,21.75h-284
		c-11.993,0-21.75-9.757-21.75-21.75v-15.763h122.287c4.05,0,5.952-1.902,5.952-4.25c0-2.348-1.902-4.25-5.952-4.25H79.501v-19.503
		h36.796c2.348,0,4.25-1.902,4.25-4.25c0-2.348-1.902-4.25-4.25-4.25H79.501v-25.734c0-11.993,9.757-21.75,21.75-21.75h284
		c11.993,0,21.75,9.757,21.75,21.75V456.252z"/>
</g>
<g>
</g>
<g>
</g>
<g>
</g>
<g>
</g>
<g>
</g>
<g>
</g>
<g>
</g>
<g>
</g>
<g>
</g>
<g>
</g>
<g>
</g>
<g>
</g>
<g>
</g>
<g>
</g>
<g>
</g>
</svg>
