<?xml version="1.0" encoding="iso-8859-1"?>
<!-- Generator: Adobe Illustrator 18.0.0, SVG Export Plug-In . SVG Version: 6.00 Build 0)  -->
<!DOCTYPE svg PUBLIC "-//W3C//DTD SVG 1.1//EN" "http://www.w3.org/Graphics/SVG/1.1/DTD/svg11.dtd">
<svg version="1.1" id="Capa_1" xmlns="http://www.w3.org/2000/svg" xmlns:xlink="http://www.w3.org/1999/xlink" x="0px" y="0px"
	 viewBox="0 0 485.867 485.867" style="enable-background:new 0 0 485.867 485.867;" xml:space="preserve">
<g>
	<path d="M378.691,182.474H249.596v-66.099c0-15.072-12.262-27.334-27.334-27.334H67.348c-2.348,0-4.25,1.902-4.25,4.25
		c0,2.347,1.902,4.25,4.25,4.25h154.914c10.385,0,18.834,8.448,18.834,18.834v66.099H107.178C48.08,182.474,0,230.553,0,289.65
		c0,59.097,48.08,107.176,107.178,107.176h271.514c59.098,0,107.176-48.079,107.176-107.176
		C485.867,230.553,437.789,182.474,378.691,182.474z M378.691,388.326H107.178c-26.846,0-51.217-10.78-69.025-28.233h76.232
		c2.348,0,4.25-1.902,4.25-4.25c0-2.347-1.902-4.25-4.25-4.25H30.426C16.721,334.646,8.5,313.092,8.5,289.65
		c0-28.931,12.514-54.992,32.414-73.058h31.139c2.348,0,4.25-1.902,4.25-4.25c0-2.347-1.902-4.25-4.25-4.25H51.691
		c15.822-10.797,34.928-17.119,55.486-17.119h271.514c54.41,0,98.676,44.267,98.676,98.677S433.102,388.326,378.691,388.326z"/>
	<path d="M361.717,209.479H129.945c-2.348,0-4.25,1.902-4.25,4.25v149.276c0,2.347,1.902,4.25,4.25,4.25h231.771
		c2.348,0,4.25-1.903,4.25-4.25V213.729C365.967,211.381,364.065,209.479,361.717,209.479z M134.195,358.755V217.979h223.271
		v124.114h-66.082c-2.348,0-4.25,1.903-4.25,4.25c0,2.348,1.902,4.25,4.25,4.25h66.082v8.162H134.195z"/>
	<path d="M434.635,264.48c0-10.063-8.188-18.25-18.25-18.25c-10.064,0-18.25,8.188-18.25,18.25c0,10.064,8.186,18.25,18.25,18.25
		C426.447,282.73,434.635,274.544,434.635,264.48z M416.385,274.23c-5.377,0-9.75-4.374-9.75-9.75s4.373-9.75,9.75-9.75
		c5.375,0,9.75,4.374,9.75,9.75S421.76,274.23,416.385,274.23z"/>
	<path d="M437.385,283.093c-10.064,0-18.25,8.188-18.25,18.25c0,10.064,8.186,18.25,18.25,18.25c10.063,0,18.25-8.186,18.25-18.25
		C455.635,291.28,447.447,283.093,437.385,283.093z M437.385,311.093c-5.377,0-9.75-4.374-9.75-9.75s4.373-9.75,9.75-9.75
		c5.375,0,9.75,4.374,9.75,9.75S442.76,311.093,437.385,311.093z"/>
	<path d="M395.385,283.093c-10.064,0-18.25,8.188-18.25,18.25c0,10.064,8.186,18.25,18.25,18.25c10.063,0,18.25-8.186,18.25-18.25
		C413.635,291.28,405.447,283.093,395.385,283.093z M395.385,311.093c-5.377,0-9.75-4.374-9.75-9.75s4.373-9.75,9.75-9.75
		c5.375,0,9.75,4.374,9.75,9.75S400.76,311.093,395.385,311.093z"/>
	<path d="M100.385,266.093h-10.25v-10.25c0-7.857-6.393-14.25-14.25-14.25h-2.5c-7.857,0-14.25,6.393-14.25,14.25v10.25h-10.25
		c-7.857,0-14.25,6.393-14.25,14.25v2.5c0,7.857,6.393,14.25,14.25,14.25h10.25v10.25c0,7.857,6.393,14.25,14.25,14.25h2.5
		c7.857,0,14.25-6.393,14.25-14.25v-10.25h10.25c7.857,0,14.25-6.393,14.25-14.25v-2.5
		C114.635,272.485,108.242,266.093,100.385,266.093z M106.135,282.843c0,3.171-2.58,5.75-5.75,5.75h-14.5
		c-2.348,0-4.25,1.903-4.25,4.25v14.5c0,3.171-2.58,5.75-5.75,5.75h-2.5c-3.172,0-5.75-2.579-5.75-5.75v-14.5
		c0-2.347-1.902-4.25-4.25-4.25h-14.5c-3.172,0-5.75-2.579-5.75-5.75v-2.5c0-3.17,2.578-5.75,5.75-5.75h14.5
		c2.348,0,4.25-1.902,4.25-4.25v-14.5c0-3.17,2.578-5.75,5.75-5.75h2.5c3.17,0,5.75,2.58,5.75,5.75v14.5
		c0,2.348,1.902,4.25,4.25,4.25h14.5c3.17,0,5.75,2.58,5.75,5.75V282.843z"/>
</g>
<g>
</g>
<g>
</g>
<g>
</g>
<g>
</g>
<g>
</g>
<g>
</g>
<g>
</g>
<g>
</g>
<g>
</g>
<g>
</g>
<g>
</g>
<g>
</g>
<g>
</g>
<g>
</g>
<g>
</g>
</svg>
