<?xml version="1.0" encoding="iso-8859-1"?>
<!-- Generator: Adobe Illustrator 18.0.0, SVG Export Plug-In . SVG Version: 6.00 Build 0)  -->
<!DOCTYPE svg PUBLIC "-//W3C//DTD SVG 1.1//EN" "http://www.w3.org/Graphics/SVG/1.1/DTD/svg11.dtd">
<svg version="1.1" id="Capa_1" xmlns="http://www.w3.org/2000/svg" xmlns:xlink="http://www.w3.org/1999/xlink" x="0px" y="0px"
	 viewBox="0 0 498.5 498.5" style="enable-background:new 0 0 498.5 498.5;" xml:space="preserve">
<g>
	<path d="M464.25,168.669H252.783v-67.339c0-15.072-12.262-27.334-27.334-27.334H6.911c-2.347,0-4.25,1.903-4.25,4.25
		s1.903,4.25,4.25,4.25h218.538c10.385,0,18.834,8.449,18.834,18.834v67.339H34.25c-18.886,0-34.25,15.365-34.25,34.25v187.336
		c0,18.886,15.364,34.25,34.25,34.25h430c18.886,0,34.25-15.364,34.25-34.25V202.919C498.5,184.033,483.136,168.669,464.25,168.669z
		 M34.25,177.169h430c13.222,0,24.143,10.018,25.584,22.862H8.666C10.107,187.186,21.028,177.169,34.25,177.169z M464.25,416.005
		h-430c-14.199,0-25.75-11.551-25.75-25.75V208.53H490v181.725c0,0.637-0.031,1.266-0.077,1.891H214.369
		c-2.347,0-4.25,1.903-4.25,4.25s1.903,4.25,4.25,4.25h273.434C483.8,409.682,474.752,416.005,464.25,416.005z"/>
	<path d="M94.125,282.2v-46.498c0-2.347-1.903-4.25-4.25-4.25H43.377c-2.347,0-4.25,1.903-4.25,4.25V282.2
		c0,2.347,1.903,4.25,4.25,4.25h46.498C92.222,286.45,94.125,284.547,94.125,282.2z M85.625,277.95H47.627v-37.998h37.998V277.95z"
		/>
	<path d="M404.859,363.447h46.497c2.347,0,4.25-1.903,4.25-4.25V235.702c0-2.347-1.903-4.25-4.25-4.25h-46.497
		c-2.347,0-4.25,1.903-4.25,4.25v123.495C400.609,361.544,402.512,363.447,404.859,363.447z M409.109,239.952h37.997v114.995
		h-37.997V239.952z"/>
	<path d="M125.248,286.45h46.498c2.347,0,4.25-1.903,4.25-4.25v-46.498c0-2.347-1.903-4.25-4.25-4.25h-46.498
		c-2.347,0-4.25,1.903-4.25,4.25V282.2C120.998,284.547,122.901,286.45,125.248,286.45z M129.498,239.952h37.998v37.998h-37.998
		V239.952z"/>
	<path d="M207.119,286.45h46.498c2.347,0,4.25-1.903,4.25-4.25v-46.498c0-2.347-1.903-4.25-4.25-4.25h-46.498
		c-2.347,0-4.25,1.903-4.25,4.25V282.2C202.869,284.547,204.772,286.45,207.119,286.45z M211.369,239.952h37.998v37.998h-37.998
		V239.952z"/>
	<path d="M288.99,286.45h46.498c2.347,0,4.25-1.903,4.25-4.25v-46.498c0-2.347-1.903-4.25-4.25-4.25H288.99
		c-2.347,0-4.25,1.903-4.25,4.25V282.2C284.74,284.547,286.643,286.45,288.99,286.45z M293.24,239.952h37.998v37.998H293.24V239.952
		z"/>
	<path d="M131.623,359.197v-46.998c0-2.347-1.903-4.25-4.25-4.25H80.875c-2.347,0-4.25,1.903-4.25,4.25v46.998
		c0,2.347,1.903,4.25,4.25,4.25h46.498C129.72,363.447,131.623,361.544,131.623,359.197z M123.123,354.947H85.125v-38.498h37.998
		V354.947z"/>
	<path d="M213.494,359.197v-46.998c0-2.347-1.903-4.25-4.25-4.25h-46.497c-2.347,0-4.25,1.903-4.25,4.25v46.998
		c0,2.347,1.903,4.25,4.25,4.25h46.497C211.591,363.447,213.494,361.544,213.494,359.197z M204.994,354.947h-37.997v-38.498h37.997
		V354.947z"/>
	<path d="M291.115,307.949h-46.498c-2.347,0-4.25,1.903-4.25,4.25v46.998c0,2.347,1.903,4.25,4.25,4.25h46.498
		c2.347,0,4.25-1.903,4.25-4.25v-46.998C295.365,309.852,293.462,307.949,291.115,307.949z M286.865,354.947h-37.998v-38.498h37.998
		V354.947z"/>
	<path d="M322.238,312.199v46.998c0,2.347,1.903,4.25,4.25,4.25h46.497c2.347,0,4.25-1.903,4.25-4.25v-46.998
		c0-2.347-1.903-4.25-4.25-4.25h-46.497C324.141,307.949,322.238,309.852,322.238,312.199z M330.738,316.449h37.997v38.498h-37.997
		V316.449z"/>
	<path d="M173.871,392.146h-64.497c-2.347,0-4.25,1.903-4.25,4.25s1.903,4.25,4.25,4.25h64.497c2.347,0,4.25-1.903,4.25-4.25
		S176.218,392.146,173.871,392.146z"/>
</g>
<g>
</g>
<g>
</g>
<g>
</g>
<g>
</g>
<g>
</g>
<g>
</g>
<g>
</g>
<g>
</g>
<g>
</g>
<g>
</g>
<g>
</g>
<g>
</g>
<g>
</g>
<g>
</g>
<g>
</g>
</svg>
