<?xml version="1.0" encoding="iso-8859-1"?>
<!-- Generator: Adobe Illustrator 18.0.0, SVG Export Plug-In . SVG Version: 6.00 Build 0)  -->
<!DOCTYPE svg PUBLIC "-//W3C//DTD SVG 1.1//EN" "http://www.w3.org/Graphics/SVG/1.1/DTD/svg11.dtd">
<svg version="1.1" id="Capa_1" xmlns="http://www.w3.org/2000/svg" xmlns:xlink="http://www.w3.org/1999/xlink" x="0px" y="0px"
	 viewBox="0 0 492.762 492.762" style="enable-background:new 0 0 492.762 492.762;" xml:space="preserve">
<g>
	<path d="M126.927,89.029V25.506c0-7.526-6.123-13.649-13.649-13.649H39.966c-7.526,0-13.649,6.123-13.649,13.649V89.03
		C10.208,103.087,0,123.743,0,146.752s10.208,43.665,26.317,57.722v262.783c0,7.525,6.123,13.648,13.649,13.648h73.312
		c7.526,0,13.649-6.123,13.649-13.648V204.475c16.109-14.058,26.317-34.714,26.317-57.723S143.036,103.087,126.927,89.029z
		 M34.817,25.506c0-2.84,2.31-5.149,5.149-5.149h73.312c2.839,0,5.149,2.31,5.149,5.149v57.082
		C106.395,74.723,92.039,70.13,76.622,70.13s-29.773,4.593-41.805,12.459V25.506z M118.427,467.257c0,2.839-2.31,5.148-5.149,5.148
		H58.934V260.2c0-2.348-1.903-4.25-4.25-4.25c-2.347,0-4.25,1.902-4.25,4.25v212.205H39.966c-2.839,0-5.149-2.31-5.149-5.148
		V210.915c12.032,7.866,26.389,12.459,41.805,12.459s29.773-4.593,41.805-12.458V467.257z M76.622,214.874
		c-37.563,0-68.122-30.56-68.122-68.122S39.06,78.63,76.622,78.63s68.122,30.56,68.122,68.122S114.185,214.874,76.622,214.874z"/>
	<path d="M80.872,91.203c0-2.348-1.903-4.25-4.25-4.25c-32.973,0-59.799,26.825-59.799,59.799c0,2.348,1.903,4.25,4.25,4.25
		s4.25-1.902,4.25-4.25c0-28.286,23.013-51.299,51.299-51.299C78.969,95.453,80.872,93.551,80.872,91.203z"/>
	<path d="M76.622,112.161c-19.073,0-34.59,15.518-34.59,34.591c0,19.074,15.517,34.592,34.59,34.592
		c19.073,0,34.591-15.518,34.591-34.592C111.213,127.679,95.695,112.161,76.622,112.161z M76.622,172.844
		c-14.386,0-26.09-11.705-26.09-26.092s11.704-26.091,26.09-26.091c14.387,0,26.091,11.704,26.091,26.091
		S91.009,172.844,76.622,172.844z"/>
	<path d="M296.686,293.111V25.506c0-7.526-6.123-13.649-13.649-13.649h-73.312c-7.526,0-13.649,6.123-13.649,13.649v267.606
		c-16.108,14.057-26.317,34.713-26.317,57.722c0,23.009,10.208,43.665,26.317,57.722v58.701c0,7.525,6.123,13.648,13.649,13.648
		h73.312c7.526,0,13.649-6.123,13.649-13.648v-58.7c16.109-14.058,26.317-34.714,26.317-57.723
		C323.003,327.825,312.794,307.169,296.686,293.111z M204.576,25.506c0-2.84,2.31-5.149,5.149-5.149h58.199v170.848
		c0,2.348,1.903,4.25,4.25,4.25c2.347,0,4.25-1.902,4.25-4.25V20.356h6.613c2.839,0,5.149,2.31,5.149,5.149V286.67
		c-12.032-7.865-26.388-12.458-41.805-12.458s-29.773,4.593-41.805,12.459V25.506z M288.186,467.257c0,2.839-2.31,5.148-5.149,5.148
		h-73.312c-2.839,0-5.149-2.31-5.149-5.148v-52.26c12.032,7.866,26.389,12.459,41.805,12.459s29.773-4.593,41.805-12.458V467.257z
		 M246.381,418.956c-37.563,0-68.122-30.56-68.122-68.122s30.56-68.122,68.122-68.122s68.122,30.559,68.122,68.122
		S283.943,418.956,246.381,418.956z"/>
	<path d="M246.381,400.409c-2.347,0-4.25,1.902-4.25,4.25c0,2.348,1.903,4.25,4.25,4.25c32.023,0,58.075-26.053,58.075-58.075
		c0-2.348-1.903-4.25-4.25-4.25s-4.25,1.902-4.25,4.25C295.956,378.17,273.716,400.409,246.381,400.409z"/>
	<path d="M280.972,350.834c0-19.073-15.518-34.591-34.591-34.591c-19.073,0-34.59,15.518-34.59,34.591
		c0,19.074,15.517,34.592,34.59,34.592C265.455,385.426,280.972,369.908,280.972,350.834z M220.291,350.834
		c0-14.387,11.704-26.091,26.09-26.091c14.387,0,26.091,11.704,26.091,26.091c0,14.387-11.705,26.092-26.091,26.092
		C231.995,376.926,220.291,365.221,220.291,350.834z"/>
	<path d="M492.762,186.435c0-23.009-10.208-43.665-26.317-57.723V25.506c0-7.526-6.123-13.649-13.649-13.649h-73.312
		c-7.526,0-13.649,6.123-13.649,13.649v103.207c-16.109,14.057-26.317,34.713-26.317,57.722s10.208,43.665,26.317,57.722v223.101
		c0,7.525,6.123,13.648,13.649,13.648h73.312c7.526,0,13.649-6.123,13.649-13.648v-223.1
		C482.554,230.1,492.762,209.443,492.762,186.435z M374.335,25.506c0-2.84,2.31-5.149,5.149-5.149h73.312
		c2.839,0,5.149,2.31,5.149,5.149v96.765c-12.032-7.865-26.388-12.458-41.805-12.458s-29.773,4.593-41.805,12.459V25.506z
		 M348.018,186.435c0-37.563,30.56-68.122,68.122-68.122s68.122,30.56,68.122,68.122s-30.559,68.122-68.122,68.122
		S348.018,223.997,348.018,186.435z M457.945,467.257c0,2.839-2.31,5.148-5.149,5.148h-33.952c0.04-0.234,0.072-0.471,0.072-0.716
		V332.196c0-2.348-1.903-4.25-4.25-4.25c-2.347,0-4.25,1.902-4.25,4.25v139.493c0,0.245,0.032,0.481,0.072,0.716h-31.004
		c-2.839,0-5.149-2.31-5.149-5.148V250.598c12.032,7.866,26.389,12.459,41.805,12.459s29.773-4.593,41.805-12.458V467.257z"/>
	<path d="M416.14,137.793c26.821,0,48.641,21.82,48.641,48.642c0,2.348,1.903,4.25,4.25,4.25c2.347,0,4.25-1.902,4.25-4.25
		c0-31.508-25.633-57.142-57.141-57.142c-2.347,0-4.25,1.902-4.25,4.25C411.89,135.891,413.793,137.793,416.14,137.793z"/>
	<path d="M416.14,221.026c19.073,0,34.591-15.518,34.591-34.592c0-19.073-15.518-34.591-34.591-34.591
		c-19.073,0-34.591,15.518-34.591,34.591C381.549,205.509,397.067,221.026,416.14,221.026z M416.14,160.344
		c14.387,0,26.091,11.704,26.091,26.091s-11.704,26.092-26.091,26.092s-26.091-11.705-26.091-26.092S401.754,160.344,416.14,160.344
		z"/>
</g>
<g>
</g>
<g>
</g>
<g>
</g>
<g>
</g>
<g>
</g>
<g>
</g>
<g>
</g>
<g>
</g>
<g>
</g>
<g>
</g>
<g>
</g>
<g>
</g>
<g>
</g>
<g>
</g>
<g>
</g>
</svg>
