<?xml version="1.0" encoding="iso-8859-1"?>
<!-- Generator: Adobe Illustrator 18.0.0, SVG Export Plug-In . SVG Version: 6.00 Build 0)  -->
<!DOCTYPE svg PUBLIC "-//W3C//DTD SVG 1.1//EN" "http://www.w3.org/Graphics/SVG/1.1/DTD/svg11.dtd">
<svg version="1.1" id="Capa_1" xmlns="http://www.w3.org/2000/svg" xmlns:xlink="http://www.w3.org/1999/xlink" x="0px" y="0px"
	 viewBox="0 0 489.301 489.301" style="enable-background:new 0 0 489.301 489.301;" xml:space="preserve">
<g>
	<path d="M219.316,311.514c0,13.971,11.365,25.336,25.334,25.336c13.969,0,25.334-11.365,25.334-25.336
		c0-13.969-11.365-25.334-25.334-25.334C230.682,286.18,219.316,297.545,219.316,311.514z M244.65,294.68
		c9.283,0,16.834,7.553,16.834,16.834c0,9.283-7.551,16.836-16.834,16.836c-9.283,0-16.834-7.553-16.834-16.836
		C227.816,302.232,235.367,294.68,244.65,294.68z"/>
	<path d="M370.543,103.377c0-2.348-1.902-4.25-4.25-4.25h-80.221c-1.623-21.439-19.574-38.393-41.422-38.393
		c-21.85,0-39.799,16.953-41.422,38.393h-80.221c-2.348,0-4.25,1.902-4.25,4.25v55.145c0,0,0.002,0.002,0.002,0
		c0,0.721,0.182,1.443,0.547,2.092l62.4,110.391v214.047c0,2.348,1.902,4.25,4.25,4.25h117.408c2.348,0,4.25-1.902,4.25-4.25
		V271.004l62.379-110.391c0.365-0.648,0.547-1.369,0.547-2.09l0.002-0.002V103.377z M244.65,69.234
		c17.16,0,31.303,13.145,32.9,29.893H211.75C213.348,82.379,227.49,69.234,244.65,69.234z M362.043,107.627v46.645H127.258v-17.678
		c0.266,0.053,0.541,0.084,0.824,0.084h35.998c2.348,0,4.25-1.902,4.25-4.25c0-2.348-1.902-4.25-4.25-4.25h-35.998
		c-0.283,0-0.559,0.029-0.824,0.082v-20.633H362.043z M300.887,265.635h-67.81c-2.348,0-4.25,1.902-4.25,4.25
		c0,2.348,1.902,4.25,4.25,4.25h66.039v206.666H190.207V269.885c0-0.732-0.189-1.453-0.549-2.092l-42.746-75.619h117.662
		c2.348,0,4.25-1.902,4.25-4.25c0-2.348-1.902-4.25-4.25-4.25H144.58c-0.783,0-1.506,0.227-2.137,0.596l-12.152-21.498H359.01
		L300.887,265.635z"/>
	<path d="M244.65,47.426c2.348,0,4.25-1.902,4.25-4.25V4.25c0-2.348-1.902-4.25-4.25-4.25c-2.348,0-4.25,1.902-4.25,4.25v38.926
		C240.4,45.523,242.303,47.426,244.65,47.426z"/>
	<path d="M286.203,64.609c1.088,0,2.176-0.414,3.006-1.244l27.523-27.525c1.66-1.66,1.66-4.352,0-6.01c-1.66-1.66-4.352-1.66-6.01,0
		l-27.523,27.525c-1.66,1.658-1.66,4.35,0,6.01C284.029,64.195,285.115,64.609,286.203,64.609z"/>
	<path d="M199.303,64.344c0.83,0.83,1.918,1.244,3.006,1.244c1.088,0,2.176-0.414,3.004-1.244c1.66-1.66,1.66-4.352,0-6.01
		l-27.523-27.525c-1.658-1.66-4.352-1.66-6.01,0c-1.66,1.658-1.66,4.35,0,6.01L199.303,64.344z"/>
	<path d="M264.574,443.16h-68.996c-2.348,0-4.25,1.902-4.25,4.25c0,2.348,1.902,4.25,4.25,4.25h68.996c2.348,0,4.25-1.902,4.25-4.25
		C268.824,445.063,266.922,443.16,264.574,443.16z"/>
	<path d="M186.578,136.678h61.498c2.348,0,4.25-1.902,4.25-4.25c0-2.348-1.902-4.25-4.25-4.25h-61.498
		c-2.348,0-4.25,1.902-4.25,4.25C182.328,134.775,184.23,136.678,186.578,136.678z"/>
</g>
<g>
</g>
<g>
</g>
<g>
</g>
<g>
</g>
<g>
</g>
<g>
</g>
<g>
</g>
<g>
</g>
<g>
</g>
<g>
</g>
<g>
</g>
<g>
</g>
<g>
</g>
<g>
</g>
<g>
</g>
</svg>
