<?xml version="1.0" encoding="iso-8859-1"?>
<!-- Generator: Adobe Illustrator 18.0.0, SVG Export Plug-In . SVG Version: 6.00 Build 0)  -->
<!DOCTYPE svg PUBLIC "-//W3C//DTD SVG 1.1//EN" "http://www.w3.org/Graphics/SVG/1.1/DTD/svg11.dtd">
<svg version="1.1" id="Capa_1" xmlns="http://www.w3.org/2000/svg" xmlns:xlink="http://www.w3.org/1999/xlink" x="0px" y="0px"
	 viewBox="0 0 487.168 487.168" style="enable-background:new 0 0 487.168 487.168;" xml:space="preserve">
<g>
	<path d="M210.599,197.83c0-21.188-17.237-38.424-38.425-38.424c-21.188,0-38.426,17.236-38.426,38.424
		c0,21.189,17.237,38.426,38.426,38.426C193.361,236.256,210.599,219.02,210.599,197.83z M172.174,227.756
		c-16.501,0-29.926-13.424-29.926-29.926c0-16.5,13.425-29.924,29.926-29.924c16.501,0,29.925,13.424,29.925,29.924
		C202.099,214.332,188.675,227.756,172.174,227.756z"/>
	<path d="M407.917,0H79.251c-26.605,0-48.25,21.645-48.25,48.25v390.668c0,26.605,21.645,48.25,48.25,48.25h328.666
		c26.605,0,48.25-21.645,48.25-48.25V48.25C456.167,21.645,434.522,0,407.917,0z M447.667,438.918
		c0,21.918-17.831,39.75-39.75,39.75H79.251c-21.918,0-39.75-17.832-39.75-39.75V48.25c0-21.918,17.832-39.75,39.75-39.75h328.666
		c21.919,0,39.75,17.832,39.75,39.75V438.918z"/>
	<path d="M419.917,30H67.251c-2.348,0-4.25,1.902-4.25,4.25v379.334c0,2.348,1.902,4.25,4.25,4.25h352.666
		c2.348,0,4.25-1.902,4.25-4.25V34.25C424.167,31.902,422.265,30,419.917,30z M363.323,38.5L245.44,156.385
		c-16.256-22.982-43.038-38.018-73.267-38.018c-49.454,0-89.688,40.234-89.688,89.688c0,26.637,13.831,55.615,30.455,80.83
		l-41.439,41.438V77.338h129.564c2.347,0,4.25-1.902,4.25-4.25c0-2.348-1.903-4.25-4.25-4.25H71.501V38.5H363.323z M90.985,208.055
		c0-44.766,36.421-81.188,81.188-81.188c44.767,0,81.188,36.422,81.188,81.188c0,57.084-66.311,124.727-81.148,139.143
		C157.441,332.475,90.985,263.158,90.985,208.055z M71.501,342.344l46.302-46.301c23.15,33.156,49.491,58.299,51.451,60.152
		c0.818,0.775,1.869,1.162,2.92,1.162c1.03,0,2.061-0.373,2.874-1.119c0.217-0.199,21.882-20.19,43.221-48.102
		c28.927-37.834,43.593-71.508,43.593-100.082c0-16.113-4.273-31.244-11.743-44.328L375.344,38.5h40.323v146.889
		c-0.886,0.123-1.741,0.51-2.423,1.191L190.578,409.246c-0.028,0.027-0.046,0.061-0.073,0.088H71.501V342.344z M202.51,409.334
		l213.157-213.156v117.148h-49.611c-2.347,0-4.25,1.902-4.25,4.25c0,2.348,1.903,4.25,4.25,4.25h49.611v40.998H282.061
		c-2.348,0-4.25,1.902-4.25,4.25c0,2.348,1.902,4.25,4.25,4.25h133.606v38.01H202.51z"/>
	<path d="M387.583,432c-9.328,0-16.917,7.59-16.917,16.918s7.589,16.916,16.917,16.916s16.917-7.588,16.917-16.916
		S396.911,432,387.583,432z M387.583,457.334c-4.641,0-8.417-3.775-8.417-8.416c0-4.643,3.776-8.418,8.417-8.418
		c4.642,0,8.417,3.775,8.417,8.418C396,453.559,392.225,457.334,387.583,457.334z"/>
	<path d="M189.583,445.334h-120c-2.347,0-4.25,1.902-4.25,4.25c0,2.348,1.903,4.25,4.25,4.25h120c2.348,0,4.25-1.902,4.25-4.25
		C193.833,447.236,191.931,445.334,189.583,445.334z"/>
</g>
<g>
</g>
<g>
</g>
<g>
</g>
<g>
</g>
<g>
</g>
<g>
</g>
<g>
</g>
<g>
</g>
<g>
</g>
<g>
</g>
<g>
</g>
<g>
</g>
<g>
</g>
<g>
</g>
<g>
</g>
</svg>
