<?xml version="1.0" encoding="iso-8859-1"?>
<!-- Generator: Adobe Illustrator 18.0.0, SVG Export Plug-In . SVG Version: 6.00 Build 0)  -->
<!DOCTYPE svg PUBLIC "-//W3C//DTD SVG 1.1//EN" "http://www.w3.org/Graphics/SVG/1.1/DTD/svg11.dtd">
<svg version="1.1" id="Capa_1" xmlns="http://www.w3.org/2000/svg" xmlns:xlink="http://www.w3.org/1999/xlink" x="0px" y="0px"
	 viewBox="0 0 493.965 493.965" style="enable-background:new 0 0 493.965 493.965;" xml:space="preserve">
<path d="M400.81,153.992h-45.605v-46.815C355.205,48.08,307.127,0,248.029,0c-59.098,0-107.178,48.08-107.178,107.178v46.815H93.154
	c-7.857,0-14.25,6.393-14.25,14.25v7c0,7.857,6.393,14.25,14.25,14.25h13.75v94.859c0,67.256,47.297,123.666,110.375,137.74v40.373
	H159.59c-7.857,0-14.25,6.393-14.25,14.25v3c0,7.857,6.393,14.25,14.25,14.25h176.877c7.857,0,14.25-6.393,14.25-14.25v-3
	c0-7.857-6.393-14.25-14.25-14.25h-57.688v-40.373c63.078-14.072,110.373-70.482,110.373-137.74v-94.859h11.658
	c7.857,0,14.25-6.393,14.25-14.25v-7C415.06,160.385,408.668,153.992,400.81,153.992z M248.029,8.5
	c54.41,0,98.676,44.266,98.676,98.678V142h-43.416c-2.348,0-4.25,1.902-4.25,4.25c0,2.348,1.902,4.25,4.25,4.25h43.416V180h-43.416
	c-2.348,0-4.25,1.902-4.25,4.25c0,2.348,1.902,4.25,4.25,4.25h43.416V218h-43.416c-2.348,0-4.25,1.902-4.25,4.25
	c0,2.348,1.902,4.25,4.25,4.25h43.416v49.828c0,2.92-0.135,5.809-0.385,8.664H149.736c-0.25-2.855-0.385-5.744-0.385-8.664V226.5
	h43.803c2.348,0,4.25-1.902,4.25-4.25c0-2.348-1.902-4.25-4.25-4.25h-43.803v-29.5h43.803c2.348,0,4.25-1.902,4.25-4.25
	c0-2.348-1.902-4.25-4.25-4.25h-43.803v-29.5h43.803c2.348,0,4.25-1.902,4.25-4.25c0-2.348-1.902-4.25-4.25-4.25h-43.803v-29.67
	h156.803c2.348,0,4.25-1.902,4.25-4.25c0-2.348-1.902-4.25-4.25-4.25H176.014c1.756-38.209,33.383-68.754,72.016-68.754
	c2.348,0,4.25-1.902,4.25-4.25c0-2.348-1.902-4.25-4.25-4.25c-43.32,0-78.752,34.357-80.516,77.254h-18.1
	C151.188,50.963,194.74,8.5,248.029,8.5z M345.209,293.492c-8.149,46.258-48.623,81.512-97.18,81.512
	c-48.557,0-89.033-35.254-97.18-81.512H345.209z M87.404,175.242v-7c0-3.17,2.58-5.75,5.75-5.75h47.697v18.5H93.154
	C89.984,180.992,87.404,178.414,87.404,175.242z M342.217,476.715v3c0,3.172-2.578,5.75-5.75,5.75H159.59
	c-3.17,0-5.75-2.578-5.75-5.75v-3c0-3.17,2.58-5.75,5.75-5.75h176.877C339.639,470.965,342.217,473.545,342.217,476.715z
	 M270.279,462.465h-44.5v-38.75c7.25,1.154,14.682,1.76,22.252,1.76c7.568,0,14.998-0.605,22.248-1.76V462.465z M380.652,284.352
	c0,73.129-59.494,132.623-132.621,132.623c-73.131,0-132.627-59.494-132.627-132.623v-94.859h25.447v86.836
	c0,59.098,48.08,107.176,107.178,107.176c59.098,0,107.176-48.078,107.176-107.176v-86.836h25.447V284.352z M406.56,175.242
	c0,3.172-2.58,5.75-5.75,5.75h-45.605v-18.5h45.605c3.17,0,5.75,2.58,5.75,5.75V175.242z"/>
<g>
</g>
<g>
</g>
<g>
</g>
<g>
</g>
<g>
</g>
<g>
</g>
<g>
</g>
<g>
</g>
<g>
</g>
<g>
</g>
<g>
</g>
<g>
</g>
<g>
</g>
<g>
</g>
<g>
</g>
</svg>
