<?xml version="1.0" encoding="iso-8859-1"?>
<!-- Generator: Adobe Illustrator 18.0.0, SVG Export Plug-In . SVG Version: 6.00 Build 0)  -->
<!DOCTYPE svg PUBLIC "-//W3C//DTD SVG 1.1//EN" "http://www.w3.org/Graphics/SVG/1.1/DTD/svg11.dtd">
<svg version="1.1" id="Capa_1" xmlns="http://www.w3.org/2000/svg" xmlns:xlink="http://www.w3.org/1999/xlink" x="0px" y="0px"
	 viewBox="0 0 492.133 492.133" style="enable-background:new 0 0 492.133 492.133;" xml:space="preserve">
<g>
	<path d="M95.65,293.093h300.832c7.809,0,14.16-6.353,14.16-14.161V106.765c0-7.808-6.352-14.161-14.16-14.161H95.65
		c-7.808,0-14.16,6.353-14.16,14.161v172.168C81.49,286.74,87.843,293.093,95.65,293.093z M89.99,106.765
		c0-3.121,2.539-5.661,5.66-5.661h300.832c3.121,0,5.66,2.54,5.66,5.661v172.168c0,3.121-2.539,5.661-5.66,5.661H95.65
		c-3.121,0-5.66-2.54-5.66-5.661V106.765z"/>
	<path d="M492.123,391.585c-0.01-0.852-0.266-1.698-0.777-2.417l-56.045-78.729V73.691c0-2.347-1.902-4.25-4.25-4.25H61.082
		c-2.347,0-4.25,1.903-4.25,4.25v236.748L0.787,389.168c-0.516,0.725-0.771,1.576-0.777,2.434C0.009,391.611,0,391.624,0,391.633
		v26.809c0,1.127,0.447,2.208,1.244,3.005c0.798,0.797,1.879,1.245,3.006,1.245l483.633-0.001c2.348,0,4.25-1.903,4.25-4.25v-26.809
		C492.133,391.613,492.124,391.603,492.123,391.585z M246.066,387.383H12.492l35.562-49.955h59.914c2.348,0,4.25-1.903,4.25-4.25
		c0-2.347-1.902-4.25-4.25-4.25H54.104l9.169-12.88l182.793,0l182.793,0l32.564,45.745H290.995c-2.347,0-4.25,1.903-4.25,4.25
		s1.903,4.25,4.25,4.25h176.48l12.166,17.091L246.066,387.383z M426.801,77.941v229.605l-180.734,0l-180.734,0V77.941H426.801z
		 M8.5,414.191v-18.309h237.566l237.566-0.001v18.309L8.5,414.191z"/>
	<path d="M258.621,361.792h-59.463c-2.347,0-4.25,1.903-4.25,4.25s1.903,4.25,4.25,4.25h59.463c2.348,0,4.25-1.903,4.25-4.25
		S260.969,361.792,258.621,361.792z"/>
	<path d="M112.773,160.756c1.088,0,2.175-0.415,3.005-1.245l32.774-32.775c1.659-1.66,1.659-4.351,0-6.011
		c-1.66-1.659-4.351-1.659-6.011,0l-32.774,32.775c-1.659,1.66-1.659,4.351,0,6.011
		C110.598,160.341,111.686,160.756,112.773,160.756z"/>
	<path d="M112.773,204.204c1.088,0,2.175-0.415,3.005-1.245L192,126.737c1.659-1.66,1.659-4.351,0-6.011
		c-1.66-1.659-4.351-1.659-6.011,0l-76.222,76.223c-1.659,1.66-1.659,4.351,0,6.011
		C110.598,203.789,111.686,204.204,112.773,204.204z"/>
	<path d="M112.773,247.65c1.088,0,2.175-0.415,3.005-1.245l119.668-119.669c1.659-1.66,1.659-4.351,0-6.011
		c-1.66-1.659-4.351-1.659-6.011,0L109.768,240.395c-1.659,1.66-1.659,4.351,0,6.011C110.598,247.235,111.686,247.65,112.773,247.65
		z"/>
</g>
<g>
</g>
<g>
</g>
<g>
</g>
<g>
</g>
<g>
</g>
<g>
</g>
<g>
</g>
<g>
</g>
<g>
</g>
<g>
</g>
<g>
</g>
<g>
</g>
<g>
</g>
<g>
</g>
<g>
</g>
</svg>
