<?xml version="1.0" encoding="iso-8859-1"?>
<!-- Generator: Adobe Illustrator 18.0.0, SVG Export Plug-In . SVG Version: 6.00 Build 0)  -->
<!DOCTYPE svg PUBLIC "-//W3C//DTD SVG 1.1//EN" "http://www.w3.org/Graphics/SVG/1.1/DTD/svg11.dtd">
<svg version="1.1" id="Capa_1" xmlns="http://www.w3.org/2000/svg" xmlns:xlink="http://www.w3.org/1999/xlink" x="0px" y="0px"
	 viewBox="0 0 479.484 479.484" style="enable-background:new 0 0 479.484 479.484;" xml:space="preserve">
<g>
	<path d="M160.641,205.027c-67.285,0-122.025,54.74-122.025,122.025c0,67.285,54.74,122.025,122.025,122.025
		c67.286,0,122.026-54.74,122.026-122.025C282.667,259.768,227.926,205.027,160.641,205.027z M160.641,440.578
		c-61.174,0-111.194-48.641-113.438-109.275h46.138c2.347,0,4.25-1.902,4.25-4.25c0-2.348-1.903-4.25-4.25-4.25H47.203
		c2.244-60.637,52.263-109.275,113.438-109.275c61.175,0,111.195,48.639,113.438,109.275h-49.793c-2.347,0-4.25,1.902-4.25,4.25
		c0,2.348,1.903,4.25,4.25,4.25h49.793C271.836,391.938,221.815,440.578,160.641,440.578z"/>
	<path d="M160.641,282.033c-24.824,0-45.019,20.195-45.019,45.02c0,24.822,20.195,45.018,45.019,45.018
		c24.823,0,45.018-20.195,45.018-45.018C205.658,302.228,185.463,282.033,160.641,282.033z M160.641,363.57
		c-20.137,0-36.519-16.381-36.519-36.518c0-20.137,16.382-36.52,36.519-36.52c20.136,0,36.518,16.383,36.518,36.52
		C197.158,347.19,180.776,363.57,160.641,363.57z"/>
	<path d="M149.423,246.553h27.419c2.347,0,4.25-1.902,4.25-4.25c0-2.348-1.903-4.25-4.25-4.25h-27.419
		c-2.347,0-4.25,1.902-4.25,4.25C145.173,244.65,147.076,246.553,149.423,246.553z"/>
	<path d="M457.025,11.668h-8.662C447.143,5.041,441.334,0,434.359,0h-5.333c-7.857,0-14.25,6.393-14.25,14.25v58.668
		c0,7.857,6.393,14.25,14.25,14.25h5.333c5.221,0,9.782-2.832,12.264-7.029l0.001,206.853c0,10.385-8.449,18.834-18.834,18.834
		h-42.999l-0.001-135.324h3.9c1.22,6.625,7.029,11.666,14.003,11.666h5.333c7.857,0,14.25-6.393,14.25-14.25V109.25
		c0-7.857-6.393-14.25-14.25-14.25h-5.333c-6.975,0-12.783,5.041-14.004,11.668h-8.662c-7.857,0-14.25,6.393-14.25,14.25v35.334
		c0,6.563,4.465,12.088,10.513,13.736l0.001,153.67c0,10.385-8.449,18.834-18.834,18.834h-44.384V194.588
		c0-11.01-8.957-19.967-19.967-19.967H28.175c-11.009,0-19.966,8.957-19.966,19.967v264.93c0,11.01,8.957,19.967,19.966,19.967
		h264.931c11.01,0,19.967-8.957,19.967-19.967V350.992h44.384c15.072,0,27.334-12.262,27.334-27.334v-9.332h42.999
		c15.072,0,27.334-12.262,27.334-27.334l-0.001-211.49h1.902c7.857,0,14.25-6.393,14.25-14.25V25.918
		C471.275,18.061,464.883,11.668,457.025,11.668z M304.573,459.518c0,6.322-5.144,11.467-11.467,11.467H28.175
		c-6.323,0-11.466-5.145-11.466-11.467v-264.93c0-6.324,5.144-11.467,11.466-11.467h264.931c6.323,0,11.467,5.143,11.467,11.467
		V459.518z M396.943,109.25c0-3.17,2.579-5.75,5.75-5.75h5.333c3.171,0,5.75,2.58,5.75,5.75v58.668c0,3.17-2.579,5.75-5.75,5.75
		h-5.333c-3.171,0-5.75-2.58-5.75-5.75V109.25z M374.277,156.252v-35.334c0-3.172,2.579-5.75,5.75-5.75h8.416v46.834h-8.416
		C376.857,162.002,374.277,159.422,374.277,156.252z M440.109,72.918c0,3.17-2.579,5.75-5.75,5.75h-5.333
		c-3.171,0-5.75-2.58-5.75-5.75V14.25c0-3.17,2.579-5.75,5.75-5.75h5.333c3.171,0,5.75,2.58,5.75,5.75V72.918z M462.775,61.252
		c0,3.17-2.579,5.75-5.75,5.75h-8.416V20.168h8.416c3.171,0,5.75,2.578,5.75,5.75V61.252z"/>
</g>
<g>
</g>
<g>
</g>
<g>
</g>
<g>
</g>
<g>
</g>
<g>
</g>
<g>
</g>
<g>
</g>
<g>
</g>
<g>
</g>
<g>
</g>
<g>
</g>
<g>
</g>
<g>
</g>
<g>
</g>
</svg>
