<?xml version="1.0" encoding="iso-8859-1"?>
<!-- Generator: Adobe Illustrator 18.0.0, SVG Export Plug-In . SVG Version: 6.00 Build 0)  -->
<!DOCTYPE svg PUBLIC "-//W3C//DTD SVG 1.1//EN" "http://www.w3.org/Graphics/SVG/1.1/DTD/svg11.dtd">
<svg version="1.1" id="Capa_1" xmlns="http://www.w3.org/2000/svg" xmlns:xlink="http://www.w3.org/1999/xlink" x="0px" y="0px"
	 viewBox="0 0 481.59 481.59" style="enable-background:new 0 0 481.59 481.59;" xml:space="preserve">
<g>
	<path d="M387.721,0H93.869c-10.064,0-18.25,8.186-18.25,18.25v445.09c0,10.063,8.186,18.25,18.25,18.25h293.852
		c10.064,0,18.25-8.187,18.25-18.25V18.25C405.971,8.186,397.785,0,387.721,0z M397.471,463.34c0,5.376-4.373,9.75-9.75,9.75H93.869
		c-5.377,0-9.75-4.374-9.75-9.75v-9.75h57.801c2.348,0,4.25-1.902,4.25-4.25c0-2.347-1.902-4.25-4.25-4.25H84.119V18.25
		c0-5.376,4.373-9.75,9.75-9.75h293.852c5.377,0,9.75,4.374,9.75,9.75V463.34z"/>
	<path d="M368.92,38.09h-260c-2.348,0-4.25,1.903-4.25,4.25v171.501c0,2.347,1.902,4.25,4.25,4.25h260c2.348,0,4.25-1.903,4.25-4.25
		V42.34C373.17,39.993,371.268,38.09,368.92,38.09z M113.17,209.591v-27h114.586c2.348,0,4.25-1.903,4.25-4.25
		c0-2.348-1.902-4.25-4.25-4.25H113.17V46.59h251.5v18.5h-88.75c-2.348,0-4.25,1.903-4.25,4.25c0,2.348,1.902,4.25,4.25,4.25h88.75
		v136.001H113.17z"/>
	<path d="M241.92,238.862c-60.918,0-110.479,49.56-110.479,110.478c0,60.918,49.561,110.478,110.479,110.478
		s110.477-49.56,110.477-110.478C352.397,288.423,302.838,238.862,241.92,238.862z M241.92,451.317
		c-54.807,0-99.646-43.461-101.883-97.728h41.182c2.348,0,4.25-1.902,4.25-4.25c0-2.347-1.902-4.25-4.25-4.25h-41.182
		c2.236-54.267,47.076-97.728,101.883-97.728s99.644,43.461,101.883,97.728h-44.479c-2.348,0-4.25,1.903-4.25,4.25
		c0,2.348,1.902,4.25,4.25,4.25h44.479C341.564,407.856,296.727,451.317,241.92,451.317z"/>
	<path d="M241.92,308.319c-22.619,0-41.021,18.401-41.021,41.021c0,22.619,18.402,41.021,41.021,41.021s41.019-18.402,41.019-41.021
		C282.939,326.721,264.539,308.319,241.92,308.319z M241.92,381.861c-17.934,0-32.521-14.589-32.521-32.521
		c0-17.932,14.588-32.521,32.521-32.521c17.932,0,32.519,14.589,32.519,32.521C274.439,367.272,259.852,381.861,241.92,381.861z"/>
	<path d="M231.803,277.151h24.73c2.348,0,4.25-1.903,4.25-4.25c0-2.348-1.902-4.25-4.25-4.25h-24.73c-2.348,0-4.25,1.902-4.25,4.25
		C227.553,275.248,229.455,277.151,231.803,277.151z"/>
</g>
<g>
</g>
<g>
</g>
<g>
</g>
<g>
</g>
<g>
</g>
<g>
</g>
<g>
</g>
<g>
</g>
<g>
</g>
<g>
</g>
<g>
</g>
<g>
</g>
<g>
</g>
<g>
</g>
<g>
</g>
</svg>
