<?xml version="1.0" encoding="iso-8859-1"?>
<!-- Generator: Adobe Illustrator 18.0.0, SVG Export Plug-In . SVG Version: 6.00 Build 0)  -->
<!DOCTYPE svg PUBLIC "-//W3C//DTD SVG 1.1//EN" "http://www.w3.org/Graphics/SVG/1.1/DTD/svg11.dtd">
<svg version="1.1" id="Capa_1" xmlns="http://www.w3.org/2000/svg" xmlns:xlink="http://www.w3.org/1999/xlink" x="0px" y="0px"
	 viewBox="0 0 498.5 498.5" style="enable-background:new 0 0 498.5 498.5;" xml:space="preserve">
<g>
	<path d="M118.424,252.032c-22.408,0-40.638,18.23-40.638,40.638c0,22.408,18.23,40.639,40.638,40.639
		c22.408,0,40.639-18.23,40.639-40.639C159.062,270.263,140.832,252.032,118.424,252.032z M118.424,324.809
		c-17.721,0-32.138-14.417-32.138-32.139c0-17.721,14.417-32.138,32.138-32.138c17.721,0,32.139,14.417,32.139,32.138
		C150.562,310.392,136.145,324.809,118.424,324.809z"/>
	<path d="M380.074,333.309c22.408,0,40.639-18.23,40.639-40.639c0-22.407-18.23-40.638-40.639-40.638s-40.639,18.23-40.639,40.638
		C339.435,315.078,357.666,333.309,380.074,333.309z M380.074,260.532c17.722,0,32.139,14.417,32.139,32.138
		c0,17.722-14.417,32.139-32.139,32.139c-17.722,0-32.139-14.417-32.139-32.139C347.935,274.949,362.353,260.532,380.074,260.532z"
		/>
	<path d="M484.25,151.906H375.744v-72.59c0-7.857-6.393-14.25-14.25-14.25H137.006c-7.857,0-14.25,6.393-14.25,14.25v72.59H14.25
		c-7.857,0-14.25,6.393-14.25,14.25v253.027c0,7.858,6.393,14.25,14.25,14.25h470c7.857,0,14.25-6.392,14.25-14.25V166.156
		C498.5,158.299,492.107,151.906,484.25,151.906z M131.256,79.316c0-3.171,2.579-5.75,5.75-5.75h224.488
		c3.171,0,5.75,2.579,5.75,5.75v72.59h-16.821v-49.498c0-6.716-5.463-12.179-12.178-12.179H160.256
		c-6.715,0-12.179,5.463-12.179,12.179v49.498h-16.821V79.316z M341.923,151.906H156.577v-49.498c0-2.028,1.65-3.679,3.679-3.679
		h177.989c2.028,0,3.678,1.65,3.678,3.679V151.906z M484.25,424.934h-470c-3.17,0-5.75-2.579-5.75-5.75v-8.99h102.241
		c2.347,0,4.25-1.902,4.25-4.25c0-2.348-1.903-4.25-4.25-4.25H8.5V188.598h198.237c2.347,0,4.25-1.902,4.25-4.25
		c0-2.348-1.903-4.25-4.25-4.25H8.5v-13.941c0-3.171,2.58-5.75,5.75-5.75h470c3.171,0,5.75,2.579,5.75,5.75v223.662H296.897
		c-2.348,0-4.25,1.902-4.25,4.25c0,2.348,1.902,4.25,4.25,4.25H490v20.865C490,422.354,487.421,424.934,484.25,424.934z"/>
	<path d="M198.103,341.321h101.994c1.414,0,2.656-0.697,3.43-1.759c15.811,25.716,44.207,42.901,76.545,42.901
		c49.513,0,89.795-40.281,89.795-89.793c0-49.513-40.282-89.794-89.795-89.794c-46.867,0-85.456,36.096-89.445,81.946h-82.756
		c-3.989-45.851-42.579-81.946-89.447-81.946c-49.512,0-89.793,40.281-89.793,89.793c0,49.513,40.281,89.794,89.793,89.794
		c32.253,0,60.583-17.095,76.419-42.696C195.623,340.709,196.786,341.321,198.103,341.321z M198.724,332.821
		c5.978-11.906,9.384-25.315,9.485-39.498h82.08c0.102,14.183,3.507,27.592,9.484,39.498H198.724z M380.072,211.377
		c44.826,0,81.295,36.469,81.295,81.294s-36.469,81.293-81.295,81.293c-44.824,0-81.292-36.468-81.292-81.293
		S335.248,211.377,380.072,211.377z M118.424,373.964c-44.825,0-81.293-36.469-81.293-81.294s36.468-81.293,81.293-81.293
		c44.826,0,81.294,36.468,81.294,81.293S163.249,373.964,118.424,373.964z"/>
	<path d="M268.6,389.818h-71.996c-2.347,0-4.25,1.902-4.25,4.25c0,2.348,1.903,4.25,4.25,4.25H268.6c2.348,0,4.25-1.902,4.25-4.25
		C272.85,391.721,270.947,389.818,268.6,389.818z"/>
	<path d="M264.1,188.597h131.994c2.348,0,4.25-1.902,4.25-4.25c0-2.348-1.902-4.25-4.25-4.25H264.1c-2.348,0-4.25,1.902-4.25,4.25
		C259.85,186.694,261.752,188.597,264.1,188.597z"/>
</g>
<g>
</g>
<g>
</g>
<g>
</g>
<g>
</g>
<g>
</g>
<g>
</g>
<g>
</g>
<g>
</g>
<g>
</g>
<g>
</g>
<g>
</g>
<g>
</g>
<g>
</g>
<g>
</g>
<g>
</g>
</svg>
