<?xml version="1.0" encoding="iso-8859-1"?>
<!-- Generator: Adobe Illustrator 18.0.0, SVG Export Plug-In . SVG Version: 6.00 Build 0)  -->
<!DOCTYPE svg PUBLIC "-//W3C//DTD SVG 1.1//EN" "http://www.w3.org/Graphics/SVG/1.1/DTD/svg11.dtd">
<svg version="1.1" id="Capa_1" xmlns="http://www.w3.org/2000/svg" xmlns:xlink="http://www.w3.org/1999/xlink" x="0px" y="0px"
	 viewBox="0 0 498.5 498.5" style="enable-background:new 0 0 498.5 498.5;" xml:space="preserve">
<g>
	<path d="M408.734,0H89.766c-7.857,0-14.25,6.393-14.25,14.25v470c0,7.857,6.393,14.25,14.25,14.25h318.969
		c7.857,0,14.25-6.393,14.25-14.25v-470C422.984,6.393,416.592,0,408.734,0z M408.734,490H89.766c-3.17,0-5.75-2.579-5.75-5.75
		V249.5h90.724c2.348,0,4.25-1.902,4.25-4.25s-1.902-4.25-4.25-4.25H84.016v-22.5h54.724c2.348,0,4.25-1.902,4.25-4.25
		s-1.902-4.25-4.25-4.25H84.016V14.25c0-3.171,2.58-5.75,5.75-5.75h318.969c3.17,0,5.75,2.579,5.75,5.75V199h-70.745
		c-2.347,0-4.25,1.902-4.25,4.25s1.903,4.25,4.25,4.25h70.745V274h-49.745c-2.347,0-4.25,1.902-4.25,4.25s1.903,4.25,4.25,4.25
		h49.745v201.75C414.484,487.421,411.904,490,408.734,490z"/>
	<path d="M250.882,241.973c-64.373,0-116.744,52.371-116.744,116.744s52.371,116.744,116.744,116.744
		c64.373,0,116.744-52.371,116.744-116.744S315.255,241.973,250.882,241.973z M250.882,466.961
		c-59.686,0-108.244-48.558-108.244-108.244s48.559-108.244,108.244-108.244c59.687,0,108.244,48.558,108.244,108.244
		S310.568,466.961,250.882,466.961z"/>
	<path d="M250.882,319.219c-21.779,0-39.498,17.719-39.498,39.498s17.719,39.498,39.498,39.498s39.498-17.719,39.498-39.498
		S272.661,319.219,250.882,319.219z M250.882,389.715c-17.092,0-30.998-13.905-30.998-30.998s13.906-30.998,30.998-30.998
		c17.093,0,30.998,13.905,30.998,30.998S267.975,389.715,250.882,389.715z"/>
	<path d="M250.882,216.747c46.045,0,83.504-37.46,83.504-83.505c0-46.044-37.459-83.503-83.504-83.503
		c-46.044,0.001-83.503,37.461-83.503,83.504C167.379,179.287,204.838,216.747,250.882,216.747z M250.882,58.239
		c41.357,0,75.004,33.646,75.004,75.003c0,41.357-33.646,75.005-75.004,75.005c-41.356,0-75.003-33.646-75.003-75.004
		C175.879,91.887,209.525,58.24,250.882,58.239z"/>
	<path d="M250.882,162.326c16.036,0,29.083-13.047,29.083-29.084c0-16.036-13.047-29.082-29.083-29.082
		c-16.036,0-29.082,13.047-29.082,29.083C221.8,149.279,234.846,162.326,250.882,162.326z M250.882,112.66
		c11.35,0,20.583,9.233,20.583,20.582c0,11.35-9.233,20.584-20.583,20.584c-11.349,0-20.582-9.233-20.582-20.583
		C230.3,121.894,239.533,112.66,250.882,112.66z"/>
	<path d="M118.514,21.483c-11.647,0-21.124,9.477-21.124,21.124c0,11.648,9.477,21.124,21.124,21.124
		c11.648,0,21.124-9.476,21.124-21.124C139.638,30.96,130.162,21.483,118.514,21.483z M118.514,55.231
		c-6.961,0-12.624-5.663-12.624-12.624c0-6.961,5.663-12.624,12.624-12.624c6.961,0,12.624,5.663,12.624,12.624
		C131.138,49.568,125.475,55.231,118.514,55.231z"/>
	<path d="M378.001,63.731c11.647,0,21.124-9.476,21.124-21.124c0-11.647-9.477-21.124-21.124-21.124
		c-11.648,0-21.124,9.477-21.124,21.124C356.877,54.255,366.353,63.731,378.001,63.731z M378.001,29.983
		c6.961,0,12.624,5.663,12.624,12.624c0,6.961-5.663,12.624-12.624,12.624c-6.961,0-12.624-5.663-12.624-12.624
		C365.377,35.646,371.04,29.983,378.001,29.983z"/>
	<path d="M118.514,433.963c-11.647,0-21.124,9.477-21.124,21.124c0,11.647,9.477,21.124,21.124,21.124
		c11.648,0,21.124-9.477,21.124-21.124C139.638,443.44,130.162,433.963,118.514,433.963z M118.514,467.711
		c-6.961,0-12.624-5.663-12.624-12.624c0-6.961,5.663-12.624,12.624-12.624c6.961,0,12.624,5.663,12.624,12.624
		C131.138,462.048,125.475,467.711,118.514,467.711z"/>
	<path d="M378.001,433.963c-11.648,0-21.124,9.477-21.124,21.124c0,11.647,9.476,21.124,21.124,21.124
		c11.647,0,21.124-9.477,21.124-21.124C399.125,443.44,389.648,433.963,378.001,433.963z M378.001,467.711
		c-6.961,0-12.624-5.663-12.624-12.624c0-6.961,5.663-12.624,12.624-12.624c6.961,0,12.624,5.663,12.624,12.624
		C390.625,462.048,384.962,467.711,378.001,467.711z"/>
</g>
<g>
</g>
<g>
</g>
<g>
</g>
<g>
</g>
<g>
</g>
<g>
</g>
<g>
</g>
<g>
</g>
<g>
</g>
<g>
</g>
<g>
</g>
<g>
</g>
<g>
</g>
<g>
</g>
<g>
</g>
</svg>
