<?xml version="1.0" encoding="iso-8859-1"?>
<!-- Generator: Adobe Illustrator 18.0.0, SVG Export Plug-In . SVG Version: 6.00 Build 0)  -->
<!DOCTYPE svg PUBLIC "-//W3C//DTD SVG 1.1//EN" "http://www.w3.org/Graphics/SVG/1.1/DTD/svg11.dtd">
<svg version="1.1" id="Capa_1" xmlns="http://www.w3.org/2000/svg" xmlns:xlink="http://www.w3.org/1999/xlink" x="0px" y="0px"
	 viewBox="0 0 479.148 479.148" style="enable-background:new 0 0 479.148 479.148;" xml:space="preserve">
<path d="M464.898,325.345h-38.074v-42.771c0-2.348-1.902-4.25-4.25-4.25h-178.75v-73.5h60.75c7.857,0,14.25-6.393,14.25-14.25v-130
	c0-7.857-6.393-14.25-14.25-14.25h-130c-7.857,0-14.25,6.393-14.25,14.25v130c0,7.857,6.393,14.25,14.25,14.25h60.75v73.5H56.574
	c-2.348,0-4.25,1.902-4.25,4.25v42.771H14.25c-7.857,0-14.25,6.393-14.25,14.25v78.979c0,7.857,6.393,14.25,14.25,14.25h84.648
	c7.857,0,14.25-6.393,14.25-14.25v-78.979c0-7.857-6.393-14.25-14.25-14.25H60.824v-38.521h174.5v38.521H197.25
	c-7.857,0-14.25,6.393-14.25,14.25v78.979c0,7.857,6.393,14.25,14.25,14.25h84.648c7.857,0,14.25-6.393,14.25-14.25v-78.979
	c0-7.857-6.393-14.25-14.25-14.25h-38.074v-38.521h174.5v38.521H380.25c-7.857,0-14.25,6.393-14.25,14.25v78.979
	c0,7.857,6.393,14.25,14.25,14.25h84.648c7.857,0,14.25-6.393,14.25-14.25v-78.979C479.148,331.737,472.756,325.345,464.898,325.345
	z M168.824,190.574V91.881H276.61c2.348,0,4.25-1.902,4.25-4.25c0-2.348-1.902-4.25-4.25-4.25H168.824V60.574
	c0-3.171,2.579-5.75,5.75-5.75h130c3.171,0,5.75,2.579,5.75,5.75v103.803h-92.211c-2.348,0-4.25,1.902-4.25,4.25
	c0,2.348,1.902,4.25,4.25,4.25h92.211v17.697c0,3.171-2.579,5.75-5.75,5.75h-130C171.403,196.324,168.824,193.745,168.824,190.574z
	 M104.648,339.595v36.272H39.622c-2.348,0-4.25,1.902-4.25,4.25c0,2.348,1.902,4.25,4.25,4.25h65.026v34.208
	c0,3.171-2.579,5.75-5.75,5.75H14.25c-3.171,0-5.75-2.579-5.75-5.75v-7.209h55.121c2.348,0,4.25-1.902,4.25-4.25
	c0-2.348-1.902-4.25-4.25-4.25H8.5v-63.271c0-3.171,2.579-5.75,5.75-5.75h84.648C102.069,333.845,104.648,336.424,104.648,339.595z
	 M287.648,339.595v78.979c0,3.171-2.579,5.75-5.75,5.75H197.25c-3.171,0-5.75-2.579-5.75-5.75v-14.709h73.11
	c2.348,0,4.25-1.902,4.25-4.25c0-2.348-1.902-4.25-4.25-4.25H191.5v-19.999h38.612c2.348,0,4.25-1.902,4.25-4.25
	c0-2.348-1.902-4.25-4.25-4.25H191.5v-27.272c0-3.171,2.579-5.75,5.75-5.75h84.648C285.069,333.845,287.648,336.424,287.648,339.595
	z M464.898,424.324H380.25c-3.171,0-5.75-2.579-5.75-5.75v-78.979c0-3.171,2.579-5.75,5.75-5.75h84.648
	c3.171,0,5.75,2.579,5.75,5.75v12.272h-66.545c-2.348,0-4.25,1.902-4.25,4.25c0,2.348,1.902,4.25,4.25,4.25h66.545v15.499h-39.546
	c-2.348,0-4.25,1.902-4.25,4.25c0,2.348,1.902,4.25,4.25,4.25h39.546v34.208C470.648,421.745,468.069,424.324,464.898,424.324z"/>
<g>
</g>
<g>
</g>
<g>
</g>
<g>
</g>
<g>
</g>
<g>
</g>
<g>
</g>
<g>
</g>
<g>
</g>
<g>
</g>
<g>
</g>
<g>
</g>
<g>
</g>
<g>
</g>
<g>
</g>
</svg>
