<?xml version="1.0" encoding="iso-8859-1"?>
<!-- Generator: Adobe Illustrator 18.0.0, SVG Export Plug-In . SVG Version: 6.00 Build 0)  -->
<!DOCTYPE svg PUBLIC "-//W3C//DTD SVG 1.1//EN" "http://www.w3.org/Graphics/SVG/1.1/DTD/svg11.dtd">
<svg version="1.1" id="Capa_1" xmlns="http://www.w3.org/2000/svg" xmlns:xlink="http://www.w3.org/1999/xlink" x="0px" y="0px"
	 viewBox="0 0 488.998 488.998" style="enable-background:new 0 0 488.998 488.998;" xml:space="preserve">
<g>
	<path d="M222.479,313.878h-21.405v-21.404c0-12.099-9.843-21.941-21.942-21.941h-4.423c-12.099,0-21.942,9.843-21.942,21.941
		v21.404h-21.404c-12.099,0-21.942,9.844-21.942,21.943v4.424c0,12.099,9.843,21.941,21.942,21.941h21.404v21.404
		c0,12.1,9.843,21.943,21.942,21.943h4.423c12.099,0,21.942-9.844,21.942-21.943v-21.404h21.405
		c12.099,0,21.942-9.843,21.942-21.941v-4.424C244.422,323.722,234.578,313.878,222.479,313.878z M235.922,340.245
		c0,7.411-6.03,13.441-13.442,13.441h-25.655c-2.347,0-4.25,1.902-4.25,4.25v25.654c0,7.413-6.03,13.443-13.442,13.443h-4.423
		c-7.412,0-13.442-6.03-13.442-13.443v-25.654c0-2.348-1.903-4.25-4.25-4.25h-25.654c-7.412,0-13.442-6.03-13.442-13.441v-4.424
		c0-7.413,6.03-13.443,13.442-13.443h25.654c2.347,0,4.25-1.902,4.25-4.25v-25.654c0-7.411,6.03-13.441,13.442-13.441h4.423
		c7.412,0,13.442,6.03,13.442,13.441v25.654c0,2.348,1.903,4.25,4.25,4.25h25.655c7.412,0,13.442,6.03,13.442,13.443V340.245z"/>
	<path d="M326.355,257.061c-18.887,0-34.25,15.364-34.25,34.25c0,18.886,15.363,34.25,34.25,34.25
		c18.885,0,34.25-15.364,34.25-34.25C360.605,272.426,345.239,257.061,326.355,257.061z M326.355,317.061
		c-14.199,0-25.75-11.552-25.75-25.75c0-14.198,11.551-25.75,25.75-25.75c14.197,0,25.75,11.552,25.75,25.75
		C352.105,305.51,340.552,317.061,326.355,317.061z"/>
	<path d="M326.355,357.061c-18.887,0-34.25,15.364-34.25,34.25c0,18.886,15.363,34.25,34.25,34.25
		c18.885,0,34.25-15.364,34.25-34.25C360.605,372.426,345.239,357.061,326.355,357.061z M326.355,417.061
		c-14.199,0-25.75-11.552-25.75-25.75c0-14.198,11.551-25.75,25.75-25.75c14.197,0,25.75,11.552,25.75,25.75
		C352.105,405.51,340.552,417.061,326.355,417.061z"/>
	<path d="M361.499,42.018h-234c-2.347,0-4.25,1.902-4.25,4.25v174c0,2.348,1.903,4.25,4.25,4.25h234c2.348,0,4.25-1.902,4.25-4.25
		v-174C365.749,43.92,363.847,42.018,361.499,42.018z M131.749,216.018v-29.5h124.16c2.348,0,4.25-1.902,4.25-4.25
		c0-2.348-1.902-4.25-4.25-4.25h-124.16v-127.5h225.5v17.5H217.851c-2.347,0-4.25,1.902-4.25,4.25c0,2.348,1.903,4.25,4.25,4.25
		h139.398v19.5h-37.397c-2.348,0-4.25,1.902-4.25,4.25c0,2.348,1.902,4.25,4.25,4.25h37.397v111.5H131.749z"/>
	<path d="M373.978,0H115.021C96.749,0,81.884,14.865,81.884,33.138v422.722c0,18.272,14.866,33.139,33.138,33.139l258.956-0.001
		c18.272,0,33.137-14.865,33.137-33.138V33.137C407.114,14.865,392.249,0,373.978,0z M398.614,455.859
		c0,13.585-11.053,24.638-24.637,24.638l-258.956,0.001c-10.54,0-19.551-6.654-23.063-15.98h83.058c2.347,0,4.25-1.902,4.25-4.25
		c0-2.348-1.903-4.25-4.25-4.25H90.387c0-0.053-0.004-0.105-0.004-0.158v-17.342h180.633c2.348,0,4.25-1.902,4.25-4.25
		c0-2.348-1.902-4.25-4.25-4.25H90.384V33.138c0-13.585,11.052-24.638,24.638-24.638h258.956c13.584,0,24.637,11.052,24.637,24.637
		V455.859z"/>
</g>
<g>
</g>
<g>
</g>
<g>
</g>
<g>
</g>
<g>
</g>
<g>
</g>
<g>
</g>
<g>
</g>
<g>
</g>
<g>
</g>
<g>
</g>
<g>
</g>
<g>
</g>
<g>
</g>
<g>
</g>
</svg>
