<?xml version="1.0" encoding="iso-8859-1"?>
<!-- Generator: Adobe Illustrator 18.0.0, SVG Export Plug-In . SVG Version: 6.00 Build 0)  -->
<!DOCTYPE svg PUBLIC "-//W3C//DTD SVG 1.1//EN" "http://www.w3.org/Graphics/SVG/1.1/DTD/svg11.dtd">
<svg version="1.1" id="Capa_1" xmlns="http://www.w3.org/2000/svg" xmlns:xlink="http://www.w3.org/1999/xlink" x="0px" y="0px"
	 viewBox="0 0 477.428 477.428" style="enable-background:new 0 0 477.428 477.428;" xml:space="preserve">
<g>
	<path d="M473.32,350.337L374.716,193.79c-5.081-8.068-14.318-15.213-24.297-19.563c10.308-4.078,20.113-10.827,25.813-18.453
		l95.185-127.336c5.153-6.896,6.486-13.698,3.752-19.156c-2.734-5.458-8.982-8.464-17.59-8.464H19.849
		c-8.608,0-14.855,3.006-17.59,8.464S0.858,21.543,6.011,28.439l95.184,127.336c5.7,7.626,15.506,14.375,25.815,18.453
		c-9.979,4.351-19.215,11.495-24.297,19.563L4.11,350.337c-2.882,4.575-4.257,9.081-4.098,13.189v82.833
		c0,16.68,13.57,30.25,30.25,30.25h416.9c16.68,0,30.25-13.57,30.25-30.25v-82.771C477.59,359.464,476.217,354.936,473.32,350.337z
		 M146.166,169.805c-12.939,0-30.416-8.756-38.162-19.12l-7.5-10.033h143.308c2.348,0,4.25-1.902,4.25-4.25
		c0-2.348-1.902-4.25-4.25-4.25H94.15l-71.386-95.5h109.047c2.348,0,4.25-1.902,4.25-4.25s-1.902-4.25-4.25-4.25H16.41l-3.59-4.803
		c-3.037-4.063-4.144-7.897-2.961-10.259c1.184-2.361,4.918-3.771,9.99-3.771h437.73c5.072,0,8.807,1.41,9.99,3.771
		c1.183,2.361,0.076,6.196-2.961,10.259l-95.185,127.336c-7.746,10.364-25.223,19.12-38.162,19.12H146.166
		C146.167,169.805,146.167,169.805,146.166,169.805L146.166,169.805z M245.811,286.651h142.23l6.957,12.167H136.478
		c-2.348,0-4.25,1.902-4.25,4.25c0,2.348,1.902,4.25,4.25,4.25h263.38l7.85,13.73c2.61,4.566,3.153,8.83,1.489,11.698
		s-5.635,4.514-10.896,4.514L79.128,337.26c-5.261,0-9.231-1.645-10.896-4.514c-1.664-2.868-1.121-7.132,1.489-11.698
		l69.929-122.313c6.332-11.074,22.458-20.431,35.215-20.431h127.699c12.757,0,28.883,9.357,35.215,20.431l45.403,79.416H245.811
		c-2.348,0-4.25,1.902-4.25,4.25C241.561,284.749,243.464,286.651,245.811,286.651z M11.301,354.867l98.604-156.547
		c6.835-10.85,23.44-20.016,36.262-20.016h2.383c-6.843,4.343-12.733,10.013-16.278,16.212L62.342,316.829
		c-4.216,7.374-4.735,14.542-1.463,20.183c3.272,5.642,9.753,8.748,18.248,8.748l319.174,0.001c8.495,0,14.976-3.107,18.248-8.748
		c3.272-5.641,2.753-12.809-1.463-20.183l-69.929-122.314c-3.545-6.199-9.436-11.869-16.278-16.212h2.385
		c12.821,0,29.427,9.166,36.261,20.015l98.604,156.547c2.782,4.419,3.521,8.508,2.023,11.219c-1.496,2.712-5.35,4.267-10.571,4.267
		l-437.732,0.001c-5.222,0-9.075-1.555-10.571-4.266C7.781,363.375,8.518,359.286,11.301,354.867z M447.163,468.109h-416.9
		c-11.993,0-21.75-9.757-21.75-21.75v-5.041h159.966c2.348,0,4.25-1.902,4.25-4.25c0-2.348-1.902-4.25-4.25-4.25H8.512v-56.351
		c3.103,1.56,6.932,2.385,11.336,2.385l437.732-0.001c4.402,0,8.229-0.824,11.332-2.383v69.891
		C468.913,458.353,459.156,468.109,447.163,468.109z"/>
	<path d="M239.811,28.151h-42c-2.348,0-4.25,1.902-4.25,4.25s1.902,4.25,4.25,4.25h42c2.348,0,4.25-1.902,4.25-4.25
		S242.159,28.151,239.811,28.151z"/>
	<path d="M271.811,432.818h-75.333c-2.348,0-4.25,1.902-4.25,4.25c0,2.348,1.902,4.25,4.25,4.25h75.333
		c2.348,0,4.25-1.902,4.25-4.25C276.061,434.721,274.159,432.818,271.811,432.818z"/>
	<path d="M425.811,402.149c-10.063,0-18.25,8.187-18.25,18.25c0,10.063,8.187,18.25,18.25,18.25c10.063,0,18.25-8.187,18.25-18.25
		C444.061,410.336,435.875,402.149,425.811,402.149z M425.811,430.149c-5.376,0-9.75-4.374-9.75-9.75c0-5.376,4.374-9.75,9.75-9.75
		c5.376,0,9.75,4.374,9.75,9.75C435.561,425.775,431.187,430.149,425.811,430.149z"/>
	<path d="M383.811,402.149c-10.063,0-18.25,8.187-18.25,18.25c0,10.063,8.187,18.25,18.25,18.25c10.063,0,18.25-8.187,18.25-18.25
		C402.061,410.336,393.875,402.149,383.811,402.149z M383.811,430.149c-5.376,0-9.75-4.374-9.75-9.75c0-5.376,4.374-9.75,9.75-9.75
		c5.376,0,9.75,4.374,9.75,9.75C393.561,425.775,389.187,430.149,383.811,430.149z"/>
</g>
<g>
</g>
<g>
</g>
<g>
</g>
<g>
</g>
<g>
</g>
<g>
</g>
<g>
</g>
<g>
</g>
<g>
</g>
<g>
</g>
<g>
</g>
<g>
</g>
<g>
</g>
<g>
</g>
<g>
</g>
</svg>
