<?xml version="1.0" encoding="iso-8859-1"?>
<!-- Generator: Adobe Illustrator 18.0.0, SVG Export Plug-In . SVG Version: 6.00 Build 0)  -->
<!DOCTYPE svg PUBLIC "-//W3C//DTD SVG 1.1//EN" "http://www.w3.org/Graphics/SVG/1.1/DTD/svg11.dtd">
<svg version="1.1" id="Capa_1" xmlns="http://www.w3.org/2000/svg" xmlns:xlink="http://www.w3.org/1999/xlink" x="0px" y="0px"
	 viewBox="0 0 482.104 482.104" style="enable-background:new 0 0 482.104 482.104;" xml:space="preserve">
<g>
	<path d="M339.766,210.624c0-39.311-31.982-71.293-71.293-71.293s-71.294,31.982-71.294,71.293
		c0,39.311,31.982,71.293,71.294,71.293h0.001C307.784,281.917,339.766,249.935,339.766,210.624z M268.474,273.417L268.474,273.417
		c-34.625,0-62.795-28.169-62.795-62.793s28.169-62.793,62.794-62.793s62.793,28.169,62.793,62.793S303.098,273.417,268.474,273.417
		z"/>
	<path d="M268.473,170.634c-22.051,0-39.99,17.939-39.99,39.99s17.939,39.99,39.99,39.99c22.05,0,39.989-17.939,39.989-39.99
		S290.523,170.634,268.473,170.634z M268.473,242.113c-17.364,0-31.49-14.126-31.49-31.49s14.126-31.49,31.49-31.49
		c17.363,0,31.489,14.127,31.489,31.49S285.836,242.113,268.473,242.113z"/>
	<path d="M270.139,309.636h-2.508c-6.953,0-12.61,5.657-12.61,12.611v78.59c0,6.954,5.657,12.61,12.61,12.61h2.508
		c6.954,0,12.61-5.657,12.61-12.61v-78.59C282.75,315.293,277.093,309.636,270.139,309.636z M274.25,400.836
		c0,2.267-1.844,4.11-4.11,4.11h-2.508c-2.267,0-4.11-1.844-4.11-4.11v-78.59c0-2.267,1.844-4.111,4.11-4.111h2.508
		c2.267,0,4.11,1.844,4.11,4.111V400.836z"/>
	<path d="M264.633,0c-40.688,0-83.564,16.563-120.732,46.636c-37.997,30.746-65.613,72.506-77.76,117.587
		c-1.477,5.48-0.731,11.208,2.1,16.128c2.831,4.919,7.409,8.442,12.89,9.919c11.314,3.045,22.998-3.679,26.046-14.99
		c9.835-36.499,32.371-70.452,63.458-95.607C199.832,56.05,234.092,42.5,264.633,42.5c60.417,0,109.571,49.153,109.571,109.57
		c0,18.06-4.6,35.995-13.13,51.901c0.583-23.448-7.279-45.32-22.55-62.278c-16.986-18.863-40.975-29.251-67.548-29.251h-5.006
		c-26.573,0-50.562,10.388-67.548,29.25c-16.986,18.862-24.812,43.805-22.037,70.233l18.015,171.581
		c5.708,54.366,38.937,98.596,74.073,98.596c35.137,0,68.366-44.23,74.074-98.596l11.893-113.27
		c4.145-0.674,8.902-2.401,12.142-5.33c31.854-28.796,50.123-69.924,50.123-112.838C416.703,68.218,348.485,0,264.633,0z
		 M310.275,447.488c-12.409,16.841-27.255,26.116-41.803,26.116c-13.92,0-28.107-8.512-40.178-23.999h51.484
		c2.347,0,4.25-1.903,4.25-4.25c0-2.347-1.903-4.25-4.25-4.25h-57.449c-10.358-16.438-17.21-36.899-19.477-58.485l-6.353-60.509
		h15.782c2.347,0,4.25-1.903,4.25-4.25c0-2.347-1.903-4.25-4.25-4.25h-16.675l-1.942-18.499h35.116c2.347,0,4.25-1.903,4.25-4.25
		c0-2.347-1.903-4.25-4.25-4.25h-36.009l-7.934-75.573c-2.52-24.001,4.548-46.609,19.9-63.658
		c15.353-17.049,37.099-26.438,61.232-26.438h5.006c24.133,0,45.879,9.39,61.232,26.439c15.353,17.049,22.42,39.656,19.901,63.657
		l-9.51,90.572h-32.822c-2.347,0-4.25,1.903-4.25,4.25c0,2.347,1.903,4.25,4.25,4.25h31.929l-7.613,72.508
		C331.523,407.094,323.064,430.131,310.275,447.488z M360.88,258.603c-1.32,1.194-3.395,2.133-5.506,2.73l4.093-38.981
		c14.983-20.252,23.237-45.154,23.237-70.281C382.703,86.966,329.737,34,264.633,34c-32.452,0-68.661,14.239-99.344,39.067
		c-32.469,26.272-56.021,61.787-66.318,100.002c-1.829,6.788-8.842,10.823-15.628,8.994c-3.289-0.886-6.035-3-7.734-5.952
		c-1.699-2.952-2.146-6.388-1.26-9.676c11.685-43.365,38.285-83.564,74.899-113.192C184.907,24.39,225.885,8.5,264.633,8.5
		c79.165,0,143.571,64.405,143.571,143.57C408.203,192.586,390.955,231.416,360.88,258.603z"/>
</g>
<g>
</g>
<g>
</g>
<g>
</g>
<g>
</g>
<g>
</g>
<g>
</g>
<g>
</g>
<g>
</g>
<g>
</g>
<g>
</g>
<g>
</g>
<g>
</g>
<g>
</g>
<g>
</g>
<g>
</g>
</svg>
