<?xml version="1.0" encoding="iso-8859-1"?>
<!-- Generator: Adobe Illustrator 18.0.0, SVG Export Plug-In . SVG Version: 6.00 Build 0)  -->
<!DOCTYPE svg PUBLIC "-//W3C//DTD SVG 1.1//EN" "http://www.w3.org/Graphics/SVG/1.1/DTD/svg11.dtd">
<svg version="1.1" id="Capa_1" xmlns="http://www.w3.org/2000/svg" xmlns:xlink="http://www.w3.org/1999/xlink" x="0px" y="0px"
	 viewBox="0 0 492.239 492.239" style="enable-background:new 0 0 492.239 492.239;" xml:space="preserve">
<g>
	<path d="M183.963,171.987c1.088,0,2.176-0.415,3.006-1.245l32.277-32.278c1.66-1.66,1.66-4.351,0-6.011
		c-1.66-1.659-4.352-1.659-6.01,0l-32.277,32.278c-1.66,1.66-1.66,4.351,0,6.011C181.79,171.572,182.876,171.987,183.963,171.987z"
		/>
	<path d="M183.963,214.775c1.088,0,2.176-0.415,3.006-1.245l75.066-75.067c1.66-1.66,1.66-4.351,0-6.011
		c-1.658-1.659-4.352-1.659-6.01,0l-75.067,75.067c-1.66,1.66-1.66,4.351,0,6.011C181.788,214.36,182.876,214.775,183.963,214.775z"
		/>
	<path d="M249.663,320.329c62.219,0,112.838-50.619,112.838-112.839c0-62.22-50.619-112.839-112.838-112.839
		c-62.221,0-112.84,50.619-112.84,112.839C136.823,269.71,187.442,320.329,249.663,320.329z M249.663,103.151
		C307.194,103.151,354,149.958,354,207.49s-46.807,104.339-104.338,104.339c-57.533,0-104.34-46.806-104.34-104.339
		S192.129,103.151,249.663,103.151z"/>
	<path d="M412.93,27.24H151.559V14.25c0-7.857-6.393-14.25-14.25-14.25h-36c-7.857,0-14.25,6.393-14.25,14.25v12.99h-7.75
		c-18.885,0-34.25,15.365-34.25,34.25v348.695c0,18.886,15.365,34.25,34.25,34.25h13.209v43.554c0,2.347,1.902,4.25,4.25,4.25
		h298.705c2.348,0,4.25-1.903,4.25-4.25v-43.554h13.207c18.885,0,34.25-15.364,34.25-34.25V61.49
		C447.18,42.605,431.815,27.24,412.93,27.24z M95.559,14.25c0-3.17,2.58-5.75,5.75-5.75h36c3.172,0,5.75,2.58,5.75,5.75v12.99h-47.5
		V14.25z M391.223,483.739H101.018V375.533h23.299v82.247c0,2.347,1.902,4.25,4.25,4.25h235.105c2.348,0,4.25-1.903,4.25-4.25
		v-82.247h23.301V483.739z M132.817,375.533h226.605v77.997H132.817V375.533z M412.93,435.935h-13.207v-64.652
		c0-2.347-1.902-4.25-4.25-4.25H96.768c-2.348,0-4.25,1.903-4.25,4.25v64.652H79.309c-14.197,0-25.75-11.551-25.75-25.75V353.83
		h23.75c2.348,0,4.25-1.903,4.25-4.25c0-2.347-1.902-4.25-4.25-4.25h-23.75v-24.626h76.371c2.348,0,4.25-1.903,4.25-4.25
		c0-2.347-1.902-4.25-4.25-4.25H53.559V168.83h43.326c2.348,0,4.25-1.903,4.25-4.25c0-2.347-1.902-4.25-4.25-4.25H53.559v-20.5
		h61.047c-10.244,20.367-16.025,43.35-16.025,67.66c0,83.306,67.775,151.081,151.082,151.081c83.307,0,151.08-67.775,151.08-151.082
		c0-83.306-67.773-151.08-151.08-151.08c-55.551,0-104.186,30.14-130.434,74.92h-65.67V61.49c0-14.198,11.553-25.75,25.75-25.75
		h0.75v70.84c0,2.347,1.902,4.25,4.25,4.25c2.348,0,4.25-1.903,4.25-4.25V35.74H412.93c14.197,0,25.75,11.552,25.75,25.75v69.84
		h-47.018c-2.348,0-4.25,1.903-4.25,4.25c0,2.347,1.902,4.25,4.25,4.25h47.018v172.374h-51.018c-2.348,0-4.25,1.903-4.25,4.25
		c0,2.347,1.902,4.25,4.25,4.25h51.018v89.48C438.68,424.384,427.127,435.935,412.93,435.935z M249.663,64.91
		c78.619,0,142.58,63.961,142.58,142.58c0,78.619-63.961,142.581-142.58,142.582c-78.619,0-142.582-63.961-142.582-142.581
		C107.08,128.871,171.043,64.91,249.663,64.91z"/>
</g>
<g>
</g>
<g>
</g>
<g>
</g>
<g>
</g>
<g>
</g>
<g>
</g>
<g>
</g>
<g>
</g>
<g>
</g>
<g>
</g>
<g>
</g>
<g>
</g>
<g>
</g>
<g>
</g>
<g>
</g>
</svg>
