<?xml version="1.0" encoding="iso-8859-1"?>
<!-- Generator: Adobe Illustrator 18.0.0, SVG Export Plug-In . SVG Version: 6.00 Build 0)  -->
<!DOCTYPE svg PUBLIC "-//W3C//DTD SVG 1.1//EN" "http://www.w3.org/Graphics/SVG/1.1/DTD/svg11.dtd">
<svg version="1.1" id="Capa_1" xmlns="http://www.w3.org/2000/svg" xmlns:xlink="http://www.w3.org/1999/xlink" x="0px" y="0px"
	 viewBox="0 0 490.387 490.387" style="enable-background:new 0 0 490.387 490.387;" xml:space="preserve">
<g>
	<path d="M459.272,97.846h-1.484V82.858c0-8.952-7.284-16.235-16.236-16.235h-43.149c-8.953,0-16.236,7.283-16.236,16.235v14.987
		h-52.805V81.221c0-15.17-12.342-27.512-27.512-27.512h-83.742c-15.17,0-27.512,12.342-27.512,27.512v16.625H31.114
		C13.958,97.846,0,111.805,0,128.962v276.6c0,17.157,13.958,31.115,31.114,31.115h428.158c17.156,0,31.114-13.958,31.114-31.115
		v-276.6C490.387,111.805,476.429,97.846,459.272,97.846z M390.666,82.858c0-4.266,3.471-7.735,7.736-7.735h43.149
		c4.266,0,7.736,3.47,7.736,7.735v14.987h-58.622V82.858z M459.272,428.178H31.114c-12.47,0-22.614-10.146-22.614-22.615v-276.6
		c0-12.471,10.145-22.616,22.614-22.616h163.731c2.348,0,4.25-1.902,4.25-4.25V81.221c0-10.483,8.529-19.012,19.012-19.012h83.742
		c10.483,0,19.012,8.528,19.012,19.012v20.875c0,2.348,1.903,4.25,4.25,4.25h134.161c12.47,0,22.614,10.146,22.614,22.616v0.983
		h-48.732c-2.348,0-4.25,1.902-4.25,4.25c0,2.347,1.902,4.25,4.25,4.25h48.732v256.986h-104.23c-2.347,0-4.25,1.903-4.25,4.25
		c0,2.348,1.903,4.25,4.25,4.25h104.23v1.631C481.887,418.032,471.742,428.178,459.272,428.178z"/>
	<path d="M342.522,162.256H40.271c-2.347,0-4.25,1.902-4.25,4.25v228.203c0,2.347,1.903,4.25,4.25,4.25h302.251
		c2.348,0,4.25-1.903,4.25-4.25V166.506C346.772,164.158,344.869,162.256,342.522,162.256z M44.521,390.459V211.941h94.649
		c2.347,0,4.25-1.903,4.25-4.25c0-2.348-1.903-4.25-4.25-4.25H44.521v-32.685h293.751v179.678H228.799
		c-2.348,0-4.25,1.903-4.25,4.25c0,2.348,1.902,4.25,4.25,4.25h109.473v31.525H44.521z"/>
	<path d="M395.891,325.104v13.13c0,8.953,7.284,16.236,16.236,16.236h2.996c8.953,0,16.236-7.283,16.236-16.236v-13.13h13.13
		c8.953,0,16.236-7.283,16.236-16.235v-2.997c0-8.952-7.283-16.235-16.236-16.235h-13.13v-13.13c0-8.953-7.283-16.236-16.236-16.236
		h-2.996c-8.952,0-16.236,7.283-16.236,16.236v13.13h-13.13c-8.952,0-16.235,7.283-16.235,16.235v2.997
		c0,8.952,7.283,16.235,16.235,16.235H395.891z M375.025,308.868v-2.997c0-4.266,3.47-7.735,7.735-7.735h17.38
		c2.348,0,4.25-1.903,4.25-4.25v-17.38c0-4.266,3.471-7.736,7.736-7.736h2.996c4.266,0,7.736,3.471,7.736,7.736v17.38
		c0,2.347,1.903,4.25,4.25,4.25h17.38c4.266,0,7.736,3.47,7.736,7.735v2.997c0,4.266-3.471,7.735-7.736,7.735h-17.38
		c-2.347,0-4.25,1.903-4.25,4.25v17.38c0,4.266-3.471,7.736-7.736,7.736h-2.996c-4.266,0-7.736-3.471-7.736-7.736v-17.38
		c0-2.347-1.902-4.25-4.25-4.25h-17.38C378.495,316.604,375.025,313.134,375.025,308.868z"/>
	<path d="M413.626,180.089c9.198,0,16.682-7.483,16.682-16.683c0-9.197-7.484-16.681-16.683-16.681
		c-9.198,0-16.682,7.483-16.682,16.681C396.943,172.605,404.427,180.089,413.626,180.089z M413.625,155.226
		c4.512,0,8.183,3.67,8.183,8.181c0,4.512-3.671,8.183-8.182,8.183c-4.512,0-8.183-3.671-8.183-8.183
		C405.443,158.895,409.113,155.226,413.625,155.226z"/>
	<path d="M413.626,228.089c9.198,0,16.682-7.483,16.682-16.683c0-9.197-7.484-16.681-16.683-16.681
		c-9.198,0-16.682,7.483-16.682,16.681C396.943,220.605,404.427,228.089,413.626,228.089z M413.625,203.226
		c4.512,0,8.183,3.67,8.183,8.181c0,4.512-3.671,8.183-8.182,8.183c-4.512,0-8.183-3.671-8.183-8.183
		C405.443,206.895,409.113,203.226,413.625,203.226z"/>
</g>
<g>
</g>
<g>
</g>
<g>
</g>
<g>
</g>
<g>
</g>
<g>
</g>
<g>
</g>
<g>
</g>
<g>
</g>
<g>
</g>
<g>
</g>
<g>
</g>
<g>
</g>
<g>
</g>
<g>
</g>
</svg>
