<?xml version="1.0" encoding="iso-8859-1"?>
<!-- Generator: Adobe Illustrator 18.0.0, SVG Export Plug-In . SVG Version: 6.00 Build 0)  -->
<!DOCTYPE svg PUBLIC "-//W3C//DTD SVG 1.1//EN" "http://www.w3.org/Graphics/SVG/1.1/DTD/svg11.dtd">
<svg version="1.1" id="Capa_1" xmlns="http://www.w3.org/2000/svg" xmlns:xlink="http://www.w3.org/1999/xlink" x="0px" y="0px"
	 viewBox="0 0 498.5 498.5" style="enable-background:new 0 0 498.5 498.5;" xml:space="preserve">
<g>
	<path d="M235.284,227.367c1.088,0,2.175-0.415,3.005-1.245l32.277-32.278c1.66-1.66,1.66-4.351,0-6.011
		c-1.66-1.659-4.351-1.659-6.011,0l-32.277,32.278c-1.66,1.66-1.66,4.351,0,6.011C233.109,226.952,234.196,227.367,235.284,227.367z
		"/>
	<path d="M307.345,187.833L232.279,262.9c-1.66,1.66-1.66,4.351,0,6.011c0.83,0.83,1.917,1.245,3.005,1.245
		c1.088,0,2.175-0.415,3.005-1.245l75.066-75.067c1.66-1.66,1.66-4.351,0-6.011C311.695,186.174,309.005,186.174,307.345,187.833z"
		/>
	<path d="M300.982,111.79c-83.306,0-151.081,67.774-151.081,151.08c0,83.306,67.774,151.081,151.081,151.081
		c83.307-0.001,151.081-67.775,151.081-151.082C452.063,179.564,384.289,111.79,300.982,111.79z M300.982,405.451
		c-78.619,0-142.581-63.962-142.581-142.581c0-78.619,63.961-142.58,142.581-142.58c78.62,0,142.581,63.961,142.581,142.58
		C443.563,341.489,379.602,405.451,300.982,405.451z"/>
	<path d="M300.982,150.031c-62.22,0-112.839,50.619-112.839,112.839s50.62,112.839,112.839,112.839S413.821,325.09,413.821,262.87
		S363.202,150.031,300.982,150.031z M300.982,367.209c-57.533,0-104.339-46.806-104.339-104.339s46.807-104.339,104.339-104.339
		s104.339,46.806,104.339,104.339S358.515,367.209,300.982,367.209z"/>
	<path d="M464.25,82.62H152.5V69.629c0-7.857-6.393-14.25-14.25-14.25h-3c-7.857,0-14.25,6.393-14.25,14.25V82.62h-14.5V69.629
		c0-7.857-6.393-14.25-14.25-14.25h-36c-7.857,0-14.25,6.393-14.25,14.25V82.62h-7.75C15.364,82.62,0,97.984,0,116.87v292
		c0,18.886,15.364,34.25,34.25,34.25h430c18.886,0,34.25-15.364,34.25-34.25v-292C498.5,97.984,483.136,82.62,464.25,82.62z
		 M129.5,69.629c0-3.17,2.58-5.75,5.75-5.75h3c3.17,0,5.75,2.58,5.75,5.75V82.62h-14.5V69.629z M50.5,69.629
		c0-3.17,2.58-5.75,5.75-5.75h36c3.17,0,5.75,2.58,5.75,5.75V82.62H50.5V69.629z M464.25,434.621h-430
		c-14.085,0-25.558-11.369-25.741-25.411H32.25c2.347,0,4.25-1.903,4.25-4.25c0-2.347-1.903-4.25-4.25-4.25H8.5v-24.625h172.75
		c2.347,0,4.25-1.903,4.25-4.25c0-2.347-1.903-4.25-4.25-4.25H43.5V257.96c0-2.347-1.903-4.25-4.25-4.25
		c-2.347,0-4.25,1.903-4.25,4.25v109.625H8.5V224.21h58.75c2.347,0,4.25-1.903,4.25-4.25c0-2.347-1.903-4.25-4.25-4.25H8.5v-20.5
		h115.75c2.347,0,4.25-1.903,4.25-4.25c0-2.347-1.903-4.25-4.25-4.25H8.5v-69.84c0-14.199,11.551-25.75,25.75-25.75H35v70.84
		c0,2.347,1.903,4.25,4.25,4.25c2.347,0,4.25-1.903,4.25-4.25V91.12h420.75c14.199,0,25.75,11.551,25.75,25.75v69.84h-47.018
		c-2.347,0-4.25,1.903-4.25,4.25c0,2.347,1.903,4.25,4.25,4.25H490v20.5h-23.75c-2.347,0-4.25,1.903-4.25,4.25
		c0,2.347,1.903,4.25,4.25,4.25H490v143.375h-51.018c-2.347,0-4.25,1.903-4.25,4.25c0,2.347,1.903,4.25,4.25,4.25H490v32.786
		C490,423.069,478.449,434.621,464.25,434.621z"/>
</g>
<g>
</g>
<g>
</g>
<g>
</g>
<g>
</g>
<g>
</g>
<g>
</g>
<g>
</g>
<g>
</g>
<g>
</g>
<g>
</g>
<g>
</g>
<g>
</g>
<g>
</g>
<g>
</g>
<g>
</g>
</svg>
