<?xml version="1.0" encoding="iso-8859-1"?>
<!-- Generator: Adobe Illustrator 18.0.0, SVG Export Plug-In . SVG Version: 6.00 Build 0)  -->
<!DOCTYPE svg PUBLIC "-//W3C//DTD SVG 1.1//EN" "http://www.w3.org/Graphics/SVG/1.1/DTD/svg11.dtd">
<svg version="1.1" id="Capa_1" xmlns="http://www.w3.org/2000/svg" xmlns:xlink="http://www.w3.org/1999/xlink" x="0px" y="0px"
	 viewBox="0 0 495.5 495.5" style="enable-background:new 0 0 495.5 495.5;" xml:space="preserve">
<g>
	<path d="M481.25,151.938c7.857,0,14.25-6.393,14.25-14.25v-25.875c0-7.857-6.393-14.25-14.25-14.25h-43.419V77.14
		c0-5.832-4.745-10.578-10.578-10.578h-35.007c-5.832,0-10.578,4.745-10.578,10.578v20.422H113.831V77.14
		c0-5.832-4.745-10.578-10.578-10.578H68.247c-5.833,0-10.578,4.745-10.578,10.578v20.422H14.25c-7.857,0-14.25,6.393-14.25,14.25
		v25.875c0,7.857,6.393,14.25,14.25,14.25H15v222.625h-0.75c-7.857,0-14.25,6.393-14.25,14.25v25.875
		c0,7.857,6.393,14.25,14.25,14.25h467c7.857,0,14.25-6.393,14.25-14.25v-25.875c0-7.857-6.393-14.25-14.25-14.25h-0.75V151.938
		H481.25z M390.169,77.14c0-1.146,0.932-2.078,2.078-2.078h35.007c1.146,0,2.078,0.932,2.078,2.078v20.422h-39.162V77.14z
		 M66.169,77.14c0-1.146,0.932-2.078,2.078-2.078h35.007c1.146,0,2.078,0.932,2.078,2.078v20.422H66.169V77.14z M8.5,137.688
		v-25.875c0-3.17,2.58-5.75,5.75-5.75h467c3.17,0,5.75,2.58,5.75,5.75v25.875c0,3.17-2.58,5.75-5.75,5.75h-467
		C11.08,143.438,8.5,140.858,8.5,137.688z M487,388.813v8.205H260.866c-2.347,0-4.25,1.903-4.25,4.25s1.903,4.25,4.25,4.25H487v9.17
		c0,3.17-2.58,5.75-5.75,5.75h-467c-3.17,0-5.75-2.58-5.75-5.75v-25.875c0-3.17,2.58-5.75,5.75-5.75h467
		C484.42,383.063,487,385.642,487,388.813z M472,374.563H23.5v-45.401h67.874c2.347,0,4.25-1.903,4.25-4.25
		c0-2.347-1.903-4.25-4.25-4.25H23.5V176.169h174.369c2.347,0,4.25-1.903,4.25-4.25c0-2.347-1.903-4.25-4.25-4.25H23.5v-15.731H472
		V374.563z"/>
	<path d="M148.25,246.563h-99c-7.857,0-14.25,6.393-14.25,14.25v2c0,7.857,6.393,14.25,14.25,14.25h99
		c7.857,0,14.25-6.393,14.25-14.25v-2C162.5,252.955,156.107,246.563,148.25,246.563z M154,262.813c0,3.17-2.58,5.75-5.75,5.75h-99
		c-3.17,0-5.75-2.58-5.75-5.75v-2c0-3.17,2.58-5.75,5.75-5.75h99c3.17,0,5.75,2.58,5.75,5.75V262.813z"/>
	<path d="M334.25,277.063h34.25v34.25c0,7.857,6.393,14.25,14.25,14.25h2c7.857,0,14.25-6.393,14.25-14.25v-34.25h34.25
		c7.857,0,14.25-6.393,14.25-14.25v-2c0-7.857-6.393-14.25-14.25-14.25H399v-34.25c0-7.857-6.393-14.25-14.25-14.25h-2
		c-7.857,0-14.25,6.393-14.25,14.25v34.25h-34.25c-7.857,0-14.25,6.393-14.25,14.25v2C320,270.67,326.393,277.063,334.25,277.063z
		 M328.5,260.813c0-3.17,2.58-5.75,5.75-5.75h38.5c2.347,0,4.25-1.903,4.25-4.25v-38.5c0-3.17,2.58-5.75,5.75-5.75h2
		c3.17,0,5.75,2.58,5.75,5.75v38.5c0,2.347,1.903,4.25,4.25,4.25h38.5c3.17,0,5.75,2.58,5.75,5.75v2c0,3.17-2.58,5.75-5.75,5.75
		h-38.5c-2.347,0-4.25,1.903-4.25,4.25v38.5c0,3.17-2.58,5.75-5.75,5.75h-2c-3.17,0-5.75-2.58-5.75-5.75v-38.5
		c0-2.347-1.903-4.25-4.25-4.25h-38.5c-3.17,0-5.75-2.58-5.75-5.75V260.813z"/>
</g>
<g>
</g>
<g>
</g>
<g>
</g>
<g>
</g>
<g>
</g>
<g>
</g>
<g>
</g>
<g>
</g>
<g>
</g>
<g>
</g>
<g>
</g>
<g>
</g>
<g>
</g>
<g>
</g>
<g>
</g>
</svg>
