<?xml version="1.0" encoding="iso-8859-1"?>
<!-- Generator: Adobe Illustrator 18.0.0, SVG Export Plug-In . SVG Version: 6.00 Build 0)  -->
<!DOCTYPE svg PUBLIC "-//W3C//DTD SVG 1.1//EN" "http://www.w3.org/Graphics/SVG/1.1/DTD/svg11.dtd">
<svg version="1.1" id="Capa_1" xmlns="http://www.w3.org/2000/svg" xmlns:xlink="http://www.w3.org/1999/xlink" x="0px" y="0px"
	 viewBox="0 0 488.708 488.708" style="enable-background:new 0 0 488.708 488.708;" xml:space="preserve">
<g>
	<path d="M141.48,163.863c0.829,0.824,1.913,1.236,2.996,1.236c1.092,0,2.183-0.418,3.014-1.253
		c1.655-1.665,1.648-4.355-0.017-6.011c-32.564-32.379-32.716-85.215-0.339-117.779c1.655-1.664,1.647-4.355-0.017-6.01
		c-1.664-1.654-4.356-1.648-6.01,0.018C105.425,69.952,105.593,128.179,141.48,163.863z"/>
	<path d="M177.288,132.097c1.092,0,2.184-0.418,3.014-1.254c1.655-1.664,1.647-4.356-0.018-6.01
		c-6.962-6.921-10.81-16.137-10.838-25.951c-0.028-9.814,3.768-19.054,10.689-26.014c1.655-1.665,1.648-4.355-0.017-6.011
		c-1.664-1.654-4.355-1.647-6.01,0.017c-8.522,8.571-13.196,19.947-13.162,32.032c0.035,12.085,4.774,23.434,13.345,31.954
		C175.12,131.685,176.204,132.097,177.288,132.097z"/>
	<path d="M114.135,7.246c1.655-1.664,1.647-4.355-0.018-6.01c-1.664-1.654-4.355-1.647-6.011,0.018
		c-53.771,54.085-53.518,141.835,0.563,195.607c0.829,0.824,1.913,1.236,2.997,1.236c1.092,0,2.183-0.418,3.014-1.254
		c1.655-1.664,1.647-4.355-0.017-6.01C63.905,140.365,63.667,58.008,114.135,7.246z"/>
	<path d="M343.672,164.796c1.07,0,2.143-0.402,2.969-1.209c36.206-35.357,36.896-93.58,1.538-129.788
		c-1.639-1.678-4.329-1.711-6.01-0.071c-1.679,1.641-1.711,4.331-0.071,6.011c32.083,32.854,31.457,85.685-1.396,117.767
		c-1.679,1.641-1.711,4.331-0.071,6.011C341.463,164.368,342.567,164.796,343.672,164.796z"/>
	<path d="M308.117,130.224c0.832,0.853,1.936,1.28,3.041,1.28c1.071,0,2.143-0.402,2.969-1.21
		c8.647-8.444,13.488-19.751,13.631-31.835c0.144-12.084-4.428-23.501-12.873-32.147c-1.64-1.679-4.33-1.711-6.01-0.07
		c-1.679,1.64-1.711,4.33-0.071,6.01c6.858,7.021,10.571,16.294,10.454,26.107c-0.116,9.814-4.048,18.996-11.071,25.855
		C306.508,125.854,306.476,128.545,308.117,130.224z"/>
	<path d="M381.471,1.286c-1.638-1.678-4.33-1.71-6.01-0.071c-1.679,1.641-1.711,4.331-0.071,6.011
		c50.01,51.212,49.034,133.564-2.176,183.574c-1.679,1.641-1.711,4.331-0.071,6.011c0.833,0.852,1.936,1.28,3.041,1.28
		c1.07,0,2.142-0.402,2.969-1.209C433.717,143.595,434.756,55.851,381.471,1.286z"/>
	<path d="M248.604,72.883c0-2.348-1.903-4.25-4.25-4.25c-15.458,0-28.034,12.576-28.034,28.034c0,2.348,1.903,4.25,4.25,4.25
		s4.25-1.902,4.25-4.25c0-10.771,8.763-19.534,19.534-19.534C246.701,77.133,248.604,75.231,248.604,72.883z"/>
	<path d="M266.071,132.513c12.103-7.359,20.205-20.675,20.205-35.846c0-23.116-18.806-41.922-41.921-41.922
		c-23.115,0-41.921,18.806-41.921,41.922c0,15.213,8.146,28.557,20.304,35.903L124.445,483.31c-0.633,2.26,0.685,4.605,2.945,5.239
		c0.384,0.107,0.77,0.158,1.149,0.158c0.931,0,1.823-0.309,2.549-0.852l113.189-84.842l113.346,84.845
		c0.725,0.542,1.616,0.85,2.545,0.85c0.379,0,0.765-0.051,1.148-0.158c2.26-0.633,3.58-2.979,2.947-5.238L266.071,132.513z
		 M222.33,165.522l16.273,16.274l-28.946,28.945L222.33,165.522z M278.974,210.146l-28.35-28.35l15.95-15.95L278.974,210.146z
		 M311.935,327.898l-61.372-60.025l35.04-34.045L311.935,327.898z M282.145,225.338l-37.661,36.59l-37.406-36.586l37.536-37.535
		L282.145,225.338z M203.276,233.512l35.111,34.341l-61.472,59.726L203.276,233.512z M244.465,273.798l68.563,67.06l-68.754,51.536
		l-68.837-51.528L244.465,273.798z M210.933,96.668c0-18.429,14.993-33.422,33.421-33.422c18.429,0,33.421,14.993,33.421,33.422
		s-14.993,33.421-33.421,33.421C225.926,130.089,210.933,115.096,210.933,96.668z M244.354,138.589c4.88,0,9.564-0.847,13.923-2.386
		l5.669,20.252l-19.332,19.331l-19.653-19.653l5.576-19.895C234.867,137.754,239.514,138.589,244.354,138.589z M136.009,473.546
		l35.113-125.294l66.066,49.454L136.009,473.546z M317.581,348.067l35.127,125.494l-101.343-75.86L317.581,348.067z"/>
</g>
<g>
</g>
<g>
</g>
<g>
</g>
<g>
</g>
<g>
</g>
<g>
</g>
<g>
</g>
<g>
</g>
<g>
</g>
<g>
</g>
<g>
</g>
<g>
</g>
<g>
</g>
<g>
</g>
<g>
</g>
</svg>
