<?xml version="1.0" encoding="iso-8859-1"?>
<!-- Generator: Adobe Illustrator 18.0.0, SVG Export Plug-In . SVG Version: 6.00 Build 0)  -->
<!DOCTYPE svg PUBLIC "-//W3C//DTD SVG 1.1//EN" "http://www.w3.org/Graphics/SVG/1.1/DTD/svg11.dtd">
<svg version="1.1" id="Capa_1" xmlns="http://www.w3.org/2000/svg" xmlns:xlink="http://www.w3.org/1999/xlink" x="0px" y="0px"
	 viewBox="0 0 489.711 489.711" style="enable-background:new 0 0 489.711 489.711;" xml:space="preserve">
<g>
	<path d="M87.466,342.14c-11.866,0-23.023,4.621-31.415,13.013c-1.66,1.66-1.66,4.351,0,6.011c0.829,0.83,1.917,1.245,3.005,1.245
		c1.088,0,2.176-0.415,3.005-1.245c6.787-6.787,15.81-10.524,25.405-10.524c9.597,0,18.619,3.737,25.405,10.523
		c1.658,1.659,4.352,1.659,6.01,0c1.66-1.66,1.66-4.351,0-6.011C110.49,346.761,99.333,342.14,87.466,342.14z"/>
	<path d="M488.466,396.717L349.98,258.231c-0.797-0.797-1.878-1.245-3.005-1.245c-1.127,0-2.208,0.448-3.005,1.245l-30.361,30.362
		l-4.834-4.833l41.67-41.67c11.536-11.535,17.889-26.871,17.889-43.184c0-16.312-6.353-31.648-17.889-43.184l-16.066-16.067
		c-11.534-11.535-26.87-17.887-43.183-17.887s-31.648,6.353-43.183,17.887l-41.671,41.671l-5.226-5.225l30.361-30.361
		c0.798-0.797,1.245-1.879,1.245-3.005c0-1.127-0.447-2.208-1.245-3.005L92.994,1.245c-1.66-1.659-4.352-1.659-6.01,0L1.245,86.983
		C0.448,87.781,0,88.862,0,89.989s0.448,2.208,1.245,3.005L139.73,231.479c0.83,0.83,1.917,1.245,3.005,1.245
		c1.088,0,2.176-0.415,3.005-1.245l30.362-30.362l5.225,5.225l-81.85,81.849c-0.797,0.797-1.245,1.878-1.245,3.005
		c0,1.127,0.448,2.208,1.245,3.005l33.978,33.977l-9.449,9.448c-10.494-7.869-23.188-12.129-36.539-12.129
		c-16.313,0-31.648,6.353-43.185,17.888l-10.539,10.54c-1.659,1.66-1.659,4.351,0.001,6.01l38.296,38.296l-24.826,24.826
		c-0.018,0.018-0.036,0.035-0.054,0.052c-5.466,5.467-5.467,14.364,0.001,19.833c2.648,2.649,6.171,4.107,9.916,4.107
		c3.746,0,7.268-1.459,9.915-4.107l24.88-24.879l38.296,38.296c0.829,0.83,1.917,1.245,3.005,1.245c1.088,0,2.176-0.415,3.005-1.245
		l10.54-10.54c11.535-11.535,17.888-26.872,17.888-43.184c0-13.351-4.261-26.044-12.13-36.539l9.449-9.449l33.977,33.977
		c0.829,0.83,1.917,1.245,3.005,1.245c1.088,0,2.176-0.415,3.005-1.245l81.849-81.849l4.833,4.833l-30.36,30.361
		c-1.66,1.66-1.66,4.351,0,6.011l138.485,138.485c0.797,0.797,1.878,1.245,3.005,1.245c1.127,0,2.208-0.448,3.005-1.245
		l61.314-61.315c0.128-0.102,0.262-0.192,0.381-0.311c0.119-0.119,0.21-0.253,0.311-0.381l23.732-23.732
		C490.126,401.068,490.126,398.377,488.466,396.717z M142.734,222.463L10.261,89.989l25.2-25.2l27.937,27.937
		c0.83,0.83,1.917,1.245,3.005,1.245c1.088,0,2.176-0.415,3.005-1.245c1.66-1.66,1.66-4.351,0-6.011L41.471,58.778l24.441-24.44
		l96.614,96.614c0.829,0.83,1.917,1.245,3.005,1.245c1.088,0,2.176-0.415,3.005-1.245c1.66-1.66,1.66-4.351,0-6.011L71.921,28.328
		L89.989,10.26l132.474,132.475L142.734,222.463z M182.111,195.107l12.996-12.996l5.225,5.225l-12.995,12.995L182.111,195.107z
		 M60.98,436.933c-1.043,1.043-2.429,1.617-3.904,1.617c-1.476,0-2.862-0.575-3.905-1.618c-2.142-2.143-2.154-5.624-0.033-7.78
		c0.016-0.015,0.03-0.029,0.045-0.044l24.867-24.866l7.811,7.811L60.98,436.933z M140.707,439.809l-7.535,7.535l-90.414-90.413
		l7.534-7.535c9.93-9.93,23.132-15.398,37.174-15.398c14.042,0,27.243,5.468,37.173,15.397l16.068,16.068
		c9.93,9.929,15.397,23.131,15.397,37.173C156.105,416.678,150.637,429.88,140.707,439.809z M146.903,359.648
		c-0.063-0.064-0.123-0.132-0.187-0.196l-16.068-16.068c-0.063-0.064-0.131-0.123-0.194-0.185l9.01-9.01l16.45,16.449
		L146.903,359.648z M198.906,381.609l-12.665-12.665l22.677-22.677c1.66-1.66,1.66-4.351,0-6.011c-1.658-1.659-4.352-1.659-6.01,0
		l-22.677,22.678l-47.54-47.539l36.931-36.932c1.66-1.66,1.66-4.351,0-6.011c-1.66-1.659-4.352-1.659-6.01,0l-36.931,36.932
		l-18.189-18.189l145.531-145.53c4.911-4.911,10.624-8.725,16.841-11.332l15.434,15.433L180.564,255.5
		c-1.66,1.66-1.66,4.351,0,6.011c0.829,0.83,1.917,1.245,3.005,1.245c1.088,0,2.176-0.415,3.005-1.245l105.734-105.734
		l36.292,36.291c0.829,0.83,1.917,1.245,3.005,1.245s2.176-0.415,3.005-1.245c1.66-1.66,1.66-4.351,0-6.011l-54.593-54.591
		c3.634-0.783,7.373-1.198,11.179-1.198c14.042,0,27.243,5.468,37.173,15.398l16.066,16.067c9.93,9.93,15.398,23.131,15.398,37.173
		c0,14.042-5.469,27.244-15.398,37.173L198.906,381.609z M289.771,302.766l12.994-12.995l4.834,4.833l-12.995,12.996
		L289.771,302.766z M461.383,417.789l-96.58-96.581c-1.66-1.659-4.352-1.659-6.01,0c-1.66,1.66-1.66,4.351,0,6.011l96.58,96.58
		l-42.582,42.582l-26.783-26.782c-1.66-1.659-4.352-1.659-6.01,0c-1.66,1.66-1.66,4.351,0,6.011l26.783,26.782l-7.059,7.059
		L267.248,346.975l20.016-20.016l30.537,30.537c0.829,0.83,1.917,1.245,3.005,1.245s2.176-0.415,3.005-1.245
		c1.66-1.66,1.66-4.351,0-6.011l-30.536-30.536l53.701-53.702L479.45,399.722L461.383,417.789z"/>
	<path d="M95.322,112.632c-1.658-1.659-4.352-1.659-6.01,0c-1.66,1.66-1.66,4.351,0,6.011l29.803,29.803
		c0.829,0.83,1.917,1.245,3.005,1.245c1.088,0,2.176-0.415,3.005-1.245c1.66-1.66,1.66-4.351,0-6.011L95.322,112.632z"/>
</g>
<g>
</g>
<g>
</g>
<g>
</g>
<g>
</g>
<g>
</g>
<g>
</g>
<g>
</g>
<g>
</g>
<g>
</g>
<g>
</g>
<g>
</g>
<g>
</g>
<g>
</g>
<g>
</g>
<g>
</g>
</svg>
