<?xml version="1.0" encoding="iso-8859-1"?>
<!-- Generator: Adobe Illustrator 18.0.0, SVG Export Plug-In . SVG Version: 6.00 Build 0)  -->
<!DOCTYPE svg PUBLIC "-//W3C//DTD SVG 1.1//EN" "http://www.w3.org/Graphics/SVG/1.1/DTD/svg11.dtd">
<svg version="1.1" id="Capa_1" xmlns="http://www.w3.org/2000/svg" xmlns:xlink="http://www.w3.org/1999/xlink" x="0px" y="0px"
	 viewBox="0 0 495.383 495.383" style="enable-background:new 0 0 495.383 495.383;" xml:space="preserve">
<g>
	<path d="M365.258,0H130.124c-17.231,0-31.25,14.019-31.25,31.25v432.883c0,17.231,14.019,31.25,31.25,31.25h235.134
		c17.231,0,31.25-14.019,31.25-31.25V31.25C396.508,14.019,382.49,0,365.258,0z M388.008,464.133c0,12.544-10.206,22.75-22.75,22.75
		H130.124c-12.544,0-22.75-10.206-22.75-22.75V31.25c0-12.544,10.206-22.75,22.75-22.75h235.134c12.544,0,22.75,10.206,22.75,22.75
		V464.133z"/>
	<path d="M360.96,31.063H134.422c-2.347,0-4.25,1.902-4.25,4.25v396.413c0,2.348,1.903,4.25,4.25,4.25H360.96
		c2.347,0,4.25-1.902,4.25-4.25V35.313C365.21,32.965,363.308,31.063,360.96,31.063z M138.672,427.476v-89.802h67.438
		c2.347,0,4.25-1.902,4.25-4.25c0-2.348-1.903-4.25-4.25-4.25h-67.438V39.563H356.71v333.611H201.443c-2.347,0-4.25,1.902-4.25,4.25
		c0,2.348,1.903,4.25,4.25,4.25H356.71v45.802H138.672z"/>
	<path d="M157.702,100.182c1.088,0,2.175-0.415,3.005-1.245l33.996-33.996c1.66-1.659,1.66-4.351,0-6.01
		c-1.66-1.66-4.351-1.66-6.011,0l-33.996,33.996c-1.66,1.659-1.66,4.35,0,6.01C155.527,99.767,156.614,100.182,157.702,100.182z"/>
	<path d="M157.702,145.248c1.087,0,2.175-0.415,3.005-1.245L239.77,64.94c1.66-1.659,1.66-4.351,0-6.01
		c-1.66-1.661-4.351-1.661-6.011,0l-79.063,79.063c-1.66,1.659-1.66,4.351,0,6.01C155.527,144.833,156.614,145.248,157.702,145.248z
		"/>
	<path d="M284.835,58.931c-1.66-1.66-4.35-1.66-6.011,0L154.697,183.06c-1.66,1.659-1.66,4.351,0,6.01
		c0.83,0.83,1.918,1.245,3.005,1.245c1.088,0,2.175-0.415,3.005-1.245L284.835,64.94C286.495,63.281,286.495,60.59,284.835,58.931z"
		/>
</g>
<g>
</g>
<g>
</g>
<g>
</g>
<g>
</g>
<g>
</g>
<g>
</g>
<g>
</g>
<g>
</g>
<g>
</g>
<g>
</g>
<g>
</g>
<g>
</g>
<g>
</g>
<g>
</g>
<g>
</g>
</svg>
