<?xml version="1.0" encoding="iso-8859-1"?>
<!-- Generator: Adobe Illustrator 18.0.0, SVG Export Plug-In . SVG Version: 6.00 Build 0)  -->
<!DOCTYPE svg PUBLIC "-//W3C//DTD SVG 1.1//EN" "http://www.w3.org/Graphics/SVG/1.1/DTD/svg11.dtd">
<svg version="1.1" id="Capa_1" xmlns="http://www.w3.org/2000/svg" xmlns:xlink="http://www.w3.org/1999/xlink" x="0px" y="0px"
	 viewBox="0 0 493.738 493.738" style="enable-background:new 0 0 493.738 493.738;" xml:space="preserve">
<g>
	<path d="M491.596,187.598L434.294,10.496C432.264,4.218,426.469,0,419.873,0c-1.583,0-3.154,0.249-4.67,0.739l-39.907,12.912
		c-6.654,2.153-10.787,8.502-10.458,15.177l-166.314,79.218c-2.263-1.319-4.877-2.066-7.636-2.066c-1.583,0-3.154,0.249-4.67,0.74
		l-21.277,6.884c-7.38,2.388-11.673,9.937-10.196,17.37L33.777,188.755c-2.233-1.274-4.803-1.996-7.513-1.996
		c-1.582,0-3.152,0.249-4.669,0.739l-9.689,3.134c-3.853,1.246-6.99,3.918-8.833,7.524c-1.843,3.606-2.172,7.713-0.926,11.567
		l22.504,69.549c2.031,6.278,7.827,10.496,14.423,10.496c1.582,0,3.153-0.249,4.669-0.739l9.686-3.135
		c3.853-1.246,6.989-3.918,8.833-7.525c0.099-0.194,0.177-0.395,0.267-0.592l84.827-15.475L55.692,487.887
		c-0.884,2.175,0.163,4.654,2.338,5.538c0.523,0.213,1.065,0.313,1.598,0.313c1.679,0,3.269-1,3.939-2.651l93.699-230.592
		l37.191-6.785c2.446,5.351,7.771,8.843,13.767,8.844h0.001c1.582,0,3.153-0.249,4.669-0.739l8.486-2.746v230.418
		c0,2.347,1.902,4.25,4.25,4.25c2.348,0,4.25-1.903,4.25-4.25V256.319l4.289-1.388c3.854-1.247,6.991-3.919,8.834-7.525
		c0.127-0.248,0.229-0.504,0.341-0.756l37.679-6.908c0.001,0.002,0.001,0.004,0.002,0.007l101.729,251.333
		c0.669,1.653,2.261,2.656,3.94,2.656c0.531,0,1.071-0.1,1.594-0.311c2.176-0.88,3.226-3.358,2.345-5.534L289.56,238.177
		l134.992-24.749c2.744,4.242,7.472,6.911,12.711,6.912h0.001c1.582,0,3.152-0.249,4.668-0.739l39.907-12.912
		C489.791,204.114,494.168,195.55,491.596,187.598z M244.409,237.813c-0.121-0.662-0.27-1.322-0.48-1.973l-38.621-119.365
		c-0.211-0.653-0.473-1.278-0.762-1.884l162.441-77.373l54.404,168.146L244.409,237.813z M63.694,268.926
		c-0.123-0.712-0.279-1.422-0.506-2.121l-22.502-69.55c-0.224-0.691-0.501-1.353-0.812-1.992l117.405-56.081l5.924,18.306
		c-0.497,0.043-0.995,0.163-1.471,0.392l-34.005,16.363c-2.115,1.018-3.005,3.558-1.987,5.672c0.732,1.521,2.251,2.408,3.833,2.408
		c0.618,0,1.246-0.135,1.84-0.421l34.005-16.363c0.117-0.056,0.216-0.134,0.325-0.199l25.96,80.233L63.694,268.926z M50.815,277.808
		l-9.688,3.135c-0.669,0.216-1.359,0.326-2.051,0.326c-0.001,0-0.001,0-0.001,0c-2.896,0-5.442-1.854-6.335-4.613l-22.504-69.549
		c-0.548-1.693-0.403-3.498,0.406-5.081c0.81-1.584,2.188-2.758,3.881-3.306l9.689-3.135c0.669-0.216,1.359-0.326,2.052-0.326
		c2.896,0,5.441,1.854,6.334,4.612l22.502,69.549c0.548,1.693,0.403,3.497-0.406,5.082C53.885,276.086,52.507,277.26,50.815,277.808
		z M235.435,243.538c-0.81,1.584-2.188,2.758-3.881,3.306l-21.276,6.884c-0.669,0.216-1.359,0.326-2.052,0.326
		c-2.896,0-5.442-1.854-6.335-4.613L163.27,130.079c-1.13-3.495,0.794-7.258,4.288-8.388l5.076-1.643l21.213,59.977
		c0.621,1.737,2.257,2.82,4.002,2.82c0.476,0,0.958-0.08,1.432-0.249c2.21-0.791,3.36-3.223,2.57-5.433l-21.126-59.732l8.11-2.624
		c0.67-0.217,1.359-0.327,2.053-0.327c2.895,0,5.44,1.854,6.333,4.613l38.62,119.364
		C236.389,240.149,236.244,241.954,235.435,243.538z M479.222,198.6l-12.551,4.061L445.8,144.306
		c-0.79-2.21-3.222-3.359-5.434-2.571c-2.21,0.79-3.36,3.223-2.57,5.433l20.784,58.111l-19.266,6.233
		c-0.669,0.216-1.358,0.326-2.051,0.326c-2.897-0.001-5.442-1.854-6.335-4.612L373.627,30.125c-1.131-3.494,0.792-7.257,4.286-8.387
		L417.82,8.826c0.669-0.216,1.359-0.326,2.053-0.326c2.897,0,5.441,1.853,6.333,4.612l57.302,177.102
		C484.639,193.708,482.716,197.47,479.222,198.6z"/>
	<path d="M372.663,63.825c-1.01-2.12-3.549-3.019-5.664-2.009l-57.487,27.382c-2.119,1.009-3.02,3.545-2.01,5.665
		c0.728,1.529,2.252,2.423,3.84,2.423c0.612,0,1.235-0.133,1.824-0.414l57.487-27.382C372.773,68.48,373.673,65.944,372.663,63.825z
		"/>
	<path d="M289.127,98.907l-32.949,15.694c-2.119,1.009-3.02,3.546-2.01,5.665c0.729,1.529,2.252,2.423,3.84,2.423
		c0.612,0,1.234-0.133,1.824-0.414l32.949-15.694c2.119-1.009,3.02-3.545,2.01-5.664C293.781,98.797,291.246,97.897,289.127,98.907z
		"/>
	<path d="M110.789,181.933l-21.157,10.181c-2.115,1.018-3.005,3.558-1.987,5.672c0.732,1.521,2.251,2.408,3.833,2.408
		c0.618,0,1.246-0.135,1.84-0.421l21.157-10.181c2.115-1.017,3.005-3.558,1.987-5.672
		C115.443,181.805,112.902,180.914,110.789,181.933z"/>
</g>
<g>
</g>
<g>
</g>
<g>
</g>
<g>
</g>
<g>
</g>
<g>
</g>
<g>
</g>
<g>
</g>
<g>
</g>
<g>
</g>
<g>
</g>
<g>
</g>
<g>
</g>
<g>
</g>
<g>
</g>
</svg>
