<?xml version="1.0" encoding="iso-8859-1"?>
<!-- Generator: Adobe Illustrator 18.0.0, SVG Export Plug-In . SVG Version: 6.00 Build 0)  -->
<!DOCTYPE svg PUBLIC "-//W3C//DTD SVG 1.1//EN" "http://www.w3.org/Graphics/SVG/1.1/DTD/svg11.dtd">
<svg version="1.1" id="Capa_1" xmlns="http://www.w3.org/2000/svg" xmlns:xlink="http://www.w3.org/1999/xlink" x="0px" y="0px"
	 viewBox="0 0 495.307 495.307" style="enable-background:new 0 0 495.307 495.307;" xml:space="preserve">
<g>
	<path d="M394.088,0l-292.87,0.001c-22.612,0-41.009,18.396-41.009,41.009v413.288c0,10.914,4.277,21.201,12.043,28.967
		c7.766,7.766,18.053,12.042,28.966,12.042l292.87-0.001c22.612,0,41.009-18.396,41.009-41.009V41.009
		C435.097,18.397,416.701,0,394.088,0z M68.71,45.26l357.888,0V98.35h-95.785c-2.347,0-4.25,1.903-4.25,4.25
		c0,2.347,1.903,4.25,4.25,4.25h95.785v255.766l-175.265,0.001c-2.347,0-4.25,1.903-4.25,4.25c0,2.347,1.903,4.25,4.25,4.25
		l175.265-0.001v24.263l-357.888,0V45.26z M101.218,8.5l292.87,0c16.484,0,30.132,12.336,32.222,28.259l-357.314,0
		C71.086,20.836,84.734,8.5,101.218,8.5z M394.088,486.806l-292.87,0.001c-8.643,0-16.795-3.392-22.955-9.553
		c-6.161-6.16-9.553-14.313-9.553-22.956v-17.611l116.756-0.001c2.347,0,4.25-1.903,4.25-4.25s-1.903-4.25-4.25-4.25L68.71,428.187
		v-24.308l357.888,0v50.418C426.597,472.223,412.014,486.806,394.088,486.806z"/>
	<path d="M247.653,420.109c-13.024,0-23.62,10.597-23.62,23.622c0,13.025,10.596,23.622,23.62,23.622
		c13.026,0,23.623-10.597,23.623-23.623C271.276,430.706,260.679,420.109,247.653,420.109z M247.653,458.853
		c-8.337,0-15.12-6.784-15.12-15.122c0-8.338,6.783-15.122,15.12-15.122c8.339,0,15.123,6.784,15.123,15.121
		C262.776,452.069,255.992,458.853,247.653,458.853z"/>
	<path d="M91.682,101.408c1.088,0,2.175-0.415,3.005-1.245l32.856-32.856c1.66-1.66,1.66-4.351,0-6.011
		c-1.66-1.659-4.351-1.659-6.011,0L88.676,94.152c-1.66,1.66-1.66,4.351,0,6.011C89.506,100.993,90.594,101.408,91.682,101.408z"/>
	<path d="M91.682,144.962c1.088,0,2.175-0.415,3.005-1.245l76.41-76.41c1.66-1.66,1.66-4.351,0-6.011
		c-1.66-1.659-4.351-1.659-6.011,0l-76.41,76.41c-1.66,1.66-1.66,4.351,0,6.011C89.506,144.547,90.594,144.962,91.682,144.962z"/>
	<path d="M214.649,61.296c-1.66-1.659-4.351-1.659-6.011,0L88.676,181.261c-1.66,1.66-1.66,4.351,0,6.011
		c0.83,0.83,1.917,1.245,3.005,1.245c1.088,0,2.175-0.415,3.005-1.245L214.649,67.307C216.309,65.647,216.309,62.956,214.649,61.296
		z"/>
	<path d="M227.489,362.617h-51.661c-2.347,0-4.25,1.903-4.25,4.25c0,2.347,1.903,4.25,4.25,4.25h51.661
		c2.347,0,4.25-1.903,4.25-4.25C231.739,364.52,229.836,362.617,227.489,362.617z"/>
</g>
<g>
</g>
<g>
</g>
<g>
</g>
<g>
</g>
<g>
</g>
<g>
</g>
<g>
</g>
<g>
</g>
<g>
</g>
<g>
</g>
<g>
</g>
<g>
</g>
<g>
</g>
<g>
</g>
<g>
</g>
</svg>
