<?xml version="1.0" encoding="iso-8859-1"?>
<!-- Generator: Adobe Illustrator 18.0.0, SVG Export Plug-In . SVG Version: 6.00 Build 0)  -->
<!DOCTYPE svg PUBLIC "-//W3C//DTD SVG 1.1//EN" "http://www.w3.org/Graphics/SVG/1.1/DTD/svg11.dtd">
<svg version="1.1" id="Capa_1" xmlns="http://www.w3.org/2000/svg" xmlns:xlink="http://www.w3.org/1999/xlink" x="0px" y="0px"
	 viewBox="0 0 486.934 486.934" style="enable-background:new 0 0 486.934 486.934;" xml:space="preserve">
<g>
	<path d="M346.475,128.655h-22.75V17.702C323.723,7.942,315.781,0.001,306.022,0H180.914c-9.76,0.001-17.701,7.942-17.701,17.703
		v110.952h-22.754c-2.346,0-4.25,1.902-4.25,4.25v75.855c0,28.65,11.156,55.584,31.416,75.843
		c15.66,15.659,35.309,25.873,56.654,29.706v168.374c0,2.348,1.902,4.25,4.25,4.25h29.875c2.348,0,4.25-1.902,4.25-4.25v-168.39
		c50.02-9.069,88.07-52.94,88.07-105.533v-75.855C350.725,130.558,348.822,128.655,346.475,128.655z M315.225,17.703v110.952
		h-67.506V8.5h58.301C311.094,8.501,315.223,12.63,315.225,17.703z M171.713,17.704c0-5.074,4.129-9.203,9.203-9.204h58.303v120.155
		h-67.506V17.704z M342.225,137.155v35.179l-197.516,0.001v-6.857l57.174-0.001c2.348,0,4.25-1.903,4.25-4.25
		c0-2.348-1.902-4.25-4.25-4.25l-57.174,0.001v-19.823H342.225z M254.154,478.434h-21.375v-162.94
		c3.527,0.347,7.09,0.522,10.682,0.522c0,0,0.004,0,0.006,0c3.607,0,7.172-0.182,10.688-0.531V478.434z M336.297,242.473
		l-120.98,0.001c-2.348,0-4.25,1.902-4.25,4.25c0,2.348,1.902,4.25,4.25,4.25l117.42-0.001
		c-15.857,33.395-49.908,56.543-89.27,56.543c-0.004,0-0.004,0-0.006,0c-26.377,0-51.176-10.272-69.826-28.923
		c-18.654-18.653-28.926-43.453-28.926-69.832v-4.284l119.354-0.001c2.348,0,4.25-1.902,4.25-4.25c0-2.348-1.902-4.25-4.25-4.25
		l-119.354,0.001v-15.142l197.516-0.001v27.927C342.225,220.595,340.131,231.948,336.297,242.473z"/>
	<path d="M220.018,28.598c-0.797-0.798-1.877-1.245-3.004-1.245l-22.422,0.001c-2.348,0-4.25,1.902-4.25,4.25v45.737
		c0,1.127,0.447,2.208,1.244,3.005c0.797,0.797,1.879,1.245,3.006,1.245h22.42c2.348,0,4.25-1.902,4.25-4.25l0.002-45.738
		C221.264,30.476,220.814,29.395,220.018,28.598z M212.762,73.091h-13.92V35.854l13.922-0.001L212.762,73.091z"/>
	<path d="M269.924,81.591h22.422c2.348,0,4.25-1.902,4.25-4.25V31.603c0-2.348-1.902-4.25-4.25-4.25h-22.422
		c-2.348,0-4.25,1.902-4.25,4.25v45.738C265.674,79.688,267.576,81.591,269.924,81.591z M274.174,35.853h13.922v37.238h-13.922
		V35.853z"/>
</g>
<g>
</g>
<g>
</g>
<g>
</g>
<g>
</g>
<g>
</g>
<g>
</g>
<g>
</g>
<g>
</g>
<g>
</g>
<g>
</g>
<g>
</g>
<g>
</g>
<g>
</g>
<g>
</g>
<g>
</g>
</svg>
