<?xml version="1.0" encoding="iso-8859-1"?>
<!-- Generator: Adobe Illustrator 18.0.0, SVG Export Plug-In . SVG Version: 6.00 Build 0)  -->
<!DOCTYPE svg PUBLIC "-//W3C//DTD SVG 1.1//EN" "http://www.w3.org/Graphics/SVG/1.1/DTD/svg11.dtd">
<svg version="1.1" id="Capa_1" xmlns="http://www.w3.org/2000/svg" xmlns:xlink="http://www.w3.org/1999/xlink" x="0px" y="0px"
	 viewBox="0 0 490.135 490.135" style="enable-background:new 0 0 490.135 490.135;" xml:space="preserve">
<g>
	<path d="M459.565,135.622c7.418,0,13.454-6.036,13.454-13.454V13.454C473.019,6.036,466.983,0,459.565,0H30.569
		c-7.419,0-13.454,6.036-13.454,13.454v108.714c0,7.418,6.035,13.454,13.454,13.454h16.978v21.755H30.569
		c-7.419,0-13.454,6.036-13.454,13.454v108.714c0,7.419,6.035,13.454,13.454,13.454h16.978v21.755H30.569
		c-7.419,0-13.454,6.036-13.454,13.454v108.714c0,7.418,6.035,13.454,13.454,13.454h16.978v35.509c0,2.347,1.903,4.25,4.25,4.25
		h386.539c2.347,0,4.25-1.903,4.25-4.25v-35.51h16.978c7.418,0,13.454-6.035,13.454-13.453V328.208
		c0-7.418-6.036-13.454-13.454-13.454h-16.978v-21.755h16.978c7.418,0,13.454-6.036,13.454-13.454V170.831
		c0-7.419-6.036-13.454-13.454-13.454h-16.978v-21.755H459.565z M25.616,122.168v-25.2h114.648c2.347,0,4.25-1.903,4.25-4.25
		c0-2.347-1.903-4.25-4.25-4.25H25.616V49.914h271.566c2.347,0,4.25-1.903,4.25-4.25c0-2.347-1.903-4.25-4.25-4.25H25.616v-27.96
		c0-2.732,2.222-4.954,4.954-4.954h428.996c2.732,0,4.954,2.222,4.954,4.954v108.714c0,2.732-2.222,4.954-4.954,4.954H30.569
		C27.838,127.122,25.616,124.9,25.616,122.168z M434.087,481.635H56.047v-31.259l378.039-0.001V481.635z M464.519,328.208v108.714
		c0,2.731-2.222,4.953-4.954,4.953l-428.996,0.001c-2.732,0-4.954-2.222-4.954-4.954v-15.98h308.737c2.347,0,4.25-1.903,4.25-4.25
		c0-2.347-1.903-4.25-4.25-4.25H25.616v-20.492h32.623c2.347,0,4.25-1.903,4.25-4.25c0-2.347-1.903-4.25-4.25-4.25H25.616v-55.241
		c0-2.732,2.222-4.954,4.954-4.954h428.996C462.297,323.254,464.519,325.476,464.519,328.208z M434.087,314.754H56.047v-21.755
		h378.039V314.754z M464.519,170.831v108.714c0,2.732-2.222,4.954-4.954,4.954H30.569c-2.732,0-4.954-2.222-4.954-4.954v-74.433
		h114.648c2.347,0,4.25-1.903,4.25-4.25c0-2.347-1.903-4.25-4.25-4.25H25.616v-25.781c0-2.732,2.222-4.954,4.954-4.954h428.996
		C462.297,165.877,464.519,168.099,464.519,170.831z M434.087,157.377H56.047v-21.755h378.039V157.377z"/>
	<path d="M416.825,92.769c13.762,0,24.957-11.196,24.957-24.958c0-13.762-11.196-24.958-24.957-24.958s-24.958,11.196-24.958,24.958
		C391.867,81.572,403.063,92.769,416.825,92.769z M416.825,51.353c9.075,0,16.457,7.383,16.457,16.458s-7.383,16.458-16.457,16.458
		c-9.075,0-16.458-7.383-16.458-16.458S407.749,51.353,416.825,51.353z"/>
	<path d="M416.825,407.522c13.762,0,24.957-11.196,24.957-24.958c0-13.761-11.196-24.957-24.957-24.957
		s-24.958,11.196-24.958,24.957C391.867,396.326,403.063,407.522,416.825,407.522z M416.825,366.107
		c9.075,0,16.457,7.383,16.457,16.457c0,9.075-7.383,16.458-16.457,16.458c-9.075,0-16.458-7.383-16.458-16.458
		C400.367,373.49,407.749,366.107,416.825,366.107z"/>
	<path d="M416.825,250.145c13.762,0,24.957-11.196,24.957-24.958c0-13.761-11.196-24.957-24.957-24.957
		s-24.958,11.196-24.958,24.957C391.867,238.949,403.063,250.145,416.825,250.145z M416.825,208.73
		c9.075,0,16.457,7.383,16.457,16.457c0,9.075-7.383,16.458-16.457,16.458c-9.075,0-16.458-7.383-16.458-16.458
		C400.367,216.113,407.749,208.73,416.825,208.73z"/>
	<path d="M189.962,96.968h70.405c2.347,0,4.25-1.903,4.25-4.25c0-2.347-1.903-4.25-4.25-4.25h-70.405c-2.347,0-4.25,1.903-4.25,4.25
		C185.712,95.065,187.615,96.968,189.962,96.968z"/>
</g>
<g>
</g>
<g>
</g>
<g>
</g>
<g>
</g>
<g>
</g>
<g>
</g>
<g>
</g>
<g>
</g>
<g>
</g>
<g>
</g>
<g>
</g>
<g>
</g>
<g>
</g>
<g>
</g>
<g>
</g>
</svg>
