<?xml version="1.0" encoding="iso-8859-1"?>
<!-- Generator: Adobe Illustrator 18.0.0, SVG Export Plug-In . SVG Version: 6.00 Build 0)  -->
<!DOCTYPE svg PUBLIC "-//W3C//DTD SVG 1.1//EN" "http://www.w3.org/Graphics/SVG/1.1/DTD/svg11.dtd">
<svg version="1.1" id="Capa_1" xmlns="http://www.w3.org/2000/svg" xmlns:xlink="http://www.w3.org/1999/xlink" x="0px" y="0px"
	 viewBox="0 0 489.563 489.563" style="enable-background:new 0 0 489.563 489.563;" xml:space="preserve">
<g>
	<path d="M475.455,0H14.108C6.329,0,0,6.329,0,14.108v461.347c0,7.779,6.329,14.108,14.108,14.108h461.347
		c7.779,0,14.108-6.329,14.108-14.108V14.108C489.563,6.329,483.234,0,475.455,0z M481.063,475.454c0,3.092-2.516,5.608-5.608,5.608
		H14.108c-3.092,0-5.608-2.516-5.608-5.608V14.108c0-3.092,2.516-5.608,5.608-5.608h461.347c3.092,0,5.608,2.516,5.608,5.608
		V475.454z"/>
	<path d="M450.91,25.594H38.653c-7.201,0-13.059,5.858-13.059,13.059V450.91c0,7.201,5.858,13.059,13.059,13.059H450.91
		c7.2,0,13.059-5.858,13.059-13.059V38.653C463.969,31.452,458.11,25.594,450.91,25.594z M455.469,38.653v108.472h-99.156
		c-1.609,0-3.081,0.91-3.802,2.349l-29.489,58.978c-0.974-2.366-2.131-4.637-3.459-6.793V34.094H450.91
		C453.424,34.094,455.469,36.139,455.469,38.653z M237.563,34.094h73.5v157.318c-8.395-7.63-19.539-12.287-31.75-12.287
		c-3.287,0-6.497,0.339-9.597,0.981l-32.153-53.903V34.094z M279.313,187.625c21.367,0,38.75,17.383,38.75,38.75
		c0,21.367-17.383,38.75-38.75,38.75c-21.367,0-38.75-17.383-38.75-38.75C240.563,205.008,257.945,187.625,279.313,187.625z
		 M149.813,116.625c21.367,0,38.75,17.383,38.75,38.75c0,21.367-17.383,38.75-38.75,38.75c-21.367,0-38.75-17.383-38.75-38.75
		C111.063,134.008,128.446,116.625,149.813,116.625z M124.813,357.513c-21.367,0-38.75-17.383-38.75-38.75s17.383-38.75,38.75-38.75
		c21.367,0,38.75,17.383,38.75,38.75S146.179,357.513,124.813,357.513z M392.313,310.125c-21.367,0-38.75-17.383-38.75-38.75
		c0-21.367,17.383-38.75,38.75-38.75c21.367,0,38.75,17.383,38.75,38.75C431.063,292.742,413.68,310.125,392.313,310.125z
		 M384.063,317.889v137.58h-67v-91.833l51.461-51.461C373.246,314.938,378.486,316.902,384.063,317.889z M450.91,455.469h-58.348
		v-136.85c25.938-0.136,47-21.274,47-47.244c0-26.054-21.196-47.25-47.25-47.25c-26.054,0-47.25,21.196-47.25,47.25
		c0,14.294,6.389,27.116,16.451,35.788l-51.706,51.707c-0.797,0.797-1.245,1.878-1.245,3.005v60.845H173.406
		c-2.347,0-4.25,1.903-4.25,4.25c0,2.347,1.903,4.25,4.25,4.25h135.156v24.249h-179.5v-89.657c24.069-2.157,43-22.429,43-47.049
		c0-26.054-21.196-47.25-47.25-47.25c-26.054,0-47.25,21.196-47.25,47.25c0,24.621,18.931,44.892,43,47.049v89.657h-81.91
		c-2.514,0-4.559-2.045-4.559-4.559V105.736h22.318c2.347,0,4.25-1.903,4.25-4.25c0-2.347-1.903-4.25-4.25-4.25H34.094V71.238
		h64.481c2.347,0,4.25-1.903,4.25-4.25c0-2.347-1.903-4.25-4.25-4.25H34.094V38.653c0-2.514,2.045-4.559,4.559-4.559h106.91v74.232
		c-24.069,2.157-43,22.429-43,47.049c0,26.054,21.196,47.25,47.25,47.25c26.054,0,47.25-21.196,47.25-47.25
		c0-24.621-18.931-44.892-43-47.049V34.094h75v93.281c0,0.767,0.207,1.519,0.6,2.177l31.69,53.128
		c-17.171,7.084-29.29,23.997-29.29,43.695c0,26.054,21.196,47.25,47.25,47.25c26.054,0,47.25-21.196,47.25-47.25
		c0-1.992-0.139-3.951-0.379-5.879c0.37-0.34,0.692-0.744,0.931-1.22l31.825-63.651h96.529V450.91
		C455.469,453.423,453.424,455.469,450.91,455.469z"/>
</g>
<g>
</g>
<g>
</g>
<g>
</g>
<g>
</g>
<g>
</g>
<g>
</g>
<g>
</g>
<g>
</g>
<g>
</g>
<g>
</g>
<g>
</g>
<g>
</g>
<g>
</g>
<g>
</g>
<g>
</g>
</svg>
