<?xml version="1.0" encoding="iso-8859-1"?>
<!-- Generator: Adobe Illustrator 18.0.0, SVG Export Plug-In . SVG Version: 6.00 Build 0)  -->
<!DOCTYPE svg PUBLIC "-//W3C//DTD SVG 1.1//EN" "http://www.w3.org/Graphics/SVG/1.1/DTD/svg11.dtd">
<svg version="1.1" id="Capa_1" xmlns="http://www.w3.org/2000/svg" xmlns:xlink="http://www.w3.org/1999/xlink" x="0px" y="0px"
	 viewBox="0 0 479.668 479.668" style="enable-background:new 0 0 479.668 479.668;" xml:space="preserve">
<g>
	<path d="M264.453,235.039c-11.596,0-21.027,9.432-21.027,21.027c0,11.594,9.432,21.027,21.027,21.027
		c11.594,0,21.027-9.434,21.027-21.027C285.48,244.471,276.047,235.039,264.453,235.039z M264.453,268.594
		c-6.908,0-12.527-5.621-12.527-12.527c0-6.908,5.619-12.527,12.527-12.527c6.906,0,12.527,5.619,12.527,12.527
		C276.98,262.973,271.359,268.594,264.453,268.594z"/>
	<path d="M212.488,235.039c-11.594,0-21.027,9.432-21.027,21.027c0,11.594,9.434,21.027,21.027,21.027
		c11.596,0,21.027-9.434,21.027-21.027C233.516,244.471,224.084,235.039,212.488,235.039z M212.488,268.594
		c-6.908,0-12.527-5.621-12.527-12.527c0-6.908,5.619-12.527,12.527-12.527s12.527,5.619,12.527,12.527
		C225.016,262.973,219.396,268.594,212.488,268.594z"/>
	<path d="M160.525,235.039c-11.596,0-21.027,9.432-21.027,21.027c0,11.594,9.432,21.027,21.027,21.027
		c11.594,0,21.025-9.434,21.025-21.027C181.551,244.471,172.119,235.039,160.525,235.039z M160.525,268.594
		c-6.908,0-12.527-5.621-12.527-12.527c0-6.908,5.619-12.527,12.527-12.527c6.906,0,12.525,5.619,12.525,12.527
		C173.051,262.973,167.432,268.594,160.525,268.594z"/>
	<path d="M264.453,286.385c-11.596,0-21.027,9.434-21.027,21.029c0,11.594,9.432,21.027,21.027,21.027
		c11.594,0,21.027-9.434,21.027-21.029C285.48,295.818,276.047,286.385,264.453,286.385z M264.453,319.941
		c-6.908,0-12.527-5.621-12.527-12.527c0-6.908,5.619-12.529,12.527-12.529c6.906,0,12.527,5.621,12.527,12.527
		C276.98,314.32,271.359,319.941,264.453,319.941z"/>
	<path d="M212.488,286.385c-11.594,0-21.027,9.434-21.027,21.029c0,11.594,9.434,21.027,21.027,21.027
		c11.596,0,21.027-9.434,21.027-21.029C233.516,295.818,224.084,286.385,212.488,286.385z M212.488,319.941
		c-6.908,0-12.527-5.621-12.527-12.527c0-6.908,5.619-12.529,12.527-12.529s12.527,5.621,12.527,12.527
		C225.016,314.32,219.396,319.941,212.488,319.941z"/>
	<path d="M160.525,286.385c-11.596,0-21.027,9.434-21.027,21.029c0,11.594,9.432,21.027,21.027,21.027
		c11.594,0,21.025-9.434,21.025-21.029C181.551,295.818,172.119,286.385,160.525,286.385z M160.525,319.941
		c-6.908,0-12.527-5.621-12.527-12.527c0-6.908,5.619-12.529,12.527-12.529c6.906,0,12.525,5.621,12.525,12.527
		C173.051,314.32,167.432,319.941,160.525,319.941z"/>
	<path d="M442.629,308.107v-49.395c0-2.348-1.902-4.25-4.25-4.25H313.127c-2.348,0-4.25,1.902-4.25,4.25v49.395
		c0,2.348,1.902,4.25,4.25,4.25h125.252C440.727,312.357,442.629,310.455,442.629,308.107z M434.129,303.857H317.377v-40.895
		h116.752V303.857z"/>
	<path d="M206.73,419h48.814c2.348,0,4.25-1.902,4.25-4.25c0-2.348-1.902-4.25-4.25-4.25H206.73c-2.348,0-4.25,1.902-4.25,4.25
		C202.48,417.098,204.383,419,206.73,419z"/>
	<path d="M443.732,144.717h-11.596v-33.324c0-19.816-16.121-35.938-35.938-35.938h-5.603V25.074c0-2.348-1.902-4.25-4.25-4.25
		h-224.49c-2.348,0-4.25,1.902-4.25,4.25v50.381h-5.604c-19.816,0-35.938,16.121-35.938,35.938v33.324h-5.514
		c-1.379-3.898-3.623-7.479-6.645-10.498c-5.309-5.309-12.344-8.232-19.809-8.232H28.041C12.58,125.986,0,138.564,0,154.025v225.318
		c-0.002,7.465,2.922,14.498,8.231,19.809c5.309,5.309,12.344,8.232,19.809,8.232l56.059-0.002c12.197,0,22.596-7.83,26.445-18.727
		h47.063v65.938c0,2.348,1.902,4.25,4.25,4.25h224.49c2.348,0,4.25-1.902,4.25-4.25v-65.938h53.137
		c19.815,0,35.936-16.121,35.936-35.938V180.652C479.668,160.838,463.547,144.717,443.732,144.717z M103.639,379.344
		c0,10.773-8.766,19.539-19.541,19.539l-56.059,0.002c-5.193,0-10.094-2.039-13.797-5.744c-3.703-3.703-5.742-8.603-5.742-13.797
		V154.025c0-10.773,8.766-19.539,19.541-19.539h4.617v119.232c0,2.348,1.902,4.25,4.25,4.25c2.348,0,4.25-1.902,4.25-4.25V134.486
		h42.94c5.195,0,10.096,2.039,13.799,5.744c3.705,3.703,5.744,8.602,5.744,13.795L103.639,379.344z M396.199,83.955
		c15.129,0,27.438,12.309,27.438,27.438v3.48h-14.9c-2.348,0-4.25,1.902-4.25,4.25c0,2.348,1.902,4.25,4.25,4.25h14.9v21.344
		h-18.443c-2.348,0-4.25,1.902-4.25,4.25v11.225c0,8.672-4.047,16.41-10.348,21.441V83.955H396.199z M382.096,29.324v156.922
		c-2.705,0.893-5.59,1.385-8.592,1.385H174.697c-3,0-5.887-0.492-8.592-1.385V65.969h101.803c2.348,0,4.25-1.902,4.25-4.25
		c0-2.348-1.902-4.25-4.25-4.25H166.105V29.324H382.096z M124.564,111.393c0-15.129,12.309-27.438,27.438-27.438h5.604v97.68
		c-6.299-5.031-10.346-12.77-10.346-21.441v-11.227c0-2.348-1.902-4.25-4.25-4.25h-18.445V111.393z M382.096,410.5h-91.438
		c-2.348,0-4.25,1.902-4.25,4.25c0,2.348,1.902,4.25,4.25,4.25h91.438v31.344h-215.99v-61.688h215.99V410.5z M443.732,380.156
		H112.127c0.008-0.272,0.012-0.543,0.012-0.813l0.002-225.318c0-0.27-0.004-0.539-0.012-0.809h26.631v6.977
		c0,19.816,16.121,35.938,35.938,35.938h198.807c19.816,0,35.939-16.123,35.939-35.939v-6.975h34.289
		c15.129,0,27.436,12.307,27.436,27.436v172.066c0,0.047-0.002,0.092-0.004,0.139h-58.262c-2.348,0-4.25,1.902-4.25,4.25
		c0,2.348,1.902,4.25,4.25,4.25h56.865C466.139,372.266,455.842,380.156,443.732,380.156z"/>
	<path d="M36.908,273.469c-2.348,0-4.25,1.902-4.25,4.25v54c0,2.348,1.902,4.25,4.25,4.25c2.348,0,4.25-1.902,4.25-4.25v-54
		C41.158,275.371,39.256,273.469,36.908,273.469z"/>
</g>
<g>
</g>
<g>
</g>
<g>
</g>
<g>
</g>
<g>
</g>
<g>
</g>
<g>
</g>
<g>
</g>
<g>
</g>
<g>
</g>
<g>
</g>
<g>
</g>
<g>
</g>
<g>
</g>
<g>
</g>
</svg>
