<?xml version="1.0" encoding="iso-8859-1"?>
<!-- Generator: Adobe Illustrator 18.0.0, SVG Export Plug-In . SVG Version: 6.00 Build 0)  -->
<!DOCTYPE svg PUBLIC "-//W3C//DTD SVG 1.1//EN" "http://www.w3.org/Graphics/SVG/1.1/DTD/svg11.dtd">
<svg version="1.1" id="Capa_1" xmlns="http://www.w3.org/2000/svg" xmlns:xlink="http://www.w3.org/1999/xlink" x="0px" y="0px"
	 viewBox="0 0 491.453 491.453" style="enable-background:new 0 0 491.453 491.453;" xml:space="preserve">
<path d="M489.588,291.701L298.883,162.445C298.022,60.703,278.197,0.047,245.727,0.047s-52.295,60.656-53.156,162.398L1.865,291.701
	C0.699,292.492,0,293.811,0,295.219v49.408c0,1.381,0.672,2.676,1.801,3.473c1.131,0.797,2.576,0.994,3.877,0.529l192.684-68.686
	c5.449,52.43,16.912,100.391,24.193,130.369l-45.207,34.971c-1.039,0.805-1.648,2.045-1.648,3.361v38.512
	c0,1.492,0.783,2.877,2.064,3.645c1.281,0.77,2.871,0.807,4.188,0.103l63.775-34.066l63.775,34.066
	c0.627,0.334,1.314,0.502,2.002,0.502c0.758,0,1.514-0.203,2.186-0.605c1.281-0.768,2.064-2.152,2.064-3.645v-38.512
	c0-1.316-0.609-2.557-1.648-3.361l-45.221-34.98l0.793-3.348c7.279-30.643,18.148-76.408,23.414-127.012l192.684,68.686
	c1.301,0.467,2.746,0.268,3.877-0.529c1.129-0.797,1.801-2.092,1.801-3.473v-49.406
	C491.453,293.811,490.754,292.492,489.588,291.701z M290.828,270.113c-1.234-0.441-2.604-0.285-3.709,0.418
	c-1.105,0.703-1.824,1.877-1.949,3.182c-2.33,24.451-6.051,47.9-10.119,69.16H239.58c-2.348,0-4.25,1.902-4.25,4.25
	c0,2.348,1.902,4.25,4.25,4.25h33.803c-4.135,20.609-8.473,38.877-11.975,53.617l-1.428,6.02c-0.383,1.623,0.217,3.32,1.535,4.34
	l45.738,35.381v29.336l-59.525-31.795c-0.625-0.334-1.315-0.502-2.002-0.502c-0.689,0-1.377,0.168-2.002,0.502l-59.525,31.795
	V450.73l45.738-35.381c1.326-1.025,1.924-2.736,1.529-4.365l-0.051-0.203c-7.426-30.545-19.854-81.668-25.133-137.068
	c-0.125-1.305-0.844-2.478-1.949-3.182c-1.105-0.705-2.475-0.859-3.709-0.418L8.5,338.6v-41.127l49.246-33.377h96.406
	c2.348,0,4.25-1.902,4.25-4.25c0-2.348-1.902-4.25-4.25-4.25H70.287l128.902-87.367c1.16-0.787,1.857-2.094,1.865-3.494
	c0.068-11.807,0.396-23.104,0.973-33.852h21.053c2.348,0,4.25-1.902,4.25-4.25c0-2.348-1.902-4.25-4.25-4.25h-20.535
	c2.139-31.414,6.531-57.645,12.996-77.119c7.859-23.676,18.58-36.717,30.185-36.717c11.604,0,22.324,13.041,30.186,36.717
	c1.16,3.494,2.252,7.205,3.279,11.123H238.08c-2.348,0-4.25,1.902-4.25,4.25c0,2.348,1.902,4.25,4.25,4.25h43.154
	c0.883,3.986,1.703,8.158,2.461,12.5h-24.617c-2.348,0-4.25,1.902-4.25,4.25c0,2.348,1.902,4.25,4.25,4.25h25.992
	c3.344,22.482,5.158,49.068,5.328,78.848c0.008,1.4,0.705,2.707,1.865,3.494l186.67,126.521h-36.701c-2.348,0-4.25,1.902-4.25,4.25
	c0,2.348,1.902,4.25,4.25,4.25h40.721v35.35L290.828,270.113z"/>
<g>
</g>
<g>
</g>
<g>
</g>
<g>
</g>
<g>
</g>
<g>
</g>
<g>
</g>
<g>
</g>
<g>
</g>
<g>
</g>
<g>
</g>
<g>
</g>
<g>
</g>
<g>
</g>
<g>
</g>
</svg>
