<?xml version="1.0" encoding="iso-8859-1"?>
<!-- Generator: Adobe Illustrator 18.0.0, SVG Export Plug-In . SVG Version: 6.00 Build 0)  -->
<!DOCTYPE svg PUBLIC "-//W3C//DTD SVG 1.1//EN" "http://www.w3.org/Graphics/SVG/1.1/DTD/svg11.dtd">
<svg version="1.1" id="Capa_1" xmlns="http://www.w3.org/2000/svg" xmlns:xlink="http://www.w3.org/1999/xlink" x="0px" y="0px"
	 viewBox="0 0 491.811 491.811" style="enable-background:new 0 0 491.811 491.811;" xml:space="preserve">
<g>
	<path d="M385.152,73.682h-14.949V58.733c0-9.644-7.847-17.491-17.491-17.491h-3.31c-9.645,0-17.491,7.847-17.491,17.491v14.948
		l-14.949-0.001c-9.644,0-17.49,7.847-17.49,17.491v3.31c0,9.645,7.846,17.491,17.49,17.491h14.949v14.949
		c0,9.645,7.846,17.49,17.491,17.49h3.31c9.645,0,17.491-7.846,17.491-17.49v-14.949h14.949c9.644,0,17.49-7.847,17.49-17.491v-3.31
		C402.642,81.527,394.796,73.682,385.152,73.682z M394.142,94.481c0,4.958-4.033,8.991-8.99,8.991h-19.199
		c-2.347,0-4.25,1.902-4.25,4.25v19.199c0,4.957-4.033,8.99-8.991,8.99h-3.31c-4.957,0-8.991-4.033-8.991-8.99v-19.199
		c0-2.348-1.903-4.25-4.25-4.25h-19.199c-4.957,0-8.99-4.033-8.99-8.991v-3.31c0-4.958,4.033-8.991,8.99-8.991l19.199,0.001
		c1.127,0,2.208-0.448,3.005-1.245c0.797-0.797,1.245-1.878,1.245-3.005V58.733c0-4.958,4.033-8.991,8.991-8.991h3.31
		c4.958,0,8.991,4.033,8.991,8.991v19.198c0,2.348,1.903,4.25,4.25,4.25h19.199c4.957,0,8.99,4.033,8.99,8.99V94.481z"/>
	<path d="M413.912,0H288.202c-8.435,0-15.297,6.862-15.297,15.297v403.225c0,8.435,6.862,15.297,15.297,15.297h59.392v27.23
		c0,12.275-9.987,22.262-22.262,22.262H66.853c-2.347,0-4.25,1.902-4.25,4.25c0,2.348,1.903,4.25,4.25,4.25h258.479
		c16.962,0,30.762-13.8,30.762-30.762v-27.23h57.818c8.435,0,15.296-6.862,15.296-15.297V15.297C429.208,6.862,422.346,0,413.912,0z
		 M413.912,425.318H288.202c-3.748,0-6.797-3.049-6.797-6.797v-16.007h77.451c2.347,0,4.25-1.902,4.25-4.25
		c0-2.348-1.903-4.25-4.25-4.25h-77.451v-9.499h24.953c2.347,0,4.25-1.902,4.25-4.25c0-2.348-1.903-4.25-4.25-4.25h-24.953V15.297
		c0-3.748,3.049-6.797,6.797-6.797h125.709c3.748,0,6.796,3.049,6.796,6.797v11.236h-58.853c-2.347,0-4.25,1.902-4.25,4.25
		c0,2.348,1.903,4.25,4.25,4.25h58.853v383.488C420.708,422.27,417.659,425.318,413.912,425.318z"/>
	<path d="M351.056,269.323c-9.916,0-17.983,8.066-17.983,17.982c0,9.916,8.067,17.983,17.984,17.983
		c9.916,0,17.983-8.067,17.983-17.983C369.04,277.39,360.973,269.323,351.056,269.323z M351.057,296.789
		c-5.229,0-9.484-4.254-9.484-9.483c0-5.228,4.254-9.482,9.483-9.482c5.23,0,9.484,4.254,9.484,9.482
		C360.54,292.535,356.286,296.789,351.057,296.789z"/>
	<path d="M351.056,331.185c-9.916,0-17.983,8.066-17.983,17.982c0,9.916,8.067,17.983,17.984,17.983
		c9.916,0,17.983-8.067,17.983-17.983C369.04,339.251,360.973,331.185,351.056,331.185z M351.057,358.65
		c-5.229,0-9.484-4.254-9.484-9.483c0-5.228,4.254-9.482,9.483-9.482c5.23,0,9.484,4.254,9.484,9.482
		C360.54,354.397,356.286,358.65,351.057,358.65z"/>
	<path d="M386.406,187.059h-70.699c-2.347,0-4.25,1.902-4.25,4.25c0,2.348,1.903,4.25,4.25,4.25h70.699
		c2.347,0,4.25-1.902,4.25-4.25C390.656,188.961,388.753,187.059,386.406,187.059z"/>
	<path d="M386.406,225.355h-70.699c-2.347,0-4.25,1.902-4.25,4.25c0,2.348,1.903,4.25,4.25,4.25h70.699
		c2.347,0,4.25-1.902,4.25-4.25C390.656,227.257,388.753,225.355,386.406,225.355z"/>
</g>
<g>
</g>
<g>
</g>
<g>
</g>
<g>
</g>
<g>
</g>
<g>
</g>
<g>
</g>
<g>
</g>
<g>
</g>
<g>
</g>
<g>
</g>
<g>
</g>
<g>
</g>
<g>
</g>
<g>
</g>
</svg>
