<?xml version="1.0" encoding="iso-8859-1"?>
<!-- Generator: Adobe Illustrator 18.0.0, SVG Export Plug-In . SVG Version: 6.00 Build 0)  -->
<!DOCTYPE svg PUBLIC "-//W3C//DTD SVG 1.1//EN" "http://www.w3.org/Graphics/SVG/1.1/DTD/svg11.dtd">
<svg version="1.1" id="Capa_1" xmlns="http://www.w3.org/2000/svg" xmlns:xlink="http://www.w3.org/1999/xlink" x="0px" y="0px"
	 viewBox="0 0 487.66 487.66" style="enable-background:new 0 0 487.66 487.66;" xml:space="preserve">
<g>
	<path d="M453.982,210.151C453.982,94.273,359.709,0,243.83,0C127.953,0,33.678,94.273,33.678,210.151
		c0,81.548,46.691,152.395,114.742,187.217c-18.273,14.288-36.045,35.917-47.074,85.112c-0.281,1.259,0.023,2.579,0.83,3.586
		c0.807,1.007,2.027,1.594,3.318,1.594h276.672c1.291,0,2.512-0.586,3.318-1.594c0.807-1.007,1.111-2.327,0.83-3.586
		c-11.029-49.195-28.801-70.824-47.074-85.112C407.291,362.547,453.982,291.7,453.982,210.151z M376.807,479.16H110.853
		c1.686-6.9,3.516-13.174,5.461-18.925h110.373c2.348,0,4.25-1.903,4.25-4.25s-1.902-4.25-4.25-4.25H119.42
		c10.6-26.764,24.082-40.294,37.602-50.213c26.475,12.057,55.871,18.782,86.809,18.782s60.334-6.724,86.809-18.781
		C348.152,414.371,365.602,433.275,376.807,479.16z M243.83,411.803c-111.191,0-201.652-90.46-201.652-201.652
		C42.178,98.96,132.639,8.5,243.83,8.5s201.652,90.46,201.652,201.651C445.482,321.343,355.021,411.803,243.83,411.803z"/>
	<path d="M243.83,39.154c2.348,0,4.25-1.903,4.25-4.25c0-2.347-1.902-4.25-4.25-4.25c-98.975,0-179.498,80.522-179.498,179.498
		c0,2.347,1.902,4.25,4.25,4.25c2.348,0,4.25-1.903,4.25-4.25C72.832,115.863,149.541,39.154,243.83,39.154z"/>
	<path d="M243.83,320.275h0.002c60.721,0,110.123-49.401,110.123-110.124c0-60.723-49.402-110.124-110.125-110.124
		s-110.125,49.401-110.125,110.124C133.705,270.874,183.107,320.275,243.83,320.275z M243.83,108.527
		c56.037,0,101.625,45.588,101.625,101.624c0,56.036-45.588,101.624-101.623,101.624h-0.002
		c-56.035,0-101.625-45.588-101.625-101.624C142.205,154.116,187.795,108.527,243.83,108.527z"/>
	<path d="M243.83,290.268c44.176,0,80.115-35.94,80.115-80.117s-35.939-80.117-80.115-80.117s-80.117,35.94-80.117,80.117
		S199.654,290.268,243.83,290.268z M243.83,138.535c39.488,0,71.615,32.127,71.615,71.617c0,39.49-32.127,71.617-71.615,71.617
		c-39.49,0-71.617-32.127-71.617-71.617C172.213,170.662,204.34,138.535,243.83,138.535z"/>
	<path d="M121.23,210.151c0-2.347-1.902-4.25-4.25-4.25c-2.348,0-4.25,1.903-4.25,4.25c0,16.783,3.129,33.129,9.299,48.582
		c0.664,1.663,2.26,2.675,3.947,2.675c0.525,0,1.059-0.098,1.576-0.304c2.18-0.871,3.24-3.343,2.371-5.523
		C124.156,241.135,121.23,225.85,121.23,210.151z"/>
	<path d="M243.83,79.053c-2.348,0-4.25,1.903-4.25,4.25c0,2.347,1.902,4.25,4.25,4.25c67.602,0,122.598,54.997,122.598,122.598
		S311.432,332.75,243.83,332.75c-36.539,0-70.912-16.129-94.305-44.252c-1.502-1.806-4.182-2.05-5.984-0.55
		c-1.805,1.501-2.051,4.181-0.551,5.985c25.012,30.07,61.768,47.316,100.84,47.316c72.287,0,131.098-58.811,131.098-131.099
		C374.928,137.864,316.117,79.053,243.83,79.053z"/>
</g>
<g>
</g>
<g>
</g>
<g>
</g>
<g>
</g>
<g>
</g>
<g>
</g>
<g>
</g>
<g>
</g>
<g>
</g>
<g>
</g>
<g>
</g>
<g>
</g>
<g>
</g>
<g>
</g>
<g>
</g>
</svg>
