<?xml version="1.0" encoding="iso-8859-1"?>
<!-- Generator: Adobe Illustrator 18.0.0, SVG Export Plug-In . SVG Version: 6.00 Build 0)  -->
<!DOCTYPE svg PUBLIC "-//W3C//DTD SVG 1.1//EN" "http://www.w3.org/Graphics/SVG/1.1/DTD/svg11.dtd">
<svg version="1.1" id="Capa_1" xmlns="http://www.w3.org/2000/svg" xmlns:xlink="http://www.w3.org/1999/xlink" x="0px" y="0px"
	 viewBox="0 0 489.488 489.488" style="enable-background:new 0 0 489.488 489.488;" xml:space="preserve">
<g>
	<path d="M71.144,94.827c1.088,0,2.175-0.415,3.005-1.244l24.478-24.479c1.66-1.66,1.66-4.351,0-6.011
		c-1.66-1.659-4.351-1.659-6.011,0l-24.478,24.48c-1.66,1.66-1.66,4.351,0,6.011C68.968,94.412,70.056,94.827,71.144,94.827z"/>
	<path d="M71.144,127.276c1.088,0,2.175-0.415,3.005-1.244l56.927-56.929c1.66-1.66,1.66-4.351,0-6.011
		c-1.66-1.659-4.351-1.659-6.011,0l-56.927,56.929c-1.66,1.66-1.66,4.351,0,6.011C68.968,126.861,70.056,127.276,71.144,127.276z"/>
	<path d="M71.144,159.726c1.088,0,2.175-0.415,3.005-1.244l89.376-89.378c1.66-1.66,1.66-4.351,0-6.011
		c-1.66-1.659-4.351-1.659-6.011,0l-89.376,89.378c-1.66,1.66-1.66,4.351,0,6.011C68.968,159.311,70.056,159.726,71.144,159.726z"/>
	<path d="M127.026,218.212c53.087,0,96.276-43.189,96.276-96.276S180.113,25.66,127.026,25.66
		c-53.087,0-96.276,43.189-96.276,96.275S73.939,218.212,127.026,218.212z M127.026,34.16c48.4,0,87.776,39.376,87.776,87.775
		c0,48.4-39.376,87.776-87.776,87.776S39.25,170.336,39.25,121.936C39.25,73.536,78.626,34.16,127.026,34.16z"/>
	<path d="M470.149,20.687H279.141c-7.857,0-14.25,6.393-14.25,14.25v47.25h-22.586C225.783,34.408,180.35,0,127.026,0
		C59.79,0,5.089,54.7,5.089,121.937c0,27.765,9.334,53.386,25.02,73.906v196.729c0,53.44,43.477,96.916,96.916,96.916
		c53.44,0,96.917-43.477,96.917-96.916V195.841c7.826-10.237,14.069-21.743,18.361-34.154h22.587v47.25
		c0,7.857,6.393,14.25,14.25,14.25h191.008c7.857,0,14.25-6.393,14.25-14.25v-174C484.399,27.079,478.006,20.687,470.149,20.687z
		 M127.026,8.5c62.549,0,113.437,50.887,113.437,113.436s-50.887,113.437-113.437,113.437c-62.549,0-113.437-50.888-113.437-113.436
		C13.589,59.387,64.477,8.5,127.026,8.5z M215.443,265.947h-49.96c-2.347,0-4.25,1.902-4.25,4.25c0,2.347,1.903,4.25,4.25,4.25
		h49.96v118.125c0,48.753-39.663,88.416-88.417,88.416c-46.553,0-84.815-36.165-88.174-81.875h53.297c2.347,0,4.25-1.902,4.25-4.25
		c0-2.347-1.903-4.25-4.25-4.25H38.61v-17.5h53.539c2.347,0,4.25-1.902,4.25-4.25c0-2.347-1.903-4.25-4.25-4.25H38.61V205.82
		c22.234,23.424,53.648,38.053,88.416,38.053c34.769-0.001,66.183-14.63,88.417-38.054V265.947z M244.896,153.187
		c2.648-9.979,4.066-20.451,4.066-31.251c0-10.799-1.418-21.271-4.065-31.249h19.994v62.5H244.896z M470.149,214.687H279.141
		c-3.17,0-5.75-2.58-5.75-5.75V65.613h161.758c2.347,0,4.25-1.902,4.25-4.25c0-2.347-1.903-4.25-4.25-4.25H273.391V34.937
		c0-3.171,2.58-5.75,5.75-5.75h191.008c3.17,0,5.75,2.579,5.75,5.75v151.427h-102.25c-2.347,0-4.25,1.903-4.25,4.25
		c0,2.348,1.903,4.25,4.25,4.25h102.25v14.073C475.899,212.106,473.319,214.687,470.149,214.687z"/>
	<path d="M357.649,186.363h-44c-2.347,0-4.25,1.903-4.25,4.25c0,2.348,1.903,4.25,4.25,4.25h44c2.347,0,4.25-1.902,4.25-4.25
		C361.899,188.267,359.996,186.363,357.649,186.363z"/>
	<path d="M125.482,267.28c-9.328,0-16.916,7.589-16.916,16.917c0,9.327,7.589,16.916,16.916,16.916
		c9.328,0,16.917-7.589,16.917-16.916C142.399,274.869,134.81,267.28,125.482,267.28z M125.482,292.613
		c-4.641,0-8.416-3.775-8.416-8.416c0-4.642,3.775-8.417,8.416-8.417s8.417,3.775,8.417,8.417
		C133.899,288.838,130.124,292.613,125.482,292.613z"/>
</g>
<g>
</g>
<g>
</g>
<g>
</g>
<g>
</g>
<g>
</g>
<g>
</g>
<g>
</g>
<g>
</g>
<g>
</g>
<g>
</g>
<g>
</g>
<g>
</g>
<g>
</g>
<g>
</g>
<g>
</g>
</svg>
