<?xml version="1.0" encoding="iso-8859-1"?>
<!-- Generator: Adobe Illustrator 18.0.0, SVG Export Plug-In . SVG Version: 6.00 Build 0)  -->
<!DOCTYPE svg PUBLIC "-//W3C//DTD SVG 1.1//EN" "http://www.w3.org/Graphics/SVG/1.1/DTD/svg11.dtd">
<svg version="1.1" id="Capa_1" xmlns="http://www.w3.org/2000/svg" xmlns:xlink="http://www.w3.org/1999/xlink" x="0px" y="0px"
	 viewBox="0 0 492.074 492.074" style="enable-background:new 0 0 492.074 492.074;" xml:space="preserve">
<path d="M491.053,200.777c-0.994-1.162-2.532-1.698-4.035-1.41l-90.261,17.413l12.903-35.784c1.106-3.068,0.951-6.383-0.436-9.333
	c-1.387-2.952-3.841-5.187-6.908-6.291L75.194,47.42c-1.335-0.481-2.729-0.726-4.14-0.726c-5.129,0-9.744,3.243-11.484,8.069
	L0.73,217.949c-1.106,3.067-0.951,6.382,0.436,9.333c1.387,2.952,3.84,5.187,6.907,6.292l114.682,41.352v76.543
	c-10.709,4.916-19.355,13.563-24.272,24.272H7.622c-2.347,0-4.25,1.902-4.25,4.25c0,2.348,1.903,4.25,4.25,4.25h87.867
	c-0.959,3.827-1.475,7.828-1.475,11.949c0,4.121,0.516,8.122,1.475,11.949H7.622c-2.347,0-4.25,1.902-4.25,4.25
	c0,2.348,1.903,4.25,4.25,4.25h90.861c7.778,16.941,24.892,28.741,44.721,28.741c27.124,0,49.191-22.066,49.191-49.19
	c0-19.829-11.8-36.943-28.741-44.721v-61.797l171.54,61.852c1.336,0.482,2.729,0.728,4.142,0.728c0,0,0.001,0,0.001,0
	c5.128,0,9.743-3.243,11.483-8.069l12.823-35.564l58.437,70.864c0.815,0.988,2.022,1.546,3.278,1.546
	c0.241,0,0.484-0.02,0.727-0.063c1.504-0.261,2.753-1.31,3.271-2.746l62.465-173.238
	C492.34,203.544,492.047,201.938,491.053,200.777z M183.895,396.189c0,22.437-18.254,40.69-40.691,40.69
	c-22.436,0-40.69-18.254-40.69-40.69c0-22.436,18.253-40.69,40.69-40.69C165.641,355.499,183.895,373.753,183.895,396.189z
	 M155.153,348.475c-3.828-0.959-7.829-1.476-11.95-1.476c-4.12,0-8.122,0.517-11.949,1.475V277.99l23.898,8.617V348.475z
	 M342.824,341.3c-0.529,1.467-1.93,2.452-3.487,2.452c-0.426,0-0.849-0.075-1.259-0.223L10.956,225.578
	c-0.931-0.336-1.676-1.015-2.097-1.91c-0.421-0.896-0.468-1.904-0.132-2.836l41.698-115.643l189.028,68.179
	c0.476,0.172,0.963,0.253,1.441,0.253c1.741,0,3.374-1.077,3.999-2.809c0.796-2.208-0.348-4.644-2.556-5.44L53.307,97.193
	l14.259-39.547c0.529-1.467,1.931-2.452,3.488-2.452c0.426,0,0.849,0.074,1.257,0.222l327.123,117.952
	c0.931,0.336,1.675,1.014,2.097,1.91c0.421,0.896,0.468,1.903,0.132,2.835l-30.924,85.765l-81.568-30.277
	c-2.2-0.816-4.646,0.305-5.463,2.506c-0.817,2.2,0.305,4.646,2.505,5.463l81.643,30.306l-11.923,33.068l-182.871-65.957
	c-2.206-0.798-4.644,0.348-5.44,2.556c-0.796,2.208,0.348,4.644,2.556,5.44l182.871,65.957L342.824,341.3z M393.403,226.084
	l18.421-3.554l-32.905,91.252l-11.924-14.46L393.403,226.084z M423.891,368.318L384.954,321.1c0.371-0.403,0.679-0.877,0.876-1.426
	l35.705-99.018l9.05-1.746l-18.046,49.975c-0.797,2.208,0.346,4.643,2.554,5.44c0.477,0.173,0.964,0.254,1.443,0.254
	c1.74,0,3.372-1.076,3.998-2.808l19.766-54.734l40.991-7.908L423.891,368.318z"/>
<g>
</g>
<g>
</g>
<g>
</g>
<g>
</g>
<g>
</g>
<g>
</g>
<g>
</g>
<g>
</g>
<g>
</g>
<g>
</g>
<g>
</g>
<g>
</g>
<g>
</g>
<g>
</g>
<g>
</g>
</svg>
