<?xml version="1.0" encoding="iso-8859-1"?>
<!-- Generator: Adobe Illustrator 18.0.0, SVG Export Plug-In . SVG Version: 6.00 Build 0)  -->
<!DOCTYPE svg PUBLIC "-//W3C//DTD SVG 1.1//EN" "http://www.w3.org/Graphics/SVG/1.1/DTD/svg11.dtd">
<svg version="1.1" id="Capa_1" xmlns="http://www.w3.org/2000/svg" xmlns:xlink="http://www.w3.org/1999/xlink" x="0px" y="0px"
	 viewBox="0 0 489.346 489.346" style="enable-background:new 0 0 489.346 489.346;" xml:space="preserve">
<g>
	<path d="M407.895,380.45c-13.762,0-24.957,11.196-24.957,24.957c0,13.762,11.195,24.958,24.957,24.958
		c13.762,0,24.957-11.196,24.957-24.958C432.852,391.647,421.656,380.45,407.895,380.45z M407.895,421.866
		c-9.074,0-16.457-7.383-16.457-16.458c0-9.074,7.383-16.457,16.457-16.457c9.074,0,16.457,7.383,16.457,16.457
		C424.352,414.483,416.969,421.866,407.895,421.866z"/>
	<path d="M346.399,380.45c-13.763,0-24.959,11.196-24.959,24.957c0,13.762,11.196,24.958,24.959,24.958
		c13.762,0,24.957-11.196,24.957-24.958C371.356,391.647,360.16,380.45,346.399,380.45z M346.399,421.866
		c-9.075,0-16.459-7.383-16.459-16.458c0-9.074,7.384-16.457,16.459-16.457c9.074,0,16.457,7.383,16.457,16.457
		C362.856,414.483,355.473,421.866,346.399,421.866z"/>
	<path d="M284.902,380.45c-13.763,0-24.959,11.196-24.959,24.957c0,13.762,11.196,24.958,24.959,24.958
		c13.762,0,24.957-11.196,24.957-24.958C309.859,391.647,298.664,380.45,284.902,380.45z M284.902,421.866
		c-9.075,0-16.459-7.383-16.459-16.458c0-9.074,7.384-16.457,16.459-16.457c9.074,0,16.457,7.383,16.457,16.457
		C301.359,414.483,293.977,421.866,284.902,421.866z"/>
	<path d="M427.578,326.914L299.54,122.388c-2.269-3.514-5.77-5.934-9.859-6.814c-4.091-0.882-8.277-0.116-11.788,2.152
		c-7.254,4.681-9.348,14.392-4.694,21.603l117.739,187.416H66.264C29.726,326.744,0,356.47,0,393.008v24.8
		c0,36.537,29.726,66.263,66.264,66.263h356.818c36.538,0,66.264-29.726,66.264-66.263v-24.8
		C489.346,357.983,462.025,329.236,427.578,326.914z M280.368,134.764c-2.141-3.316-1.183-7.756,2.135-9.897
		c1.606-1.036,3.518-1.388,5.389-0.983c1.869,0.402,3.47,1.509,4.475,3.065l125.076,199.796h-16.467L280.368,134.764z
		 M423.082,475.571H66.264c-18.581,0-35.129-8.827-45.703-22.499h45.087c2.348,0,4.25-1.902,4.25-4.25c0-2.347-1.902-4.25-4.25-4.25
		h-50c-0.179,0-0.349,0.031-0.522,0.053c-4.223-8.02-6.626-17.141-6.626-26.816v-8.15h202.905c2.347,0,4.25-1.902,4.25-4.25
		c0-2.347-1.903-4.25-4.25-4.25H8.5v-8.149c0-5.528,0.797-10.87,2.254-15.937h90.894c2.348,0,4.25-1.902,4.25-4.25
		c0-2.347-1.902-4.25-4.25-4.25H13.94c9.223-19.667,29.203-33.327,52.323-33.327h356.818c31.851,0,57.764,25.913,57.764,57.764
		v9.563h-19.033c-2.348,0-4.25,1.903-4.25,4.25c0,2.348,1.902,4.25,4.25,4.25h19.033v6.736
		C480.846,449.659,454.933,475.571,423.082,475.571z"/>
	<path d="M303.437,53.918c0.462-2.301-1.029-4.541-3.331-5.003c-45.002-9.029-88.97,20.242-97.998,65.251
		c-0.461,2.302,1.03,4.541,3.331,5.003c0.282,0.057,0.564,0.084,0.841,0.084c1.983,0,3.757-1.396,4.162-3.415
		c8.107-40.413,47.586-66.694,87.992-58.589C300.733,57.712,302.975,56.22,303.437,53.918z"/>
	<path d="M260.87,96.204c-9.172,6.108-15.416,15.42-17.582,26.224c-0.462,2.301,1.03,4.541,3.331,5.002
		c0.282,0.057,0.564,0.084,0.841,0.084c1.983,0,3.757-1.396,4.162-3.415c1.72-8.577,6.677-15.971,13.958-20.819
		c7.282-4.848,16.014-6.569,24.594-4.85c2.3,0.461,4.541-1.029,5.003-3.331c0.462-2.301-1.029-4.541-3.331-5.003
		C281.036,87.928,270.039,90.099,260.87,96.204z"/>
	<path d="M164.259,110.909c0.282,0.057,0.564,0.084,0.841,0.084c1.983,0,3.757-1.396,4.162-3.415
		c12.662-63.117,74.314-104.17,137.434-91.509c2.3,0.461,4.541-1.029,5.003-3.331c0.462-2.302-1.03-4.541-3.331-5.003
		c-67.71-13.581-133.856,30.458-147.439,98.171C160.467,108.207,161.958,110.448,164.259,110.909z"/>
</g>
<g>
</g>
<g>
</g>
<g>
</g>
<g>
</g>
<g>
</g>
<g>
</g>
<g>
</g>
<g>
</g>
<g>
</g>
<g>
</g>
<g>
</g>
<g>
</g>
<g>
</g>
<g>
</g>
<g>
</g>
</svg>
