<?xml version="1.0" encoding="utf-8"?>
<!-- Generator: Adobe Illustrator 16.0.0, SVG Export Plug-In . SVG Version: 6.00 Build 0)  -->
<!DOCTYPE svg PUBLIC "-//W3C//DTD SVG 1.1//EN" "http://www.w3.org/Graphics/SVG/1.1/DTD/svg11.dtd">
<svg version="1.1" id="Layer_1" xmlns="http://www.w3.org/2000/svg" xmlns:xlink="http://www.w3.org/1999/xlink" x="0px" y="0px"
	 width="50px" height="50px" viewBox="0 0 50 50" enable-background="new 0 0 50 50" xml:space="preserve">
<path d="M6.65,15.861l-0.539-1.433h6.642l0.539,1.433H6.65z M44.457,34.092l1.15,1.48H2.791l1.186-1.548L0.5,26.739h2.978v-2.864
	l0.168-0.249h0.751v-2.808l0.143-0.215h3.895l-0.569-1.518h6.641l0.569,1.518h21.391l2.896,3.022h1.169l2.984,3.113H49.5
	L44.457,34.092z M6.563,28.645H4.391v1.792h2.172V28.645z M9.429,28.645h-2.17v1.792h2.17V28.645z M12.297,28.645h-2.171v1.792
	h2.171V28.645z M15.164,28.645h-2.172v1.792h2.172V28.645z M18.03,28.645h-2.17v1.792h2.17V28.645z M20.897,28.645h-2.17v1.792h2.17
	V28.645z M23.764,28.645h-2.17v1.792h2.17V28.645z M26.63,28.645h-2.17v1.792h2.17V28.645z M29.498,28.645h-2.171v1.792h2.171
	V28.645z M32.364,28.645h-2.169v1.792h2.169V28.645z M35.23,28.645h-2.169v1.792h2.169V28.645z M38.1,28.645h-2.172v1.792H38.1
	V28.645z M40.966,28.645h-2.172v1.792h2.172V28.645z M43.832,28.645h-2.17v1.792h2.17V28.645z M7.549,18.25h6.64l-0.582-1.553H6.966
	L7.549,18.25z"/>
</svg>
