<?xml version="1.0" encoding="utf-8"?>
<!-- Generator: Adobe Illustrator 16.0.0, SVG Export Plug-In . SVG Version: 6.00 Build 0)  -->
<!DOCTYPE svg PUBLIC "-//W3C//DTD SVG 1.1//EN" "http://www.w3.org/Graphics/SVG/1.1/DTD/svg11.dtd">
<svg version="1.1" id="Layer_1" xmlns="http://www.w3.org/2000/svg" xmlns:xlink="http://www.w3.org/1999/xlink" x="0px" y="0px"
	 width="50px" height="50px" viewBox="0 0 50 50" enable-background="new 0 0 50 50" xml:space="preserve">
<path d="M28.426,7.552c0.583-0.743,0.945-1.666,0.945-2.682C29.371,2.46,27.411,0.5,25,0.5c-2.41,0-4.371,1.96-4.371,4.371
	c0,1.016,0.362,1.938,0.945,2.682c-10.034,1.64-17.7,10.325-17.7,20.823C3.875,40.043,13.333,49.5,25,49.5
	c11.667,0,21.125-9.457,21.125-21.125C46.125,17.878,38.459,9.192,28.426,7.552z M25,2.83c1.125,0,2.04,0.915,2.04,2.04
	s-0.915,2.04-2.04,2.04c-1.125,0-2.04-0.915-2.04-2.04S23.875,2.83,25,2.83z M25.001,47.897h-0.162
	C14.076,47.809,5.39,38.979,5.479,28.213C5.566,17.538,14.321,8.851,24.998,8.851l0.163,0.001
	c10.762,0.089,19.449,8.918,19.361,19.683C44.433,39.211,35.678,47.897,25.001,47.897z M25.15,10.018l-0.153-0.001
	c-10.037,0-18.271,8.168-18.354,18.208C6.562,38.348,14.728,46.65,24.849,46.731h0.152c10.038,0,18.271-8.167,18.354-18.206
	C43.437,18.403,35.271,10.1,25.15,10.018z M23.274,12.382h1.197l0.967,1.886c0.085,0.168,0.185,0.369,0.297,0.608l0.143,0.302
	l0.142,0.306h0.025l-0.009-0.24l-0.01-0.24l-0.006-0.478v-2.143h0.705v3.72H25.53l-1.063-2.041c-0.052-0.103-0.135-0.28-0.248-0.535
	l-0.12-0.268l-0.118-0.267h-0.027l0.01,0.246l0.008,0.242l0.005,0.487v2.134h-0.705L23.274,12.382L23.274,12.382z M13.5,30.234
	h-1.044l-0.518-1.909c-0.046-0.171-0.103-0.404-0.167-0.693l-0.051-0.227h-0.024l-0.055,0.232l-0.051,0.226
	c-0.039,0.155-0.08,0.312-0.123,0.464l-0.531,1.904H9.904l-0.964-3.72h0.719l0.537,2.042c0.033,0.13,0.073,0.313,0.123,0.543
	l0.057,0.271l0.055,0.272h0.024c0.029-0.121,0.051-0.212,0.067-0.272l0.064-0.27c0.036-0.141,0.083-0.321,0.145-0.542l0.572-2.045
	h0.829l0.558,2.045c0.047,0.175,0.094,0.355,0.139,0.542l0.063,0.27l0.065,0.272h0.022l0.06-0.272l0.058-0.271
	c0.048-0.219,0.089-0.402,0.128-0.546l0.55-2.039h0.722L13.5,30.234z M26.281,43.943H23.72v-3.718h2.545v0.596h-1.839v0.957h1.744
	v0.52h-1.744v1.054h1.855V43.943L26.281,43.943z M27.201,29.836L17.075,40.317l5.729-13.404l10.125-10.478L27.201,29.836z
	 M39.514,30.269c-0.585,0-0.974-0.072-1.166-0.214c-0.191-0.141-0.287-0.428-0.287-0.86l-0.002-0.137h0.687l0.002,0.08
	c0,0.259,0.046,0.416,0.137,0.476c0.091,0.059,0.339,0.086,0.744,0.086c0.316,0,0.519-0.031,0.605-0.1s0.13-0.224,0.13-0.467
	c0-0.178-0.031-0.298-0.098-0.358c-0.067-0.061-0.211-0.095-0.431-0.108l-0.389-0.023c-0.59-0.033-0.965-0.117-1.129-0.246
	s-0.245-0.406-0.245-0.831c0-0.435,0.098-0.724,0.295-0.867c0.198-0.146,0.592-0.22,1.182-0.22c0.56,0,0.938,0.069,1.134,0.2
	c0.194,0.132,0.291,0.392,0.291,0.776v0.142h-0.692c-0.004-0.033-0.007-0.062-0.007-0.074c-0.016-0.211-0.063-0.342-0.139-0.394
	c-0.074-0.057-0.255-0.082-0.539-0.082c-0.333,0-0.553,0.031-0.656,0.093c-0.103,0.063-0.153,0.191-0.153,0.39
	c0,0.234,0.042,0.375,0.124,0.423c0.083,0.048,0.361,0.083,0.829,0.109c0.555,0.028,0.912,0.11,1.076,0.237
	c0.163,0.126,0.244,0.392,0.244,0.792c0,0.495-0.096,0.814-0.286,0.958C40.584,30.196,40.166,30.269,39.514,30.269z"/>
</svg>
