<?xml version="1.0" encoding="utf-8"?>
<!-- Generator: Adobe Illustrator 16.0.0, SVG Export Plug-In . SVG Version: 6.00 Build 0)  -->
<!DOCTYPE svg PUBLIC "-//W3C//DTD SVG 1.1//EN" "http://www.w3.org/Graphics/SVG/1.1/DTD/svg11.dtd">
<svg version="1.1" id="Layer_1" xmlns="http://www.w3.org/2000/svg" xmlns:xlink="http://www.w3.org/1999/xlink" x="0px" y="0px"
	 width="50px" height="50px" viewBox="0 0 50 50" enable-background="new 0 0 50 50" xml:space="preserve">
<path d="M14.897,14.622h9.1v9.374H13.865C13.924,20.653,14.287,17.49,14.897,14.622z M14.897,35.379h9.1v-9.375H13.865
	C13.924,29.348,14.287,32.51,14.897,35.379z M23.996,12.613V0.56c-3.683,0.723-6.842,5.383-8.622,12.053H23.996z M37.193,35.379
	h10.034c1.342-2.869,2.139-6.031,2.271-9.375H38.144C38.088,29.352,37.767,32.506,37.193,35.379z M37.193,14.622
	c0.573,2.871,0.895,6.027,0.952,9.374H49.5c-0.136-3.343-0.931-6.506-2.272-9.374H37.193z M36.738,12.613h9.435
	c-3.277-5.59-8.694-9.753-15.136-11.384C33.511,3.682,35.499,7.646,36.738,12.613z M23.996,49.439V37.387h-8.622
	C17.154,44.055,20.313,48.715,23.996,49.439z M34.625,12.613C32.847,5.945,29.688,1.285,26.004,0.56v12.053H34.625z M36.137,26.004
	H26.004v9.375h9.1C35.713,32.51,36.077,29.348,36.137,26.004z M0.5,26.004c0.135,3.344,0.932,6.506,2.273,9.375h10.031
	c-0.572-2.873-0.895-6.027-0.949-9.375H0.5z M13.262,37.387H3.828c3.277,5.59,8.694,9.754,15.137,11.385
	C16.49,46.318,14.502,42.354,13.262,37.387z M36.738,37.387c-1.239,4.967-3.225,8.932-5.701,11.385
	c6.441-1.631,11.856-5.797,15.136-11.385H36.738z M13.262,12.613c1.24-4.967,3.225-8.931,5.702-11.384
	C12.522,2.859,7.107,7.024,3.828,12.613H13.262z M35.104,14.622h-9.1v9.374h10.133C36.077,20.653,35.713,17.49,35.104,14.622z
	 M2.773,14.622C1.432,17.49,0.634,20.653,0.5,23.996h11.355c0.055-3.347,0.377-6.503,0.949-9.374H2.773z M26.004,37.387v12.053
	c3.684-0.723,6.843-5.383,8.621-12.053H26.004z"/>
</svg>
