<?xml version="1.0" encoding="utf-8"?>
<!-- Generator: Adobe Illustrator 16.0.0, SVG Export Plug-In . SVG Version: 6.00 Build 0)  -->
<!DOCTYPE svg PUBLIC "-//W3C//DTD SVG 1.1//EN" "http://www.w3.org/Graphics/SVG/1.1/DTD/svg11.dtd">
<svg version="1.1" id="Layer_1" xmlns="http://www.w3.org/2000/svg" xmlns:xlink="http://www.w3.org/1999/xlink" x="0px" y="0px"
	 width="50px" height="50px" viewBox="0 0 50 50" enable-background="new 0 0 50 50" xml:space="preserve">
<path d="M38.994,0.5H8.655v3.277H6.732V49.5h29.484c1.209,0,2.267-0.631,2.876-1.579c2.313-0.05,4.175-1.939,4.175-4.263V4.771
	C43.268,2.417,41.352,0.5,38.994,0.5z M18.373,26.782h4.309v6.022C20.839,32.444,19.262,30.117,18.373,26.782z M20.165,32.474
	c-3.221-0.817-5.929-2.897-7.569-5.691h4.719C17.936,29.266,18.926,31.249,20.165,32.474z M18.13,25.778
	c-0.304-1.434-0.485-3.017-0.516-4.687h5.066v4.687H18.13z M17.617,20.085c0.031-1.672,0.212-3.253,0.516-4.688h4.551v4.688H17.617z
	 M18.373,14.393c0.889-3.335,2.468-5.665,4.309-6.025v6.025H18.373z M17.314,14.393h-4.719c1.641-2.794,4.349-4.877,7.569-5.694
	C18.926,9.93,17.936,11.909,17.314,14.393z M17.088,15.396c-0.286,1.436-0.448,3.015-0.477,4.687h-5.676
	c0.066-1.672,0.465-3.252,1.137-4.687H17.088z M16.61,21.088c0.029,1.674,0.19,3.252,0.476,4.688h-5.017
	c-0.672-1.434-1.07-3.018-1.137-4.688H16.61z M16.197,42.159c-0.131,0.16-0.348,0.283-0.649,0.37
	c-0.305,0.087-0.621,0.13-0.951,0.13h-1.855v2.05H11.52v-6.356h2.782c0.499,0,0.926,0.046,1.282,0.141
	c0.355,0.094,0.618,0.301,0.786,0.623c0.151,0.354,0.229,0.819,0.229,1.39C16.595,41.287,16.462,41.838,16.197,42.159z
	 M21.661,44.709l-0.404-1.198h-2.756l-0.408,1.198h-1.262l1.457-4.41l0.662-1.949h1.788l2.169,6.359H21.661z M28.161,43.808
	c-0.1,0.274-0.247,0.481-0.438,0.621c-0.297,0.221-0.904,0.331-1.822,0.331h-0.459c-0.407,0-0.758-0.025-1.053-0.067
	c-0.294-0.043-0.545-0.156-0.75-0.33c-0.152-0.134-0.265-0.28-0.334-0.451c-0.07-0.168-0.113-0.34-0.128-0.522
	c-0.016-0.179-0.024-0.408-0.024-0.699h1.214c0,0.073-0.005,0.132-0.016,0.179c0.009,0.195,0.026,0.342,0.05,0.444
	c0.024,0.104,0.071,0.187,0.144,0.248c0.082,0.077,0.19,0.127,0.324,0.152c0.137,0.026,0.327,0.042,0.574,0.052
	c0.119,0,0.206,0.007,0.263,0.019c0.309-0.016,0.542-0.032,0.701-0.051c0.156-0.017,0.287-0.06,0.391-0.118
	c0.19-0.113,0.283-0.382,0.283-0.796c0-0.294-0.059-0.504-0.179-0.63c-0.043-0.04-0.097-0.073-0.167-0.102
	c-0.066-0.025-0.133-0.042-0.203-0.054c-0.066-0.006-0.153-0.017-0.257-0.023c-0.104-0.006-0.224-0.015-0.354-0.021
	c-0.228-0.01-0.441-0.017-0.641-0.03c-0.2-0.006-0.392-0.022-0.571-0.043c-0.18-0.021-0.358-0.063-0.538-0.118
	c-0.178-0.057-0.326-0.131-0.446-0.221c-0.333-0.245-0.513-0.708-0.535-1.391c0-0.714,0.161-1.212,0.482-1.494
	c0.335-0.265,0.967-0.398,1.9-0.398c0.567,0,0.967,0.015,1.21,0.036c0.391,0.051,0.688,0.161,0.892,0.331
	c0.214,0.174,0.351,0.381,0.407,0.628c0.063,0.247,0.094,0.554,0.094,0.931h-1.229v-0.257c0-0.237-0.04-0.4-0.127-0.49
	c-0.101-0.114-0.354-0.171-0.76-0.171h-0.501c-0.484,0-0.797,0.054-0.94,0.171c-0.075,0.057-0.129,0.13-0.164,0.227
	c-0.032,0.094-0.05,0.233-0.05,0.417c0.011,0.211,0.029,0.364,0.056,0.458c0.025,0.095,0.088,0.168,0.19,0.222
	c0.083,0.045,0.185,0.08,0.309,0.104c0.122,0.025,0.266,0.04,0.432,0.054c0.167,0.01,0.323,0.021,0.473,0.031
	c0.504,0.033,0.921,0.07,1.246,0.119c0.324,0.05,0.578,0.137,0.748,0.27c0.107,0.084,0.19,0.186,0.251,0.305
	c0.06,0.12,0.106,0.245,0.133,0.375c0.025,0.129,0.042,0.244,0.049,0.336c0.005,0.095,0.012,0.252,0.021,0.478
	C28.312,43.224,28.262,43.534,28.161,43.808z M26.202,8.699c3.221,0.817,5.929,2.898,7.567,5.694h-4.717
	C28.436,11.909,27.443,9.93,26.202,8.699z M33.77,26.782c-1.639,2.794-4.347,4.877-7.567,5.691c1.241-1.229,2.233-3.208,2.851-5.691
	H33.77z M27.998,14.393h-4.31V8.368C25.53,8.729,27.106,11.058,27.998,14.393z M28.238,15.396c0.306,1.435,0.487,3.017,0.518,4.687
	h-5.067v-4.687H28.238z M28.752,21.088c-0.031,1.672-0.213,3.254-0.518,4.688h-4.549v-4.688H28.752z M27.998,26.782
	c-0.892,3.335-2.468,5.662-4.31,6.022v-6.022H27.998z M33.873,43.808c-0.102,0.274-0.248,0.481-0.437,0.621
	c-0.298,0.221-0.905,0.331-1.823,0.331h-0.457c-0.407,0-0.758-0.025-1.056-0.067c-0.293-0.043-0.544-0.156-0.751-0.33
	c-0.15-0.134-0.26-0.28-0.33-0.451c-0.07-0.168-0.112-0.34-0.131-0.522c-0.013-0.179-0.022-0.408-0.022-0.699h1.215
	c0,0.073-0.004,0.132-0.017,0.179c0.007,0.195,0.026,0.342,0.05,0.444c0.023,0.104,0.07,0.187,0.144,0.248
	c0.08,0.077,0.188,0.127,0.324,0.152c0.133,0.026,0.325,0.042,0.57,0.052c0.119,0,0.207,0.007,0.263,0.019
	c0.312-0.016,0.542-0.032,0.7-0.051c0.154-0.017,0.287-0.06,0.393-0.118c0.186-0.113,0.28-0.382,0.28-0.796
	c0-0.294-0.06-0.504-0.177-0.63c-0.04-0.04-0.1-0.073-0.167-0.102c-0.07-0.025-0.137-0.042-0.203-0.054
	c-0.067-0.006-0.157-0.017-0.261-0.023c-0.104-0.006-0.221-0.015-0.354-0.021c-0.224-0.01-0.438-0.017-0.638-0.03
	c-0.2-0.006-0.391-0.022-0.571-0.043c-0.18-0.023-0.36-0.063-0.537-0.118c-0.179-0.057-0.326-0.131-0.444-0.221
	c-0.337-0.245-0.514-0.708-0.536-1.391c0-0.714,0.161-1.212,0.482-1.494c0.334-0.265,0.969-0.398,1.9-0.398
	c0.563,0,0.968,0.015,1.211,0.036c0.391,0.051,0.688,0.161,0.892,0.331c0.211,0.174,0.348,0.381,0.407,0.628
	c0.063,0.245,0.094,0.554,0.094,0.931h-1.231v-0.257c0-0.237-0.04-0.4-0.124-0.49c-0.1-0.114-0.354-0.171-0.765-0.171h-0.501
	c-0.483,0-0.798,0.054-0.941,0.171c-0.073,0.057-0.13,0.13-0.163,0.227c-0.035,0.094-0.047,0.233-0.047,0.417
	c0.01,0.211,0.026,0.364,0.054,0.458c0.024,0.095,0.09,0.168,0.19,0.222c0.083,0.045,0.185,0.08,0.307,0.104
	c0.124,0.025,0.268,0.04,0.435,0.054c0.166,0.01,0.321,0.021,0.471,0.031c0.504,0.033,0.919,0.07,1.246,0.119
	c0.326,0.05,0.578,0.137,0.75,0.27c0.108,0.084,0.19,0.186,0.25,0.305c0.061,0.12,0.107,0.245,0.131,0.375
	c0.026,0.129,0.041,0.244,0.05,0.336c0.003,0.095,0.01,0.252,0.02,0.478C34.023,43.224,33.974,43.534,33.873,43.808z M34.298,25.778
	h-5.02c0.287-1.434,0.449-3.015,0.478-4.687h5.673C35.365,22.76,34.969,24.345,34.298,25.778z M29.757,20.085
	c-0.029-1.674-0.19-3.251-0.474-4.688h5.018c0.673,1.435,1.068,3.018,1.135,4.688H29.757z M41.559,43.658
	c0,1.194-0.819,2.189-1.927,2.477c0-0.02,0.004-0.037,0.004-0.054V7.195c0-1.887-1.531-3.418-3.419-3.418H10.364V2.209h28.63
	c1.416,0,2.564,1.15,2.564,2.564V43.658z M19.873,39.277l1.095,3.313h-2.195l1.095-3.313H19.873z M15.256,39.705
	c0.09,0.167,0.134,0.447,0.134,0.848c-0.01,0.284-0.027,0.479-0.049,0.588c-0.022,0.108-0.091,0.21-0.204,0.304
	c-0.117,0.113-0.403,0.174-0.854,0.174h-1.543v-2.224h1.575c0.274,0,0.482,0.026,0.624,0.07
	C15.08,39.512,15.187,39.595,15.256,39.705z"/>
</svg>
