<?xml version="1.0" encoding="utf-8"?>
<!-- Generator: Adobe Illustrator 16.0.0, SVG Export Plug-In . SVG Version: 6.00 Build 0)  -->
<!DOCTYPE svg PUBLIC "-//W3C//DTD SVG 1.1//EN" "http://www.w3.org/Graphics/SVG/1.1/DTD/svg11.dtd">
<svg version="1.1" id="Layer_1" xmlns="http://www.w3.org/2000/svg" xmlns:xlink="http://www.w3.org/1999/xlink" x="0px" y="0px"
	 width="50px" height="50px" viewBox="0 0 50 50" enable-background="new 0 0 50 50" xml:space="preserve">
<path d="M8.947,22.741c0-0.357,0.132-0.7,0.345-1.021H40.71c0.212,0.321,0.345,0.664,0.345,1.021c0,1.609-2.353,2.97-5.135,2.97
	H14.081C11.299,25.713,8.947,24.351,8.947,22.741z M49.5,23.766c0,1.402-1.001,2.539-2.233,2.539h-0.546
	c0,0.003,0.002,0.005,0.002,0.01c0.296,0.876,0.462,1.833,0.462,2.838v2.974c0,2.909-0.709,5.42-2.312,6.643v3.267
	c0,1.641-1.172,2.971-2.613,2.971h-2.396c-1.442,0-2.613-1.332-2.613-2.971v-2.478H12.751v2.478c0,1.641-1.171,2.971-2.613,2.971
	H7.742c-1.442,0-2.613-1.332-2.613-2.971v-3.267c-1.601-1.223-2.31-3.733-2.31-6.643v-2.974c0-1.003,0.164-1.96,0.458-2.835
	c0-0.003,0.003-0.008,0.003-0.013H2.732c-1.233,0-2.232-1.137-2.232-2.537c0-1.404,0.999-2.541,2.232-2.541h2.177
	c0.079,0,0.152,0.018,0.227,0.026l2.835-7.234c0.896-2.285,3.056-4.008,5.024-4.008h3.126c0.316-2.822,2.368-5.017,4.871-5.017
	h8.015c2.504,0,4.553,2.194,4.872,5.017h3.126c1.935,0,4.145,1.76,5.024,4.006l2.836,7.236c0.074-0.009,0.147-0.026,0.225-0.026
	h2.177C48.499,21.225,49.5,22.361,49.5,23.766z M7.641,22.741c0,2.397,2.828,4.274,6.44,4.274H35.92
	c3.614,0,6.441-1.879,6.441-4.275c0-0.309-0.058-0.857-0.063-0.883c-0.557-2.247-2.699-6.891-2.699-6.891
	c-0.517-1.322-1.818-2.347-2.589-2.347H12.999c-0.772,0-2.072,1.025-2.591,2.349c0,0-1.883,4.315-2.701,6.891
	C7.699,21.883,7.641,22.434,7.641,22.741z M14.874,32.868c0-1.691-1.855-3.068-4.144-3.068c-2.286,0-4.142,1.374-4.142,3.068
	c0,1.692,1.855,3.066,4.142,3.066C13.019,35.934,14.874,34.561,14.874,32.868z M43.413,32.868c0-1.691-1.853-3.068-4.142-3.068
	c-2.287,0-4.143,1.374-4.143,3.068c0,1.692,1.855,3.066,4.143,3.066C41.561,35.934,43.413,34.561,43.413,32.868z"/>
</svg>
